<?xml version="1.0" encoding="UTF-8" standalone="no"?>
<svg
   xmlns:dc="http://purl.org/dc/elements/1.1/"
   xmlns:cc="http://creativecommons.org/ns#"
   xmlns:rdf="http://www.w3.org/1999/02/22-rdf-syntax-ns#"
   xmlns:svg="http://www.w3.org/2000/svg"
   xmlns="http://www.w3.org/2000/svg"
   xmlns:sodipodi="http://sodipodi.sourceforge.net/DTD/sodipodi-0.dtd"
   xmlns:inkscape="http://www.inkscape.org/namespaces/inkscape"
   width="40.64mm"
   height="128.5mm"
   version="1.1"
   viewBox="0 0 40.64 128.5"
   id="svg1338"
   sodipodi:docname="polyturing.svg"
   inkscape:version="0.92.4 (5da689c313, 2019-01-14)">
  <metadata
     id="metadata1344">
    <rdf:RDF>
      <cc:Work
         rdf:about="">
        <dc:format>image/svg+xml</dc:format>
        <dc:type
           rdf:resource="http://purl.org/dc/dcmitype/StillImage" />
        <dc:title />
      </cc:Work>
    </rdf:RDF>
  </metadata>
  <defs
     id="defs1342" />
  <sodipodi:namedview
     pagecolor="#ffffff"
     bordercolor="#666666"
     borderopacity="1"
     objecttolerance="10"
     gridtolerance="10"
     guidetolerance="10"
     inkscape:pageopacity="0"
     inkscape:pageshadow="2"
     inkscape:window-width="1920"
     inkscape:window-height="1001"
     id="namedview1340"
     showgrid="false"
     inkscape:zoom="13.935408"
     inkscape:cx="42.45186"
     inkscape:cy="460.1603"
     inkscape:window-x="-9"
     inkscape:window-y="-9"
     inkscape:window-maximized="1"
     inkscape:current-layer="svg1338" />
  <path
     style="fill:#007ab5;stroke:#231f20;stroke-width:0.35278001;stroke-miterlimit:10"
     inkscape:connector-curvature="0"
     id="path815"
     stroke-miterlimit="10"
     d="m 0.17639,-0.23 h 40.64 v 128.5 h -40.64 z" />
  <g
     style="stroke:#111111;stroke-miterlimit:10"
     id="g841"
     stroke-miterlimit="10"
     transform="matrix(0.35278,0,0,0.35278,0.17639,-0.18)">
    <path
       style="fill:#231f20;stroke-width:0.75px"
       inkscape:connector-curvature="0"
       id="path817"
       d="m 9.94,249.42 v -8.16" />
    <path
       style="fill:none;stroke-width:0.75px"
       inkscape:connector-curvature="0"
       id="path819"
       d="m 3.11,261.71 a 7.84,7.84 0 0 1 -1.1,-4 7.93,7.93 0 0 1 15.85,0 7.84,7.84 0 0 1 -1.1,4" />
    <g
       style="fill:none;stroke-width:0.25px"
       id="g825">
      <path
         inkscape:connector-curvature="0"
         id="path821"
         d="m 15.91,263.7 h 2.06" />
      <path
         inkscape:connector-curvature="0"
         id="path823"
         d="m 16.94,264.72 v -2.05" />
    </g>
    <path
       style="fill:none;stroke-width:0.25px"
       inkscape:connector-curvature="0"
       id="path827"
       d="M 1.91,263.7 H 3.97" />
    <path
       style="fill:#231f20;stroke-width:0.75px"
       inkscape:connector-curvature="0"
       id="path829"
       d="m 25.25,261.16 v -19.9" />
    <path
       style="fill:none;stroke-width:0.75px"
       inkscape:connector-curvature="0"
       id="path831"
       d="m 18.43,273.45 a 7.84,7.84 0 0 1 -1.1,-4 7.93,7.93 0 0 1 15.85,0 7.84,7.84 0 0 1 -1.1,4" />
    <g
       style="fill:none;stroke-width:0.25px"
       id="g837">
      <path
         inkscape:connector-curvature="0"
         id="path833"
         d="m 31.23,275.43 h 2.05" />
      <path
         inkscape:connector-curvature="0"
         id="path835"
         d="M 32.25,276.46 V 274.4" />
    </g>
    <path
       style="fill:none;stroke-width:0.25px"
       inkscape:connector-curvature="0"
       id="path839"
       d="m 17.23,275.43 h 2.05" />
  </g>
  <g
     style="stroke:#111111;stroke-miterlimit:10"
     id="g867"
     stroke-miterlimit="10"
     transform="matrix(0.35278,0,0,0.35278,0.17639,-0.18)">
    <path
       style="fill:#231f20;stroke-width:0.75px"
       inkscape:connector-curvature="0"
       id="path843"
       d="m 49.94,249.47 v -8.16" />
    <path
       style="fill:none;stroke-width:0.75px"
       inkscape:connector-curvature="0"
       id="path845"
       d="m 43.12,261.76 a 7.84,7.84 0 0 1 -1.1,-4 7.93,7.93 0 0 1 15.85,0 7.84,7.84 0 0 1 -1.1,4" />
    <g
       style="fill:none;stroke-width:0.25px"
       id="g851">
      <path
         inkscape:connector-curvature="0"
         id="path847"
         d="m 55.92,263.74 h 2.05" />
      <path
         inkscape:connector-curvature="0"
         id="path849"
         d="m 56.94,264.77 v -2.05" />
    </g>
    <path
       style="fill:none;stroke-width:0.25px"
       inkscape:connector-curvature="0"
       id="path853"
       d="m 41.92,263.74 h 2.05" />
    <path
       style="fill:#231f20;stroke-width:0.75px"
       inkscape:connector-curvature="0"
       id="path855"
       d="M 65.26,261.2 V 241.31" />
    <path
       style="fill:none;stroke-width:0.75px"
       inkscape:connector-curvature="0"
       id="path857"
       d="m 58.43,273.49 a 7.84,7.84 0 0 1 -1.1,-4 7.93,7.93 0 0 1 15.85,0 7.84,7.84 0 0 1 -1.1,4" />
    <g
       style="fill:none;stroke-width:0.25px"
       id="g863">
      <path
         inkscape:connector-curvature="0"
         id="path859"
         d="m 71.23,275.48 h 2.05" />
      <path
         inkscape:connector-curvature="0"
         id="path861"
         d="m 72.26,276.5 v -2.05" />
    </g>
    <path
       style="fill:none;stroke-width:0.25px"
       inkscape:connector-curvature="0"
       id="path865"
       d="m 57.23,275.48 h 2.05" />
  </g>
  <g
     style="stroke:#111111;stroke-miterlimit:10"
     id="g893"
     stroke-miterlimit="10"
     transform="matrix(0.35278,0,0,0.35278,0.17639,-0.18)">
    <path
       style="fill:#231f20;stroke-width:0.75px"
       inkscape:connector-curvature="0"
       id="path869"
       d="m 88.7,249.47 v -8.16" />
    <path
       style="fill:none;stroke-width:0.75px"
       inkscape:connector-curvature="0"
       id="path871"
       d="m 81.88,261.76 a 7.84,7.84 0 0 1 -1.1,-4 7.93,7.93 0 0 1 15.85,0 7.84,7.84 0 0 1 -1.1,4" />
    <g
       style="fill:none;stroke-width:0.25px"
       id="g877">
      <path
         inkscape:connector-curvature="0"
         id="path873"
         d="m 94.67,263.74 h 2.06" />
      <path
         inkscape:connector-curvature="0"
         id="path875"
         d="m 95.7,264.77 v -2.05" />
    </g>
    <path
       style="fill:none;stroke-width:0.25px"
       inkscape:connector-curvature="0"
       id="path879"
       d="m 80.67,263.74 h 2.06" />
    <path
       style="fill:#231f20;stroke-width:0.75px"
       inkscape:connector-curvature="0"
       id="path881"
       d="M 104.01,261.2 V 241.31" />
    <path
       style="fill:none;stroke-width:0.75px"
       inkscape:connector-curvature="0"
       id="path883"
       d="m 97.19,273.49 a 7.84,7.84 0 0 1 -1.1,-4 7.93,7.93 0 0 1 15.85,0 7.84,7.84 0 0 1 -1.1,4" />
    <g
       style="fill:none;stroke-width:0.25px"
       id="g889">
      <path
         inkscape:connector-curvature="0"
         id="path885"
         d="m 109.99,275.48 h 2.05" />
      <path
         inkscape:connector-curvature="0"
         id="path887"
         d="m 111.01,276.5 v -2.05" />
    </g>
    <path
       style="fill:none;stroke-width:0.25px"
       inkscape:connector-curvature="0"
       id="path891"
       d="m 95.99,275.48 h 2.05" />
  </g>
  <path
     style="fill:none;stroke:#231f20;stroke-width:0.26458001px;stroke-miterlimit:10"
     inkscape:connector-curvature="0"
     id="path895"
     stroke-miterlimit="10"
     d="m 20.496,55.89 v 4.4591" />
  <path
     style="fill:none;stroke:#231f20;stroke-width:0.26458001px;stroke-miterlimit:10"
     inkscape:connector-curvature="0"
     id="path897"
     stroke-miterlimit="10"
     d="M 12.527,63.53 H 4.6248" />
  <path
     style="fill:none;stroke:#231f20;stroke-width:0.26458001px;stroke-miterlimit:10"
     inkscape:connector-curvature="0"
     id="path899"
     stroke-miterlimit="10"
     d="m 18.168,63.5 c 0,0 2.346,0.55386 2.346,-3.3338" />
  <g
     style="fill:none;stroke:#111111;stroke-miterlimit:10"
     id="g911"
     stroke-miterlimit="10"
     transform="matrix(0.35278,0,0,0.35278,0.17639,-0.18)">
    <path
       style="stroke-width:0.75px"
       inkscape:connector-curvature="0"
       id="path901"
       d="m 36.21,184.28 a 7.84,7.84 0 0 1 -1.1,-4 7.93,7.93 0 0 1 15.85,0 7.84,7.84 0 0 1 -1.1,4" />
    <g
       style="stroke-width:0.25px"
       id="g907">
      <path
         inkscape:connector-curvature="0"
         id="path903"
         d="m 49.01,186.27 h 2.05" />
      <path
         inkscape:connector-curvature="0"
         id="path905"
         d="m 50.03,187.29 v -2.05" />
    </g>
    <path
       style="stroke-width:0.25px"
       inkscape:connector-curvature="0"
       id="path909"
       d="m 35.01,186.27 h 2.05" />
  </g>
  <path
     style="fill:none;stroke:#231f20;stroke-width:0.26458001px;stroke-miterlimit:10"
     inkscape:connector-curvature="0"
     id="path913"
     stroke-miterlimit="10"
     d="m 20.186,22.87 c 0,-2.5365 -1.9544,-4.5861 -4.3639,-4.5861 h -4.8895" />
  <path
     style="fill:none;stroke:#231f20;stroke-width:0.26458001px;stroke-miterlimit:10"
     inkscape:connector-curvature="0"
     id="path915"
     stroke-miterlimit="10"
     d="m 20.673,22.87 c 0,-2.5365 1.9509,-4.5861 4.3639,-4.5861 h 5.0236" />
  <path
     style="fill:#231f20;stroke:#231f20;stroke-width:0.26458001px;stroke-miterlimit:10"
     inkscape:connector-curvature="0"
     id="path917"
     stroke-miterlimit="10"
     d="M 22.313,22.87 A 1.8838,1.8838 0 0 1 20.4292,24.7538 1.8838,1.8838 0 0 1 18.5454,22.87 1.8838,1.8838 0 0 1 20.4292,20.9862 1.8838,1.8838 0 0 1 22.313,22.87 Z" />
  <path
     style="fill:none;stroke:#231f20;stroke-width:0.27592px;stroke-miterlimit:10"
     inkscape:connector-curvature="0"
     id="path919"
     stroke-miterlimit="10"
     d="m 20.429,23.73 v 7.288" />
  <g
     id="g925"
     transform="matrix(0.35278,0,0,0.35278,0.17639,-0.18)">
    <path
       style="fill:#282828"
       inkscape:connector-curvature="0"
       id="path921"
       d="m 17.6,218 c -0.3,0 -0.57,-0.69 -0.57,-1 a 0.57,0.57 0 0 1 0.57,-0.57 0.56,0.56 0 0 1 0.56,0.57 c 0,0.35 -0.27,1 -0.56,1 z" />
    <path
       style="fill:#231f20"
       inkscape:connector-curvature="0"
       id="path923"
       d="m 17.6,216.51 a 0.51,0.51 0 0 1 0.51,0.52 c 0,0.33 -0.27,1 -0.51,1 -0.24,0 -0.52,-0.64 -0.52,-1 a 0.52,0.52 0 0 1 0.52,-0.52 m 0,-0.1 A 0.62,0.62 0 0 0 17,217 c 0,0.34 0.28,1.07 0.62,1.07 0.34,0 0.61,-0.73 0.61,-1.07 a 0.61,0.61 0 0 0 -0.61,-0.62 z" />
  </g>
  <g
     id="g931"
     transform="matrix(0.35278,0,0,0.35278,0.17639,-0.18)">
    <path
       style="fill:#282828"
       inkscape:connector-curvature="0"
       id="path927"
       d="m 57.6,218 c -0.3,0 -0.56,-0.69 -0.56,-1 a 0.56,0.56 0 1 1 1.12,0 c 0,0.35 -0.26,1 -0.56,1 z" />
    <path
       style="fill:#231f20"
       inkscape:connector-curvature="0"
       id="path929"
       d="m 57.6,216.51 a 0.51,0.51 0 0 1 0.51,0.52 c 0,0.33 -0.27,1 -0.51,1 -0.24,0 -0.51,-0.64 -0.51,-1 a 0.51,0.51 0 0 1 0.51,-0.52 m 0,-0.1 A 0.61,0.61 0 0 0 57,217 c 0,0.34 0.27,1.07 0.61,1.07 0.34,0 0.61,-0.73 0.61,-1.07 a 0.61,0.61 0 0 0 -0.61,-0.62 z" />
  </g>
  <g
     id="g937"
     transform="matrix(0.35278,0,0,0.35278,0.17639,-0.18)">
    <path
       style="fill:#282828"
       inkscape:connector-curvature="0"
       id="path933"
       d="m 96.36,218 c -0.3,0 -0.57,-0.69 -0.57,-1 a 0.57,0.57 0 0 1 0.57,-0.57 0.56,0.56 0 0 1 0.56,0.57 c 0,0.35 -0.27,1 -0.56,1 z" />
    <path
       style="fill:#231f20"
       inkscape:connector-curvature="0"
       id="path935"
       d="m 96.36,216.51 a 0.51,0.51 0 0 1 0.51,0.52 c 0,0.33 -0.27,1 -0.51,1 -0.24,0 -0.52,-0.64 -0.52,-1 a 0.52,0.52 0 0 1 0.52,-0.52 m 0,-0.1 a 0.62,0.62 0 0 0 -0.62,0.62 c 0,0.34 0.28,1.07 0.62,1.07 0.34,0 0.61,-0.73 0.61,-1.07 a 0.61,0.61 0 0 0 -0.61,-0.62 z" />
  </g>
  <path
     style="fill:none;stroke:#231f20;stroke-width:0.26458001px;stroke-miterlimit:10"
     inkscape:connector-curvature="0"
     id="path939"
     stroke-miterlimit="10"
     d="m 14.238,98.05 c 0,-1.9756 -1.0372,-3.5736 -2.3213,-3.5736" />
  <path
     style="fill:none;stroke:#231f20;stroke-width:0.26458001px;stroke-miterlimit:10"
     inkscape:connector-curvature="0"
     id="path941"
     stroke-miterlimit="10"
     d="m 14.242,98.05 a 3.5701,3.5701 0 0 1 3.5736,-3.5736" />
  <path
     style="fill:none;stroke:#231f20;stroke-width:0.26458001px;stroke-miterlimit:10"
     inkscape:connector-curvature="0"
     id="path943"
     stroke-miterlimit="10"
     d="m 17.812,94.47 h 2.607" />
  <path
     style="fill:none;stroke:#111111;stroke-width:0.17639001px;stroke-miterlimit:10"
     inkscape:connector-curvature="0"
     id="path945"
     stroke-miterlimit="10"
     d="M 13.335,99.61 A 1.0583,1.0583 0 1 1 15.2929,99.0773 1.016,1.016 0 0 1 15.14473,99.61" />
  <path
     style="stroke-width:0.35278001"
     inkscape:connector-curvature="0"
     id="path947"
     d="M 15.032,99.07 A 0.79022,0.79022 0 0 1 14.24178,99.86022 0.79022,0.79022 0 0 1 13.45156,99.07 0.79022,0.79022 0 0 1 14.24178,98.27978 0.79022,0.79022 0 0 1 15.032,99.07 Z" />
  <path
     style="fill:none;stroke:#231f20;stroke-width:0.26458001px;stroke-miterlimit:10"
     inkscape:connector-curvature="0"
     id="path949"
     stroke-miterlimit="10"
     d="m 28.374,98.05 a 3.5701,3.5701 0 0 1 3.5736,-3.5736" />
  <path
     style="fill:none;stroke:#111111;stroke-width:0.17639001px;stroke-miterlimit:10"
     inkscape:connector-curvature="0"
     id="path951"
     stroke-miterlimit="10"
     d="m 27.467,99.61 a 1.0583,1.0583 0 1 1 1.8133,0" />
  <path
     style="stroke-width:0.35278001"
     inkscape:connector-curvature="0"
     id="path953"
     d="M 29.164,99.07 A 0.79022,0.79022 0 0 1 28.37378,99.86022 0.79022,0.79022 0 0 1 27.58356,99.07 0.79022,0.79022 0 0 1 28.37378,98.27978 0.79022,0.79022 0 0 1 29.164,99.07 Z" />
  <path
     style="fill:none;stroke:#231f20;stroke-width:0.26458001px;stroke-miterlimit:10"
     inkscape:connector-curvature="0"
     id="path955"
     stroke-miterlimit="10"
     d="M 31.948,94.47 H 34.04" />
  <path
     style="fill:none;stroke:#231f20;stroke-width:0.26458001px;stroke-miterlimit:10"
     inkscape:connector-curvature="0"
     id="path957"
     stroke-miterlimit="10"
     d="m 14.242,99.87 v 15.064" />
  <path
     style="fill:none;stroke:#231f20;stroke-width:0.26458001px;stroke-miterlimit:10"
     inkscape:connector-curvature="0"
     id="path959"
     stroke-miterlimit="10"
     d="m 28.374,99.87 v 3.937" />
  <path
     style="fill:none;stroke:#231f20;stroke-width:0.26458001px;stroke-miterlimit:10"
     inkscape:connector-curvature="0"
     id="path961"
     stroke-miterlimit="10"
     d="m 14.242,114.93 a 4.4732,4.4732 0 0 0 4.4768,4.4873" />
  <path
     style="fill:none;stroke:#231f20;stroke-width:0.26458001px;stroke-miterlimit:10"
     inkscape:connector-curvature="0"
     id="path963"
     stroke-miterlimit="10"
     d="M 24.105,108.08 H 16.3439" />
  <path
     style="fill:none;stroke:#231f20;stroke-width:0.26458001px;stroke-miterlimit:10"
     inkscape:connector-curvature="0"
     id="path965"
     stroke-miterlimit="10"
     d="m 14.238,110.24 a 2.1449,2.1449 0 0 1 2.1449,-2.1449" />
  <path
     style="fill:none;stroke:#231f20;stroke-width:0.26458001px;stroke-miterlimit:10"
     inkscape:connector-curvature="0"
     id="path967"
     stroke-miterlimit="10"
     d="m 28.374,103.8 a 4.2721,4.2721 0 0 1 -4.2686,4.2827" />
  <path
     style="fill:#225aa9;stroke-width:0.35278001"
     d="M 2.2436808,5.6091198 H 2.64585 v 0.6067816 a 2.4377098,2.4377098 0 0 1 1.9614568,-0.9913118 2.3318758,2.3318758 0 0 1 1.7145108,0.70556 2.4235986,2.4235986 0 0 1 0,3.4254938 A 2.3248202,2.3248202 0 0 1 4.6073068,10.061203 2.3177646,2.3177646 0 0 1 2.8963238,9.3556434 2.11668,2.11668 0 0 1 2.64585,9.062836 v 2.53296 H 2.2436808 Z M 2.64585,7.22838 V 8.057413 A 1.869734,1.869734 0 0 0 3.1891312,9.0557804 1.94029,1.94029 0 0 0 4.6002512,9.644923 2.0002626,2.0002626 0 0 0 6.6040416,7.6411326 2.0037904,2.0037904 0 0 0 4.6002512,5.6338144 1.94029,1.94029 0 0 0 3.1891312,6.222957 1.887373,1.887373 0 0 0 2.64585,7.22838 Z"
     id="path969"
     inkscape:connector-curvature="0" />
  <path
     style="fill:#225aa9;stroke-width:0.35278001"
     d="m 13.843087,2.8786026 v 7.0556 h -0.398641 v -7.0556 z"
     id="path973"
     inkscape:connector-curvature="0" />
  <path
     style="fill:#225aa9;stroke-width:0.35278001"
     d="m 15.416486,11.592269 h -0.444503 l 1.146535,-2.4518214 -1.65101,-3.5278 h 0.444503 l 1.41112,3.0268524 1.41112,-3.0268524 h 0.444502 z"
     id="path975"
     inkscape:connector-curvature="0" />
  <path
     style="fill:#225aa9;stroke-width:0.35278001"
     d="M 19.328816,5.6091198 V 3.7640804 h 0.395114 v 1.8450394 h 0.885478 V 6.0077612 H 19.72393 V 9.944786 H 19.328816 V 6.0077612 h -0.88195 V 5.6091198 Z"
     id="path977"
     inkscape:connector-curvature="0" />
  <path
     style="fill:#225aa9;stroke-width:0.35278001"
     d="M 22.990673,10.004759 A 1.7639,1.7639 0 0 1 21.69597,9.5249778 1.7145108,1.7145108 0 0 1 21.202078,8.3114146 V 5.6020642 h 0.398641 V 8.28672 a 1.2594246,1.2594246 0 0 0 0.40217,0.9383948 1.3370362,1.3370362 0 0 0 0.984256,0.3951136 1.3017582,1.3017582 0 0 0 0.94545,-0.3915858 A 1.2770636,1.2770636 0 0 0 24.331237,8.28672 V 5.6020642 h 0.398641 v 2.7093504 a 1.7145108,1.7145108 0 0 1 -0.493892,1.2135632 1.693344,1.693344 0 0 1 -1.245313,0.4797812 z"
     id="path979"
     inkscape:connector-curvature="0" />
  <path
     style="fill:#225aa9;stroke-width:0.35278001"
     d="m 27.192282,5.958372 a 1.41112,1.41112 0 0 0 -0.83256,0.5397534 1.4569814,1.4569814 0 0 0 -0.412753,0.9560338 V 9.944786 H 25.548328 V 5.6091198 h 0.398641 V 6.5475146 A 1.7215664,1.7215664 0 0 1 26.98767,5.5738418 Z"
     id="path981"
     inkscape:connector-curvature="0" />
  <path
     style="fill:#225aa9;stroke-width:0.35278001"
     d="m 28.264734,4.1874164 a 0.3774746,0.3774746 0 0 1 0.116417,0.2751684 0.3986414,0.3986414 0 1 1 -0.793755,0 0.3774746,0.3774746 0 0 1 0.116417,-0.2751684 0.405697,0.405697 0 0 1 0.560921,0 z m -0.08467,1.41112 V 9.944786 H 27.784953 V 5.6091198 Z"
     id="path983"
     inkscape:connector-curvature="0" />
  <path
     style="fill:#225aa9;stroke-width:0.35278001"
     d="M 29.668798,6.575737 V 9.944786 H 29.270157 V 5.6091198 h 0.398641 V 5.887816 a 1.7250942,1.7250942 0 0 1 1.259425,-0.5397534 1.6651216,1.6651216 0 0 1 1.742733,1.693344 V 9.944786 H 32.27937 V 7.0802124 a 1.252369,1.252369 0 0 0 -0.398641,-0.9419226 1.3440918,1.3440918 0 0 0 -1.890901,0 1.4887316,1.4887316 0 0 0 -0.32103,0.4374472 z"
     id="path985"
     inkscape:connector-curvature="0" />
  <path
     style="fill:#225aa9;stroke-width:0.35278001"
     d="m 37.807433,9.0840028 c -0.07761,0.095251 -0.155224,0.1834456 -0.239891,0.2716406 A 2.4271264,2.4271264 0 0 1 33.425905,7.6446604 2.4306542,2.4306542 0 0 1 37.57107,5.9266218 2.8539902,2.8539902 0 0 1 37.821544,6.222957 V 5.6091198 h 0.398641 V 8.99228 a 2.2542642,2.2542642 0 0 1 -0.70556,1.668649 2.3248202,2.3248202 0 0 1 -1.710983,0.70556 2.3530426,2.3530426 0 0 1 -1.721566,-0.70556 2.8998516,2.8998516 0 0 1 -0.25753,-0.299863 l 0.419809,-0.155223 a 1.481676,1.481676 0 0 0 0.144639,0.155223 2.0037904,2.0037904 0 0 0 3.411383,-1.2594242 z m 0,-1.852095 A 2.0037904,2.0037904 0 1 0 34.431328,9.062836 2.0073182,2.0073182 0 0 0 37.807433,8.0644686 Z"
     id="path987"
     inkscape:connector-curvature="0" />
  <path
     style="fill:#225aa9;stroke-width:0.35278001"
     d="m 28.878571,26.825309 0.289279,0.105834 a 1.6263158,1.6263158 0 0 1 -0.179917,0.204612 1.6651216,1.6651216 0 0 1 -2.363626,0 1.6721772,1.6721772 0 1 1 2.543543,-2.159013 l -0.289279,0.105834 -0.09525,-0.109362 a 1.3476196,1.3476196 0 0 0 -0.980728,-0.402169 1.3828976,1.3828976 0 1 0 0.980728,2.35657 c 0.03175,-0.03175 0.06703,-0.06703 0.09525,-0.102306 z"
     id="path989"
     inkscape:connector-curvature="0" />
  <path
     style="fill:#225aa9;stroke-width:0.35278001"
     d="M 30.000411,22.673088 V 27.54498 H 29.725243 V 22.673088 Z"
     id="path991"
     inkscape:connector-curvature="0" />
  <path
     style="fill:#225aa9;stroke-width:0.35278001"
     d="m 32.300537,24.285293 a 1.6721772,1.6721772 0 1 1 -1.181813,2.85399 1.6721772,1.6721772 0 0 1 1.181813,-2.85399 z m -0.977201,0.70556 a 1.3793698,1.3793698 0 1 0 0.977201,-0.405697 1.3299806,1.3299806 0 0 0 -0.977201,0.395114 z"
     id="path993"
     inkscape:connector-curvature="0" />
  <path
     style="fill:#225aa9;stroke-width:0.35278001"
     d="m 37.144206,26.825309 0.28928,0.105834 a 1.6263158,1.6263158 0 0 1 -0.179918,0.204612 1.6651216,1.6651216 0 0 1 -2.363626,0 1.6721772,1.6721772 0 1 1 2.543544,-2.159013 l -0.28928,0.105834 -0.09878,-0.109362 a 1.3828976,1.3828976 0 1 0 0,1.954401 z"
     id="path995"
     inkscape:connector-curvature="0" />
  <path
     style="fill:#225aa9;stroke-width:0.35278001"
     d="m 39.409054,24.553406 -0.73731,0.9137 1.174757,2.077874 h -0.35278 l -1.016006,-1.85915 -0.268113,0.331613 v 1.527537 h -0.275169 v -4.261582 h 0.275169 v 2.289542 l 0.832561,-1.02659 z"
     id="path997"
     inkscape:connector-curvature="0" />
  <path
     style="fill:#225aa9;stroke-width:0.35278001"
     d="m 29.915744,74.344775 a 1.7039274,1.7039274 0 0 1 -0.35278,-0.243418 0.5362256,0.5362256 0 0 1 0,-0.762005 0.5326978,0.5326978 0 0 1 0.747894,0 0.4480306,0.4480306 0 0 1 0.141112,0.324558 l -0.17639,0.07408 a 0.458614,0.458614 0 0 0 -0.109362,-0.261057 0.2928074,0.2928074 0 0 0 -0.225779,-0.08819 0.35278,0.35278 0 0 0 -0.331614,0.331613 0.3210298,0.3210298 0 0 0 0.09878,0.236363 1.3335084,1.3335084 0 0 0 0.23989,0.17639 1.887373,1.887373 0 0 1 0.416281,0.282224 0.6491152,0.6491152 0 0 1 0.194029,0.46567 0.6596986,0.6596986 0 0 1 -0.194029,0.476253 0.670282,0.670282 0 0 1 -0.941923,0 0.599726,0.599726 0 0 1 -0.194029,-0.430392 l 0.204612,-0.04939 a 0.4445028,0.4445028 0 0 0 0.137585,0.331613 0.4339194,0.4339194 0 0 0 0.321029,0.137584 0.4480306,0.4480306 0 0 0 0.328086,-0.137584 0.4339194,0.4339194 0 0 0 0.134056,-0.328085 0.423336,0.423336 0 0 0 -0.134056,-0.32103 2.0390684,2.0390684 0 0 0 -0.303391,-0.215196 z"
     id="path999"
     inkscape:connector-curvature="0" />
  <path
     style="fill:#225aa9;stroke-width:0.35278001"
     d="m 31.28453,73.304074 v -0.952506 h 0.204613 v 0.952506 h 0.455086 v 0.20814 h -0.455086 v 2.035541 H 31.28453 v -2.035541 h -0.458614 v -0.20814 z"
     id="path1001"
     inkscape:connector-curvature="0" />
  <path
     style="fill:#225aa9;stroke-width:0.35278001"
     d="m 32.385204,74.25658 v 0.116417 a 1.0371732,1.0371732 0 0 0 1.7639,0.730255 1.4534536,1.4534536 0 0 0 0.09878,-0.109362 l 0.218724,0.07761 a 1.1430072,1.1430072 0 0 1 -0.162279,0.186973 1.2558968,1.2558968 0 1 1 0,-1.7639 1.05834,1.05834 0 0 1 0.32103,0.772588 z m 0.03881,-0.20814 h 1.97204 a 0.934867,0.934867 0 0 0 -0.243418,-0.409225 1.040701,1.040701 0 0 0 -1.467565,0 1.05834,1.05834 0 0 0 -0.261057,0.395114 z"
     id="path1003"
     inkscape:connector-curvature="0" />
  <path
     style="fill:#225aa9;stroke-width:0.35278001"
     d="m 34.95697,73.304074 h 0.20814 v 0.317502 a 1.2594246,1.2594246 0 0 1 0.127001,-0.151695 1.2558968,1.2558968 0 0 1 1.7639,1.7639 1.2029798,1.2029798 0 0 1 -0.885478,0.35278 1.217091,1.217091 0 0 1 -0.889005,-0.35278 1.2594246,1.2594246 0 0 1 -0.127001,-0.151696 v 1.312342 h -0.20814 z m 0.20814,0.839616 v 0.430392 a 0.9454504,0.9454504 0 0 0 0.282224,0.518587 1.0371732,1.0371732 0 1 0 0,-1.467565 0.970145,0.970145 0 0 0 -0.282224,0.518586 z"
     id="path1005"
     inkscape:connector-curvature="0" />
  <path
     style="fill:#225aa9;stroke-width:0.35278001"
     d="m 38.424798,74.344775 a 1.852095,1.852095 0 0 1 -0.35278,-0.243418 0.546809,0.546809 0 0 1 0,-0.762005 0.5185866,0.5185866 0 0 1 0.381002,-0.158751 0.5009476,0.5009476 0 0 1 0.35278,0.148168 0.4480306,0.4480306 0 0 1 0.141112,0.324557 l -0.17639,0.07408 a 0.458614,0.458614 0 0 0 -0.109362,-0.261057 0.2928074,0.2928074 0 0 0 -0.225779,-0.08819 0.3316132,0.3316132 0 0 0 -0.331613,0.331613 0.3316132,0.3316132 0 0 0 0.09525,0.236363 1.5663432,1.5663432 0 0 0 0.243419,0.17639 1.887373,1.887373 0 0 1 0.41628,0.282224 0.6491152,0.6491152 0 0 1 0.194029,0.465669 0.6632264,0.6632264 0 0 1 -0.666754,0.670282 0.6491152,0.6491152 0 0 1 -0.469198,-0.194029 0.599726,0.599726 0 0 1 -0.194029,-0.430391 l 0.204613,-0.04939 a 0.4550862,0.4550862 0 0 0 0.134056,0.331614 0.4621418,0.4621418 0 0 0 0.7867,-0.328086 0.4374472,0.4374472 0 0 0 -0.134057,-0.32103 2.0390684,2.0390684 0 0 0 -0.289279,-0.204612 z"
     id="path1007"
     inkscape:connector-curvature="0" />
  <path
     style="fill:#225aa9;stroke-width:0.35278001"
     d="m 16.845245,73.102989 a 1.2558968,1.2558968 0 0 1 0.889006,2.141375 1.2558968,1.2558968 0 0 1 -1.7639,0 1.2558968,1.2558968 0 0 1 0.885477,-2.141375 z m -0.733782,0.522115 a 1.040701,1.040701 0 1 0 0.733782,-0.303391 1.0089508,1.0089508 0 0 0 -0.733782,0.303391 z"
     id="path1009"
     inkscape:connector-curvature="0" />
  <path
     style="fill:#225aa9;stroke-width:0.35278001"
     d="m 18.774952,73.512214 v 2.035541 h -0.204613 v -2.035541 h -0.229307 v -0.20814 h 0.229307 v -0.606782 a 0.6667542,0.6667542 0 0 1 0.194029,-0.437447 0.6244206,0.6244206 0 0 1 0.430392,-0.172862 0.8713666,0.8713666 0 0 1 0.27164,0.04939 l -0.06703,0.183446 a 0.5044754,0.5044754 0 0 0 -0.183445,-0.03881 0.4621418,0.4621418 0 0 0 -0.306919,0.127001 0.4550862,0.4550862 0 0 0 -0.134056,0.306918 v 0.589143 h 0.451558 v 0.20814 z"
     id="path1011"
     inkscape:connector-curvature="0" />
  <path
     style="fill:#225aa9;stroke-width:0.35278001"
     d="m 19.766263,73.512214 v 2.035541 h -0.20814 v -2.035541 h -0.225779 v -0.20814 h 0.225779 v -0.606782 a 0.6667542,0.6667542 0 0 1 0.194029,-0.437447 0.635004,0.635004 0 0 1 0.430392,-0.172862 0.8537276,0.8537276 0 0 1 0.27164,0.04939 l -0.0635,0.183446 a 0.5221144,0.5221144 0 0 0 -0.186973,-0.03881 0.4515584,0.4515584 0 0 0 -0.303391,0.127001 0.4374472,0.4374472 0 0 0 -0.134057,0.306918 v 0.589143 h 0.455087 v 0.20814 z"
     id="path1013"
     inkscape:connector-curvature="0" />
  <path
     style="fill:#225aa9;stroke-width:0.35278001"
     d="m 21.099772,74.344775 a 1.7039274,1.7039274 0 0 1 -0.35278,-0.243418 0.5397534,0.5397534 0 0 1 0.373947,-0.903117 0.493892,0.493892 0 0 1 0.35278,0.148168 0.4515584,0.4515584 0 0 1 0.144639,0.324557 l -0.179917,0.07408 a 0.4374472,0.4374472 0 0 0 -0.109362,-0.261057 0.2892796,0.2892796 0 0 0 -0.222252,-0.08819 0.3139742,0.3139742 0 0 0 -0.236362,0.09878 0.3069186,0.3069186 0 0 0 -0.09878,0.232835 0.3210298,0.3210298 0 0 0 0.09878,0.236363 1.4852038,1.4852038 0 0 0 0.23989,0.17639 1.887373,1.887373 0 0 1 0.416281,0.282224 0.635004,0.635004 0 0 1 0.194029,0.465669 0.6667542,0.6667542 0 0 1 -1.135952,0.476253 0.6138372,0.6138372 0 0 1 -0.194029,-0.430391 l 0.204612,-0.04939 a 0.4445028,0.4445028 0 0 0 0.137585,0.331614 0.4339194,0.4339194 0 0 0 0.324557,0.137584 0.4445028,0.4445028 0 0 0 0.324558,-0.137584 0.4374472,0.4374472 0 0 0 0.137584,-0.328086 0.4268638,0.4268638 0 0 0 -0.137584,-0.32103 2.0390684,2.0390684 0 0 0 -0.282224,-0.222251 z"
     id="path1015"
     inkscape:connector-curvature="0" />
  <path
     style="fill:#225aa9;stroke-width:0.35278001"
     d="m 22.28864,74.25658 a 0.6208928,0.6208928 0 0 0 0,0.116417 1.0371732,1.0371732 0 0 0 1.7639,0.730255 1.4534536,1.4534536 0 0 0 0.09878,-0.109362 l 0.218723,0.07761 a 1.1430072,1.1430072 0 0 1 -0.162278,0.186973 1.2558968,1.2558968 0 1 1 0,-1.7639 1.05834,1.05834 0 0 1 0.310446,0.762005 z m 0.03881,-0.20814 h 1.968513 a 0.9772006,0.9772006 0 0 0 -0.246946,-0.409225 1.040701,1.040701 0 0 0 -1.467565,0 1.05834,1.05834 0 0 0 -0.254002,0.395114 z"
     id="path1017"
     inkscape:connector-curvature="0" />
  <path
     style="fill:#225aa9;stroke-width:0.35278001"
     d="m 25.16027,73.304074 v -0.952506 h 0.204612 v 0.952506 h 0.458614 v 0.20814 h -0.458614 v 2.035541 H 25.16027 v -2.035541 h -0.458614 v -0.20814 z"
     id="path1019"
     inkscape:connector-curvature="0" />
  <path
     style="fill:#225aa9;stroke-width:0.35278001"
     d="m 2.1307912,74.344775 a 1.7039274,1.7039274 0 0 1 -0.35278,-0.243418 0.5362256,0.5362256 0 0 1 0,-0.762005 0.5080032,0.5080032 0 0 1 0.370419,-0.141112 0.5009476,0.5009476 0 0 1 0.35278,0.148168 0.4480306,0.4480306 0 0 1 0.141112,0.324557 l -0.17639,0.07408 A 0.458614,0.458614 0 0 0 2.3565704,73.483992 0.2928074,0.2928074 0 0 0 2.1307912,73.395797 0.35278,0.35278 0 0 0 1.799178,73.72741 a 0.3210298,0.3210298 0 0 0 0.098778,0.236363 1.3335084,1.3335084 0 0 0 0.2398904,0.17639 1.887373,1.887373 0 0 1 0.4162804,0.282224 0.6491152,0.6491152 0 0 1 0.194029,0.465669 0.6596986,0.6596986 0 0 1 -0.194029,0.476253 0.670282,0.670282 0 0 1 -0.9419226,0 0.599726,0.599726 0 0 1 -0.194029,-0.430391 l 0.2046124,-0.04939 A 0.4550862,0.4550862 0 0 0 1.756844,75.216142 0.4621418,0.4621418 0 0 0 2.5435434,74.888056 0.4374472,0.4374472 0 0 0 2.409487,74.567026 2.0390684,2.0390684 0 0 0 2.1307912,74.344775 Z"
     id="path1021"
     inkscape:connector-curvature="0" />
  <path
     style="fill:#225aa9;stroke-width:0.35278001"
     d="m 5.150588,75.008001 0.2187236,0.08114 a 1.3617308,1.3617308 0 0 1 -0.1340564,0.155223 1.2241466,1.2241466 0 0 1 -0.8890056,0.35278 1.2558968,1.2558968 0 0 1 -0.8854778,-2.141375 1.2100354,1.2100354 0 0 1 0.8854778,-0.35278 1.2241466,1.2241466 0 0 1 0.8890056,0.35278 1.3617308,1.3617308 0 0 1 0.1340564,0.155224 L 5.150588,73.692133 5.080032,73.607463 A 1.005423,1.005423 0 0 0 4.3462496,73.3076 1.0336454,1.0336454 0 0 0 3.615995,75.0715 0.9948396,0.9948396 0 0 0 4.3462496,75.374891 1.0089508,1.0089508 0 0 0 5.080032,75.0715 c 0.035278,-0.01058 0.035278,-0.03528 0.070556,-0.0635 z"
     id="path1023"
     inkscape:connector-curvature="0" />
  <path
     style="fill:#225aa9;stroke-width:0.35278001"
     d="M 8.1703848,75.547755 H 7.9657724 v -0.458614 a 1.3793698,1.3793698 0 0 1 -0.1305286,0.155223 1.2558968,1.2558968 0 1 1 0,-1.7639 1.7639,1.7639 0 0 1 0.1305286,0.151695 V 73.314657 H 8.1703848 Z M 7.9657724,74.559971 v -0.405697 a 1.0371732,1.0371732 0 0 0 -1.7639,-0.52917 0.9948396,0.9948396 0 0 0 -0.3033908,0.733782 1.0371732,1.0371732 0 0 0 1.0336454,1.033646 1.05834,1.05834 0 0 0 1.0195342,-0.832561 z"
     id="path1025"
     inkscape:connector-curvature="0" />
  <path
     style="fill:#225aa9;stroke-width:0.35278001"
     d="m 8.8935838,71.892954 v 3.654801 H 8.6854436 v -3.654801 z"
     id="path1027"
     inkscape:connector-curvature="0" />
  <path
     style="fill:#225aa9;stroke-width:0.35278001"
     d="m 9.5356434,74.25658 a 1.146535,1.146535 0 0 0 0,0.116417 1.0371732,1.0371732 0 0 0 1.0371736,1.033646 1.0089508,1.0089508 0 0 0 0.733782,-0.303391 c 0.03175,-0.03528 0.06703,-0.07056 0.09878,-0.109362 l 0.218724,0.07761 a 1.3546752,1.3546752 0 0 1 -0.162279,0.186973 1.2241466,1.2241466 0 0 1 -0.889005,0.35278 1.2594246,1.2594246 0 0 1 -1.2558972,-1.252369 1.2558968,1.2558968 0 0 1 2.1484302,-0.889005 1.05834,1.05834 0 0 1 0.32103,0.772588 z m 0.038806,-0.20814 h 1.9685126 a 0.970145,0.970145 0 0 0 -0.243419,-0.409225 1.040701,1.040701 0 0 0 -1.4675642,0 1.05834,1.05834 0 0 0 -0.2575294,0.395114 z"
     id="path1029"
     inkscape:connector-curvature="0" />
  <path
     style="fill:#225aa9;stroke-width:0.35278001"
     d="m 17.833029,111.09034 a 1.6686494,1.6686494 0 1 1 -1.181813,0.48684 1.6122046,1.6122046 0 0 1 1.181813,-0.48684 z m -0.977201,0.70556 a 1.3793698,1.3793698 0 1 0 0.977201,-0.4057 1.3299806,1.3299806 0 0 0 -0.977201,0.39512 z"
     id="path1031"
     inkscape:connector-curvature="0" />
  <path
     style="fill:#225aa9;stroke-width:0.35278001"
     d="m 21.283217,114.38883 a 1.2135632,1.2135632 0 0 1 -0.892533,-0.32808 1.181813,1.181813 0 0 1 -0.35278,-0.83962 v -1.86621 h 0.275168 v 1.84152 a 0.8748944,0.8748944 0 0 0 0.275169,0.64911 0.9207558,0.9207558 0 0 0 0.677337,0.27164 0.934867,0.934867 0 0 0 0.927812,-0.92075 v -1.84152 h 0.275168 v 1.86621 a 1.1712296,1.1712296 0 0 1 -0.35278,0.83962 1.1606462,1.1606462 0 0 1 -0.832561,0.32808 z"
     id="path1033"
     inkscape:connector-curvature="0" />
  <path
     style="fill:#225aa9;stroke-width:0.35278001"
     d="m 23.502204,111.35845 v -1.27001 h 0.27164 v 1.27001 h 0.61031 v 0.29281 h -0.61031 v 2.71641 h -0.27164 v -2.71641 h -0.61031 v -0.27517 z"
     id="path1035"
     inkscape:connector-curvature="0" />
  <path
     style="fill:#225aa9;stroke-width:0.35278001"
     d="m 5.891426,23.576205 a 0.246946,0.246946 0 0 1 0.081139,0.186974 0.2540016,0.2540016 0 0 1 -0.081139,0.197556 0.2610572,0.2610572 0 0 1 -0.1905012,0.08114 0.2681128,0.2681128 0 0 1 -0.194029,-0.08114 0.264585,0.264585 0 0 1 -0.081139,-0.197556 0.2610572,0.2610572 0 0 1 0.081139,-0.186974 0.2681128,0.2681128 0 0 1 0.194029,-0.08114 0.2610572,0.2610572 0 0 1 0.1905012,0.08114 z M 5.82087,24.553406 V 27.54498 H 5.5492294 v -2.991574 z"
     id="path1037"
     inkscape:connector-curvature="0" />
  <path
     style="fill:#225aa9;stroke-width:0.35278001"
     d="m 6.87921,25.22016 v 2.32482 H 6.6040416 V 24.553406 H 6.87921 v 0.194029 a 1.2417856,1.2417856 0 0 1 1.7321498,-0.04233 1.1535906,1.1535906 0 0 1 0.35278,0.836089 v 2.00379 H 8.6924992 V 25.57294 A 0.8678388,0.8678388 0 0 0 8.4173308,24.923825 0.9066446,0.9066446 0 0 0 7.76116,24.652184 0.8925334,0.8925334 0 0 0 7.1120448,24.920297 1.05834,1.05834 0 0 0 6.87921,25.22016 Z"
     id="path1039"
     inkscape:connector-curvature="0" />
  <path
     style="fill:#225aa9;stroke-width:0.35278001"
     d="m 25.57655,65.659331 v -5.845564 h 0.328085 v 5.513951 h 2.211931 v 0.331613 z"
     id="path1041"
     inkscape:connector-curvature="0" />
  <path
     style="fill:#225aa9;stroke-width:0.35278001"
     d="m 30.374358,61.747001 a 2.010846,2.010846 0 1 1 -1.41112,0.589143 1.922651,1.922651 0 0 1 1.41112,-0.589143 z m -1.17123,0.836089 a 1.6510104,1.6510104 0 1 0 1.17123,-0.486837 1.6016212,1.6016212 0 0 0 -1.17123,0.486837 z"
     id="path1043"
     inkscape:connector-curvature="0" />
  <path
     style="fill:#225aa9;stroke-width:0.35278001"
     d="m 36.188172,64.79502 0.35278,0.127001 a 2.0249572,2.0249572 0 0 1 -0.215195,0.250474 2.0073182,2.0073182 0 1 1 0,-2.82224 1.9967348,1.9967348 0 0 1 0.215195,0.246946 l -0.35278,0.127001 -0.116417,-0.130529 a 1.6615938,1.6615938 0 1 0 0,2.342459 q 0.05997,-0.07056 0.116417,-0.141112 z"
     id="path1045"
     inkscape:connector-curvature="0" />
  <path
     style="fill:#225aa9;stroke-width:0.35278001"
     d="m 38.908106,62.071559 -0.885478,1.093618 1.41112,2.494154 h -0.402169 l -1.220619,-2.229569 -0.317502,0.398641 v 1.830928 h -0.331613 v -5.11531 h 0.331613 V 63.3204 l 0.99484,-1.231202 z"
     id="path1047"
     inkscape:connector-curvature="0" />
  <path
     style="fill:#231f20;stroke-width:0.35278001"
     d="M 2.5611828,5.3515904 H 2.9598242 V 5.958372 a 2.6670168,2.6670168 0 0 1 0.2504738,-0.2892796 2.345987,2.345987 0 0 1 1.7145108,-0.70556 2.3318758,2.3318758 0 0 1 1.710983,0.70556 2.328348,2.328348 0 0 1 0.70556,1.7145108 2.3318758,2.3318758 0 0 1 -0.70556,1.710983 2.3248202,2.3248202 0 0 1 -1.710983,0.70556 A 2.3248202,2.3248202 0 0 1 3.210298,9.0945862 2.398904,2.398904 0 0 1 2.9598242,8.8017788 V 11.334739 H 2.5611828 Z m 0.3986414,1.622788 v 0.829033 A 1.8909008,1.8909008 0 0 0 3.5031054,8.8017788 1.9473456,1.9473456 0 0 0 4.9142254,9.3909214 2.0002626,2.0002626 0 0 0 6.914488,7.387131 2.0037904,2.0037904 0 0 0 4.9142254,5.3798128 1.9473456,1.9473456 0 0 0 3.5031054,5.9689554 1.9120676,1.9120676 0 0 0 2.9598242,6.9743784 Z"
     id="path1050"
     inkscape:connector-curvature="0" />
  <path
     style="fill:#231f20;stroke-width:0.35278001"
     d="M 14.160589,2.6210732 V 9.69784 h -0.398641 v -7.0556 z"
     id="path1054"
     inkscape:connector-curvature="0" />
  <path
     style="fill:#231f20;stroke-width:0.35278001"
     d="m 15.733988,11.334739 h -0.444503 l 1.143007,-2.4518208 -1.647482,-3.5278 h 0.444503 l 1.41112,3.0268524 1.41112,-3.0268524 h 0.469197 z"
     id="path1056"
     inkscape:connector-curvature="0" />
  <path
     style="fill:#231f20;stroke-width:0.35278001"
     d="M 19.646318,5.3515904 V 3.506551 h 0.391586 v 1.8450394 h 0.885478 V 5.7502318 H 20.037904 V 9.69784 H 19.646318 V 5.7502318 H 18.76084 V 5.3515904 Z"
     id="path1058"
     inkscape:connector-curvature="0" />
  <path
     style="fill:#231f20;stroke-width:0.35278001"
     d="M 23.304647,9.7472292 A 1.7639,1.7639 0 0 1 22.013472,9.2674484 1.6862884,1.6862884 0 0 1 21.51958,8.0538852 V 5.3445348 h 0.398641 v 2.6740724 a 1.270008,1.270008 0 0 0 0.398642,0.9383948 1.3476196,1.3476196 0 0 0 0.984256,0.388058 1.2982304,1.2982304 0 0 0 0.94545,-0.3915858 1.2841192,1.2841192 0 0 0 0.398642,-0.9419226 V 5.3445348 h 0.398641 v 2.7093504 a 1.6651216,1.6651216 0 0 1 -1.739205,1.693344 z"
     id="path1060"
     inkscape:connector-curvature="0" />
  <path
     style="fill:#231f20;stroke-width:0.35278001"
     d="M 27.506257,5.7008426 A 1.41112,1.41112 0 0 0 26.673696,6.240596 1.4675648,1.4675648 0 0 0 26.28211,7.1966298 V 9.69784 H 25.862302 V 5.3515904 h 0.419808 v 0.9383948 a 1.7145108,1.7145108 0 0 1 1.023062,-0.9736728 z"
     id="path1062"
     inkscape:connector-curvature="0" />
  <path
     style="fill:#231f20;stroke-width:0.35278001"
     d="M 28.578708,3.929887 A 0.3774746,0.3774746 0 0 1 28.695125,4.2050554 0.388058,0.388058 0 0 1 28.578708,4.4908072 0.3774746,0.3774746 0 0 1 28.303539,4.6072246 0.4021692,0.4021692 0 0 1 27.90137,4.2050554 0.35278,0.35278 0 0 1 28.021315,3.929887 0.3915858,0.3915858 0 0 1 28.303539,3.8169974 0.388058,0.388058 0 0 1 28.578708,3.929887 Z m -0.08114,1.41112 V 9.69784 H 28.102455 V 5.3515904 Z"
     id="path1064"
     inkscape:connector-curvature="0" />
  <path
     style="fill:#231f20;stroke-width:0.35278001"
     d="M 29.9863,6.3182076 V 9.69784 H 29.587659 V 5.3515904 H 29.9863 v 0.2786962 a 1.7250942,1.7250942 0 0 1 1.259425,-0.5397534 1.6721772,1.6721772 0 0 1 1.739205,1.693344 V 9.69784 H 32.593344 V 6.822683 a 1.2664802,1.2664802 0 0 0 -0.398641,-0.9419226 1.3511474,1.3511474 0 0 0 -1.894429,0 1.4710926,1.4710926 0 0 0 -0.313974,0.4374472 z"
     id="path1066"
     inkscape:connector-curvature="0" />
  <path
     style="fill:#231f20;stroke-width:0.35278001"
     d="M 38.121407,8.8264734 C 38.047323,8.9181962 37.966184,9.009919 37.881516,9.098114 A 2.4235986,2.4235986 0 0 1 33.743407,7.387131 2.4271264,2.4271264 0 0 1 37.881516,5.6690924 2.46946,2.46946 0 0 1 38.13199,5.9654276 V 5.3515904 h 0.402169 v 3.3655212 a 2.2683754,2.2683754 0 0 1 -0.70556,1.6686494 2.4235986,2.4235986 0 0 1 -3.432549,0.01764 3.3761046,3.3761046 0 0 1 -0.261057,-0.299863 l 0.419808,-0.1552232 a 1.9826236,1.9826236 0 0 0 0.14464,0.1552232 2.0037904,2.0037904 0 0 0 3.411382,-1.2594246 z m 0,-1.852095 A 2.0073182,2.0073182 0 0 0 36.15995,5.3798128 2.0037904,2.0037904 0 0 0 34.159687,7.387131 a 2.0037904,2.0037904 0 0 0 3.421966,1.41112 1.9544012,1.9544012 0 0 0 0.543282,-0.9948396 z"
     id="path1068"
     inkscape:connector-curvature="0" />
  <path
     style="fill:#231f20;stroke-width:0.35278001"
     d="m 29.171378,26.588946 0.28928,0.105834 a 1.9438178,1.9438178 0 0 1 -0.179918,0.208141 1.6721772,1.6721772 0 1 1 0,-2.363626 1.9155954,1.9155954 0 0 1 0.179918,0.204612 l -0.28928,0.109362 c -0.02822,-0.03881 -0.0635,-0.07408 -0.09525,-0.11289 a 1.3476196,1.3476196 0 0 0 -0.980729,-0.402169 1.3828976,1.3828976 0 1 0 0.980729,2.35657 c 0.02822,-0.03528 0.06703,-0.0635 0.09525,-0.105834 z"
     id="path1072"
     inkscape:connector-curvature="0" />
  <path
     style="fill:#231f20;stroke-width:0.35278001"
     d="m 30.293219,22.436726 v 4.871892 H 30.01805 v -4.871892 z"
     id="path1074"
     inkscape:connector-curvature="0" />
  <path
     style="fill:#231f20;stroke-width:0.35278001"
     d="m 32.593344,24.04893 a 1.675705,1.675705 0 1 1 -1.181813,0.490365 1.6016212,1.6016212 0 0 1 1.181813,-0.490365 z m -0.9772,0.70556 a 1.3370362,1.3370362 0 0 0 -0.395114,0.970145 1.3158694,1.3158694 0 0 0 0.405697,0.973673 1.3793698,1.3793698 0 0 0 2.35657,-0.973673 1.3793698,1.3793698 0 0 0 -2.35657,-0.980728 z"
     id="path1076"
     inkscape:connector-curvature="0" />
  <path
     style="fill:#231f20;stroke-width:0.35278001"
     d="m 37.437014,26.588946 0.289279,0.105834 a 1.9438178,1.9438178 0 0 1 -0.179918,0.208141 1.6721772,1.6721772 0 1 1 0,-2.363626 1.9155954,1.9155954 0 0 1 0.179918,0.204612 l -0.289279,0.109362 -0.09878,-0.11289 a 1.3828976,1.3828976 0 1 0 0,1.954401 z"
     id="path1078"
     inkscape:connector-curvature="0" />
  <path
     style="fill:#231f20;stroke-width:0.35278001"
     d="m 39.68775,24.317043 -0.70556,0.903117 1.174757,2.077874 h -0.35278 l -1.016006,-1.855623 -0.268113,0.328086 v 1.527537 H 38.24488 v -4.250999 h 0.275168 v 2.296598 l 0.832561,-1.02659 z"
     id="path1080"
     inkscape:connector-curvature="0" />
  <path
     style="fill:#231f20;stroke-width:0.35278001"
     inkscape:connector-curvature="0"
     id="path1084"
     d="m 30.095,74.23 a 1.7039,1.7039 0 0 1 -0.35278,-0.24342 0.51153,0.51153 0 0 1 -0.15875,-0.37747 0.53269,0.53269 0 0 1 0.15875,-0.38453 0.51153,0.51153 0 0 1 0.37747,-0.15875 0.50094,0.50094 0 0 1 0.35278,0.14817 0.44803,0.44803 0 0 1 0.14111,0.32808 l -0.17639,0.0741 a 0.46919,0.46919 0 0 0 -0.10936,-0.26106 0.29281,0.29281 0 0 0 -0.22578,-0.0882 0.30692,0.30692 0 0 0 -0.23283,0.0988 0.32808,0.32808 0 0 0 0,0.4692 1.3335,1.3335 0 0 0 0.23989,0.17639 1.8874,1.8874 0 0 1 0.41628,0.28222 0.64911,0.64911 0 0 1 0.19403,0.46567 0.65969,0.65969 0 0 1 -0.19403,0.47625 0.67028,0.67028 0 0 1 -0.94192,0 0.61031,0.61031 0 0 1 -0.19403,-0.42686 l 0.20461,-0.0529 a 0.45861,0.45861 0 0 0 0.13758,0.35278 0.44097,0.44097 0 0 0 0.32103,0.13405 0.45861,0.45861 0 0 0 0.32808,-0.13405 0.45156,0.45156 0 0 0 0.13758,-0.33161 0.43392,0.43392 0 0 0 -0.13758,-0.32103 2.0391,2.0391 0 0 0 -0.28575,-0.22578 z" />
  <path
     style="fill:#231f20;stroke-width:0.35278001"
     inkscape:connector-curvature="0"
     id="path1086"
     d="m 31.464,73.2 v -0.95602 h 0.20461 V 73.2 h 0.45508 v 0.20462 h -0.45508 v 2.0355 H 31.464 v -2.0355 H 31.00539 V 73.2 Z" />
  <path
     style="fill:#231f20;stroke-width:0.35278001"
     inkscape:connector-curvature="0"
     id="path1088"
     d="m 35.137,73.2 h 0.20814 v 0.31398 a 1.7004,1.7004 0 0 1 0.127,-0.1517 1.2347,1.2347 0 0 1 0.889,-0.35278 1.2559,1.2559 0 1 1 -0.889,2.1378 1.7004,1.7004 0 0 1 -0.127,-0.1517 v 1.3123 H 35.137 Z m 0.20814,0.83962 v 0.42686 a 0.97014,0.97014 0 0 0 0.28222,0.51858 1.0336,1.0336 0 0 0 1.464,0 1.0372,1.0372 0 0 0 -0.73025,-1.7639 1.0054,1.0054 0 0 0 -0.73378,0.30339 0.99131,0.99131 0 0 0 -0.28222,0.50094 z" />
  <path
     style="fill:#231f20;stroke-width:0.35278001"
     inkscape:connector-curvature="0"
     id="path1090"
     d="m 38.604,74.23 a 1.7039,1.7039 0 0 1 -0.35278,-0.24342 0.51153,0.51153 0 0 1 -0.15875,-0.37747 0.53269,0.53269 0 0 1 0.15875,-0.38453 0.53269,0.53269 0 0 1 0.74789,0 0.44803,0.44803 0 0 1 0.14111,0.32809 l -0.17639,0.0741 a 0.46919,0.46919 0 0 0 -0.10936,-0.26106 0.29281,0.29281 0 0 0 -0.22578,-0.0882 0.30692,0.30692 0 0 0 -0.23283,0.0988 0.32808,0.32808 0 0 0 0,0.46919 1.3335,1.3335 0 0 0 0.23989,0.17639 1.8874,1.8874 0 0 1 0.41628,0.28222 0.64911,0.64911 0 0 1 0.19403,0.46567 0.65969,0.65969 0 0 1 -0.19403,0.47625 0.67028,0.67028 0 0 1 -0.94192,0 0.59619,0.59619 0 0 1 -0.19403,-0.42686 l 0.20461,-0.0529 a 0.46919,0.46919 0 0 0 0.13406,0.35278 0.46214,0.46214 0 0 0 0.7867,-0.33161 0.44097,0.44097 0 0 0 -0.13406,-0.32103 2.0391,2.0391 0 0 0 -0.30339,-0.23636 z" />
  <g
     style="fill:#231f20"
     id="g1104"
     transform="matrix(0.35278,0,0,0.35278,0.17639,-0.18)">
    <path
       inkscape:connector-curvature="0"
       id="path1092"
       d="m 47.76,207.38 a 3.55,3.55 0 1 1 -2.51,1 3.43,3.43 0 0 1 2.51,-1 z m -2.08,1.48 a 2.95,2.95 0 1 0 2.08,-0.86 2.86,2.86 0 0 0 -2.08,0.86 z" />
    <path
       inkscape:connector-curvature="0"
       id="path1094"
       d="m 53.23,208.54 v 5.77 h -0.58 v -5.77 H 52 V 208 h 0.65 v -1.72 a 1.87,1.87 0 0 1 0.55,-1.28 1.72,1.72 0 0 1 1.22,-0.49 2.21,2.21 0 0 1 0.77,0.14 l -0.18,0.52 a 1.35,1.35 0 0 0 -0.53,-0.12 1.33,1.33 0 0 0 -0.87,0.36 1.29,1.29 0 0 0 -0.38,0.87 V 208 h 1.3 v 0.58 z" />
    <path
       inkscape:connector-curvature="0"
       id="path1096"
       d="m 56,208.54 v 5.77 h -0.59 v -5.77 H 54.77 V 208 h 0.64 v -1.72 A 1.87,1.87 0 0 1 56,205 a 1.76,1.76 0 0 1 1.22,-0.49 2.17,2.17 0 0 1 0.77,0.14 l -0.18,0.52 a 1.31,1.31 0 0 0 -0.53,-0.12 1.28,1.28 0 0 0 -0.86,0.36 1.24,1.24 0 0 0 -0.38,0.87 V 208 h 1.29 v 0.58 z" />
    <path
       inkscape:connector-curvature="0"
       id="path1098"
       d="m 59.82,210.9 a 4.83,4.83 0 0 1 -1,-0.69 1.45,1.45 0 0 1 -0.45,-1.07 1.51,1.51 0 0 1 0.45,-1.09 1.47,1.47 0 0 1 1.08,-0.45 1.4,1.4 0 0 1 1,0.42 1.28,1.28 0 0 1 0.41,0.93 l -0.51,0.21 a 1.27,1.27 0 0 0 -0.31,-0.74 0.82,0.82 0 0 0 -0.63,-0.25 0.94,0.94 0 0 0 -0.67,1.61 4.21,4.21 0 0 0 0.68,0.5 5.11,5.11 0 0 1 1.18,0.8 1.8,1.8 0 0 1 0.55,1.32 1.83,1.83 0 0 1 -0.55,1.35 1.9,1.9 0 0 1 -2.67,0 1.73,1.73 0 0 1 -0.55,-1.21 l 0.58,-0.15 a 1.3,1.3 0 0 0 0.39,1 1.26,1.26 0 0 0 0.92,0.38 1.29,1.29 0 0 0 0.92,-0.38 1.28,1.28 0 0 0 0.39,-0.94 1.23,1.23 0 0 0 -0.39,-0.91 5.78,5.78 0 0 0 -0.82,-0.64 z" />
    <path
       inkscape:connector-curvature="0"
       id="path1100"
       d="m 63.19,210.62 a 1.66,1.66 0 0 0 0,0.32 2.92,2.92 0 0 0 2.94,2.93 2.81,2.81 0 0 0 2.08,-0.86 4.12,4.12 0 0 0 0.28,-0.31 l 0.62,0.22 a 2.8,2.8 0 0 1 -0.46,0.53 3.56,3.56 0 0 1 -6.07,-2.51 3.56,3.56 0 0 1 6.07,-2.52 3,3 0 0 1 0.92,2.2 z m 0.11,-0.6 h 5.58 a 2.89,2.89 0 0 0 -2.78,-2 2.86,2.86 0 0 0 -2.08,0.86 3,3 0 0 0 -0.72,1.12 z" />
    <path
       inkscape:connector-curvature="0"
       id="path1102"
       d="m 71.33,208 v -2.71 h 0.58 V 208 h 1.3 v 0.58 h -1.3 v 5.77 h -0.58 v -5.77 H 70 V 208 Z" />
  </g>
  <path
     style="fill:#231f20;stroke-width:0.35278001"
     inkscape:connector-curvature="0"
     id="path1106"
     d="M 2.3107,74.23 A 1.7039,1.7039 0 0 1 1.95792,73.98658 0.51153,0.51153 0 0 1 1.79917,73.60911 0.53269,0.53269 0 0 1 1.94028,73.22458 0.508,0.508 0 0 1 2.31775,73.06583 0.50094,0.50094 0 0 1 2.68817,73.214 0.44803,0.44803 0 0 1 2.82928,73.54208 l -0.17639,0.0741 a 0.46919,0.46919 0 0 0 -0.10936,-0.26106 0.29281,0.29281 0 0 0 -0.22578,-0.0882 0.30692,0.30692 0 0 0 -0.23283,0.0988 0.32808,0.32808 0 0 0 0,0.4692 1.3335,1.3335 0 0 0 0.23989,0.17639 1.8874,1.8874 0 0 1 0.41628,0.28222 0.64911,0.64911 0 0 1 0.19403,0.46567 0.65969,0.65969 0 0 1 -0.19403,0.47625 0.63853,0.63853 0 0 1 -0.47272,0.19402 0.635,0.635 0 0 1 -0.46919,-0.19402 0.59619,0.59619 0 0 1 -0.19403,-0.42686 l 0.20461,-0.0529 a 0.46919,0.46919 0 0 0 0.13406,0.35278 0.46567,0.46567 0 0 0 0.65264,0 0.44803,0.44803 0 0 0 0.13406,-0.33161 0.43039,0.43039 0 0 0 -0.13406,-0.32103 2.0391,2.0391 0 0 0 -0.28575,-0.22578 z" />
  <path
     style="fill:#231f20;stroke-width:0.35278001"
     inkscape:connector-curvature="0"
     id="path1108"
     d="m 5.3305,74.89 0.21872,0.0811 a 1.3617,1.3617 0 0 1 -0.13406,0.15522 1.2488,1.2488 0 0 1 -1.7639,0 1.1959,1.1959 0 0 1 -0.35278,-0.88547 1.2524,1.2524 0 0 1 1.2524,-1.2559 1.2241,1.2241 0 0 1 0.889,0.35278 1.7639,1.7639 0 0 1 0.13406,0.15522 l -0.21872,0.0811 c -0.021167,-0.0282 -0.045861,-0.0529 -0.070556,-0.0811 a 1.0089,1.0089 0 0 0 -0.73378,-0.30339 1.0336,1.0336 0 0 0 -0.73025,1.7639 0.98425,0.98425 0 0 0 0.73025,0.30339 0.99483,0.99483 0 0 0 0.73378,-0.30339 0.77611,0.77611 0 0 0 0.045861,-0.0635 z" />
  <path
     style="fill:#231f20;stroke-width:0.35278001"
     inkscape:connector-curvature="0"
     id="path1110"
     d="M 8.3538,75.43 H 8.14566 v -0.46214 a 1.2947,1.2947 0 0 1 -0.13053,0.1517 1.2453,1.2453 0 0 1 -1.7639,0 1.1994,1.1994 0 0 1 -0.37042,-0.88547 1.2559,1.2559 0 0 1 2.1414,-0.889 1.3229,1.3229 0 0 1 0.13053,0.15522 V 73.20397 H 8.36088 Z M 8.14566,74.44575 v -0.40569 a 1.0372,1.0372 0 0 0 -1.7639,-0.5327 1.039,1.039 0 1 0 1.4781,1.4605 1.0089,1.0089 0 0 0 0.28575,-0.52211 z" />
  <path
     style="fill:#231f20;stroke-width:0.35278001"
     inkscape:connector-curvature="0"
     id="path1112"
     d="m 9.0734,71.79 v 3.6512 H 8.86526 V 71.79 Z" />
  <path
     style="fill:#231f20;stroke-width:0.35278001"
     inkscape:connector-curvature="0"
     id="path1114"
     d="m 9.7014,74.13 v 0.11289 a 1.0372,1.0372 0 0 0 1.7639,0.72672 1.4534,1.4534 0 0 0 0.09878,-0.10936 l 0.21872,0.0776 a 1.143,1.143 0 0 1 -0.16228,0.18698 1.2136,1.2136 0 0 1 -0.86078,0.37394 1.2559,1.2559 0 0 1 0,-2.5118 1.2241,1.2241 0 0 1 0.889,0.35278 1.0583,1.0583 0 0 1 0.32103,0.77611 z m 0.038806,-0.21166 h 1.9685 a 0.99131,0.99131 0 0 0 -0.24342,-0.40923 1.0407,1.0407 0 0 0 -1.4676,0 1.083,1.083 0 0 0 -0.24342,0.40217 z" />
  <g
     style="fill:#231f20"
     id="g1122"
     transform="matrix(0.35278,0,0,0.35278,0.17639,-0.18)">
    <path
       inkscape:connector-curvature="0"
       id="path1116"
       d="m 50.88,314.68 a 4.73,4.73 0 1 1 -3.35,1.38 4.57,4.57 0 0 1 3.35,-1.38 z m -2.77,2 a 3.92,3.92 0 1 0 5.53,0 3.9,3.9 0 0 0 -5.53,0 z" />
    <path
       inkscape:connector-curvature="0"
       id="path1118"
       d="m 60.66,324 a 3.44,3.44 0 0 1 -2.53,-0.93 3.31,3.31 0 0 1 -1,-2.38 V 315.4 H 58 v 5.22 a 2.48,2.48 0 0 0 0.78,1.84 2.61,2.61 0 0 0 1.92,0.77 2.51,2.51 0 0 0 1.85,-0.77 2.48,2.48 0 0 0 0.78,-1.84 v -5.22 h 0.78 v 5.29 a 3.32,3.32 0 0 1 -1,2.38 3.29,3.29 0 0 1 -2.45,0.93 z" />
    <path
       inkscape:connector-curvature="0"
       id="path1120"
       d="m 67,315.44 v -3.6 h 0.77 v 3.6 h 1.73 v 0.78 h -1.78 v 7.7 H 67 v -7.7 h -1.78 v -0.78 z" />
  </g>
  <g
     style="fill:#231f20"
     id="g1128"
     transform="matrix(0.35278,0,0,0.35278,0.17639,-0.18)">
    <path
       inkscape:connector-curvature="0"
       id="path1124"
       d="m 17.1,66.67 a 0.76,0.76 0 0 1 0,1.09 0.78,0.78 0 0 1 -0.54,0.23 0.79,0.79 0 0 1 -0.56,-0.23 0.76,0.76 0 0 1 0,-1.09 0.78,0.78 0 0 1 0.56,-0.22 0.76,0.76 0 0 1 0.54,0.22 z m -0.16,2.77 v 8.48 h -0.78 v -8.48 z" />
    <path
       inkscape:connector-curvature="0"
       id="path1126"
       d="m 19.85,71.34 v 6.58 h -0.78 v -8.48 h 0.78 V 70 a 3.37,3.37 0 0 1 2.46,-1 3.28,3.28 0 0 1 2.44,0.94 3.32,3.32 0 0 1 1,2.37 v 5.67 h -0.78 v -5.6 a 2.48,2.48 0 0 0 -0.78,-1.84 2.55,2.55 0 0 0 -1.85,-0.76 2.58,2.58 0 0 0 -1.85,0.75 2.82,2.82 0 0 0 -0.64,0.81 z" />
  </g>
  <g
     style="fill:#231f20"
     id="g1138"
     transform="matrix(0.35278,0,0,0.35278,0.17639,-0.18)">
    <path
       inkscape:connector-curvature="0"
       id="path1130"
       d="m 72.78,185.91 v -16.58 h 0.93 V 185 H 80 v 0.94 z" />
    <path
       inkscape:connector-curvature="0"
       id="path1132"
       d="m 86.43,174.82 a 5.68,5.68 0 1 1 -4,1.66 5.44,5.44 0 0 1 4,-1.66 z m -3.32,2.37 a 4.66,4.66 0 1 0 3.32,-1.39 4.47,4.47 0 0 0 -3.32,1.39 z" />
    <path
       inkscape:connector-curvature="0"
       id="path1134"
       d="m 102.91,183.46 1,0.36 a 5.66,5.66 0 0 1 -0.61,0.7 5.68,5.68 0 1 1 0,-8 5.74,5.74 0 0 1 0.61,0.71 l -1,0.36 -0.33,-0.38 a 4.57,4.57 0 0 0 -3.33,-1.37 4.7,4.7 0 1 0 3.33,8 z" />
    <path
       inkscape:connector-curvature="0"
       id="path1136"
       d="m 110.62,175.73 -2.51,3.11 4,7.07 H 111 l -3.46,-6.32 -0.9,1.12 v 5.2 h -0.94 v -14.5 h 0.94 v 7.82 l 2.82,-3.5 z" />
  </g>
  <path
     style="fill:none;stroke:#000000;stroke-width:0.26458001px"
     inkscape:connector-curvature="0"
     id="path1140"
     d="M 20.429,28.17 Z" />
  <path
     style="fill:#231f20;stroke-width:0.35278001"
     inkscape:connector-curvature="0"
     id="path1142"
     d="m 32.589,74.16 v 0.11289 a 1.0372,1.0372 0 0 0 1.7639,0.72672 1.4534,1.4534 0 0 0 0.09878,-0.10936 l 0.21872,0.0776 a 1.143,1.143 0 0 1 -0.16228,0.18698 1.2136,1.2136 0 0 1 -0.86078,0.37394 1.2559,1.2559 0 0 1 0,-2.5118 1.2241,1.2241 0 0 1 0.889,0.35278 1.0583,1.0583 0 0 1 0.32103,0.77611 z m 0.03881,-0.21166 h 1.9685 a 0.99131,0.99131 0 0 0 -0.24342,-0.40923 1.0407,1.0407 0 0 0 -1.4676,0 1.083,1.083 0 0 0 -0.24342,0.40217 z" />
  <g
     display="none"
     id="g1336">
    <circle
       id="LOCK"
       cx="20.514"
       cy="42.853"
       r="15"
       fill="#ff0000"
       stroke-width=".32511">
      <desc
         id="desc1146">LOCK</desc>
      <title
         id="title1148">LOCK</title>
    </circle>
    <circle
       id="STEPS"
       cx="34.167"
       cy="82.046"
       r="5"
       fill="#ff0000"
       stroke-width=".10837">
      <desc
         id="desc1151">STEPS</desc>
      <title
         id="title1153">STEPS</title>
    </circle>
    <circle
       id="OFFSET"
       cx="20.493"
       cy="82.046"
       r="5"
       fill="#ff0000"
       stroke-width=".10837">
      <desc
         id="desc1156">OFFSET</desc>
      <title
         id="title1158">OFFSET</title>
    </circle>
    <circle
       id="SCALE"
       cx="6.3817"
       cy="82.046"
       r="5"
       fill="#ff0000"
       stroke-width=".10837">
      <desc
         id="desc1161">SCALE</desc>
      <title
         id="title1163">SCALE</title>
    </circle>
    <circle
       id="STEPS_RAND"
       cx="36.865"
       cy="94.866"
       r="2.3"
       fill="#ff0000"
       stroke-width=".04985">
      <desc
         id="desc1166">STEPS_RAND</desc>
      <title
         id="title1168">STEPS_RAND</title>
    </circle>
    <circle
       id="STEPS_CV"
       cx="31.468"
       cy="90.707"
       r="2.3"
       fill="#ff0000"
       stroke-width=".04985">
      <desc
         id="desc1171">STEPS_CV</desc>
      <title
         id="title1173">STEPS_CV</title>
    </circle>
    <circle
       id="OFFSET_RAND"
       cx="23.199"
       cy="94.866"
       r="2.3"
       fill="#ff0000"
       stroke-width=".04985">
      <desc
         id="desc1176">OFFSET_RAND</desc>
      <title
         id="title1178">OFFSET_RAND</title>
    </circle>
    <g
       transform="matrix(.35278 0 0 .35278 -5.2282 -4.3349)"
       id="g1191">
      <path
         d="m65.26 275.79a6.39 6.39 0 1 1 6.39-6.39 6.39 6.39 0 0 1-6.39 6.39z"
         fill="#121212"
         id="path1181" />
      <path
         d="m65.26 263.14a6.27 6.27 0 1 1-6.26 6.26 6.27 6.27 0 0 1 6.27-6.26m0-0.25a6.52 6.52 0 1 0 6.51 6.51 6.52 6.52 0 0 0-6.51-6.51z"
         fill="#231f20"
         id="path1183" />
      <path
         d="m65.26 274.7a5.3 5.3 0 1 1 5.29-5.3 5.3 5.3 0 0 1-5.29 5.3z"
         fill="#393839"
         id="path1185" />
      <path
         d="m65.26 264.61a4.8 4.8 0 1 1-4.8 4.79 4.8 4.8 0 0 1 4.8-4.79m0-1a5.8 5.8 0 1 0 5.79 5.79 5.8 5.8 0 0 0-5.79-5.79z"
         fill="#333132"
         id="path1187" />
      <path
         d="m65.26 266.17a0.37 0.37 0 0 1-0.39-0.37v-1.54c0-0.2 0.17-0.24 0.39-0.24 0.21 0 0.38 0 0.38 0.24v1.54a0.37 0.37 0 0 1-0.38 0.37z"
         fill="#bec0c2"
         id="path1189" />
    </g>
    <circle
       id="OFFSET_CV"
       cx="17.794"
       cy="90.707"
       r="2.3"
       fill="#ff0000"
       stroke-width=".04985">
      <desc
         id="desc1193">OFFSET_CV</desc>
      <title
         id="title1195">OFFSET_CV</title>
    </circle>
    <g
       transform="matrix(.35278 0 0 .35278 -8.5302 3.9836)"
       id="g1208">
      <path
         d="m49.94 264a6.39 6.39 0 1 1 6.39-6.39 6.4 6.4 0 0 1-6.39 6.39z"
         fill="#121212"
         id="path1198" />
      <path
         d="m49.94 251.35a6.27 6.27 0 1 1-6.26 6.26 6.27 6.27 0 0 1 6.26-6.26m0-0.25a6.52 6.52 0 1 0 6.52 6.51 6.5 6.5 0 0 0-6.52-6.51z"
         fill="#231f20"
         id="path1200" />
      <path
         d="m49.94 262.9a5.29 5.29 0 1 1 5.3-5.29 5.29 5.29 0 0 1-5.3 5.29z"
         fill="#393839"
         id="path1202" />
      <path
         d="m49.94 252.82a4.79 4.79 0 1 1-4.79 4.79 4.8 4.8 0 0 1 4.79-4.79m0-1a5.79 5.79 0 1 0 5.8 5.79 5.79 5.79 0 0 0-5.8-5.79z"
         fill="#333132"
         id="path1204" />
      <path
         d="m49.94 254.38a0.38 0.38 0 0 1-0.38-0.37v-1.54c0-0.2 0.17-0.24 0.38-0.24 0.22 0 0.39 0 0.39 0.24v1.53a0.38 0.38 0 0 1-0.39 0.38z"
         fill="#bec0c2"
         id="path1206" />
    </g>
    <g
       transform="matrix(.35278 0 0 .35278 -13.935 -.17569)"
       id="g1220">
      <path
         d="m65.26 275.79a6.39 6.39 0 1 1 6.39-6.39 6.39 6.39 0 0 1-6.39 6.39z"
         fill="#121212"
         id="path1210" />
      <path
         d="m65.26 263.14a6.27 6.27 0 1 1-6.26 6.26 6.27 6.27 0 0 1 6.27-6.26m0-0.25a6.52 6.52 0 1 0 6.51 6.51 6.52 6.52 0 0 0-6.51-6.51z"
         fill="#231f20"
         id="path1212" />
      <path
         d="m65.26 274.7a5.3 5.3 0 1 1 5.29-5.3 5.3 5.3 0 0 1-5.29 5.3z"
         fill="#393839"
         id="path1214" />
      <path
         d="m65.26 264.61a4.8 4.8 0 1 1-4.8 4.79 4.8 4.8 0 0 1 4.8-4.79m0-1a5.8 5.8 0 1 0 5.79 5.79 5.8 5.8 0 0 0-5.79-5.79z"
         fill="#333132"
         id="path1216" />
      <path
         d="m65.26 266.17a0.37 0.37 0 0 1-0.39-0.37v-1.54c0-0.2 0.17-0.24 0.39-0.24 0.21 0 0.38 0 0.38 0.24v1.54a0.37 0.37 0 0 1-0.38 0.37z"
         fill="#bec0c2"
         id="path1218" />
    </g>
    <circle
       id="SCALE_RAND"
       cx="9.0876"
       cy="94.866"
       r="2.3"
       fill="#ff0000"
       stroke-width=".04985">
      <desc
         id="desc1222">SCALE_RAND</desc>
      <title
         id="title1224">SCALE_RAND</title>
    </circle>
    <g
       transform="matrix(.35278 0 0 .35278 -5.2282 -4.3349)"
       id="g1237">
      <path
         d="m25.25 275.79a6.39 6.39 0 1 1 6.39-6.39 6.4 6.4 0 0 1-6.39 6.39z"
         fill="#121212"
         id="path1227" />
      <path
         d="m25.25 263.14a6.27 6.27 0 1 1-6.25 6.26 6.27 6.27 0 0 1 6.26-6.26m0-0.25a6.52 6.52 0 1 0 6.52 6.51 6.51 6.51 0 0 0-6.52-6.51z"
         fill="#231f20"
         id="path1229" />
      <path
         d="m25.25 274.7a5.3 5.3 0 1 1 5.3-5.3 5.31 5.31 0 0 1-5.3 5.3z"
         fill="#393839"
         id="path1231" />
      <path
         d="m25.25 264.61a4.8 4.8 0 1 1-4.79 4.79 4.8 4.8 0 0 1 4.79-4.79m0-1a5.8 5.8 0 1 0 5.8 5.79 5.79 5.79 0 0 0-5.8-5.79z"
         fill="#333132"
         id="path1233" />
      <path
         d="m25.25 266.17a0.37 0.37 0 0 1-0.38-0.37v-1.54c0-0.2 0.17-0.24 0.38-0.24 0.22 0 0.39 0 0.39 0.24v1.54a0.37 0.37 0 0 1-0.39 0.37z"
         fill="#bec0c2"
         id="path1235" />
    </g>
    <g
       transform="matrix(.35278 0 0 .35278 -13.935 -.17569)"
       id="g1249">
      <path
         d="m49.94 264a6.39 6.39 0 1 1 6.39-6.39 6.4 6.4 0 0 1-6.39 6.39z"
         fill="#121212"
         id="path1239" />
      <path
         d="m49.94 251.35a6.27 6.27 0 1 1-6.26 6.26 6.27 6.27 0 0 1 6.26-6.26m0-0.25a6.52 6.52 0 1 0 6.52 6.51 6.5 6.5 0 0 0-6.52-6.51z"
         fill="#231f20"
         id="path1241" />
      <path
         d="m49.94 262.9a5.29 5.29 0 1 1 5.3-5.29 5.29 5.29 0 0 1-5.3 5.29z"
         fill="#393839"
         id="path1243" />
      <path
         d="m49.94 252.82a4.79 4.79 0 1 1-4.79 4.79 4.8 4.8 0 0 1 4.79-4.79m0-1a5.79 5.79 0 1 0 5.8 5.79 5.79 5.79 0 0 0-5.8-5.79z"
         fill="#333132"
         id="path1245" />
      <path
         d="m49.94 254.38a0.38 0.38 0 0 1-0.38-0.37v-1.54c0-0.2 0.17-0.24 0.38-0.24 0.22 0 0.39 0 0.39 0.24v1.53a0.38 0.38 0 0 1-0.39 0.38z"
         fill="#bec0c2"
         id="path1247" />
    </g>
    <g
       transform="matrix(.35278 0 0 .35278 -19.339 -4.3349)"
       id="g1261">
      <path
         d="m65.26 275.79a6.39 6.39 0 1 1 6.39-6.39 6.39 6.39 0 0 1-6.39 6.39z"
         fill="#121212"
         id="path1251" />
      <path
         d="m65.26 263.14a6.27 6.27 0 1 1-6.26 6.26 6.27 6.27 0 0 1 6.27-6.26m0-0.25a6.52 6.52 0 1 0 6.51 6.51 6.52 6.52 0 0 0-6.51-6.51z"
         fill="#231f20"
         id="path1253" />
      <path
         d="m65.26 274.7a5.3 5.3 0 1 1 5.29-5.3 5.3 5.3 0 0 1-5.29 5.3z"
         fill="#393839"
         id="path1255" />
      <path
         d="m65.26 264.61a4.8 4.8 0 1 1-4.8 4.79 4.8 4.8 0 0 1 4.8-4.79m0-1a5.8 5.8 0 1 0 5.79 5.79 5.8 5.8 0 0 0-5.79-5.79z"
         fill="#333132"
         id="path1257" />
      <path
         d="m65.26 266.17a0.37 0.37 0 0 1-0.39-0.37v-1.54c0-0.2 0.17-0.24 0.39-0.24 0.21 0 0.38 0 0.38 0.24v1.54a0.37 0.37 0 0 1-0.38 0.37z"
         fill="#bec0c2"
         id="path1259" />
    </g>
    <circle
       id="SCALE_CV"
       cx="3.683"
       cy="90.707"
       r="2.3"
       fill="#ff0000"
       stroke-width=".04985">
      <desc
         id="desc1263">SCALE_CV</desc>
      <title
         id="title1265">SCALE_CV</title>
    </circle>
    <circle
       id="LOCK_CV"
       cx="15.346"
       cy="63.384"
       r="2.3"
       fill="#ff0000"
       stroke-width=".04985">
      <desc
         id="desc1268">LOCK_CV</desc>
      <title
         id="title1270">LOCK_CV</title>
    </circle>
    <circle
       id="CLOCK"
       cx="33.464"
       cy="18.282"
       r="4.177"
       fill="#00ff00"
       stroke-width=".090531">
      <desc
         id="desc1273">CLOCK</desc>
      <title
         id="title1275">CLOCK</title>
    </circle>
    <circle
       id="IN"
       cx="7.5283"
       cy="18.282"
       r="4.177"
       fill="#00ff00"
       stroke-width=".090531">
      <desc
         id="desc1278">IN</desc>
      <title
         id="title1280">IN</title>
    </circle>
    <circle
       id="LOCK_CVV"
       cx="6.3817"
       cy="63.384"
       r="4.177"
       fill="#00ff00"
       stroke-width=".090531">
      <desc
         id="desc1283">LOCK_CVV</desc>
      <title
         id="title1285">LOCK_CVV</title>
    </circle>
    <circle
       id="STEPS_CVV"
       cx="34.092"
       cy="102.08"
       r="4.177"
       fill="#00ff00"
       stroke-width=".090531">
      <desc
         id="desc1288">STEPS_CVV</desc>
      <title
         id="title1290">STEPS_CVV</title>
    </circle>
    <circle
       id="OFFSET_CVV"
       cx="20.419"
       cy="102.08"
       r="4.177"
       fill="#00ff00"
       stroke-width=".090531">
      <desc
         id="desc1293">OFFSET_CVV</desc>
      <title
         id="title1295">OFFSET_CVV</title>
    </circle>
    <circle
       id="SCALE_CVV"
       cx="6.3077"
       cy="102.08"
       r="4.177"
       fill="#00ff00"
       stroke-width=".090531">
      <desc
         id="desc1298">SCALE_CVV</desc>
      <title
         id="title1300">SCALE_CVV</title>
    </circle>
    <circle
       id="OUT"
       cx="20.496"
       cy="119.63"
       r="4.177"
       fill="#0000ff"
       stroke-width=".090531">
      <desc
         id="desc1303">OUT</desc>
      <title
         id="title1305">OUT</title>
    </circle>
    <circle
       id="MAN"
       cx="20.429"
       cy="22.871"
       r="1.75"
       fill="#ff00ff"
       stroke-width=".037929">
      <desc
         id="desc1308">MAN</desc>
      <title
         id="title1310">MAN</title>
    </circle>
    <circle
       id="SCREW"
       cx="2.2648"
       cy="1.9445"
       r="1.411"
       fill="#ffff00"
       stroke-width=".030582">
      <desc
         id="desc1313">SCREW</desc>
      <title
         id="title1315">SCREW</title>
    </circle>
    <circle
       cx="38.728"
       cy="1.941"
       r="1.411"
       fill="#ffff00"
       stroke-width=".030582"
       id="circle1322">
      <desc
         id="desc1318">SCREW</desc>
      <title
         id="title1320">SCREW</title>
    </circle>
    <circle
       cx="38.728"
       cy="126.27"
       r="1.411"
       fill="#ffff00"
       stroke-width=".030582"
       id="circle1328">
      <desc
         id="desc1324">SCREW</desc>
      <title
         id="title1326">SCREW</title>
    </circle>
    <circle
       cx="2.2648"
       cy="126.27"
       r="1.411"
       fill="#ffff00"
       stroke-width=".030582"
       id="circle1334">
      <desc
         id="desc1330">SCREW</desc>
      <title
         id="title1332">SCREW</title>
    </circle>
  </g>
  <path
     style="fill:#225aa9;stroke-width:0.35278001;fill-opacity:1"
     d="M 10.002161,5.2355631 A 2.3211954,2.3211954 0 1 1 8.3651074,5.9148193 2.2185742,2.2185742 0 0 1 10.002161,5.2355631 Z M 8.6485384,6.2129085 a 1.8520696,1.8520696 0 0 0 -0.547314,1.34385 1.8227493,1.8227493 0 0 0 0.561974,1.3487371 A 1.9107104,1.9107104 0 0 0 11.927531,7.5567585 1.9107104,1.9107104 0 0 0 8.6631984,6.1982489 Z"
     id="path1076-2-2"
     inkscape:connector-curvature="0" />
  <path
     style="fill:#231f20;stroke-width:0.35278001"
     d="M 10.343869,5.1026579 A 2.3211954,2.3211954 0 1 1 8.7068149,5.7819141 2.2185742,2.2185742 0 0 1 10.343869,5.1026579 Z M 8.9902459,6.0800033 a 1.8520696,1.8520696 0 0 0 -0.547314,1.34385 1.8227493,1.8227493 0 0 0 0.5619736,1.348737 1.9107104,1.9107104 0 0 0 3.2643335,-1.348737 1.9107104,1.9107104 0 0 0 -3.2643335,-1.3585096 z"
     id="path1076-2"
     inkscape:connector-curvature="0" />
</svg>
