<?xml version="1.0" encoding="UTF-8" standalone="no"?>
<svg
   xmlns:dc="http://purl.org/dc/elements/1.1/"
   xmlns:cc="http://creativecommons.org/ns#"
   xmlns:rdf="http://www.w3.org/1999/02/22-rdf-syntax-ns#"
   xmlns:svg="http://www.w3.org/2000/svg"
   xmlns="http://www.w3.org/2000/svg"
   xmlns:sodipodi="http://sodipodi.sourceforge.net/DTD/sodipodi-0.dtd"
   xmlns:inkscape="http://www.inkscape.org/namespaces/inkscape"
   width="40.64mm"
   height="128.5mm"
   version="1.1"
   viewBox="0 0 40.64 128.5"
   id="svg1338"
   sodipodi:docname="polyturing.svg"
   inkscape:version="0.92.4 (5da689c313, 2019-01-14)">
  <metadata
     id="metadata1344">
    <rdf:RDF>
      <cc:Work
         rdf:about="">
        <dc:format>image/svg+xml</dc:format>
        <dc:type
           rdf:resource="http://purl.org/dc/dcmitype/StillImage" />
        <dc:title></dc:title>
      </cc:Work>
    </rdf:RDF>
  </metadata>
  <defs
     id="defs1342" />
  <sodipodi:namedview
     pagecolor="#ffffff"
     bordercolor="#666666"
     borderopacity="1"
     objecttolerance="10"
     gridtolerance="10"
     guidetolerance="10"
     inkscape:pageopacity="0"
     inkscape:pageshadow="2"
     inkscape:window-width="1920"
     inkscape:window-height="1001"
     id="namedview1340"
     showgrid="false"
     inkscape:zoom="13.935408"
     inkscape:cx="58.42402"
     inkscape:cy="372.23882"
     inkscape:window-x="-9"
     inkscape:window-y="-9"
     inkscape:window-maximized="1"
     inkscape:current-layer="svg1338" />
  <g
     display="none"
     id="g1336">
    <circle
       id="LOCK"
       cx="20.514"
       cy="42.853"
       r="15"
       fill="#ff0000"
       stroke-width=".32511">
      <desc
         id="desc1146">LOCK</desc>
      <title
         id="title1148">LOCK</title>
    </circle>
    <circle
       id="STEPS"
       cx="34.167"
       cy="82.046"
       r="5"
       fill="#ff0000"
       stroke-width=".10837">
      <desc
         id="desc1151">STEPS</desc>
      <title
         id="title1153">STEPS</title>
    </circle>
    <circle
       id="OFFSET"
       cx="20.493"
       cy="82.046"
       r="5"
       fill="#ff0000"
       stroke-width=".10837">
      <desc
         id="desc1156">OFFSET</desc>
      <title
         id="title1158">OFFSET</title>
    </circle>
    <circle
       id="SCALE"
       cx="6.3817"
       cy="82.046"
       r="5"
       fill="#ff0000"
       stroke-width=".10837">
      <desc
         id="desc1161">SCALE</desc>
      <title
         id="title1163">SCALE</title>
    </circle>
    <circle
       id="STEPS_RAND"
       cx="36.865"
       cy="94.866"
       r="2.3"
       fill="#ff0000"
       stroke-width=".04985">
      <desc
         id="desc1166">STEPS_RAND</desc>
      <title
         id="title1168">STEPS_RAND</title>
    </circle>
    <circle
       id="STEPS_CV"
       cx="31.468"
       cy="90.707"
       r="2.3"
       fill="#ff0000"
       stroke-width=".04985">
      <desc
         id="desc1171">STEPS_CV</desc>
      <title
         id="title1173">STEPS_CV</title>
    </circle>
    <circle
       id="OFFSET_RAND"
       cx="23.199"
       cy="94.866"
       r="2.3"
       fill="#ff0000"
       stroke-width=".04985">
      <desc
         id="desc1176">OFFSET_RAND</desc>
      <title
         id="title1178">OFFSET_RAND</title>
    </circle>
    <g
       transform="matrix(.35278 0 0 .35278 -5.2282 -4.3349)"
       id="g1191">
      <path
         d="m65.26 275.79a6.39 6.39 0 1 1 6.39-6.39 6.39 6.39 0 0 1-6.39 6.39z"
         fill="#121212"
         id="path1181" />
      <path
         d="m65.26 263.14a6.27 6.27 0 1 1-6.26 6.26 6.27 6.27 0 0 1 6.27-6.26m0-0.25a6.52 6.52 0 1 0 6.51 6.51 6.52 6.52 0 0 0-6.51-6.51z"
         fill="#231f20"
         id="path1183" />
      <path
         d="m65.26 274.7a5.3 5.3 0 1 1 5.29-5.3 5.3 5.3 0 0 1-5.29 5.3z"
         fill="#393839"
         id="path1185" />
      <path
         d="m65.26 264.61a4.8 4.8 0 1 1-4.8 4.79 4.8 4.8 0 0 1 4.8-4.79m0-1a5.8 5.8 0 1 0 5.79 5.79 5.8 5.8 0 0 0-5.79-5.79z"
         fill="#333132"
         id="path1187" />
      <path
         d="m65.26 266.17a0.37 0.37 0 0 1-0.39-0.37v-1.54c0-0.2 0.17-0.24 0.39-0.24 0.21 0 0.38 0 0.38 0.24v1.54a0.37 0.37 0 0 1-0.38 0.37z"
         fill="#bec0c2"
         id="path1189" />
    </g>
    <circle
       id="OFFSET_CV"
       cx="17.794"
       cy="90.707"
       r="2.3"
       fill="#ff0000"
       stroke-width=".04985">
      <desc
         id="desc1193">OFFSET_CV</desc>
      <title
         id="title1195">OFFSET_CV</title>
    </circle>
    <g
       transform="matrix(.35278 0 0 .35278 -8.5302 3.9836)"
       id="g1208">
      <path
         d="m49.94 264a6.39 6.39 0 1 1 6.39-6.39 6.4 6.4 0 0 1-6.39 6.39z"
         fill="#121212"
         id="path1198" />
      <path
         d="m49.94 251.35a6.27 6.27 0 1 1-6.26 6.26 6.27 6.27 0 0 1 6.26-6.26m0-0.25a6.52 6.52 0 1 0 6.52 6.51 6.5 6.5 0 0 0-6.52-6.51z"
         fill="#231f20"
         id="path1200" />
      <path
         d="m49.94 262.9a5.29 5.29 0 1 1 5.3-5.29 5.29 5.29 0 0 1-5.3 5.29z"
         fill="#393839"
         id="path1202" />
      <path
         d="m49.94 252.82a4.79 4.79 0 1 1-4.79 4.79 4.8 4.8 0 0 1 4.79-4.79m0-1a5.79 5.79 0 1 0 5.8 5.79 5.79 5.79 0 0 0-5.8-5.79z"
         fill="#333132"
         id="path1204" />
      <path
         d="m49.94 254.38a0.38 0.38 0 0 1-0.38-0.37v-1.54c0-0.2 0.17-0.24 0.38-0.24 0.22 0 0.39 0 0.39 0.24v1.53a0.38 0.38 0 0 1-0.39 0.38z"
         fill="#bec0c2"
         id="path1206" />
    </g>
    <g
       transform="matrix(.35278 0 0 .35278 -13.935 -.17569)"
       id="g1220">
      <path
         d="m65.26 275.79a6.39 6.39 0 1 1 6.39-6.39 6.39 6.39 0 0 1-6.39 6.39z"
         fill="#121212"
         id="path1210" />
      <path
         d="m65.26 263.14a6.27 6.27 0 1 1-6.26 6.26 6.27 6.27 0 0 1 6.27-6.26m0-0.25a6.52 6.52 0 1 0 6.51 6.51 6.52 6.52 0 0 0-6.51-6.51z"
         fill="#231f20"
         id="path1212" />
      <path
         d="m65.26 274.7a5.3 5.3 0 1 1 5.29-5.3 5.3 5.3 0 0 1-5.29 5.3z"
         fill="#393839"
         id="path1214" />
      <path
         d="m65.26 264.61a4.8 4.8 0 1 1-4.8 4.79 4.8 4.8 0 0 1 4.8-4.79m0-1a5.8 5.8 0 1 0 5.79 5.79 5.8 5.8 0 0 0-5.79-5.79z"
         fill="#333132"
         id="path1216" />
      <path
         d="m65.26 266.17a0.37 0.37 0 0 1-0.39-0.37v-1.54c0-0.2 0.17-0.24 0.39-0.24 0.21 0 0.38 0 0.38 0.24v1.54a0.37 0.37 0 0 1-0.38 0.37z"
         fill="#bec0c2"
         id="path1218" />
    </g>
    <circle
       id="SCALE_RAND"
       cx="9.0876"
       cy="94.866"
       r="2.3"
       fill="#ff0000"
       stroke-width=".04985">
      <desc
         id="desc1222">SCALE_RAND</desc>
      <title
         id="title1224">SCALE_RAND</title>
    </circle>
    <g
       transform="matrix(.35278 0 0 .35278 -5.2282 -4.3349)"
       id="g1237">
      <path
         d="m25.25 275.79a6.39 6.39 0 1 1 6.39-6.39 6.4 6.4 0 0 1-6.39 6.39z"
         fill="#121212"
         id="path1227" />
      <path
         d="m25.25 263.14a6.27 6.27 0 1 1-6.25 6.26 6.27 6.27 0 0 1 6.26-6.26m0-0.25a6.52 6.52 0 1 0 6.52 6.51 6.51 6.51 0 0 0-6.52-6.51z"
         fill="#231f20"
         id="path1229" />
      <path
         d="m25.25 274.7a5.3 5.3 0 1 1 5.3-5.3 5.31 5.31 0 0 1-5.3 5.3z"
         fill="#393839"
         id="path1231" />
      <path
         d="m25.25 264.61a4.8 4.8 0 1 1-4.79 4.79 4.8 4.8 0 0 1 4.79-4.79m0-1a5.8 5.8 0 1 0 5.8 5.79 5.79 5.79 0 0 0-5.8-5.79z"
         fill="#333132"
         id="path1233" />
      <path
         d="m25.25 266.17a0.37 0.37 0 0 1-0.38-0.37v-1.54c0-0.2 0.17-0.24 0.38-0.24 0.22 0 0.39 0 0.39 0.24v1.54a0.37 0.37 0 0 1-0.39 0.37z"
         fill="#bec0c2"
         id="path1235" />
    </g>
    <g
       transform="matrix(.35278 0 0 .35278 -13.935 -.17569)"
       id="g1249">
      <path
         d="m49.94 264a6.39 6.39 0 1 1 6.39-6.39 6.4 6.4 0 0 1-6.39 6.39z"
         fill="#121212"
         id="path1239" />
      <path
         d="m49.94 251.35a6.27 6.27 0 1 1-6.26 6.26 6.27 6.27 0 0 1 6.26-6.26m0-0.25a6.52 6.52 0 1 0 6.52 6.51 6.5 6.5 0 0 0-6.52-6.51z"
         fill="#231f20"
         id="path1241" />
      <path
         d="m49.94 262.9a5.29 5.29 0 1 1 5.3-5.29 5.29 5.29 0 0 1-5.3 5.29z"
         fill="#393839"
         id="path1243" />
      <path
         d="m49.94 252.82a4.79 4.79 0 1 1-4.79 4.79 4.8 4.8 0 0 1 4.79-4.79m0-1a5.79 5.79 0 1 0 5.8 5.79 5.79 5.79 0 0 0-5.8-5.79z"
         fill="#333132"
         id="path1245" />
      <path
         d="m49.94 254.38a0.38 0.38 0 0 1-0.38-0.37v-1.54c0-0.2 0.17-0.24 0.38-0.24 0.22 0 0.39 0 0.39 0.24v1.53a0.38 0.38 0 0 1-0.39 0.38z"
         fill="#bec0c2"
         id="path1247" />
    </g>
    <g
       transform="matrix(.35278 0 0 .35278 -19.339 -4.3349)"
       id="g1261">
      <path
         d="m65.26 275.79a6.39 6.39 0 1 1 6.39-6.39 6.39 6.39 0 0 1-6.39 6.39z"
         fill="#121212"
         id="path1251" />
      <path
         d="m65.26 263.14a6.27 6.27 0 1 1-6.26 6.26 6.27 6.27 0 0 1 6.27-6.26m0-0.25a6.52 6.52 0 1 0 6.51 6.51 6.52 6.52 0 0 0-6.51-6.51z"
         fill="#231f20"
         id="path1253" />
      <path
         d="m65.26 274.7a5.3 5.3 0 1 1 5.29-5.3 5.3 5.3 0 0 1-5.29 5.3z"
         fill="#393839"
         id="path1255" />
      <path
         d="m65.26 264.61a4.8 4.8 0 1 1-4.8 4.79 4.8 4.8 0 0 1 4.8-4.79m0-1a5.8 5.8 0 1 0 5.79 5.79 5.8 5.8 0 0 0-5.79-5.79z"
         fill="#333132"
         id="path1257" />
      <path
         d="m65.26 266.17a0.37 0.37 0 0 1-0.39-0.37v-1.54c0-0.2 0.17-0.24 0.39-0.24 0.21 0 0.38 0 0.38 0.24v1.54a0.37 0.37 0 0 1-0.38 0.37z"
         fill="#bec0c2"
         id="path1259" />
    </g>
    <circle
       id="SCALE_CV"
       cx="3.683"
       cy="90.707"
       r="2.3"
       fill="#ff0000"
       stroke-width=".04985">
      <desc
         id="desc1263">SCALE_CV</desc>
      <title
         id="title1265">SCALE_CV</title>
    </circle>
    <circle
       id="LOCK_CV"
       cx="15.346"
       cy="63.384"
       r="2.3"
       fill="#ff0000"
       stroke-width=".04985">
      <desc
         id="desc1268">LOCK_CV</desc>
      <title
         id="title1270">LOCK_CV</title>
    </circle>
    <circle
       id="CLOCK"
       cx="33.464"
       cy="18.282"
       r="4.177"
       fill="#00ff00"
       stroke-width=".090531">
      <desc
         id="desc1273">CLOCK</desc>
      <title
         id="title1275">CLOCK</title>
    </circle>
    <circle
       id="IN"
       cx="7.5283"
       cy="18.282"
       r="4.177"
       fill="#00ff00"
       stroke-width=".090531">
      <desc
         id="desc1278">IN</desc>
      <title
         id="title1280">IN</title>
    </circle>
    <circle
       id="LOCK_CVV"
       cx="6.3817"
       cy="63.384"
       r="4.177"
       fill="#00ff00"
       stroke-width=".090531">
      <desc
         id="desc1283">LOCK_CVV</desc>
      <title
         id="title1285">LOCK_CVV</title>
    </circle>
    <circle
       id="STEPS_CVV"
       cx="34.092"
       cy="102.08"
       r="4.177"
       fill="#00ff00"
       stroke-width=".090531">
      <desc
         id="desc1288">STEPS_CVV</desc>
      <title
         id="title1290">STEPS_CVV</title>
    </circle>
    <circle
       id="OFFSET_CVV"
       cx="20.419"
       cy="102.08"
       r="4.177"
       fill="#00ff00"
       stroke-width=".090531">
      <desc
         id="desc1293">OFFSET_CVV</desc>
      <title
         id="title1295">OFFSET_CVV</title>
    </circle>
    <circle
       id="SCALE_CVV"
       cx="6.3077"
       cy="102.08"
       r="4.177"
       fill="#00ff00"
       stroke-width=".090531">
      <desc
         id="desc1298">SCALE_CVV</desc>
      <title
         id="title1300">SCALE_CVV</title>
    </circle>
    <circle
       id="OUT"
       cx="20.496"
       cy="119.63"
       r="4.177"
       fill="#0000ff"
       stroke-width=".090531">
      <desc
         id="desc1303">OUT</desc>
      <title
         id="title1305">OUT</title>
    </circle>
    <circle
       id="MAN"
       cx="20.429"
       cy="22.871"
       r="1.75"
       fill="#ff00ff"
       stroke-width=".037929">
      <desc
         id="desc1308">MAN</desc>
      <title
         id="title1310">MAN</title>
    </circle>
    <circle
       id="SCREW"
       cx="2.2648"
       cy="1.9445"
       r="1.411"
       fill="#ffff00"
       stroke-width=".030582">
      <desc
         id="desc1313">SCREW</desc>
      <title
         id="title1315">SCREW</title>
    </circle>
    <circle
       cx="38.728"
       cy="1.941"
       r="1.411"
       fill="#ffff00"
       stroke-width=".030582"
       id="circle1322">
      <desc
         id="desc1318">SCREW</desc>
      <title
         id="title1320">SCREW</title>
    </circle>
    <circle
       cx="38.728"
       cy="126.27"
       r="1.411"
       fill="#ffff00"
       stroke-width=".030582"
       id="circle1328">
      <desc
         id="desc1324">SCREW</desc>
      <title
         id="title1326">SCREW</title>
    </circle>
    <circle
       cx="2.2648"
       cy="126.27"
       r="1.411"
       fill="#ffff00"
       stroke-width=".030582"
       id="circle1334">
      <desc
         id="desc1330">SCREW</desc>
      <title
         id="title1332">SCREW</title>
    </circle>
  </g>
  <g
     id="background"
     transform="matrix(0.35277777,0,0,0.35277777,0.17638889,-0.17568641)">
    <rect
       y="0"
       x="0"
       width="115.2"
       height="364.25"
       style="fill:#007ab5;stroke:#231f20;stroke-miterlimit:10"
       id="rect556" />
  </g>
  <g
     id="g587"
     transform="matrix(0.35277777,0,0,0.35277777,0.17638889,-0.17568641)">
    <g
       id="g571">
      <line
         id="line559"
         style="fill:#231f20;stroke:#111111;stroke-width:0.75px;stroke-miterlimit:10"
         y2="241.25999"
         x2="9.9399996"
         y1="249.42"
         x1="9.9399996" />
      <path
         id="path561"
         style="fill:none;stroke:#111111;stroke-width:0.75px;stroke-miterlimit:10"
         d="m 3.11,261.71 a 7.84,7.84 0 0 1 -1.1,-4 7.93,7.93 0 0 1 15.85,0 7.84,7.84 0 0 1 -1.1,4"
         inkscape:connector-curvature="0" />
      <g
         id="g567">
        <line
           id="line563"
           style="fill:none;stroke:#111111;stroke-width:0.25px;stroke-miterlimit:10"
           y2="263.70001"
           x2="17.969999"
           y1="263.70001"
           x1="15.91" />
        <line
           id="line565"
           style="fill:none;stroke:#111111;stroke-width:0.25px;stroke-miterlimit:10"
           y2="262.67001"
           x2="16.940001"
           y1="264.72"
           x1="16.940001" />
      </g>
      <line
         id="line569"
         style="fill:none;stroke:#111111;stroke-width:0.25px;stroke-miterlimit:10"
         y2="263.70001"
         x2="3.97"
         y1="263.70001"
         x1="1.91" />
    </g>
    <g
       id="g585">
      <line
         id="line573"
         style="fill:#231f20;stroke:#111111;stroke-width:0.75px;stroke-miterlimit:10"
         y2="241.25999"
         x2="25.25"
         y1="261.16"
         x1="25.25" />
      <path
         id="path575"
         style="fill:none;stroke:#111111;stroke-width:0.75px;stroke-miterlimit:10"
         d="m 18.43,273.45 a 7.84,7.84 0 0 1 -1.1,-4 7.93,7.93 0 0 1 15.85,0 7.84,7.84 0 0 1 -1.1,4"
         inkscape:connector-curvature="0" />
      <g
         id="g581">
        <line
           id="line577"
           style="fill:none;stroke:#111111;stroke-width:0.25px;stroke-miterlimit:10"
           y2="275.42999"
           x2="33.279999"
           y1="275.42999"
           x1="31.23" />
        <line
           id="line579"
           style="fill:none;stroke:#111111;stroke-width:0.25px;stroke-miterlimit:10"
           y2="274.39999"
           x2="32.25"
           y1="276.45999"
           x1="32.25" />
      </g>
      <line
         id="line583"
         style="fill:none;stroke:#111111;stroke-width:0.25px;stroke-miterlimit:10"
         y2="275.42999"
         x2="19.280001"
         y1="275.42999"
         x1="17.23" />
    </g>
  </g>
  <g
     id="g617"
     transform="matrix(0.35277777,0,0,0.35277777,0.17638889,-0.17568641)">
    <g
       id="g601">
      <line
         id="line589"
         style="fill:#231f20;stroke:#111111;stroke-width:0.75px;stroke-miterlimit:10"
         y2="241.31"
         x2="49.939999"
         y1="249.47"
         x1="49.939999" />
      <path
         id="path591"
         style="fill:none;stroke:#111111;stroke-width:0.75px;stroke-miterlimit:10"
         d="m 43.12,261.76 a 7.84,7.84 0 0 1 -1.1,-4 7.93,7.93 0 0 1 15.85,0 7.84,7.84 0 0 1 -1.1,4"
         inkscape:connector-curvature="0" />
      <g
         id="g597">
        <line
           id="line593"
           style="fill:none;stroke:#111111;stroke-width:0.25px;stroke-miterlimit:10"
           y2="263.73999"
           x2="57.970001"
           y1="263.73999"
           x1="55.919998" />
        <line
           id="line595"
           style="fill:none;stroke:#111111;stroke-width:0.25px;stroke-miterlimit:10"
           y2="262.72"
           x2="56.939999"
           y1="264.76999"
           x1="56.939999" />
      </g>
      <line
         id="line599"
         style="fill:none;stroke:#111111;stroke-width:0.25px;stroke-miterlimit:10"
         y2="263.73999"
         x2="43.970001"
         y1="263.73999"
         x1="41.919998" />
    </g>
    <g
       id="g615">
      <line
         id="line603"
         style="fill:#231f20;stroke:#111111;stroke-width:0.75px;stroke-miterlimit:10"
         y2="241.31"
         x2="65.260002"
         y1="261.20001"
         x1="65.260002" />
      <path
         id="path605"
         style="fill:none;stroke:#111111;stroke-width:0.75px;stroke-miterlimit:10"
         d="m 58.43,273.49 a 7.84,7.84 0 0 1 -1.1,-4 7.93,7.93 0 0 1 15.85,0 7.84,7.84 0 0 1 -1.1,4"
         inkscape:connector-curvature="0" />
      <g
         id="g611">
        <line
           id="line607"
           style="fill:none;stroke:#111111;stroke-width:0.25px;stroke-miterlimit:10"
           y2="275.48001"
           x2="73.279999"
           y1="275.48001"
           x1="71.230003" />
        <line
           id="line609"
           style="fill:none;stroke:#111111;stroke-width:0.25px;stroke-miterlimit:10"
           y2="274.45001"
           x2="72.260002"
           y1="276.5"
           x1="72.260002" />
      </g>
      <line
         id="line613"
         style="fill:none;stroke:#111111;stroke-width:0.25px;stroke-miterlimit:10"
         y2="275.48001"
         x2="59.279999"
         y1="275.48001"
         x1="57.23" />
    </g>
  </g>
  <g
     id="g647"
     transform="matrix(0.35277777,0,0,0.35277777,0.17638889,-0.17568641)">
    <g
       id="g631">
      <line
         id="line619"
         style="fill:#231f20;stroke:#111111;stroke-width:0.75px;stroke-miterlimit:10"
         y2="241.31"
         x2="88.699997"
         y1="249.47"
         x1="88.699997" />
      <path
         id="path621"
         style="fill:none;stroke:#111111;stroke-width:0.75px;stroke-miterlimit:10"
         d="m 81.88,261.76 a 7.84,7.84 0 0 1 -1.1,-4 7.93,7.93 0 0 1 15.85,0 7.84,7.84 0 0 1 -1.1,4"
         inkscape:connector-curvature="0" />
      <g
         id="g627">
        <line
           id="line623"
           style="fill:none;stroke:#111111;stroke-width:0.25px;stroke-miterlimit:10"
           y2="263.73999"
           x2="96.730003"
           y1="263.73999"
           x1="94.669998" />
        <line
           id="line625"
           style="fill:none;stroke:#111111;stroke-width:0.25px;stroke-miterlimit:10"
           y2="262.72"
           x2="95.699997"
           y1="264.76999"
           x1="95.699997" />
      </g>
      <line
         id="line629"
         style="fill:none;stroke:#111111;stroke-width:0.25px;stroke-miterlimit:10"
         y2="263.73999"
         x2="82.730003"
         y1="263.73999"
         x1="80.669998" />
    </g>
    <g
       id="g645">
      <line
         id="line633"
         style="fill:#231f20;stroke:#111111;stroke-width:0.75px;stroke-miterlimit:10"
         y2="241.31"
         x2="104.01"
         y1="261.20001"
         x1="104.01" />
      <path
         id="path635"
         style="fill:none;stroke:#111111;stroke-width:0.75px;stroke-miterlimit:10"
         d="m 97.19,273.49 a 7.84,7.84 0 0 1 -1.1,-4 7.93,7.93 0 0 1 15.85,0 7.84,7.84 0 0 1 -1.1,4"
         inkscape:connector-curvature="0" />
      <g
         id="g641">
        <line
           id="line637"
           style="fill:none;stroke:#111111;stroke-width:0.25px;stroke-miterlimit:10"
           y2="275.48001"
           x2="112.04"
           y1="275.48001"
           x1="109.99" />
        <line
           id="line639"
           style="fill:none;stroke:#111111;stroke-width:0.25px;stroke-miterlimit:10"
           y2="274.45001"
           x2="111.01"
           y1="276.5"
           x1="111.01" />
      </g>
      <line
         id="line643"
         style="fill:none;stroke:#111111;stroke-width:0.25px;stroke-miterlimit:10"
         y2="275.48001"
         x2="98.040001"
         y1="275.48001"
         x1="95.989998" />
    </g>
  </g>
  <line
     id="line649"
     style="fill:none;stroke:#231f20;stroke-width:0.26458332px;stroke-miterlimit:10"
     y2="60.353924"
     x2="20.496387"
     y1="55.894814"
     x1="20.496387" />
  <line
     id="line651"
     style="fill:none;stroke:#231f20;stroke-width:0.26458332px;stroke-miterlimit:10"
     y2="63.525398"
     x2="4.6249166"
     y1="63.525398"
     x1="12.527138" />
  <path
     id="path653"
     style="fill:none;stroke:#231f20;stroke-width:0.26458332px;stroke-miterlimit:10"
     d="m 18.168055,63.497173 c 0,0 2.345972,0.553861 2.345972,-3.33375"
     inkscape:connector-curvature="0" />
  <g
     id="g665"
     transform="matrix(0.35277777,0,0,0.35277777,0.17638889,-0.17568641)">
    <path
       id="path655"
       style="fill:none;stroke:#111111;stroke-width:0.75px;stroke-miterlimit:10"
       d="m 36.21,184.28 a 7.84,7.84 0 0 1 -1.1,-4 7.93,7.93 0 0 1 15.85,0 7.84,7.84 0 0 1 -1.1,4"
       inkscape:connector-curvature="0" />
    <g
       id="g661">
      <line
         id="line657"
         style="fill:none;stroke:#111111;stroke-width:0.25px;stroke-miterlimit:10"
         y2="186.27"
         x2="51.060001"
         y1="186.27"
         x1="49.009998" />
      <line
         id="line659"
         style="fill:none;stroke:#111111;stroke-width:0.25px;stroke-miterlimit:10"
         y2="185.24001"
         x2="50.029999"
         y1="187.28999"
         x1="50.029999" />
    </g>
    <line
       id="line663"
       style="fill:none;stroke:#111111;stroke-width:0.25px;stroke-miterlimit:10"
       y2="186.27"
       x2="37.060001"
       y1="186.27"
       x1="35.009998" />
  </g>
  <path
     id="path667"
     style="fill:none;stroke:#231f20;stroke-width:0.26458332px;stroke-miterlimit:10"
     d="m 20.185944,22.871285 c 0,-2.536472 -1.954389,-4.586111 -4.363861,-4.586111 h -4.8895"
     inkscape:connector-curvature="0" />
  <path
     id="path669"
     style="fill:none;stroke:#231f20;stroke-width:0.26458332px;stroke-miterlimit:10"
     d="m 20.672777,22.871285 c 0,-2.536472 1.950861,-4.586111 4.363861,-4.586111 h 5.023556"
     inkscape:connector-curvature="0" />
  <circle
     id="circle671"
     style="fill:#231f20;stroke:#231f20;stroke-width:0.26458332px;stroke-miterlimit:10"
     r="1.8838333"
     cy="22.871286"
     cx="20.429361" />
  <line
     id="line673"
     style="fill:#28170b;stroke:#231f20;stroke-width:0.26458332px;stroke-miterlimit:10"
     y2="33.43047"
     x2="20.429363"
     y1="24.882118"
     x1="20.429363" />
  <g
     id="g679"
     transform="matrix(0.35277777,0,0,0.35277777,0.17638889,-0.17568641)">
    <path
       id="path675"
       style="fill:#282828"
       d="m 17.6,218 c -0.3,0 -0.57,-0.69 -0.57,-1 a 0.57,0.57 0 0 1 0.57,-0.57 0.56,0.56 0 0 1 0.56,0.57 c 0,0.35 -0.27,1 -0.56,1 z"
       inkscape:connector-curvature="0" />
    <path
       id="path677"
       style="fill:#231f20"
       d="m 17.6,216.51 a 0.51,0.51 0 0 1 0.51,0.52 c 0,0.33 -0.27,1 -0.51,1 -0.24,0 -0.52,-0.64 -0.52,-1 a 0.52,0.52 0 0 1 0.52,-0.52 m 0,-0.1 A 0.62,0.62 0 0 0 17,217 c 0,0.34 0.28,1.07 0.62,1.07 0.34,0 0.61,-0.73 0.61,-1.07 a 0.61,0.61 0 0 0 -0.61,-0.62 z"
       inkscape:connector-curvature="0" />
  </g>
  <g
     id="g685"
     transform="matrix(0.35277777,0,0,0.35277777,0.17638889,-0.17568641)">
    <path
       id="path681"
       style="fill:#282828"
       d="m 57.6,218 c -0.3,0 -0.56,-0.69 -0.56,-1 a 0.56,0.56 0 1 1 1.12,0 c 0,0.35 -0.26,1 -0.56,1 z"
       inkscape:connector-curvature="0" />
    <path
       id="path683"
       style="fill:#231f20"
       d="m 57.6,216.51 a 0.51,0.51 0 0 1 0.51,0.52 c 0,0.33 -0.27,1 -0.51,1 -0.24,0 -0.51,-0.64 -0.51,-1 a 0.51,0.51 0 0 1 0.51,-0.52 m 0,-0.1 A 0.61,0.61 0 0 0 57,217 c 0,0.34 0.27,1.07 0.61,1.07 0.34,0 0.61,-0.73 0.61,-1.07 a 0.61,0.61 0 0 0 -0.61,-0.62 z"
       inkscape:connector-curvature="0" />
  </g>
  <g
     id="g691"
     transform="matrix(0.35277777,0,0,0.35277777,0.17638889,-0.17568641)">
    <path
       id="path687"
       style="fill:#282828"
       d="m 96.36,218 c -0.3,0 -0.57,-0.69 -0.57,-1 a 0.57,0.57 0 0 1 0.57,-0.57 0.56,0.56 0 0 1 0.56,0.57 c 0,0.35 -0.27,1 -0.56,1 z"
       inkscape:connector-curvature="0" />
    <path
       id="path689"
       style="fill:#231f20"
       d="m 96.36,216.51 a 0.51,0.51 0 0 1 0.51,0.52 c 0,0.33 -0.27,1 -0.51,1 -0.24,0 -0.52,-0.64 -0.52,-1 a 0.52,0.52 0 0 1 0.52,-0.52 m 0,-0.1 a 0.62,0.62 0 0 0 -0.62,0.62 c 0,0.34 0.28,1.07 0.62,1.07 0.34,0 0.61,-0.73 0.61,-1.07 a 0.61,0.61 0 0 0 -0.61,-0.62 z"
       inkscape:connector-curvature="0" />
  </g>
  <path
     id="path693"
     style="fill:none;stroke:#231f20;stroke-width:0.26458332px;stroke-miterlimit:10"
     d="m 14.238111,98.048228 c 0,-1.975555 -1.037167,-3.573639 -2.321278,-3.573639"
     inkscape:connector-curvature="0" />
  <path
     id="path695"
     style="fill:none;stroke:#231f20;stroke-width:0.26458332px;stroke-miterlimit:10"
     d="m 14.241639,98.048228 a 3.570111,3.570111 0 0 1 3.573638,-3.573639"
     inkscape:connector-curvature="0" />
  <line
     id="line697"
     style="fill:none;stroke:#231f20;stroke-width:0.26458332px;stroke-miterlimit:10"
     y2="94.474586"
     x2="20.418777"
     y1="94.474586"
     x1="17.81175" />
  <path
     id="path699"
     style="fill:none;stroke:#111111;stroke-width:0.17638889px;stroke-miterlimit:10"
     d="m 13.335,99.611034 a 1.0583333,1.0583333 0 1 1 1.957916,-0.532695 1.016,1.016 0 0 1 -0.148166,0.532695"
     inkscape:connector-curvature="0" />
  <circle
     id="circle701"
     r="0.79022223"
     cy="99.071281"
     cx="14.241638"
     style="stroke-width:0.35277778" />
  <path
     id="path703"
     style="fill:none;stroke:#231f20;stroke-width:0.26458332px;stroke-miterlimit:10"
     d="m 28.373916,98.048228 a 3.570111,3.570111 0 0 1 3.573639,-3.573639"
     inkscape:connector-curvature="0" />
  <path
     id="path705"
     style="fill:none;stroke:#111111;stroke-width:0.17638889px;stroke-miterlimit:10"
     d="m 27.467277,99.611034 a 1.0583333,1.0583333 0 1 1 1.813278,0"
     inkscape:connector-curvature="0" />
  <circle
     id="circle707"
     r="0.79022223"
     cy="99.071281"
     cx="28.373917"
     style="stroke-width:0.35277778" />
  <line
     id="line709"
     style="fill:none;stroke:#231f20;stroke-width:0.26458332px;stroke-miterlimit:10"
     y2="94.474586"
     x2="34.039528"
     y1="94.474586"
     x1="31.947554" />
  <line
     id="line711"
     style="fill:none;stroke:#231f20;stroke-width:0.26458332px;stroke-miterlimit:10"
     y2="114.92864"
     x2="14.241638"
     y1="99.865028"
     x1="14.241638" />
  <line
     id="line713"
     style="fill:none;stroke:#231f20;stroke-width:0.26458332px;stroke-miterlimit:10"
     y2="103.80203"
     x2="28.373917"
     y1="99.865028"
     x1="28.373917" />
  <path
     id="path715"
     style="fill:none;stroke:#231f20;stroke-width:0.26458332px;stroke-miterlimit:10"
     d="m 14.241639,114.92864 a 4.4732221,4.4732221 0 0 0 4.476749,4.48734"
     inkscape:connector-curvature="0" />
  <line
     id="line717"
     style="fill:none;stroke:#231f20;stroke-width:0.26458332px;stroke-miterlimit:10"
     y2="108.08475"
     x2="16.344194"
     y1="108.08475"
     x1="24.105307" />
  <path
     id="path719"
     style="fill:none;stroke:#231f20;stroke-width:0.26458332px;stroke-miterlimit:10"
     d="M 14.238111,110.24376 A 2.1448888,2.1448888 0 0 1 16.383,108.09887"
     inkscape:connector-curvature="0" />
  <path
     id="path721"
     style="fill:none;stroke:#231f20;stroke-width:0.26458332px;stroke-miterlimit:10"
     d="m 28.373916,103.80203 a 4.2721388,4.2721388 0 0 1 -4.268611,4.28273"
     inkscape:connector-curvature="0" />
  <g
     id="g736"
     transform="matrix(0.35277777,0,0,0.35277777,0.17638889,-0.17568641)">
    <path
       id="path724"
       style="fill:#225aa9"
       d="m 29.13,17 v -5.76 h 1.24 V 17 h 2.76 v 1.25 H 30.37 V 30.57 H 29.13 V 18.26 H 26.37 V 17 Z"
       inkscape:connector-curvature="0" />
    <path
       id="path726"
       style="fill:#225aa9"
       d="m 40.58,30.76 a 5.46,5.46 0 0 1 -4,-1.5 A 5.32,5.32 0 0 1 35,25.46 V 17 h 1.25 v 8.36 a 4,4 0 0 0 1.25,2.94 4.18,4.18 0 0 0 3.08,1.23 4.1,4.1 0 0 0 3,-1.22 4,4 0 0 0 1.24,-2.95 V 17 H 46 v 8.47 a 5.32,5.32 0 0 1 -1.55,3.8 5.25,5.25 0 0 1 -3.87,1.49 z"
       inkscape:connector-curvature="0" />
    <path
       id="path728"
       style="fill:#225aa9"
       d="m 53.72,18.1 a 4.49,4.49 0 0 0 -2.6,1.69 4.58,4.58 0 0 0 -1.29,3 v 7.78 H 48.58 V 17 h 1.25 v 2.93 a 5.38,5.38 0 0 1 3.21,-3 z"
       inkscape:connector-curvature="0" />
    <path
       id="path730"
       style="fill:#225aa9"
       d="m 57.08,12.57 a 1.18,1.18 0 0 1 0.36,0.86 1.24,1.24 0 0 1 -2.11,0.89 1.19,1.19 0 0 1 -0.37,-0.89 1.15,1.15 0 0 1 0.37,-0.86 1.24,1.24 0 0 1 1.75,0 z M 56.82,17 V 30.57 H 55.58 V 17 Z"
       inkscape:connector-curvature="0" />
    <path
       id="path732"
       style="fill:#225aa9"
       d="M 61.47,20 V 30.57 H 60.22 V 17 h 1.25 v 0.87 a 5.43,5.43 0 0 1 3.94,-1.69 5.22,5.22 0 0 1 5.46,5.3 v 9.08 h -1.24 v -8.94 a 4,4 0 0 0 -1.25,-3 4.21,4.21 0 0 0 -5.92,0 4.59,4.59 0 0 0 -0.99,1.38 z"
       inkscape:connector-curvature="0" />
    <path
       id="path734"
       style="fill:#225aa9"
       d="m 86.93,27.88 q -0.36,0.44 -0.75,0.84 a 7.59,7.59 0 0 1 -13,-5.34 7.6,7.6 0 0 1 13,-5.37 9.73,9.73 0 0 1 0.78,0.92 V 17 h 1.25 v 10.54 a 7.12,7.12 0 0 1 -2.21,5.22 7.58,7.58 0 0 1 -10.74,0 9.88,9.88 0 0 1 -0.81,-0.94 l 1.31,-0.49 a 5.25,5.25 0 0 0 0.46,0.49 6.23,6.23 0 0 0 8.84,0 6.07,6.07 0 0 0 1.87,-3.94 z m 0,-5.8 a 6.13,6.13 0 0 0 -1.7,-3.14 6.27,6.27 0 0 0 -10.7,4.44 6.27,6.27 0 0 0 12.4,1.31 z"
       inkscape:connector-curvature="0" />
  </g>
  <g
     id="g748"
     transform="matrix(0.35277777,0,0,0.35277777,0.17638889,-0.17568641)">
    <path
       id="path738"
       style="fill:#225aa9"
       d="m 81.36,76.55 0.82,0.3 a 4.61,4.61 0 0 1 -0.51,0.58 4.72,4.72 0 0 1 -6.7,0 4.74,4.74 0 1 1 7.21,-6.12 l -0.82,0.3 -0.27,-0.31 a 3.82,3.82 0 0 0 -2.78,-1.14 3.92,3.92 0 1 0 2.78,6.68 c 0.09,-0.09 0.19,-0.19 0.27,-0.29 z"
       inkscape:connector-curvature="0" />
    <path
       id="path740"
       style="fill:#225aa9"
       d="M 84.54,64.78 V 78.59 H 83.76 V 64.78 Z"
       inkscape:connector-curvature="0" />
    <path
       id="path742"
       style="fill:#225aa9"
       d="m 91.06,69.35 a 4.74,4.74 0 1 1 -3.35,8.09 4.74,4.74 0 0 1 3.35,-8.09 z m -2.77,2 a 3.91,3.91 0 1 0 2.77,-1.15 3.77,3.77 0 0 0 -2.77,1.12 z"
       inkscape:connector-curvature="0" />
    <path
       id="path744"
       style="fill:#225aa9"
       d="m 104.79,76.55 0.82,0.3 a 4.61,4.61 0 0 1 -0.51,0.58 4.72,4.72 0 0 1 -6.7,0 4.74,4.74 0 1 1 7.21,-6.12 l -0.82,0.3 -0.28,-0.31 a 3.92,3.92 0 1 0 0,5.54 z"
       inkscape:connector-curvature="0" />
    <path
       id="path746"
       style="fill:#225aa9"
       d="m 111.21,70.11 -2.09,2.59 3.33,5.89 h -1 l -2.88,-5.27 -0.76,0.94 v 4.33 h -0.78 V 66.51 h 0.78 V 73 l 2.36,-2.91 z"
       inkscape:connector-curvature="0" />
  </g>
  <path
     inkscape:connector-curvature="0"
     d="m 29.915555,74.348618 a 1.7039166,1.7039166 0 0 1 -0.352778,-0.243417 0.53622221,0.53622221 0 0 1 0,-0.762 0.53269443,0.53269443 0 0 1 0.747889,0 0.44802777,0.44802777 0 0 1 0.141111,0.324555 v 0 l -0.176389,0.07408 a 0.4586111,0.4586111 0 0 0 -0.109361,-0.261056 0.29280555,0.29280555 0 0 0 -0.225778,-0.08819 0.35277777,0.35277777 0 0 0 -0.331611,0.331611 0.32102777,0.32102777 0 0 0 0.09878,0.236361 1.3335,1.3335 0 0 0 0.239889,0.176389 1.8873611,1.8873611 0 0 1 0.416278,0.282222 0.6491111,0.6491111 0 0 1 0.194027,0.465667 0.65969443,0.65969443 0 0 1 -0.194027,0.47625 0.67027776,0.67027776 0 0 1 -0.941917,0 0.59972221,0.59972221 0 0 1 -0.194028,-0.430389 l 0.204611,-0.04939 a 0.44449999,0.44449999 0 0 0 0.137584,0.331611 0.43391666,0.43391666 0 0 0 0.321027,0.137583 0.44802777,0.44802777 0 0 0 0.328084,-0.137583 0.43391666,0.43391666 0 0 0 0.134055,-0.328083 0.42333332,0.42333332 0 0 0 -0.134055,-0.321028 2.0390555,2.0390555 0 0 0 -0.303389,-0.215194 z"
     style="fill:#225aa9;stroke-width:0.35277778"
     id="path750" />
  <path
     inkscape:connector-curvature="0"
     d="m 31.284333,73.307923 v -0.9525 h 0.204611 v 0.9525 h 0.455083 v 0.208139 h -0.455083 v 2.035528 h -0.204611 v -2.035528 h -0.458611 v -0.208139 z"
     style="fill:#225aa9;stroke-width:0.35277778"
     id="path752" />
  <path
     inkscape:connector-curvature="0"
     d="m 34.956749,73.307923 h 0.208139 v 0.3175 a 1.2594166,1.2594166 0 0 1 0.127,-0.151694 1.2558889,1.2558889 0 0 1 1.763889,1.763888 1.2029722,1.2029722 0 0 1 -0.885472,0.352778 1.2170833,1.2170833 0 0 1 -0.889,-0.352778 1.2594166,1.2594166 0 0 1 -0.127,-0.151694 v 1.312333 h -0.208139 z m 0.208139,0.839611 v 0.430389 a 0.94544442,0.94544442 0 0 0 0.282222,0.518583 1.0371666,1.0371666 0 1 0 0,-1.467555 0.97013887,0.97013887 0 0 0 -0.282222,0.518583 z"
     style="fill:#225aa9;stroke-width:0.35277778"
     id="path756" />
  <path
     inkscape:connector-curvature="0"
     d="m 38.424555,74.348618 a 1.8520833,1.8520833 0 0 1 -0.352778,-0.243417 0.54680554,0.54680554 0 0 1 0,-0.762 0.51858332,0.51858332 0 0 1 0.381,-0.15875 0.50094443,0.50094443 0 0 1 0.352778,0.148167 0.44802777,0.44802777 0 0 1 0.141111,0.324555 v 0 l -0.176389,0.07408 a 0.4586111,0.4586111 0 0 0 -0.109361,-0.261055 0.29280555,0.29280555 0 0 0 -0.225778,-0.08819 0.3316111,0.3316111 0 0 0 -0.331611,0.331612 0.3316111,0.3316111 0 0 0 0.09525,0.236361 1.5663333,1.5663333 0 0 0 0.243417,0.176389 1.8873611,1.8873611 0 0 1 0.416277,0.282222 0.6491111,0.6491111 0 0 1 0.194028,0.465666 0.66322221,0.66322221 0 0 1 -0.66675,0.670278 0.6491111,0.6491111 0 0 1 -0.469194,-0.194028 0.59972221,0.59972221 0 0 1 -0.194028,-0.430389 l 0.204611,-0.04939 a 0.45508332,0.45508332 0 0 0 0.134056,0.331611 0.46213888,0.46213888 0 0 0 0.786694,-0.328084 0.43744443,0.43744443 0 0 0 -0.134056,-0.321027 2.0390555,2.0390555 0 0 0 -0.289277,-0.204611 z"
     style="fill:#225aa9;stroke-width:0.35277778"
     id="path758" />
  <path
     inkscape:connector-curvature="0"
     d="m 16.845139,73.10684 a 1.2558889,1.2558889 0 0 1 0.889,2.141361 1.2558889,1.2558889 0 0 1 -1.763889,0 1.2558889,1.2558889 0 0 1 0.885472,-2.141361 z m -0.733778,0.522111 a 1.0406944,1.0406944 0 1 0 0.733778,-0.303389 1.0089444,1.0089444 0 0 0 -0.733778,0.303389 z"
     style="fill:#225aa9;stroke-width:0.35277778"
     id="path762" />
  <path
     inkscape:connector-curvature="0"
     d="m 18.774833,73.516062 v 2.035528 h -0.204611 v -2.035528 h -0.229306 v -0.208139 h 0.229306 v -0.606778 a 0.66674999,0.66674999 0 0 1 0.194028,-0.437444 0.62441665,0.62441665 0 0 1 0.430388,-0.172861 0.87136109,0.87136109 0 0 1 0.271639,0.04939 l -0.06703,0.183444 a 0.50447221,0.50447221 0 0 0 -0.183445,-0.0388 0.46213888,0.46213888 0 0 0 -0.306917,0.127 0.45508332,0.45508332 0 0 0 -0.134055,0.306916 v 0.589139 h 0.451555 v 0.208139 z"
     style="fill:#225aa9;stroke-width:0.35277778"
     id="path764" />
  <path
     inkscape:connector-curvature="0"
     d="M 19.766138,73.516062 V 75.55159 H 19.558 V 73.516062 H 19.332222 V 73.307923 H 19.558 v -0.606778 a 0.66674999,0.66674999 0 0 1 0.194027,-0.437444 0.63499999,0.63499999 0 0 1 0.430389,-0.172861 0.8537222,0.8537222 0 0 1 0.271639,0.04939 l -0.0635,0.183444 a 0.5221111,0.5221111 0 0 0 -0.186972,-0.0388 0.45155555,0.45155555 0 0 0 -0.303389,0.127 0.43744443,0.43744443 0 0 0 -0.134056,0.306916 v 0.589139 h 0.455084 v 0.208139 z"
     style="fill:#225aa9;stroke-width:0.35277778"
     id="path766" />
  <path
     inkscape:connector-curvature="0"
     d="m 21.099638,74.348618 a 1.7039166,1.7039166 0 0 1 -0.352777,-0.243417 0.53974999,0.53974999 0 0 1 0.373944,-0.903111 0.49388888,0.49388888 0 0 1 0.352778,0.148166 0.45155555,0.45155555 0 0 1 0.144639,0.324556 v 0 l -0.179917,0.07408 a 0.43744443,0.43744443 0 0 0 -0.109361,-0.261055 0.28927777,0.28927777 0 0 0 -0.22225,-0.08819 0.31397222,0.31397222 0 0 0 -0.236361,0.09878 0.30691666,0.30691666 0 0 0 -0.09878,0.232833 0.32102777,0.32102777 0 0 0 0.09878,0.236362 1.4851944,1.4851944 0 0 0 0.239889,0.176388 1.8873611,1.8873611 0 0 1 0.416278,0.282223 0.63499999,0.63499999 0 0 1 0.194027,0.465666 0.66674999,0.66674999 0 0 1 -1.135944,0.47625 0.61383332,0.61383332 0 0 1 -0.194028,-0.430389 l 0.204611,-0.04939 a 0.44449999,0.44449999 0 0 0 0.137584,0.331612 0.43391666,0.43391666 0 0 0 0.324555,0.137583 0.44449999,0.44449999 0 0 0 0.324556,-0.137583 0.43744443,0.43744443 0 0 0 0.137583,-0.328084 0.4268611,0.4268611 0 0 0 -0.137583,-0.321028 2.0390555,2.0390555 0 0 0 -0.282223,-0.222249 z"
     style="fill:#225aa9;stroke-width:0.35277778"
     id="path768" />
  <path
     inkscape:connector-curvature="0"
     d="m 22.2885,74.260423 a 0.62088888,0.62088888 0 0 0 0,0.116417 1.0371666,1.0371666 0 0 0 1.763888,0.73025 1.4534444,1.4534444 0 0 0 0.09878,-0.109361 l 0.218722,0.07761 a 1.143,1.143 0 0 1 -0.162277,0.186972 1.2558889,1.2558889 0 1 1 0,-1.763889 1.0583333,1.0583333 0 0 1 0.310444,0.762 z m 0.0388,-0.208139 h 1.9685 a 0.97719442,0.97719442 0 0 0 -0.246944,-0.409222 1.0406944,1.0406944 0 0 0 -1.467556,0 1.0583333,1.0583333 0 0 0 -0.254,0.395111 z"
     style="fill:#225aa9;stroke-width:0.35277778"
     id="path770" />
  <path
     inkscape:connector-curvature="0"
     d="m 25.160111,73.307923 v -0.9525 h 0.204611 v 0.9525 h 0.458611 v 0.208139 h -0.458611 v 2.035528 h -0.204611 v -2.035528 h -0.458612 v -0.208139 z"
     style="fill:#225aa9;stroke-width:0.35277778"
     id="path772" />
  <path
     inkscape:connector-curvature="0"
     d="M 2.1307777,74.348618 A 1.7039166,1.7039166 0 0 1 1.778,74.105201 a 0.53622221,0.53622221 0 0 1 0,-0.762 0.50799999,0.50799999 0 0 1 0.3704166,-0.141111 0.50094443,0.50094443 0 0 1 0.3527778,0.148166 0.44802777,0.44802777 0 0 1 0.1411111,0.324556 v 0 l -0.1763889,0.07408 a 0.4586111,0.4586111 0 0 0 -0.1093611,-0.261055 0.29280555,0.29280555 0 0 0 -0.2257778,-0.08819 0.35277777,0.35277777 0 0 0 -0.3316111,0.331611 0.32102777,0.32102777 0 0 0 0.098778,0.236362 1.3335,1.3335 0 0 0 0.2398889,0.176388 1.8873611,1.8873611 0 0 1 0.4162778,0.282223 0.6491111,0.6491111 0 0 1 0.1940277,0.465666 0.65969443,0.65969443 0 0 1 -0.1940277,0.47625 0.67027776,0.67027776 0 0 1 -0.9419167,0 0.59972221,0.59972221 0 0 1 -0.1940278,-0.430389 l 0.2046111,-0.04939 A 0.45508332,0.45508332 0 0 0 1.7568333,75.219979 0.46213888,0.46213888 0 0 0 2.5435277,74.891895 0.43744443,0.43744443 0 0 0 2.4094722,74.570867 2.0390555,2.0390555 0 0 0 2.1307777,74.348618 Z"
     style="fill:#225aa9;stroke-width:0.35277778"
     id="path776" />
  <path
     inkscape:connector-curvature="0"
     d="m 5.1505554,75.01184 0.2187223,0.08114 a 1.3617222,1.3617222 0 0 1 -0.1340556,0.155222 1.2241389,1.2241389 0 0 1 -0.889,0.352778 1.2558889,1.2558889 0 0 1 -0.8854722,-2.141361 1.2100278,1.2100278 0 0 1 0.8854722,-0.352778 1.2241389,1.2241389 0 0 1 0.889,0.352778 1.3617222,1.3617222 0 0 1 0.1340556,0.155222 l -0.2187223,0.08114 -0.070556,-0.08467 a 1.0054166,1.0054166 0 0 0 -0.7337778,-0.299861 1.0336389,1.0336389 0 0 0 -0.73025,1.763889 0.99483331,0.99483331 0 0 0 0.73025,0.303389 1.0089444,1.0089444 0 0 0 0.7337778,-0.303389 c 0.035278,-0.01058 0.035278,-0.03528 0.070556,-0.0635 z"
     style="fill:#225aa9;stroke-width:0.35277778"
     id="path778" />
  <path
     inkscape:connector-curvature="0"
     d="M 8.1703332,75.55159 H 7.9657221 v -0.458611 a 1.3793611,1.3793611 0 0 1 -0.1305278,0.155222 1.2558889,1.2558889 0 1 1 0,-1.763889 1.7638888,1.7638888 0 0 1 0.1305278,0.151694 v -0.3175 H 8.1703332 Z M 7.9657221,74.563812 v -0.405694 a 1.0371666,1.0371666 0 0 0 -1.7638889,-0.529167 0.99483331,0.99483331 0 0 0 -0.3033889,0.733778 1.0371666,1.0371666 0 0 0 1.0336389,1.033638 1.0583333,1.0583333 0 0 0 1.0195277,-0.832555 z"
     style="fill:#225aa9;stroke-width:0.35277778"
     id="path780" />
  <path
     inkscape:connector-curvature="0"
     d="M 8.8935276,71.896812 V 75.55159 H 8.6853887 v -3.654778 z"
     style="fill:#225aa9;stroke-width:0.35277778"
     id="path782" />
  <g
     id="g794"
     transform="matrix(0.35277777,0,0,0.35277777,0.17638889,-0.17568641)">
    <path
       id="path788"
       style="fill:#225aa9"
       d="m 50.05,315.41 a 4.73,4.73 0 1 1 -3.35,1.38 4.57,4.57 0 0 1 3.35,-1.38 z m -2.77,2 a 3.91,3.91 0 1 0 2.77,-1.15 3.77,3.77 0 0 0 -2.77,1.12 z"
       inkscape:connector-curvature="0" />
    <path
       id="path790"
       style="fill:#225aa9"
       d="m 59.83,324.76 a 3.44,3.44 0 0 1 -2.53,-0.93 3.35,3.35 0 0 1 -1,-2.38 v -5.29 h 0.78 v 5.22 a 2.48,2.48 0 0 0 0.78,1.84 2.61,2.61 0 0 0 1.92,0.77 2.65,2.65 0 0 0 2.63,-2.61 v -5.22 h 0.78 v 5.29 a 3.32,3.32 0 0 1 -1,2.38 3.29,3.29 0 0 1 -2.36,0.93 z"
       inkscape:connector-curvature="0" />
    <path
       id="path792"
       style="fill:#225aa9"
       d="m 66.12,316.17 v -3.6 h 0.77 v 3.6 h 1.73 V 317 h -1.73 v 7.7 H 66.12 V 317 h -1.73 v -0.78 z"
       inkscape:connector-curvature="0" />
  </g>
  <g
     id="g800"
     transform="matrix(0.35277777,0,0,0.35277777,0.17638889,-0.17568641)">
    <path
       id="path796"
       style="fill:#225aa9"
       d="m 16.2,67.34 a 0.7,0.7 0 0 1 0.23,0.53 0.72,0.72 0 0 1 -0.23,0.56 0.74,0.74 0 0 1 -0.54,0.23 0.76,0.76 0 0 1 -0.55,-0.23 0.75,0.75 0 0 1 -0.23,-0.56 0.74,0.74 0 0 1 0.23,-0.53 0.76,0.76 0 0 1 0.55,-0.23 0.74,0.74 0 0 1 0.54,0.23 z M 16,70.11 v 8.48 h -0.77 v -8.48 z"
       inkscape:connector-curvature="0" />
    <path
       id="path798"
       style="fill:#225aa9"
       d="m 19,72 v 6.59 H 18.22 V 70.11 H 19 v 0.55 a 3.52,3.52 0 0 1 4.91,-0.12 3.27,3.27 0 0 1 1,2.37 v 5.68 H 24.14 V 73 A 2.46,2.46 0 0 0 23.36,71.16 2.57,2.57 0 0 0 21.5,70.39 2.53,2.53 0 0 0 19.66,71.15 3,3 0 0 0 19,72 Z"
       inkscape:connector-curvature="0" />
  </g>
  <g
     id="g810"
     transform="matrix(0.35277777,0,0,0.35277777,0.17638889,-0.17568641)">
    <path
       id="path802"
       style="fill:#225aa9"
       d="m 72,186.63 v -16.57 h 0.93 v 15.63 h 6.27 v 0.94 z"
       inkscape:connector-curvature="0" />
    <path
       id="path804"
       style="fill:#225aa9"
       d="m 85.6,175.54 a 5.7,5.7 0 1 1 -4,1.67 5.45,5.45 0 0 1 4,-1.67 z m -3.32,2.37 a 4.68,4.68 0 1 0 3.32,-1.38 4.54,4.54 0 0 0 -3.32,1.38 z"
       inkscape:connector-curvature="0" />
    <path
       id="path806"
       style="fill:#225aa9"
       d="m 102.08,184.18 1,0.36 a 5.74,5.74 0 0 1 -0.61,0.71 5.69,5.69 0 1 1 0,-8 5.66,5.66 0 0 1 0.61,0.7 l -1,0.36 -0.33,-0.37 a 4.71,4.71 0 1 0 0,6.64 q 0.17,-0.2 0.33,-0.4 z"
       inkscape:connector-curvature="0" />
    <path
       id="path808"
       style="fill:#225aa9"
       d="m 109.79,176.46 -2.51,3.1 4,7.07 h -1.14 l -3.46,-6.32 -0.9,1.13 v 5.19 h -0.94 v -14.5 h 0.94 V 180 l 2.82,-3.49 z"
       inkscape:connector-curvature="0" />
  </g>
  <g
     id="g825"
     transform="matrix(0.35277777,0,0,0.35277777,0.17638889,-0.17568641)">
    <path
       id="path813"
       style="fill:#231f20"
       d="m 30.15,16.41 v -5.77 h 1.24 v 5.77 h 2.76 v 1.25 H 31.39 V 30 H 30.15 V 17.66 h -2.76 v -1.25 z"
       inkscape:connector-curvature="0" />
    <path
       id="path815"
       style="fill:#231f20"
       d="m 41.61,30.16 a 5.47,5.47 0 0 1 -4,-1.5 5.32,5.32 0 0 1 -1.61,-3.8 v -8.47 h 1.25 v 8.36 a 4,4 0 0 0 1.25,2.94 4.19,4.19 0 0 0 3.08,1.24 4.06,4.06 0 0 0 3,-1.23 4,4 0 0 0 1.24,-2.95 V 16.39 H 47 v 8.47 a 5.2,5.2 0 0 1 -5.43,5.3 z"
       inkscape:connector-curvature="0" />
    <path
       id="path817"
       style="fill:#231f20"
       d="m 54.75,17.5 a 4.48,4.48 0 0 0 -2.61,1.69 4.57,4.57 0 0 0 -1.28,3 V 30 H 49.61 V 16.41 h 1.25 v 2.94 a 5.37,5.37 0 0 1 3.2,-3.05 z"
       inkscape:connector-curvature="0" />
    <path
       id="path819"
       style="fill:#231f20"
       d="m 58.1,12 a 1.19,1.19 0 0 1 0.37,0.86 1.24,1.24 0 0 1 -2.12,0.89 1.17,1.17 0 0 1 -0.37,-0.89 1.15,1.15 0 0 1 0.37,-0.86 1.24,1.24 0 0 1 1.75,0 z m -0.26,4.44 V 30 H 56.61 V 16.41 Z"
       inkscape:connector-curvature="0" />
    <path
       id="path821"
       style="fill:#231f20"
       d="M 62.5,19.44 V 30 H 61.25 V 16.41 h 1.25 v 0.88 a 5.36,5.36 0 0 1 3.93,-1.69 5.29,5.29 0 0 1 3.92,1.51 5.24,5.24 0 0 1 1.54,3.78 V 30 h -1.24 v -9 a 3.93,3.93 0 0 0 -1.25,-2.95 4.07,4.07 0 0 0 -3,-1.22 4.12,4.12 0 0 0 -3,1.2 4.38,4.38 0 0 0 -0.9,1.41 z"
       inkscape:connector-curvature="0" />
    <path
       id="path823"
       style="fill:#231f20"
       d="m 88,27.29 q -0.36,0.43 -0.75,0.84 a 7.58,7.58 0 0 1 -13,-5.34 7.6,7.6 0 0 1 13,-5.38 9.73,9.73 0 0 1 0.78,0.92 v -1.92 h 1.25 v 10.53 a 7.08,7.08 0 0 1 -2.17,5.22 7.58,7.58 0 0 1 -10.74,0 7.9,7.9 0 0 1 -0.81,-0.94 l 1.31,-0.48 A 4.16,4.16 0 0 0 77.33,31.22 6.27,6.27 0 0 0 88,27.29 Z m 0,-5.8 A 6.14,6.14 0 0 0 86.29,18.35 6.27,6.27 0 0 0 75.59,22.79 6.28,6.28 0 0 0 88,24.1 Z"
       inkscape:connector-curvature="0" />
  </g>
  <g
     id="g837"
     transform="matrix(0.35277777,0,0,0.35277777,0.17638889,-0.17568641)">
    <path
       id="path827"
       style="fill:#231f20"
       d="m 82.19,75.88 0.82,0.3 a 5.51,5.51 0 0 1 -0.51,0.59 4.74,4.74 0 1 1 0,-6.7 5.43,5.43 0 0 1 0.51,0.58 l -0.82,0.31 c -0.08,-0.11 -0.18,-0.21 -0.27,-0.32 a 3.82,3.82 0 0 0 -2.78,-1.14 3.92,3.92 0 1 0 2.78,6.68 C 82,76.08 82.11,76 82.19,75.88 Z"
       inkscape:connector-curvature="0" />
    <path
       id="path829"
       style="fill:#231f20"
       d="M 85.37,64.11 V 77.92 H 84.59 V 64.11 Z"
       inkscape:connector-curvature="0" />
    <path
       id="path831"
       style="fill:#231f20"
       d="m 91.89,68.68 a 4.75,4.75 0 1 1 -3.35,1.39 4.54,4.54 0 0 1 3.35,-1.39 z m -2.77,2 a 3.79,3.79 0 0 0 -1.12,2.75 3.73,3.73 0 0 0 1.15,2.76 3.91,3.91 0 0 0 6.68,-2.76 3.91,3.91 0 0 0 -6.68,-2.78 z"
       inkscape:connector-curvature="0" />
    <path
       id="path833"
       style="fill:#231f20"
       d="m 105.62,75.88 0.82,0.3 a 5.51,5.51 0 0 1 -0.51,0.59 4.74,4.74 0 1 1 0,-6.7 5.43,5.43 0 0 1 0.51,0.58 l -0.82,0.31 -0.28,-0.32 a 3.92,3.92 0 1 0 0,5.54 z"
       inkscape:connector-curvature="0" />
    <path
       id="path835"
       style="fill:#231f20"
       d="m 112,69.44 -2,2.56 3.33,5.89 h -1 l -2.88,-5.26 -0.76,0.93 v 4.33 h -0.78 V 65.84 h 0.78 v 6.51 l 2.36,-2.91 z"
       inkscape:connector-curvature="0" />
  </g>
  <path
     inkscape:connector-curvature="0"
     d="m 30.095472,74.225145 a 1.7039166,1.7039166 0 0 1 -0.352778,-0.243416 0.51152777,0.51152777 0 0 1 -0.15875,-0.377473 0.53269443,0.53269443 0 0 1 0.15875,-0.384527 0.51152777,0.51152777 0 0 1 0.377472,-0.15875 0.50094443,0.50094443 0 0 1 0.352778,0.148166 0.44802777,0.44802777 0 0 1 0.141111,0.328084 v 0 l -0.176389,0.07408 a 0.46919443,0.46919443 0 0 0 -0.109361,-0.261056 0.29280555,0.29280555 0 0 0 -0.225778,-0.08819 0.30691666,0.30691666 0 0 0 -0.232833,0.09878 0.32808333,0.32808333 0 0 0 0,0.469194 1.3335,1.3335 0 0 0 0.239889,0.176389 1.8873611,1.8873611 0 0 1 0.416277,0.282222 0.6491111,0.6491111 0 0 1 0.194028,0.465667 0.65969443,0.65969443 0 0 1 -0.194028,0.47625 0.67027776,0.67027776 0 0 1 -0.941916,0 0.61030554,0.61030554 0 0 1 -0.194028,-0.426861 l 0.204611,-0.05292 a 0.4586111,0.4586111 0 0 0 0.137583,0.352778 0.44097221,0.44097221 0 0 0 0.321028,0.134055 0.4586111,0.4586111 0 0 0 0.328084,-0.134055 0.45155555,0.45155555 0 0 0 0.137583,-0.331611 0.43391666,0.43391666 0 0 0 -0.137583,-0.321028 2.0390555,2.0390555 0 0 0 -0.28575,-0.225778 z"
     style="fill:#231f20;stroke-width:0.35277778"
     id="path839" />
  <path
     inkscape:connector-curvature="0"
     d="m 31.464249,73.20209 v -0.956028 h 0.204611 v 0.956028 h 0.455084 v 0.204611 H 31.66886 v 2.035528 H 31.464249 V 73.406701 H 31.005638 V 73.20209 Z"
     style="fill:#231f20;stroke-width:0.35277778"
     id="path841" />
  <path
     inkscape:connector-curvature="0"
     d="m 35.136666,73.20209 h 0.208139 v 0.313972 a 1.7003889,1.7003889 0 0 1 0.127,-0.151694 1.2347222,1.2347222 0 0 1 0.889,-0.352778 1.2558889,1.2558889 0 1 1 -0.889,2.137833 1.7003889,1.7003889 0 0 1 -0.127,-0.151694 v 1.312333 h -0.208139 z m 0.208139,0.839611 v 0.426861 a 0.97013887,0.97013887 0 0 0 0.282222,0.518583 1.0336389,1.0336389 0 0 0 1.464028,0 1.0371666,1.0371666 0 0 0 -0.73025,-1.763889 1.0054166,1.0054166 0 0 0 -0.733778,0.303389 0.99130553,0.99130553 0 0 0 -0.282222,0.500945 z"
     style="fill:#231f20;stroke-width:0.35277778"
     id="path845" />
  <path
     inkscape:connector-curvature="0"
     d="m 38.604471,74.225145 a 1.7039166,1.7039166 0 0 1 -0.352777,-0.243416 0.51152777,0.51152777 0 0 1 -0.15875,-0.377473 0.53269443,0.53269443 0 0 1 0.15875,-0.384527 0.53269443,0.53269443 0 0 1 0.747888,0 0.44802777,0.44802777 0 0 1 0.141112,0.328083 v 0 l -0.176389,0.07408 a 0.46919443,0.46919443 0 0 0 -0.109361,-0.261055 0.29280555,0.29280555 0 0 0 -0.225778,-0.08819 0.30691666,0.30691666 0 0 0 -0.232834,0.09878 0.32808333,0.32808333 0 0 0 0,0.469195 1.3335,1.3335 0 0 0 0.239889,0.176388 1.8873611,1.8873611 0 0 1 0.416278,0.282223 0.6491111,0.6491111 0 0 1 0.194028,0.465666 0.65969443,0.65969443 0 0 1 -0.194028,0.47625 0.67027776,0.67027776 0 0 1 -0.941917,0 0.59619443,0.59619443 0 0 1 -0.194027,-0.426861 l 0.204611,-0.05292 a 0.46919443,0.46919443 0 0 0 0.134055,0.352778 0.46213888,0.46213888 0 0 0 0.786695,-0.331611 0.44097221,0.44097221 0 0 0 -0.134056,-0.321028 2.0390555,2.0390555 0 0 0 -0.303389,-0.236361 z"
     style="fill:#231f20;stroke-width:0.35277778"
     id="path847" />
  <path
     inkscape:connector-curvature="0"
     d="m 17.025055,72.983368 a 1.2523611,1.2523611 0 1 1 -0.885472,0.352777 1.2100278,1.2100278 0 0 1 0.885472,-0.352777 z m -0.733778,0.522111 a 1.0406944,1.0406944 0 1 0 0.733778,-0.303389 1.0089444,1.0089444 0 0 0 -0.733778,0.303389 z"
     style="fill:#231f20;stroke-width:0.35277778"
     id="path851" />
  <path
     inkscape:connector-curvature="0"
     d="m 18.95475,73.39259 v 2.035527 H 18.750138 V 73.39259 h -0.229305 v -0.1905 h 0.229305 v -0.606778 a 0.65969443,0.65969443 0 0 1 0.194028,-0.451556 0.60677776,0.60677776 0 0 1 0.430389,-0.172861 0.77963887,0.77963887 0 0 1 0.271639,0.04939 l -0.0635,0.183445 a 0.47624999,0.47624999 0 0 0 -0.186972,-0.04233 0.46919443,0.46919443 0 0 0 -0.306917,0.127 0.45508332,0.45508332 0 0 0 -0.134055,0.306917 v 0.606778 h 0.458611 v 0.204611 z"
     style="fill:#231f20;stroke-width:0.35277778"
     id="path853" />
  <path
     inkscape:connector-curvature="0"
     d="m 19.931944,73.39259 v 2.035527 H 19.723805 V 73.39259 h -0.225778 v -0.1905 h 0.225778 v -0.606778 a 0.65969443,0.65969443 0 0 1 0.208139,-0.451556 0.62088888,0.62088888 0 0 1 0.430389,-0.172861 0.76552776,0.76552776 0 0 1 0.271639,0.04939 l -0.0635,0.183445 A 0.46213888,0.46213888 0 0 0 20.3835,72.1614 a 0.45155555,0.45155555 0 0 0 -0.303389,0.127 0.43744443,0.43744443 0 0 0 -0.134056,0.306917 v 0.606778 h 0.455083 v 0.204611 z"
     style="fill:#231f20;stroke-width:0.35277778"
     id="path855" />
  <path
     inkscape:connector-curvature="0"
     d="m 21.279555,74.225145 a 1.7039166,1.7039166 0 0 1 -0.352778,-0.243416 0.51152777,0.51152777 0 0 1 -0.15875,-0.377473 0.53269443,0.53269443 0 0 1 0.15875,-0.384527 0.51858332,0.51858332 0 0 1 0.381,-0.15875 0.49388888,0.49388888 0 0 1 0.352778,0.148166 0.45155555,0.45155555 0 0 1 0.144639,0.328084 v 0 l -0.179917,0.07408 a 0.44802777,0.44802777 0 0 0 -0.109361,-0.261056 0.28927777,0.28927777 0 0 0 -0.22225,-0.08819 0.3316111,0.3316111 0 0 0 -0.236361,0.567972 1.4851944,1.4851944 0 0 0 0.239889,0.176389 1.8026944,1.8026944 0 0 1 0.416278,0.282222 0.63499999,0.63499999 0 0 1 0.194028,0.465667 0.64558332,0.64558332 0 0 1 -0.194028,0.47625 0.67027776,0.67027776 0 0 1 -0.941917,0 0.61030554,0.61030554 0 0 1 -0.194028,-0.426861 l 0.204611,-0.05292 a 0.4586111,0.4586111 0 0 0 0.137584,0.352778 0.44449999,0.44449999 0 0 0 0.324555,0.134055 0.45508332,0.45508332 0 0 0 0.324556,-0.134055 0.45155555,0.45155555 0 0 0 0.137583,-0.331611 0.43391666,0.43391666 0 0 0 -0.137583,-0.321028 2.0390555,2.0390555 0 0 0 -0.289278,-0.225778 z"
     style="fill:#231f20;stroke-width:0.35277778"
     id="path857" />
  <path
     inkscape:connector-curvature="0"
     d="m 22.468416,74.126368 a 0.5856111,0.5856111 0 0 0 0,0.112888 1.0301111,1.0301111 0 0 0 1.037167,1.033639 0.99130553,0.99130553 0 0 0 0.733778,-0.303389 1.4534444,1.4534444 0 0 0 0.09878,-0.109361 l 0.218723,0.07761 a 0.98777776,0.98777776 0 0 1 -0.162278,0.186973 1.2558889,1.2558889 0 0 1 -2.141361,-0.885473 1.2558889,1.2558889 0 0 1 2.141361,-0.889 1.0583333,1.0583333 0 0 1 0.324555,0.776112 z m 0.03881,-0.211667 h 1.9685 a 1.0195278,1.0195278 0 0 0 -0.980723,-0.705556 1.0089444,1.0089444 0 0 0 -0.733777,0.303389 1.0583333,1.0583333 0 0 0 -0.254,0.395111 z"
     style="fill:#231f20;stroke-width:0.35277778"
     id="path859" />
  <path
     inkscape:connector-curvature="0"
     d="m 25.340027,73.20209 v -0.956028 h 0.204611 v 0.956028 h 0.458611 v 0.204611 h -0.458611 v 2.035528 H 25.340027 V 73.406701 H 24.870833 V 73.20209 Z"
     style="fill:#231f20;stroke-width:0.35277778"
     id="path861" />
  <path
     inkscape:connector-curvature="0"
     d="m 2.3106944,74.225145 a 1.7039166,1.7039166 0 0 1 -0.3527778,-0.243416 0.51152777,0.51152777 0 0 1 -0.15875,-0.377473 0.53269443,0.53269443 0 0 1 0.1411111,-0.384527 0.50799999,0.50799999 0 0 1 0.3774723,-0.15875 0.50094443,0.50094443 0 0 1 0.3704166,0.148166 0.44802777,0.44802777 0 0 1 0.1411111,0.328084 v 0 l -0.1763889,0.07408 A 0.46919443,0.46919443 0 0 0 2.5435277,73.350256 0.29280555,0.29280555 0 0 0 2.31775,73.262062 a 0.30691666,0.30691666 0 0 0 -0.2328334,0.09878 0.32808333,0.32808333 0 0 0 0,0.469194 1.3335,1.3335 0 0 0 0.2398889,0.176389 1.8873611,1.8873611 0 0 1 0.4162778,0.282222 0.6491111,0.6491111 0 0 1 0.1940278,0.465667 0.65969443,0.65969443 0 0 1 -0.1940278,0.47625 A 0.63852776,0.63852776 0 0 1 2.2683611,75.42459 0.63499999,0.63499999 0 0 1 1.7991666,75.230562 0.59619443,0.59619443 0 0 1 1.6051389,74.803701 L 1.80975,74.750784 a 0.46919443,0.46919443 0 0 0 0.1340555,0.352778 0.46566666,0.46566666 0 0 0 0.6526389,0 0.44802777,0.44802777 0 0 0 0.1340555,-0.331611 0.43038888,0.43038888 0 0 0 -0.1340555,-0.321028 2.0390555,2.0390555 0 0 0 -0.28575,-0.225778 z"
     style="fill:#231f20;stroke-width:0.35277778"
     id="path865" />
  <path
     inkscape:connector-curvature="0"
     d="m 5.3304721,74.888367 0.2187222,0.08114 a 1.3617222,1.3617222 0 0 1 -0.1340555,0.155223 1.2488333,1.2488333 0 0 1 -1.7638889,0 1.1959166,1.1959166 0 0 1 -0.3527777,-0.885473 1.2523611,1.2523611 0 0 1 1.252361,-1.255888 1.2241389,1.2241389 0 0 1 0.889,0.352777 1.7638888,1.7638888 0 0 1 0.1340556,0.155223 l -0.2187222,0.08114 c -0.021167,-0.02822 -0.045861,-0.05292 -0.070556,-0.08114 a 1.0089444,1.0089444 0 0 0 -0.7337778,-0.303389 1.0336389,1.0336389 0 0 0 -0.7302499,1.763888 0.98424998,0.98424998 0 0 0 0.7302499,0.303389 0.99483331,0.99483331 0 0 0 0.7337778,-0.303389 0.77611109,0.77611109 0 0 0 0.045861,-0.0635 z"
     style="fill:#231f20;stroke-width:0.35277778"
     id="path867" />
  <path
     inkscape:connector-curvature="0"
     d="M 8.3537776,75.428117 H 8.1456387 v -0.462138 a 1.2946944,1.2946944 0 0 1 -0.1305278,0.151694 1.2453055,1.2453055 0 0 1 -1.7638888,0 1.1994444,1.1994444 0 0 1 -0.3704167,-0.885472 1.2558889,1.2558889 0 0 1 2.1413611,-0.889 1.3229166,1.3229166 0 0 1 0.1305278,0.155222 V 73.20209 H 8.3608332 Z M 8.1456387,74.443868 v -0.405695 a 1.0371666,1.0371666 0 0 0 -1.7638888,-0.532694 1.0389844,1.0389844 0 1 0 1.4781388,1.4605 1.0089444,1.0089444 0 0 0 0.28575,-0.522111 z"
     style="fill:#231f20;stroke-width:0.35277778"
     id="path869" />
  <path
     inkscape:connector-curvature="0"
     d="m 9.0734442,71.790979 v 3.65125 H 8.8653054 v -3.65125 z"
     style="fill:#231f20;stroke-width:0.35277778"
     id="path871" />
  <g
     id="g883"
     transform="matrix(0.35277777,0,0,0.35277777,0.17638889,-0.17568641)">
    <path
       id="path877"
       style="fill:#231f20"
       d="m 50.88,314.68 a 4.73,4.73 0 1 1 -3.35,1.38 4.57,4.57 0 0 1 3.35,-1.38 z m -2.77,2 a 3.92,3.92 0 1 0 5.53,0 3.9,3.9 0 0 0 -5.53,0 z"
       inkscape:connector-curvature="0" />
    <path
       id="path879"
       style="fill:#231f20"
       d="m 60.66,324 a 3.44,3.44 0 0 1 -2.53,-0.93 3.31,3.31 0 0 1 -1,-2.38 V 315.4 H 58 v 5.22 a 2.48,2.48 0 0 0 0.78,1.84 2.61,2.61 0 0 0 1.92,0.77 2.51,2.51 0 0 0 1.85,-0.77 2.48,2.48 0 0 0 0.78,-1.84 v -5.22 h 0.78 v 5.29 a 3.32,3.32 0 0 1 -1,2.38 3.29,3.29 0 0 1 -2.45,0.93 z"
       inkscape:connector-curvature="0" />
    <path
       id="path881"
       style="fill:#231f20"
       d="m 67,315.44 v -3.6 h 0.77 v 3.6 h 1.73 v 0.78 h -1.78 v 7.7 H 67 v -7.7 h -1.78 v -0.78 z"
       inkscape:connector-curvature="0" />
  </g>
  <g
     id="g889"
     transform="matrix(0.35277777,0,0,0.35277777,0.17638889,-0.17568641)">
    <path
       id="path885"
       style="fill:#231f20"
       d="m 17.1,66.67 a 0.76,0.76 0 0 1 0,1.09 0.78,0.78 0 0 1 -0.54,0.23 0.79,0.79 0 0 1 -0.56,-0.23 0.76,0.76 0 0 1 0,-1.09 0.78,0.78 0 0 1 0.56,-0.22 0.76,0.76 0 0 1 0.54,0.22 z m -0.16,2.77 v 8.48 h -0.78 v -8.48 z"
       inkscape:connector-curvature="0" />
    <path
       id="path887"
       style="fill:#231f20"
       d="m 19.85,71.34 v 6.58 h -0.78 v -8.48 h 0.78 V 70 a 3.37,3.37 0 0 1 2.46,-1 3.28,3.28 0 0 1 2.44,0.94 3.32,3.32 0 0 1 1,2.37 v 5.67 h -0.78 v -5.6 a 2.48,2.48 0 0 0 -0.78,-1.84 2.55,2.55 0 0 0 -1.85,-0.76 2.58,2.58 0 0 0 -1.85,0.75 2.82,2.82 0 0 0 -0.64,0.81 z"
       inkscape:connector-curvature="0" />
  </g>
  <g
     id="g899"
     transform="matrix(0.35277777,0,0,0.35277777,0.17638889,-0.17568641)">
    <path
       id="path891"
       style="fill:#231f20"
       d="m 72.78,185.91 v -16.58 h 0.93 V 185 H 80 v 0.94 z"
       inkscape:connector-curvature="0" />
    <path
       id="path893"
       style="fill:#231f20"
       d="m 86.43,174.82 a 5.68,5.68 0 1 1 -4,1.66 5.44,5.44 0 0 1 4,-1.66 z m -3.32,2.37 a 4.66,4.66 0 1 0 3.32,-1.39 4.47,4.47 0 0 0 -3.32,1.39 z"
       inkscape:connector-curvature="0" />
    <path
       id="path895"
       style="fill:#231f20"
       d="m 102.91,183.46 1,0.36 a 5.66,5.66 0 0 1 -0.61,0.7 5.68,5.68 0 1 1 0,-8 5.74,5.74 0 0 1 0.61,0.71 l -1,0.36 -0.33,-0.38 a 4.57,4.57 0 0 0 -3.33,-1.37 4.7,4.7 0 1 0 3.33,8 z"
       inkscape:connector-curvature="0" />
    <path
       id="path897"
       style="fill:#231f20"
       d="m 110.62,175.73 -2.51,3.11 4,7.07 H 111 l -3.46,-6.32 -0.9,1.12 v 5.2 h -0.94 v -14.5 h 0.94 v 7.82 l 2.82,-3.5 z"
       inkscape:connector-curvature="0" />
  </g>
  <path
     id="path902"
     style="fill:#225aa9;stroke-width:0.35277778"
     d="m 12.961055,3.1086746 h 0.144639 v 0.22225 a 0.82549998,0.82549998 0 0 1 0.0882,-0.1058333 0.87841665,0.87841665 0 0 1 1.241777,1.2417777 0.8537222,0.8537222 0 0 1 -0.620889,0.2575278 0.84666665,0.84666665 0 0 1 -0.620888,-0.2610555 0.79727776,0.79727776 0 0 1 -0.0882,-0.1023056 v 0.9136944 h -0.144639 z m 0.144639,0.5961945 v 0.2998611 a 0.65263887,0.65263887 0 0 0 0.197556,0.3527777 0.70555554,0.70555554 0 0 0 0.511527,0.2151945 0.68438887,0.68438887 0 0 0 0.511528,-0.2151945 0.72319443,0.72319443 0 0 0 0,-1.0230555 0.70555554,0.70555554 0 0 0 -1.023055,0 0.66322221,0.66322221 0 0 0 -0.197556,0.3704167 z"
     inkscape:connector-curvature="0" />
  <path
     id="path906"
     style="fill:#225aa9;stroke-width:0.35277778"
     d="m 17.155583,2.1244247 v 2.554111 h -0.144639 v -2.554111 z"
     inkscape:connector-curvature="0" />
  <path
     id="path908"
     style="fill:#225aa9;stroke-width:0.35277778"
     d="m 17.723555,5.2747301 h -0.15875 l 0.41275,-0.8889999 -0.596194,-1.2770556 h 0.162278 l 0.511527,1.0971389 0.518584,-1.0971389 h 0.162277 z"
     inkscape:connector-curvature="0" />
  <path
     id="path912"
     style="fill:#231f20;stroke-width:0.35277778"
     d="m 13.091583,2.9993135 h 0.137583 v 0.2187222 a 0.79727776,0.79727776 0 0 1 0.0882,-0.1023055 0.87841665,0.87841665 0 0 1 1.499305,0.6208889 0.87841665,0.87841665 0 0 1 -1.499305,0.6173611 0.63852776,0.63852776 0 0 1 -0.0882,-0.1058334 V 5.165369 h -0.144639 z m 0.137583,0.5997222 v 0.2998611 a 0.66322221,0.66322221 0 0 0 0.197556,0.3527778 0.72340952,0.72340952 0 1 0 1.023055,-1.0230555 0.70555554,0.70555554 0 0 0 -1.023055,0 0.66674999,0.66674999 0 0 0 -0.197556,0.3704166 z"
     inkscape:connector-curvature="0" />
  <path
     id="path914-0"
     style="fill:#225aa9;stroke-width:0.35277778;fill-opacity:1"
     d="M 15.844148,2.9453892 A 0.87841665,0.87841665 0 0 1 16.722565,3.8238059 0.87841665,0.87841665 0 1 1 15.226787,3.202917 0.83961108,0.83961108 0 0 1 15.844148,2.9453892 Z M 15.33262,3.298167 a 0.72319444,0.72319444 0 0 0 0.511528,1.2347222 0.70555554,0.70555554 0 0 0 0.515055,-0.2116667 0.72319444,0.72319444 0 0 0 0,-1.0230555 0.70555554,0.70555554 0 0 0 -1.026583,0 z"
     inkscape:connector-curvature="0" />
  <path
     id="path914"
     style="fill:#231f20;stroke-width:0.35277778"
     d="m 15.934972,2.8723135 a 0.87841665,0.87841665 0 0 1 0.878417,0.8784167 0.87841665,0.87841665 0 1 1 -1.495778,-0.6208889 0.83961109,0.83961109 0 0 1 0.617361,-0.2575278 z m -0.511528,0.3527778 a 0.72319443,0.72319443 0 0 0 0.511528,1.2347222 0.70555554,0.70555554 0 0 0 0.515055,-0.2116667 0.72319443,0.72319443 0 0 0 0,-1.0230555 0.70555554,0.70555554 0 0 0 -1.026583,0 z"
     inkscape:connector-curvature="0" />
  <path
     id="path916"
     style="fill:#231f20;stroke-width:0.35277778"
     d="M 17.286111,2.0256469 V 4.5832857 H 17.141472 V 2.0256469 Z"
     inkscape:connector-curvature="0" />
  <path
     id="path918"
     style="fill:#231f20;stroke-width:0.35277778"
     d="m 17.854083,5.1794801 h -0.15875 l 0.41275,-0.8889999 -0.596194,-1.2911667 h 0.162277 l 0.515056,1.0936111 0.515055,-1.0936111 h 0.169334 z"
     inkscape:connector-curvature="0" />
  <path
     id="path922"
     style="fill:#225aa9;stroke-width:0.35277778"
     d="m 16.188972,126.1752 a 0.85724998,0.85724998 0 0 1 -0.169333,-0.11289 0.25047222,0.25047222 0 0 1 0,-0.35278 0.23636111,0.23636111 0 0 1 0.176388,-0.0741 0.23283333,0.23283333 0 0 1 0.172862,0.0706 0.20813888,0.20813888 0 0 1 0.06703,0.15169 v 0 l -0.08467,0.0353 a 0.22225,0.22225 0 0 0 -0.04939,-0.12347 0.14463889,0.14463889 0 0 0 -0.105834,-0.0423 0.16227777,0.16227777 0 0 0 -0.109361,0.0459 0.14816666,0.14816666 0 0 0 -0.04586,0.11289 0.14816666,0.14816666 0 0 0 0.04586,0.10936 0.5856111,0.5856111 0 0 0 0.112889,0.0811 0.95249998,0.95249998 0 0 1 0.194028,0.13053 0.32102777,0.32102777 0 0 1 0,0.44097 0.31044444,0.31044444 0 0 1 -0.440972,0 0.27516666,0.27516666 0 0 1 -0.08819,-0.20108 l 0.09525,-0.0247 a 0.21519444,0.21519444 0 0 0 0.0635,0.15875 0.19755555,0.19755555 0 0 0 0.148167,0.0635 0.21872222,0.21872222 0 0 0 0.155222,-0.0635 0.21166666,0.21166666 0 0 0 0.0635,-0.15522 0.20461111,0.20461111 0 0 0 -0.0635,-0.15169 1.2241389,1.2241389 0 0 0 -0.137583,-0.0988 z"
     inkscape:connector-curvature="0" />
  <path
     id="path924"
     style="fill:#225aa9;stroke-width:0.35277778"
     d="m 16.823972,125.68837 v -0.4445 h 0.09525 v 0.4445 h 0.215194 v 0.0988 h -0.215194 v 0.94898 h -0.09525 v -0.94898 h -0.211667 v -0.0988 z"
     inkscape:connector-curvature="0" />
  <path
     id="path928"
     style="fill:#225aa9;stroke-width:0.35277778"
     d="m 19.540361,126.47153 0.102305,0.0353 -0.0635,0.0741 a 0.58208332,0.58208332 0 0 1 -0.829028,0 0.57149999,0.57149999 0 0 1 -0.172861,-0.41275 0.58913888,0.58913888 0 0 1 1.001889,-0.40216 l 0.0635,0.0741 -0.102305,0.0353 -0.03528,-0.0388 a 0.47272221,0.47272221 0 0 0 -0.352778,-0.13758 0.48330554,0.48330554 0 0 0 -0.479778,0.48331 0.47977777,0.47977777 0 0 0 0.821973,0.35277 z"
     inkscape:connector-curvature="0" />
  <path
     id="path930"
     style="fill:#225aa9;stroke-width:0.35277778"
     d="m 20.947944,126.73612 h -0.09525 v -0.21167 c 0,0.0247 -0.03881,0.0459 -0.05997,0.0706 a 0.58208332,0.58208332 0 0 1 -0.829028,0 0.56091665,0.56091665 0 0 1 -0.169333,-0.41275 0.57855554,0.57855554 0 0 1 0.582083,-0.58562 0.56797221,0.56797221 0 0 1 0.416278,0.16934 c 0.02117,0.0247 0.04233,0.0459 0.05997,0.0705 v -0.14816 h 0.09525 z m -0.09525,-0.45861 v -0.1905 a 0.48683332,0.48683332 0 0 0 -0.818444,-0.24695 0.48330554,0.48330554 0 0 0 0.352777,0.8255 0.49741666,0.49741666 0 0 0 0.47625,-0.38805 z"
     inkscape:connector-curvature="0" />
  <path
     id="path932"
     style="fill:#225aa9;stroke-width:0.35277778"
     d="m 21.593527,126.75023 a 0.4268611,0.4268611 0 0 1 -0.313972,-0.11642 0.40569444,0.40569444 0 0 1 -0.119944,-0.2928 v -0.65264 h 0.09878 v 0.64558 a 0.2998611,0.2998611 0 0 0 0.09525,0.22578 0.32808333,0.32808333 0 0 0 0.239889,0.0952 0.3316111,0.3316111 0 0 0 0.324556,-0.32103 v -0.64558 h 0.09525 v 0.65264 a 0.40569444,0.40569444 0 0 1 -0.419806,0.40922 z"
     inkscape:connector-curvature="0" />
  <path
     id="path934"
     style="fill:#225aa9;stroke-width:0.35277778"
     d="m 23.364472,126.73612 h -0.09878 v -0.21167 c 0,0.0247 -0.03881,0.0459 -0.05997,0.0706 a 0.57855554,0.57855554 0 0 1 -0.8255,0 0.55033332,0.55033332 0 0 1 -0.172861,-0.41275 0.5856111,0.5856111 0 0 1 0.998361,-0.41628 c 0.02117,0.0247 0.04233,0.0459 0.05997,0.0705 v -0.80433 h 0.09878 z m -0.09878,-0.45861 v -0.1905 a 0.45508332,0.45508332 0 0 0 -0.130528,-0.24695 0.46919443,0.46919443 0 0 0 -0.352778,-0.14111 0.4586111,0.4586111 0 0 0 -0.352777,0.14111 0.48683332,0.48683332 0 0 0 0,0.68439 0.47977777,0.47977777 0 0 0 0.684388,0 0.4586111,0.4586111 0 0 0 0.151695,-0.24694 z"
     inkscape:connector-curvature="0" />
  <path
     id="path936"
     style="fill:#225aa9;stroke-width:0.35277778"
     d="m 23.727833,125.34617 a 0.08819444,0.08819444 0 0 1 0.02822,0.067 0.09525,0.09525 0 0 1 -0.09525,0.0988 0.09525,0.09525 0 0 1 -0.06703,-0.0282 0.10583333,0.10583333 0 0 1 -0.02822,-0.0706 0.10230555,0.10230555 0 0 1 0.02822,-0.067 0.09172222,0.09172222 0 0 1 0.06703,-0.0247 0.08819444,0.08819444 0 0 1 0.06703,0.0247 z m -0.01764,0.35278 v 1.05833 h -0.09525 v -1.05833 z"
     inkscape:connector-curvature="0" />
  <path
     id="path942"
     style="fill:#231f20;stroke-width:0.35277778"
     d="m 16.248944,126.11876 a 0.83608331,0.83608331 0 0 1 -0.169333,-0.11642 0.23283333,0.23283333 0 0 1 -0.07408,-0.17639 0.25399999,0.25399999 0 0 1 0.250473,-0.25047 0.23283333,0.23283333 0 0 1 0.172861,0.067 0.20813888,0.20813888 0 0 1 0.06703,0.15169 v 0 l -0.08114,0.0318 a 0.1905,0.1905 0 0 0 -0.05292,-0.11994 0.13405555,0.13405555 0 0 0 -0.105833,-0.0423 0.14816666,0.14816666 0 0 0 -0.109361,0.0459 0.16227777,0.16227777 0 0 0 -0.04586,0.10936 0.15522222,0.15522222 0 0 0 0.04586,0.10937 0.70555554,0.70555554 0 0 0 0.112888,0.0847 0.75494443,0.75494443 0 0 1 0.194028,0.13053 0.30691666,0.30691666 0 0 1 0,0.43744 0.30691666,0.30691666 0 0 1 -0.437444,0 0.27869444,0.27869444 0 0 1 -0.09172,-0.19755 l 0.09525,-0.0247 a 0.20813888,0.20813888 0 0 0 0.0635,0.15523 0.21519444,0.21519444 0 1 0 0.303388,-0.30339 0.78316665,0.78316665 0 0 0 -0.137583,-0.0917 z"
     inkscape:connector-curvature="0" />
  <path
     id="path944"
     style="fill:#231f20;stroke-width:0.35277778"
     d="m 16.887472,125.61428 v -0.4445 h 0.09525 v 0.4445 h 0.211667 v 0.0988 h -0.211667 v 0.94897 h -0.09525 v -0.94897 h -0.215195 v -0.0988 z"
     inkscape:connector-curvature="0" />
  <path
     id="path948"
     style="fill:#231f20;stroke-width:0.35277778"
     d="m 19.600333,126.40803 0.102305,0.0388 a 0.59266665,0.59266665 0 0 1 -0.0635,0.0741 0.5856111,0.5856111 0 1 1 0,-0.82903 0.59266665,0.59266665 0 0 1 0.0635,0.0741 l -0.102305,0.0353 -0.02117,-0.0353 a 0.48683332,0.48683332 0 0 0 -0.705555,0 0.49025005,0.49025005 0 0 0 0.705555,0.68086 z"
     inkscape:connector-curvature="0" />
  <path
     id="path950"
     style="fill:#231f20;stroke-width:0.35277778"
     d="m 21.011444,126.66203 h -0.09525 v -0.21519 c -0.02117,0.0247 -0.03881,0.0494 -0.0635,0.0741 a 0.5856111,0.5856111 0 1 1 0,-0.82903 0.60324999,0.60324999 0 0 1 0.0635,0.0706 v -0.14817 h 0.09525 z m -0.09525,-0.46214 v -0.18697 a 0.48683332,0.48683332 0 0 0 -0.134056,-0.24694 0.47624999,0.47624999 0 0 0 -0.684388,0 0.47977777,0.47977777 0 0 0 0,0.68086 0.48683332,0.48683332 0 0 0 0.684388,0 0.48683332,0.48683332 0 0 0 0.134056,-0.24695 z"
     inkscape:connector-curvature="0" />
  <path
     id="path952"
     style="fill:#231f20;stroke-width:0.35277778"
     d="m 21.6535,126.67614 a 0.41627777,0.41627777 0 0 1 -0.310445,-0.11641 0.40922221,0.40922221 0 0 1 -0.119944,-0.29281 v -0.65264 h 0.09525 v 0.64559 a 0.29633333,0.29633333 0 0 0 0.09878,0.22577 0.31749999,0.31749999 0 0 0 0.236362,0.0952 0.31397222,0.31397222 0 0 0 0.229305,-0.0952 0.30691666,0.30691666 0 0 0 0.09525,-0.22577 v -0.64559 h 0.09525 v 0.65264 a 0.40569444,0.40569444 0 0 1 -0.419805,0.40922 z"
     inkscape:connector-curvature="0" />
  <path
     id="path954"
     style="fill:#231f20;stroke-width:0.35277778"
     d="m 23.424444,126.66203 h -0.09525 v -0.21519 l -0.05997,0.0741 a 0.57502777,0.57502777 0 0 1 -0.416278,0.16934 0.56797221,0.56797221 0 0 1 -0.41275,-0.16934 0.58208332,0.58208332 0 0 1 0,-0.82903 0.56797221,0.56797221 0 0 1 0.41275,-0.16933 0.57855554,0.57855554 0 0 1 0.47625,0.23989 v -0.80433 h 0.09525 z m -0.09525,-0.46214 v -0.18697 a 0.48330554,0.48330554 0 0 0 -0.959556,0.0953 0.45508332,0.45508332 0 0 0 0.141112,0.35278 0.48683332,0.48683332 0 0 0 0.818444,-0.24694 z"
     inkscape:connector-curvature="0" />
  <path
     id="path956"
     style="fill:#231f20;stroke-width:0.35277778"
     d="m 23.791333,125.27209 a 0.09525,0.09525 0 0 1 0.02822,0.067 0.09172222,0.09172222 0 0 1 -0.02822,0.067 0.08819444,0.08819444 0 0 1 -0.06703,0.0282 0.07761111,0.07761111 0 0 1 -0.06703,-0.0282 0.08113889,0.08113889 0 0 1 -0.03175,-0.067 0.08819444,0.08819444 0 0 1 0.03175,-0.067 0.09172222,0.09172222 0 0 1 0.06703,-0.0282 0.10230555,0.10230555 0 0 1 0.06703,0.0282 z m -0.02117,0.35278 v 1.05833 h -0.09525 v -1.05833 z"
     inkscape:connector-curvature="0" />
  <path
     id="path914-8-2"
     style="fill:#225aa9;stroke-width:0.35277775;fill-opacity:1"
     d="m 24.49246,125.62911 a 0.57700743,0.57700743 0 0 1 0.577008,0.57701 0.57700743,0.57700743 0 1 1 -0.982535,-0.40785 0.55151713,0.55151713 0 0 1 0.405527,-0.16916 z m -0.336009,0.23173 a 0.47504627,0.47504627 0 0 0 0.336009,0.81105 0.46345977,0.46345977 0 0 0 0.338325,-0.13904 0.47504627,0.47504627 0 0 0 0,-0.67201 0.46345977,0.46345977 0 0 0 -0.674334,0 z"
     inkscape:connector-curvature="0" />
  <path
     id="path914-8"
     style="fill:#231f20;stroke-width:0.35277775"
     d="m 24.561286,125.58332 a 0.57700742,0.57700742 0 0 1 0.577008,0.57701 0.57700742,0.57700742 0 1 1 -0.982535,-0.40785 0.55151712,0.55151712 0 0 1 0.405527,-0.16916 z m -0.336009,0.23173 a 0.47504627,0.47504627 0 0 0 0.336009,0.81105 0.46345977,0.46345977 0 0 0 0.338325,-0.13904 0.47504627,0.47504627 0 0 0 0,-0.67201 0.46345977,0.46345977 0 0 0 -0.674334,0 z"
     inkscape:connector-curvature="0" />
  <path
     id="path914-8-2-1"
     style="fill:#225aa9;fill-opacity:1;stroke-width:0.35277775"
     d="m 17.831792,125.61404 a 0.57700743,0.57700743 0 0 1 0.577007,0.57701 0.57700743,0.57700743 0 1 1 -0.982534,-0.40785 0.55151713,0.55151713 0 0 1 0.405527,-0.16916 z m -0.336009,0.23173 a 0.47504627,0.47504627 0 0 0 0.336009,0.81105 0.46345977,0.46345977 0 0 0 0.338325,-0.13904 0.47504627,0.47504627 0 0 0 0,-0.67201 0.46345977,0.46345977 0 0 0 -0.674334,0 z"
     inkscape:connector-curvature="0" />
  <path
     id="path914-8-4"
     style="fill:#231f20;stroke-width:0.35277775"
     d="m 17.900618,125.56825 a 0.57700743,0.57700743 0 0 1 0.577007,0.57701 0.57700743,0.57700743 0 1 1 -0.982534,-0.40785 0.55151713,0.55151713 0 0 1 0.405527,-0.16916 z m -0.336009,0.23173 a 0.47504627,0.47504627 0 0 0 0.336009,0.81105 0.46345977,0.46345977 0 0 0 0.338325,-0.13904 0.47504627,0.47504627 0 0 0 0,-0.67201 0.46345977,0.46345977 0 0 0 -0.674334,0 z"
     inkscape:connector-curvature="0" />
  <path
     inkscape:connector-curvature="0"
     d="m 32.315945,74.291674 a 0.62088887,0.62088887 0 0 0 0,0.116417 1.0371666,1.0371666 0 0 0 1.763888,0.73025 1.4534444,1.4534444 0 0 0 0.09878,-0.109361 l 0.218722,0.07761 a 1.143,1.143 0 0 1 -0.162277,0.186972 1.2558889,1.2558889 0 1 1 0,-1.763889 1.0583333,1.0583333 0 0 1 0.310444,0.762 z m 0.0388,-0.208139 h 1.9685 a 0.97719442,0.97719442 0 0 0 -0.246944,-0.409222 1.0406944,1.0406944 0 0 0 -1.467556,0 1.0583333,1.0583333 0 0 0 -0.254,0.395111 z"
     style="fill:#225aa9;stroke-width:0.35277778"
     id="path770-4" />
  <path
     inkscape:connector-curvature="0"
     d="m 32.495861,74.157619 a 0.5856111,0.5856111 0 0 0 0,0.112888 1.0301111,1.0301111 0 0 0 1.037167,1.033639 0.99130553,0.99130553 0 0 0 0.733778,-0.303389 1.4534444,1.4534444 0 0 0 0.09878,-0.109361 l 0.218723,0.07761 a 0.98777776,0.98777776 0 0 1 -0.162278,0.186973 1.2558889,1.2558889 0 0 1 -2.141361,-0.885473 1.2558889,1.2558889 0 0 1 2.141361,-0.889 1.0583333,1.0583333 0 0 1 0.324555,0.776112 z m 0.03881,-0.211667 h 1.9685 a 1.0195278,1.0195278 0 0 0 -0.980723,-0.705556 1.0089444,1.0089444 0 0 0 -0.733777,0.303389 1.0583333,1.0583333 0 0 0 -0.254,0.395111 z"
     style="fill:#231f20;stroke-width:0.35277778"
     id="path859-9" />
  <path
     inkscape:connector-curvature="0"
     d="m 9.5464361,74.264823 a 0.62088887,0.62088887 0 0 0 0,0.116417 1.0371666,1.0371666 0 0 0 1.7638889,0.73025 1.4534444,1.4534444 0 0 0 0.09878,-0.109361 l 0.218722,0.07761 a 1.143,1.143 0 0 1 -0.162277,0.186972 1.2558889,1.2558889 0 1 1 0,-1.763889 1.0583333,1.0583333 0 0 1 0.310443,0.762 z m 0.0388,-0.208139 h 1.9684999 a 0.97719442,0.97719442 0 0 0 -0.246944,-0.409222 1.0406944,1.0406944 0 0 0 -1.4675559,0 1.0583333,1.0583333 0 0 0 -0.254,0.395111 z"
     style="fill:#225aa9;stroke-width:0.35277778"
     id="path770-5" />
  <path
     inkscape:connector-curvature="0"
     d="m 9.7263526,74.130768 a 0.5856111,0.5856111 0 0 0 0,0.112888 1.0301111,1.0301111 0 0 0 1.0371674,1.033639 0.99130553,0.99130553 0 0 0 0.733777,-0.303389 1.4534444,1.4534444 0 0 0 0.09878,-0.109361 l 0.218723,0.07761 a 0.98777776,0.98777776 0 0 1 -0.162277,0.186973 1.2558889,1.2558889 0 0 1 -2.1413619,-0.885473 1.2558889,1.2558889 0 0 1 2.1413619,-0.889 1.0583333,1.0583333 0 0 1 0.324555,0.776112 z m 0.03881,-0.211667 h 1.9684994 a 1.0195278,1.0195278 0 0 0 -0.980722,-0.705556 1.0089444,1.0089444 0 0 0 -0.733777,0.303389 1.0583333,1.0583333 0 0 0 -0.2540004,0.395111 z"
     style="fill:#231f20;stroke-width:0.35277778"
     id="path859-7" />
</svg>
