<?xml version="1.0" encoding="UTF-8" standalone="no"?>
<svg
   xmlns:dc="http://purl.org/dc/elements/1.1/"
   xmlns:cc="http://creativecommons.org/ns#"
   xmlns:rdf="http://www.w3.org/1999/02/22-rdf-syntax-ns#"
   xmlns:svg="http://www.w3.org/2000/svg"
   xmlns="http://www.w3.org/2000/svg"
   xmlns:sodipodi="http://sodipodi.sourceforge.net/DTD/sodipodi-0.dtd"
   xmlns:inkscape="http://www.inkscape.org/namespaces/inkscape"
   width="40.64mm"
   height="128.5mm"
   version="1.1"
   viewBox="0 0 40.64 128.5"
   id="svg1338"
   sodipodi:docname="polyturing.svg"
   inkscape:version="0.92.4 (5da689c313, 2019-01-14)">
  <metadata
     id="metadata1344">
    <rdf:RDF>
      <cc:Work
         rdf:about="">
        <dc:format>image/svg+xml</dc:format>
        <dc:type
           rdf:resource="http://purl.org/dc/dcmitype/StillImage" />
        <dc:title />
      </cc:Work>
    </rdf:RDF>
  </metadata>
  <defs
     id="defs1342" />
  <sodipodi:namedview
     pagecolor="#ffffff"
     bordercolor="#666666"
     borderopacity="1"
     objecttolerance="10"
     gridtolerance="10"
     guidetolerance="10"
     inkscape:pageopacity="0"
     inkscape:pageshadow="2"
     inkscape:window-width="1920"
     inkscape:window-height="1001"
     id="namedview1340"
     showgrid="false"
     inkscape:zoom="0.61586384"
     inkscape:cx="-136.44872"
     inkscape:cy="208.86635"
     inkscape:window-x="-9"
     inkscape:window-y="-9"
     inkscape:window-maximized="1"
     inkscape:current-layer="svg1338" />
  <g
     display="none"
     id="g1336">
    <circle
       id="LOCK"
       cx="20.514"
       cy="42.853"
       r="15"
       fill="#ff0000"
       stroke-width=".32511">
      <desc
         id="desc1146">LOCK</desc>
      <title
         id="title1148">LOCK</title>
    </circle>
    <circle
       id="STEPS"
       cx="34.167"
       cy="82.046"
       r="5"
       fill="#ff0000"
       stroke-width=".10837">
      <desc
         id="desc1151">STEPS</desc>
      <title
         id="title1153">STEPS</title>
    </circle>
    <circle
       id="OFFSET"
       cx="20.493"
       cy="82.046"
       r="5"
       fill="#ff0000"
       stroke-width=".10837">
      <desc
         id="desc1156">OFFSET</desc>
      <title
         id="title1158">OFFSET</title>
    </circle>
    <circle
       id="SCALE"
       cx="6.3817"
       cy="82.046"
       r="5"
       fill="#ff0000"
       stroke-width=".10837">
      <desc
         id="desc1161">SCALE</desc>
      <title
         id="title1163">SCALE</title>
    </circle>
    <circle
       id="STEPS_RAND"
       cx="36.865"
       cy="94.866"
       r="2.3"
       fill="#ff0000"
       stroke-width=".04985">
      <desc
         id="desc1166">STEPS_RAND</desc>
      <title
         id="title1168">STEPS_RAND</title>
    </circle>
    <circle
       id="STEPS_CV"
       cx="31.468"
       cy="90.707"
       r="2.3"
       fill="#ff0000"
       stroke-width=".04985">
      <desc
         id="desc1171">STEPS_CV</desc>
      <title
         id="title1173">STEPS_CV</title>
    </circle>
    <circle
       id="OFFSET_RAND"
       cx="23.199"
       cy="94.866"
       r="2.3"
       fill="#ff0000"
       stroke-width=".04985">
      <desc
         id="desc1176">OFFSET_RAND</desc>
      <title
         id="title1178">OFFSET_RAND</title>
    </circle>
    <g
       transform="matrix(.35278 0 0 .35278 -5.2282 -4.3349)"
       id="g1191">
      <path
         d="m65.26 275.79a6.39 6.39 0 1 1 6.39-6.39 6.39 6.39 0 0 1-6.39 6.39z"
         fill="#121212"
         id="path1181" />
      <path
         d="m65.26 263.14a6.27 6.27 0 1 1-6.26 6.26 6.27 6.27 0 0 1 6.27-6.26m0-0.25a6.52 6.52 0 1 0 6.51 6.51 6.52 6.52 0 0 0-6.51-6.51z"
         fill="#231f20"
         id="path1183" />
      <path
         d="m65.26 274.7a5.3 5.3 0 1 1 5.29-5.3 5.3 5.3 0 0 1-5.29 5.3z"
         fill="#393839"
         id="path1185" />
      <path
         d="m65.26 264.61a4.8 4.8 0 1 1-4.8 4.79 4.8 4.8 0 0 1 4.8-4.79m0-1a5.8 5.8 0 1 0 5.79 5.79 5.8 5.8 0 0 0-5.79-5.79z"
         fill="#333132"
         id="path1187" />
      <path
         d="m65.26 266.17a0.37 0.37 0 0 1-0.39-0.37v-1.54c0-0.2 0.17-0.24 0.39-0.24 0.21 0 0.38 0 0.38 0.24v1.54a0.37 0.37 0 0 1-0.38 0.37z"
         fill="#bec0c2"
         id="path1189" />
    </g>
    <circle
       id="OFFSET_CV"
       cx="17.794"
       cy="90.707"
       r="2.3"
       fill="#ff0000"
       stroke-width=".04985">
      <desc
         id="desc1193">OFFSET_CV</desc>
      <title
         id="title1195">OFFSET_CV</title>
    </circle>
    <g
       transform="matrix(.35278 0 0 .35278 -8.5302 3.9836)"
       id="g1208">
      <path
         d="m49.94 264a6.39 6.39 0 1 1 6.39-6.39 6.4 6.4 0 0 1-6.39 6.39z"
         fill="#121212"
         id="path1198" />
      <path
         d="m49.94 251.35a6.27 6.27 0 1 1-6.26 6.26 6.27 6.27 0 0 1 6.26-6.26m0-0.25a6.52 6.52 0 1 0 6.52 6.51 6.5 6.5 0 0 0-6.52-6.51z"
         fill="#231f20"
         id="path1200" />
      <path
         d="m49.94 262.9a5.29 5.29 0 1 1 5.3-5.29 5.29 5.29 0 0 1-5.3 5.29z"
         fill="#393839"
         id="path1202" />
      <path
         d="m49.94 252.82a4.79 4.79 0 1 1-4.79 4.79 4.8 4.8 0 0 1 4.79-4.79m0-1a5.79 5.79 0 1 0 5.8 5.79 5.79 5.79 0 0 0-5.8-5.79z"
         fill="#333132"
         id="path1204" />
      <path
         d="m49.94 254.38a0.38 0.38 0 0 1-0.38-0.37v-1.54c0-0.2 0.17-0.24 0.38-0.24 0.22 0 0.39 0 0.39 0.24v1.53a0.38 0.38 0 0 1-0.39 0.38z"
         fill="#bec0c2"
         id="path1206" />
    </g>
    <g
       transform="matrix(.35278 0 0 .35278 -13.935 -.17569)"
       id="g1220">
      <path
         d="m65.26 275.79a6.39 6.39 0 1 1 6.39-6.39 6.39 6.39 0 0 1-6.39 6.39z"
         fill="#121212"
         id="path1210" />
      <path
         d="m65.26 263.14a6.27 6.27 0 1 1-6.26 6.26 6.27 6.27 0 0 1 6.27-6.26m0-0.25a6.52 6.52 0 1 0 6.51 6.51 6.52 6.52 0 0 0-6.51-6.51z"
         fill="#231f20"
         id="path1212" />
      <path
         d="m65.26 274.7a5.3 5.3 0 1 1 5.29-5.3 5.3 5.3 0 0 1-5.29 5.3z"
         fill="#393839"
         id="path1214" />
      <path
         d="m65.26 264.61a4.8 4.8 0 1 1-4.8 4.79 4.8 4.8 0 0 1 4.8-4.79m0-1a5.8 5.8 0 1 0 5.79 5.79 5.8 5.8 0 0 0-5.79-5.79z"
         fill="#333132"
         id="path1216" />
      <path
         d="m65.26 266.17a0.37 0.37 0 0 1-0.39-0.37v-1.54c0-0.2 0.17-0.24 0.39-0.24 0.21 0 0.38 0 0.38 0.24v1.54a0.37 0.37 0 0 1-0.38 0.37z"
         fill="#bec0c2"
         id="path1218" />
    </g>
    <circle
       id="SCALE_RAND"
       cx="9.0876"
       cy="94.866"
       r="2.3"
       fill="#ff0000"
       stroke-width=".04985">
      <desc
         id="desc1222">SCALE_RAND</desc>
      <title
         id="title1224">SCALE_RAND</title>
    </circle>
    <g
       transform="matrix(.35278 0 0 .35278 -5.2282 -4.3349)"
       id="g1237">
      <path
         d="m25.25 275.79a6.39 6.39 0 1 1 6.39-6.39 6.4 6.4 0 0 1-6.39 6.39z"
         fill="#121212"
         id="path1227" />
      <path
         d="m25.25 263.14a6.27 6.27 0 1 1-6.25 6.26 6.27 6.27 0 0 1 6.26-6.26m0-0.25a6.52 6.52 0 1 0 6.52 6.51 6.51 6.51 0 0 0-6.52-6.51z"
         fill="#231f20"
         id="path1229" />
      <path
         d="m25.25 274.7a5.3 5.3 0 1 1 5.3-5.3 5.31 5.31 0 0 1-5.3 5.3z"
         fill="#393839"
         id="path1231" />
      <path
         d="m25.25 264.61a4.8 4.8 0 1 1-4.79 4.79 4.8 4.8 0 0 1 4.79-4.79m0-1a5.8 5.8 0 1 0 5.8 5.79 5.79 5.79 0 0 0-5.8-5.79z"
         fill="#333132"
         id="path1233" />
      <path
         d="m25.25 266.17a0.37 0.37 0 0 1-0.38-0.37v-1.54c0-0.2 0.17-0.24 0.38-0.24 0.22 0 0.39 0 0.39 0.24v1.54a0.37 0.37 0 0 1-0.39 0.37z"
         fill="#bec0c2"
         id="path1235" />
    </g>
    <g
       transform="matrix(.35278 0 0 .35278 -13.935 -.17569)"
       id="g1249">
      <path
         d="m49.94 264a6.39 6.39 0 1 1 6.39-6.39 6.4 6.4 0 0 1-6.39 6.39z"
         fill="#121212"
         id="path1239" />
      <path
         d="m49.94 251.35a6.27 6.27 0 1 1-6.26 6.26 6.27 6.27 0 0 1 6.26-6.26m0-0.25a6.52 6.52 0 1 0 6.52 6.51 6.5 6.5 0 0 0-6.52-6.51z"
         fill="#231f20"
         id="path1241" />
      <path
         d="m49.94 262.9a5.29 5.29 0 1 1 5.3-5.29 5.29 5.29 0 0 1-5.3 5.29z"
         fill="#393839"
         id="path1243" />
      <path
         d="m49.94 252.82a4.79 4.79 0 1 1-4.79 4.79 4.8 4.8 0 0 1 4.79-4.79m0-1a5.79 5.79 0 1 0 5.8 5.79 5.79 5.79 0 0 0-5.8-5.79z"
         fill="#333132"
         id="path1245" />
      <path
         d="m49.94 254.38a0.38 0.38 0 0 1-0.38-0.37v-1.54c0-0.2 0.17-0.24 0.38-0.24 0.22 0 0.39 0 0.39 0.24v1.53a0.38 0.38 0 0 1-0.39 0.38z"
         fill="#bec0c2"
         id="path1247" />
    </g>
    <g
       transform="matrix(.35278 0 0 .35278 -19.339 -4.3349)"
       id="g1261">
      <path
         d="m65.26 275.79a6.39 6.39 0 1 1 6.39-6.39 6.39 6.39 0 0 1-6.39 6.39z"
         fill="#121212"
         id="path1251" />
      <path
         d="m65.26 263.14a6.27 6.27 0 1 1-6.26 6.26 6.27 6.27 0 0 1 6.27-6.26m0-0.25a6.52 6.52 0 1 0 6.51 6.51 6.52 6.52 0 0 0-6.51-6.51z"
         fill="#231f20"
         id="path1253" />
      <path
         d="m65.26 274.7a5.3 5.3 0 1 1 5.29-5.3 5.3 5.3 0 0 1-5.29 5.3z"
         fill="#393839"
         id="path1255" />
      <path
         d="m65.26 264.61a4.8 4.8 0 1 1-4.8 4.79 4.8 4.8 0 0 1 4.8-4.79m0-1a5.8 5.8 0 1 0 5.79 5.79 5.8 5.8 0 0 0-5.79-5.79z"
         fill="#333132"
         id="path1257" />
      <path
         d="m65.26 266.17a0.37 0.37 0 0 1-0.39-0.37v-1.54c0-0.2 0.17-0.24 0.39-0.24 0.21 0 0.38 0 0.38 0.24v1.54a0.37 0.37 0 0 1-0.38 0.37z"
         fill="#bec0c2"
         id="path1259" />
    </g>
    <circle
       id="SCALE_CV"
       cx="3.683"
       cy="90.707"
       r="2.3"
       fill="#ff0000"
       stroke-width=".04985">
      <desc
         id="desc1263">SCALE_CV</desc>
      <title
         id="title1265">SCALE_CV</title>
    </circle>
    <circle
       id="LOCK_CV"
       cx="15.346"
       cy="63.384"
       r="2.3"
       fill="#ff0000"
       stroke-width=".04985">
      <desc
         id="desc1268">LOCK_CV</desc>
      <title
         id="title1270">LOCK_CV</title>
    </circle>
    <circle
       id="CLOCK"
       cx="33.464"
       cy="18.282"
       r="4.177"
       fill="#00ff00"
       stroke-width=".090531">
      <desc
         id="desc1273">CLOCK</desc>
      <title
         id="title1275">CLOCK</title>
    </circle>
    <circle
       id="IN"
       cx="7.5283"
       cy="18.282"
       r="4.177"
       fill="#00ff00"
       stroke-width=".090531">
      <desc
         id="desc1278">IN</desc>
      <title
         id="title1280">IN</title>
    </circle>
    <circle
       id="LOCK_CVV"
       cx="6.3817"
       cy="63.384"
       r="4.177"
       fill="#00ff00"
       stroke-width=".090531">
      <desc
         id="desc1283">LOCK_CVV</desc>
      <title
         id="title1285">LOCK_CVV</title>
    </circle>
    <circle
       id="STEPS_CVV"
       cx="34.092"
       cy="102.08"
       r="4.177"
       fill="#00ff00"
       stroke-width=".090531">
      <desc
         id="desc1288">STEPS_CVV</desc>
      <title
         id="title1290">STEPS_CVV</title>
    </circle>
    <circle
       id="OFFSET_CVV"
       cx="20.419"
       cy="102.08"
       r="4.177"
       fill="#00ff00"
       stroke-width=".090531">
      <desc
         id="desc1293">OFFSET_CVV</desc>
      <title
         id="title1295">OFFSET_CVV</title>
    </circle>
    <circle
       id="SCALE_CVV"
       cx="6.3077"
       cy="102.08"
       r="4.177"
       fill="#00ff00"
       stroke-width=".090531">
      <desc
         id="desc1298">SCALE_CVV</desc>
      <title
         id="title1300">SCALE_CVV</title>
    </circle>
    <circle
       id="OUT"
       cx="20.496"
       cy="119.63"
       r="4.177"
       fill="#0000ff"
       stroke-width=".090531">
      <desc
         id="desc1303">OUT</desc>
      <title
         id="title1305">OUT</title>
    </circle>
    <circle
       id="MAN"
       cx="20.429"
       cy="22.871"
       r="1.75"
       fill="#ff00ff"
       stroke-width=".037929">
      <desc
         id="desc1308">MAN</desc>
      <title
         id="title1310">MAN</title>
    </circle>
    <circle
       id="SCREW"
       cx="2.2648"
       cy="1.9445"
       r="1.411"
       fill="#ffff00"
       stroke-width=".030582">
      <desc
         id="desc1313">SCREW</desc>
      <title
         id="title1315">SCREW</title>
    </circle>
    <circle
       cx="38.728"
       cy="1.941"
       r="1.411"
       fill="#ffff00"
       stroke-width=".030582"
       id="circle1322">
      <desc
         id="desc1318">SCREW</desc>
      <title
         id="title1320">SCREW</title>
    </circle>
    <circle
       cx="38.728"
       cy="126.27"
       r="1.411"
       fill="#ffff00"
       stroke-width=".030582"
       id="circle1328">
      <desc
         id="desc1324">SCREW</desc>
      <title
         id="title1326">SCREW</title>
    </circle>
    <circle
       cx="2.2648"
       cy="126.27"
       r="1.411"
       fill="#ffff00"
       stroke-width=".030582"
       id="circle1334">
      <desc
         id="desc1330">SCREW</desc>
      <title
         id="title1332">SCREW</title>
    </circle>
  </g>
  <g
     id="g1174"
     transform="matrix(0.35277777,0,0,0.35277777,0.17638889,-0.17568641)">
    <g
       id="background">
      <rect
         id="rect556"
         style="fill:#007ab5;stroke:#231f20;stroke-miterlimit:10"
         height="364.25"
         width="115.2"
         x="0"
         y="0" />
    </g>
    <g
       id="seri">
      <g
         id="g587">
        <g
           id="g571">
          <line
             id="line559"
             style="fill:#231f20;stroke:#111111;stroke-width:0.75px;stroke-miterlimit:10"
             y2="241.25999"
             x2="9.9399996"
             y1="249.42"
             x1="9.9399996" />
          <path
             id="path561"
             style="fill:none;stroke:#111111;stroke-width:0.75px;stroke-miterlimit:10"
             d="m 3.11,261.71 a 7.84,7.84 0 0 1 -1.1,-4 7.93,7.93 0 0 1 15.85,0 7.84,7.84 0 0 1 -1.1,4"
             inkscape:connector-curvature="0" />
          <g
             id="g567">
            <line
               id="line563"
               style="fill:none;stroke:#111111;stroke-width:0.25px;stroke-miterlimit:10"
               y2="263.70001"
               x2="17.969999"
               y1="263.70001"
               x1="15.91" />
            <line
               id="line565"
               style="fill:none;stroke:#111111;stroke-width:0.25px;stroke-miterlimit:10"
               y2="262.67001"
               x2="16.940001"
               y1="264.72"
               x1="16.940001" />
          </g>
          <line
             id="line569"
             style="fill:none;stroke:#111111;stroke-width:0.25px;stroke-miterlimit:10"
             y2="263.70001"
             x2="3.97"
             y1="263.70001"
             x1="1.91" />
        </g>
        <g
           id="g585">
          <line
             id="line573"
             style="fill:#231f20;stroke:#111111;stroke-width:0.75px;stroke-miterlimit:10"
             y2="241.25999"
             x2="25.25"
             y1="261.16"
             x1="25.25" />
          <path
             id="path575"
             style="fill:none;stroke:#111111;stroke-width:0.75px;stroke-miterlimit:10"
             d="m 18.43,273.45 a 7.84,7.84 0 0 1 -1.1,-4 7.93,7.93 0 0 1 15.85,0 7.84,7.84 0 0 1 -1.1,4"
             inkscape:connector-curvature="0" />
          <g
             id="g581">
            <line
               id="line577"
               style="fill:none;stroke:#111111;stroke-width:0.25px;stroke-miterlimit:10"
               y2="275.42999"
               x2="33.279999"
               y1="275.42999"
               x1="31.23" />
            <line
               id="line579"
               style="fill:none;stroke:#111111;stroke-width:0.25px;stroke-miterlimit:10"
               y2="274.39999"
               x2="32.25"
               y1="276.45999"
               x1="32.25" />
          </g>
          <line
             id="line583"
             style="fill:none;stroke:#111111;stroke-width:0.25px;stroke-miterlimit:10"
             y2="275.42999"
             x2="19.280001"
             y1="275.42999"
             x1="17.23" />
        </g>
      </g>
      <g
         id="g617">
        <g
           id="g601">
          <line
             id="line589"
             style="fill:#231f20;stroke:#111111;stroke-width:0.75px;stroke-miterlimit:10"
             y2="241.31"
             x2="49.939999"
             y1="249.47"
             x1="49.939999" />
          <path
             id="path591"
             style="fill:none;stroke:#111111;stroke-width:0.75px;stroke-miterlimit:10"
             d="m 43.12,261.76 a 7.84,7.84 0 0 1 -1.1,-4 7.93,7.93 0 0 1 15.85,0 7.84,7.84 0 0 1 -1.1,4"
             inkscape:connector-curvature="0" />
          <g
             id="g597">
            <line
               id="line593"
               style="fill:none;stroke:#111111;stroke-width:0.25px;stroke-miterlimit:10"
               y2="263.73999"
               x2="57.970001"
               y1="263.73999"
               x1="55.919998" />
            <line
               id="line595"
               style="fill:none;stroke:#111111;stroke-width:0.25px;stroke-miterlimit:10"
               y2="262.72"
               x2="56.939999"
               y1="264.76999"
               x1="56.939999" />
          </g>
          <line
             id="line599"
             style="fill:none;stroke:#111111;stroke-width:0.25px;stroke-miterlimit:10"
             y2="263.73999"
             x2="43.970001"
             y1="263.73999"
             x1="41.919998" />
        </g>
        <g
           id="g615">
          <line
             id="line603"
             style="fill:#231f20;stroke:#111111;stroke-width:0.75px;stroke-miterlimit:10"
             y2="241.31"
             x2="65.260002"
             y1="261.20001"
             x1="65.260002" />
          <path
             id="path605"
             style="fill:none;stroke:#111111;stroke-width:0.75px;stroke-miterlimit:10"
             d="m 58.43,273.49 a 7.84,7.84 0 0 1 -1.1,-4 7.93,7.93 0 0 1 15.85,0 7.84,7.84 0 0 1 -1.1,4"
             inkscape:connector-curvature="0" />
          <g
             id="g611">
            <line
               id="line607"
               style="fill:none;stroke:#111111;stroke-width:0.25px;stroke-miterlimit:10"
               y2="275.48001"
               x2="73.279999"
               y1="275.48001"
               x1="71.230003" />
            <line
               id="line609"
               style="fill:none;stroke:#111111;stroke-width:0.25px;stroke-miterlimit:10"
               y2="274.45001"
               x2="72.260002"
               y1="276.5"
               x1="72.260002" />
          </g>
          <line
             id="line613"
             style="fill:none;stroke:#111111;stroke-width:0.25px;stroke-miterlimit:10"
             y2="275.48001"
             x2="59.279999"
             y1="275.48001"
             x1="57.23" />
        </g>
      </g>
      <g
         id="g647">
        <g
           id="g631">
          <line
             id="line619"
             style="fill:#231f20;stroke:#111111;stroke-width:0.75px;stroke-miterlimit:10"
             y2="241.31"
             x2="88.699997"
             y1="249.47"
             x1="88.699997" />
          <path
             id="path621"
             style="fill:none;stroke:#111111;stroke-width:0.75px;stroke-miterlimit:10"
             d="m 81.88,261.76 a 7.84,7.84 0 0 1 -1.1,-4 7.93,7.93 0 0 1 15.85,0 7.84,7.84 0 0 1 -1.1,4"
             inkscape:connector-curvature="0" />
          <g
             id="g627">
            <line
               id="line623"
               style="fill:none;stroke:#111111;stroke-width:0.25px;stroke-miterlimit:10"
               y2="263.73999"
               x2="96.730003"
               y1="263.73999"
               x1="94.669998" />
            <line
               id="line625"
               style="fill:none;stroke:#111111;stroke-width:0.25px;stroke-miterlimit:10"
               y2="262.72"
               x2="95.699997"
               y1="264.76999"
               x1="95.699997" />
          </g>
          <line
             id="line629"
             style="fill:none;stroke:#111111;stroke-width:0.25px;stroke-miterlimit:10"
             y2="263.73999"
             x2="82.730003"
             y1="263.73999"
             x1="80.669998" />
        </g>
        <g
           id="g645">
          <line
             id="line633"
             style="fill:#231f20;stroke:#111111;stroke-width:0.75px;stroke-miterlimit:10"
             y2="241.31"
             x2="104.01"
             y1="261.20001"
             x1="104.01" />
          <path
             id="path635"
             style="fill:none;stroke:#111111;stroke-width:0.75px;stroke-miterlimit:10"
             d="m 97.19,273.49 a 7.84,7.84 0 0 1 -1.1,-4 7.93,7.93 0 0 1 15.85,0 7.84,7.84 0 0 1 -1.1,4"
             inkscape:connector-curvature="0" />
          <g
             id="g641">
            <line
               id="line637"
               style="fill:none;stroke:#111111;stroke-width:0.25px;stroke-miterlimit:10"
               y2="275.48001"
               x2="112.04"
               y1="275.48001"
               x1="109.99" />
            <line
               id="line639"
               style="fill:none;stroke:#111111;stroke-width:0.25px;stroke-miterlimit:10"
               y2="274.45001"
               x2="111.01"
               y1="276.5"
               x1="111.01" />
          </g>
          <line
             id="line643"
             style="fill:none;stroke:#111111;stroke-width:0.25px;stroke-miterlimit:10"
             y2="275.48001"
             x2="98.040001"
             y1="275.48001"
             x1="95.989998" />
        </g>
      </g>
      <line
         id="line649"
         style="fill:none;stroke:#231f20;stroke-width:0.75px;stroke-miterlimit:10"
         y2="171.58"
         x2="57.599998"
         y1="158.94"
         x1="57.599998" />
      <line
         id="line651"
         style="fill:none;stroke:#231f20;stroke-width:0.75px;stroke-miterlimit:10"
         y2="180.57001"
         x2="12.61"
         y1="180.57001"
         x1="35.009998" />
      <path
         id="path653"
         style="fill:none;stroke:#231f20;stroke-width:0.75px;stroke-miterlimit:10"
         d="m 51,180.49 c 0,0 6.65,1.57 6.65,-9.45"
         inkscape:connector-curvature="0" />
      <g
         id="g665">
        <path
           id="path655"
           style="fill:none;stroke:#111111;stroke-width:0.75px;stroke-miterlimit:10"
           d="m 36.21,184.28 a 7.84,7.84 0 0 1 -1.1,-4 7.93,7.93 0 0 1 15.85,0 7.84,7.84 0 0 1 -1.1,4"
           inkscape:connector-curvature="0" />
        <g
           id="g661">
          <line
             id="line657"
             style="fill:none;stroke:#111111;stroke-width:0.25px;stroke-miterlimit:10"
             y2="186.27"
             x2="51.060001"
             y1="186.27"
             x1="49.009998" />
          <line
             id="line659"
             style="fill:none;stroke:#111111;stroke-width:0.25px;stroke-miterlimit:10"
             y2="185.24001"
             x2="50.029999"
             y1="187.28999"
             x1="50.029999" />
        </g>
        <line
           id="line663"
           style="fill:none;stroke:#111111;stroke-width:0.25px;stroke-miterlimit:10"
           y2="186.27"
           x2="37.060001"
           y1="186.27"
           x1="35.009998" />
      </g>
      <path
         id="path667"
         style="fill:none;stroke:#231f20;stroke-width:0.75px;stroke-miterlimit:10"
         d="m 56.72,65.33 c 0,-7.19 -5.54,-13 -12.37,-13 H 30.49"
         inkscape:connector-curvature="0" />
      <path
         id="path669"
         style="fill:none;stroke:#231f20;stroke-width:0.75px;stroke-miterlimit:10"
         d="m 58.1,65.33 c 0,-7.19 5.53,-13 12.37,-13 h 14.24"
         inkscape:connector-curvature="0" />
      <circle
         id="circle671"
         style="fill:#231f20;stroke:#231f20;stroke-width:0.75px;stroke-miterlimit:10"
         r="5.3400002"
         cy="65.330002"
         cx="57.41" />
      <line
         id="line673"
         style="fill:none;stroke:#231f20;stroke-width:0.75px;stroke-miterlimit:10"
         y2="79.599998"
         x2="57.41"
         y1="71.029999"
         x1="57.41" />
      <g
         id="g679">
        <path
           id="path675"
           style="fill:#282828"
           d="m 17.6,218 c -0.3,0 -0.57,-0.69 -0.57,-1 a 0.57,0.57 0 0 1 0.57,-0.57 0.56,0.56 0 0 1 0.56,0.57 c 0,0.35 -0.27,1 -0.56,1 z"
           inkscape:connector-curvature="0" />
        <path
           id="path677"
           style="fill:#231f20"
           d="m 17.6,216.51 a 0.51,0.51 0 0 1 0.51,0.52 c 0,0.33 -0.27,1 -0.51,1 -0.24,0 -0.52,-0.64 -0.52,-1 a 0.52,0.52 0 0 1 0.52,-0.52 m 0,-0.1 A 0.62,0.62 0 0 0 17,217 c 0,0.34 0.28,1.07 0.62,1.07 0.34,0 0.61,-0.73 0.61,-1.07 a 0.61,0.61 0 0 0 -0.61,-0.62 z"
           inkscape:connector-curvature="0" />
      </g>
      <g
         id="g685">
        <path
           id="path681"
           style="fill:#282828"
           d="m 57.6,218 c -0.3,0 -0.56,-0.69 -0.56,-1 a 0.56,0.56 0 1 1 1.12,0 c 0,0.35 -0.26,1 -0.56,1 z"
           inkscape:connector-curvature="0" />
        <path
           id="path683"
           style="fill:#231f20"
           d="m 57.6,216.51 a 0.51,0.51 0 0 1 0.51,0.52 c 0,0.33 -0.27,1 -0.51,1 -0.24,0 -0.51,-0.64 -0.51,-1 a 0.51,0.51 0 0 1 0.51,-0.52 m 0,-0.1 A 0.61,0.61 0 0 0 57,217 c 0,0.34 0.27,1.07 0.61,1.07 0.34,0 0.61,-0.73 0.61,-1.07 a 0.61,0.61 0 0 0 -0.61,-0.62 z"
           inkscape:connector-curvature="0" />
      </g>
      <g
         id="g691">
        <path
           id="path687"
           style="fill:#282828"
           d="m 96.36,218 c -0.3,0 -0.57,-0.69 -0.57,-1 a 0.57,0.57 0 0 1 0.57,-0.57 0.56,0.56 0 0 1 0.56,0.57 c 0,0.35 -0.27,1 -0.56,1 z"
           inkscape:connector-curvature="0" />
        <path
           id="path689"
           style="fill:#231f20"
           d="m 96.36,216.51 a 0.51,0.51 0 0 1 0.51,0.52 c 0,0.33 -0.27,1 -0.51,1 -0.24,0 -0.52,-0.64 -0.52,-1 a 0.52,0.52 0 0 1 0.52,-0.52 m 0,-0.1 a 0.62,0.62 0 0 0 -0.62,0.62 c 0,0.34 0.28,1.07 0.62,1.07 0.34,0 0.61,-0.73 0.61,-1.07 a 0.61,0.61 0 0 0 -0.61,-0.62 z"
           inkscape:connector-curvature="0" />
      </g>
      <path
         id="path693"
         style="fill:none;stroke:#231f20;stroke-width:0.75px;stroke-miterlimit:10"
         d="m 39.86,278.43 c 0,-5.6 -2.94,-10.13 -6.58,-10.13"
         inkscape:connector-curvature="0" />
      <path
         id="path695"
         style="fill:none;stroke:#231f20;stroke-width:0.75px;stroke-miterlimit:10"
         d="M 39.87,278.43 A 10.12,10.12 0 0 1 50,268.3"
         inkscape:connector-curvature="0" />
      <line
         id="line697"
         style="fill:none;stroke:#231f20;stroke-width:0.75px;stroke-miterlimit:10"
         y2="268.29999"
         x2="57.380001"
         y1="268.29999"
         x1="49.990002" />
      <path
         id="path699"
         style="fill:none;stroke:#111111;stroke-width:0.5px;stroke-miterlimit:10"
         d="m 37.3,282.86 a 3,3 0 1 1 5.55,-1.51 2.88,2.88 0 0 1 -0.42,1.51"
         inkscape:connector-curvature="0" />
      <circle
         id="circle701"
         r="2.24"
         cy="281.32999"
         cx="39.869999" />
      <path
         id="path703"
         style="fill:none;stroke:#231f20;stroke-width:0.75px;stroke-miterlimit:10"
         d="M 79.93,278.43 A 10.12,10.12 0 0 1 90.06,268.3"
         inkscape:connector-curvature="0" />
      <path
         id="path705"
         style="fill:none;stroke:#111111;stroke-width:0.5px;stroke-miterlimit:10"
         d="m 77.36,282.86 a 3,3 0 1 1 5.14,0"
         inkscape:connector-curvature="0" />
      <circle
         id="circle707"
         r="2.24"
         cy="281.32999"
         cx="79.93" />
      <line
         id="line709"
         style="fill:none;stroke:#231f20;stroke-width:0.75px;stroke-miterlimit:10"
         y2="268.29999"
         x2="95.989998"
         y1="268.29999"
         x1="90.059998" />
      <line
         id="line711"
         style="fill:none;stroke:#231f20;stroke-width:0.75px;stroke-miterlimit:10"
         y2="326.28"
         x2="39.869999"
         y1="283.57999"
         x1="39.869999" />
      <line
         id="line713"
         style="fill:none;stroke:#231f20;stroke-width:0.75px;stroke-miterlimit:10"
         y2="294.73999"
         x2="79.93"
         y1="283.57999"
         x1="79.93" />
      <path
         id="path715"
         style="fill:none;stroke:#231f20;stroke-width:0.75px;stroke-miterlimit:10"
         d="M 39.87,326.28 A 12.68,12.68 0 0 0 52.56,339"
         inkscape:connector-curvature="0" />
      <line
         id="line717"
         style="fill:none;stroke:#231f20;stroke-width:0.75px;stroke-miterlimit:10"
         y2="306.88"
         x2="45.830002"
         y1="306.88"
         x1="67.830002" />
      <path
         id="path719"
         style="fill:none;stroke:#231f20;stroke-width:0.75px;stroke-miterlimit:10"
         d="m 39.86,313 a 6.08,6.08 0 0 1 6.08,-6.08"
         inkscape:connector-curvature="0" />
      <path
         id="path721"
         style="fill:none;stroke:#231f20;stroke-width:0.75px;stroke-miterlimit:10"
         d="m 79.93,294.74 a 12.11,12.11 0 0 1 -12.1,12.14"
         inkscape:connector-curvature="0" />
    </g>
    <g
       data-name="textn copy"
       id="textn_copy">
      <g
         id="g736">
        <path
           id="path724"
           style="fill:#225aa9"
           d="m 29.13,17 v -5.76 h 1.24 V 17 h 2.76 v 1.25 H 30.37 V 30.57 H 29.13 V 18.26 H 26.37 V 17 Z"
           inkscape:connector-curvature="0" />
        <path
           id="path726"
           style="fill:#225aa9"
           d="m 40.58,30.76 a 5.46,5.46 0 0 1 -4,-1.5 A 5.32,5.32 0 0 1 35,25.46 V 17 h 1.25 v 8.36 a 4,4 0 0 0 1.25,2.94 4.18,4.18 0 0 0 3.08,1.23 4.1,4.1 0 0 0 3,-1.22 4,4 0 0 0 1.24,-2.95 V 17 H 46 v 8.47 a 5.32,5.32 0 0 1 -1.55,3.8 5.25,5.25 0 0 1 -3.87,1.49 z"
           inkscape:connector-curvature="0" />
        <path
           id="path728"
           style="fill:#225aa9"
           d="m 53.72,18.1 a 4.49,4.49 0 0 0 -2.6,1.69 4.58,4.58 0 0 0 -1.29,3 v 7.78 H 48.58 V 17 h 1.25 v 2.93 a 5.38,5.38 0 0 1 3.21,-3 z"
           inkscape:connector-curvature="0" />
        <path
           id="path730"
           style="fill:#225aa9"
           d="m 57.08,12.57 a 1.18,1.18 0 0 1 0.36,0.86 1.24,1.24 0 0 1 -2.11,0.89 1.19,1.19 0 0 1 -0.37,-0.89 1.15,1.15 0 0 1 0.37,-0.86 1.24,1.24 0 0 1 1.75,0 z M 56.82,17 V 30.57 H 55.58 V 17 Z"
           inkscape:connector-curvature="0" />
        <path
           id="path732"
           style="fill:#225aa9"
           d="M 61.47,20 V 30.57 H 60.22 V 17 h 1.25 v 0.87 a 5.43,5.43 0 0 1 3.94,-1.69 5.22,5.22 0 0 1 5.46,5.3 v 9.08 h -1.24 v -8.94 a 4,4 0 0 0 -1.25,-3 4.21,4.21 0 0 0 -5.92,0 4.59,4.59 0 0 0 -0.99,1.38 z"
           inkscape:connector-curvature="0" />
        <path
           id="path734"
           style="fill:#225aa9"
           d="m 86.93,27.88 q -0.36,0.44 -0.75,0.84 a 7.59,7.59 0 0 1 -13,-5.34 7.6,7.6 0 0 1 13,-5.37 9.73,9.73 0 0 1 0.78,0.92 V 17 h 1.25 v 10.54 a 7.12,7.12 0 0 1 -2.21,5.22 7.58,7.58 0 0 1 -10.74,0 9.88,9.88 0 0 1 -0.81,-0.94 l 1.31,-0.49 a 5.25,5.25 0 0 0 0.46,0.49 6.23,6.23 0 0 0 8.84,0 6.07,6.07 0 0 0 1.87,-3.94 z m 0,-5.8 a 6.13,6.13 0 0 0 -1.7,-3.14 6.27,6.27 0 0 0 -10.7,4.44 6.27,6.27 0 0 0 12.4,1.31 z"
           inkscape:connector-curvature="0" />
      </g>
      <g
         id="g748">
        <path
           id="path738"
           style="fill:#225aa9"
           d="m 81.36,76.55 0.82,0.3 a 4.61,4.61 0 0 1 -0.51,0.58 4.72,4.72 0 0 1 -6.7,0 4.74,4.74 0 1 1 7.21,-6.12 l -0.82,0.3 -0.27,-0.31 a 3.82,3.82 0 0 0 -2.78,-1.14 3.92,3.92 0 1 0 2.78,6.68 c 0.09,-0.09 0.19,-0.19 0.27,-0.29 z"
           inkscape:connector-curvature="0" />
        <path
           id="path740"
           style="fill:#225aa9"
           d="M 84.54,64.78 V 78.59 H 83.76 V 64.78 Z"
           inkscape:connector-curvature="0" />
        <path
           id="path742"
           style="fill:#225aa9"
           d="m 91.06,69.35 a 4.74,4.74 0 1 1 -3.35,8.09 4.74,4.74 0 0 1 3.35,-8.09 z m -2.77,2 a 3.91,3.91 0 1 0 2.77,-1.15 3.77,3.77 0 0 0 -2.77,1.12 z"
           inkscape:connector-curvature="0" />
        <path
           id="path744"
           style="fill:#225aa9"
           d="m 104.79,76.55 0.82,0.3 a 4.61,4.61 0 0 1 -0.51,0.58 4.72,4.72 0 0 1 -6.7,0 4.74,4.74 0 1 1 7.21,-6.12 l -0.82,0.3 -0.28,-0.31 a 3.92,3.92 0 1 0 0,5.54 z"
           inkscape:connector-curvature="0" />
        <path
           id="path746"
           style="fill:#225aa9"
           d="m 111.21,70.11 -2.09,2.59 3.33,5.89 h -1 l -2.88,-5.27 -0.76,0.94 v 4.33 h -0.78 V 66.51 h 0.78 V 73 l 2.36,-2.91 z"
           inkscape:connector-curvature="0" />
      </g>
      <g
         id="g760">
        <path
           id="path750"
           style="fill:#225aa9"
           d="m 84.3,211.25 a 4.83,4.83 0 0 1 -1,-0.69 1.52,1.52 0 0 1 0,-2.16 1.51,1.51 0 0 1 2.12,0 1.27,1.27 0 0 1 0.4,0.92 v 0 l -0.5,0.21 a 1.3,1.3 0 0 0 -0.31,-0.74 0.83,0.83 0 0 0 -0.64,-0.25 1,1 0 0 0 -0.94,0.94 0.91,0.91 0 0 0 0.28,0.67 3.78,3.78 0 0 0 0.68,0.5 5.35,5.35 0 0 1 1.18,0.8 1.84,1.84 0 0 1 0.55,1.32 1.87,1.87 0 0 1 -0.55,1.35 1.9,1.9 0 0 1 -2.67,0 1.7,1.7 0 0 1 -0.55,-1.22 l 0.58,-0.14 a 1.26,1.26 0 0 0 0.39,0.94 1.23,1.23 0 0 0 0.91,0.39 1.27,1.27 0 0 0 0.93,-0.39 1.23,1.23 0 0 0 0.38,-0.93 1.2,1.2 0 0 0 -0.38,-0.91 5.78,5.78 0 0 0 -0.86,-0.61 z"
           inkscape:connector-curvature="0" />
        <path
           id="path752"
           style="fill:#225aa9"
           d="m 88.18,208.3 v -2.7 h 0.58 v 2.7 h 1.29 v 0.59 h -1.29 v 5.77 h -0.58 v -5.77 h -1.3 v -0.59 z"
           inkscape:connector-curvature="0" />
        <path
           id="path754"
           style="fill:#225aa9"
           d="m 91.3,211 c 0,0.11 0,0.21 0,0.33 a 2.94,2.94 0 0 0 5,2.07 4.12,4.12 0 0 0 0.28,-0.31 l 0.62,0.22 a 3.24,3.24 0 0 1 -0.46,0.53 3.56,3.56 0 1 1 0,-5 3,3 0 0 1 0.91,2.19 z m 0.11,-0.59 H 97 a 2.65,2.65 0 0 0 -0.69,-1.16 2.95,2.95 0 0 0 -4.16,0 3,3 0 0 0 -0.74,1.12 z"
           inkscape:connector-curvature="0" />
        <path
           id="path756"
           style="fill:#225aa9"
           d="m 98.59,208.3 h 0.59 v 0.9 a 3.57,3.57 0 0 1 0.36,-0.43 3.56,3.56 0 0 1 5,5 3.41,3.41 0 0 1 -2.51,1 3.45,3.45 0 0 1 -2.52,-1 3.57,3.57 0 0 1 -0.36,-0.43 v 3.72 h -0.59 z m 0.59,2.38 v 1.22 a 2.68,2.68 0 0 0 0.8,1.47 2.94,2.94 0 1 0 0,-4.16 2.75,2.75 0 0 0 -0.8,1.47 z"
           inkscape:connector-curvature="0" />
        <path
           id="path758"
           style="fill:#225aa9"
           d="m 108.42,211.25 a 5.25,5.25 0 0 1 -1,-0.69 1.55,1.55 0 0 1 0,-2.16 1.47,1.47 0 0 1 1.08,-0.45 1.42,1.42 0 0 1 1,0.42 1.27,1.27 0 0 1 0.4,0.92 v 0 l -0.5,0.21 a 1.3,1.3 0 0 0 -0.31,-0.74 0.83,0.83 0 0 0 -0.64,-0.25 0.94,0.94 0 0 0 -0.94,0.94 0.94,0.94 0 0 0 0.27,0.67 4.44,4.44 0 0 0 0.69,0.5 5.35,5.35 0 0 1 1.18,0.8 1.84,1.84 0 0 1 0.55,1.32 1.88,1.88 0 0 1 -1.89,1.9 1.84,1.84 0 0 1 -1.33,-0.55 1.7,1.7 0 0 1 -0.55,-1.22 l 0.58,-0.14 a 1.29,1.29 0 0 0 0.38,0.94 1.31,1.31 0 0 0 2.23,-0.93 1.24,1.24 0 0 0 -0.38,-0.91 5.78,5.78 0 0 0 -0.82,-0.58 z"
           inkscape:connector-curvature="0" />
      </g>
      <g
         id="g774">
        <path
           id="path762"
           style="fill:#225aa9"
           d="m 47.25,207.73 a 3.56,3.56 0 0 1 2.52,6.07 3.56,3.56 0 0 1 -5,0 3.56,3.56 0 0 1 2.51,-6.07 z m -2.08,1.48 a 2.95,2.95 0 1 0 2.08,-0.86 2.86,2.86 0 0 0 -2.08,0.86 z"
           inkscape:connector-curvature="0" />
        <path
           id="path764"
           style="fill:#225aa9"
           d="m 52.72,208.89 v 5.77 h -0.58 v -5.77 h -0.65 v -0.59 h 0.65 v -1.72 a 1.89,1.89 0 0 1 0.55,-1.24 1.77,1.77 0 0 1 1.22,-0.49 2.47,2.47 0 0 1 0.77,0.14 l -0.19,0.52 a 1.43,1.43 0 0 0 -0.52,-0.11 1.31,1.31 0 0 0 -0.87,0.36 1.29,1.29 0 0 0 -0.38,0.87 v 1.67 H 54 v 0.59 z"
           inkscape:connector-curvature="0" />
        <path
           id="path766"
           style="fill:#225aa9"
           d="m 55.53,208.89 v 5.77 h -0.59 v -5.77 H 54.3 v -0.59 h 0.64 v -1.72 a 1.89,1.89 0 0 1 0.55,-1.24 1.8,1.8 0 0 1 1.22,-0.49 2.42,2.42 0 0 1 0.77,0.14 l -0.18,0.52 a 1.48,1.48 0 0 0 -0.53,-0.11 1.28,1.28 0 0 0 -0.86,0.36 1.24,1.24 0 0 0 -0.38,0.87 v 1.67 h 1.29 v 0.59 z"
           inkscape:connector-curvature="0" />
        <path
           id="path768"
           style="fill:#225aa9"
           d="m 59.31,211.25 a 4.83,4.83 0 0 1 -1,-0.69 1.53,1.53 0 0 1 1.06,-2.56 1.4,1.4 0 0 1 1,0.42 1.28,1.28 0 0 1 0.41,0.92 v 0 l -0.51,0.21 a 1.24,1.24 0 0 0 -0.31,-0.74 0.82,0.82 0 0 0 -0.63,-0.25 0.89,0.89 0 0 0 -0.67,0.28 0.87,0.87 0 0 0 -0.28,0.66 0.91,0.91 0 0 0 0.28,0.67 4.21,4.21 0 0 0 0.68,0.5 5.35,5.35 0 0 1 1.18,0.8 1.8,1.8 0 0 1 0.55,1.32 1.89,1.89 0 0 1 -3.22,1.35 1.74,1.74 0 0 1 -0.55,-1.22 l 0.58,-0.14 a 1.26,1.26 0 0 0 0.39,0.94 1.23,1.23 0 0 0 0.92,0.39 1.26,1.26 0 0 0 0.92,-0.39 1.24,1.24 0 0 0 0.39,-0.93 1.21,1.21 0 0 0 -0.39,-0.91 5.78,5.78 0 0 0 -0.8,-0.63 z"
           inkscape:connector-curvature="0" />
        <path
           id="path770"
           style="fill:#225aa9"
           d="m 62.68,211 a 1.76,1.76 0 0 0 0,0.33 2.94,2.94 0 0 0 5,2.07 4.12,4.12 0 0 0 0.28,-0.31 l 0.62,0.22 a 3.24,3.24 0 0 1 -0.46,0.53 3.56,3.56 0 1 1 0,-5 A 3,3 0 0 1 69,211 Z m 0.11,-0.59 h 5.58 a 2.77,2.77 0 0 0 -0.7,-1.16 2.95,2.95 0 0 0 -4.16,0 3,3 0 0 0 -0.72,1.12 z"
           inkscape:connector-curvature="0" />
        <path
           id="path772"
           style="fill:#225aa9"
           d="m 70.82,208.3 v -2.7 h 0.58 v 2.7 h 1.3 v 0.59 h -1.3 v 5.77 h -0.58 v -5.77 h -1.3 v -0.59 z"
           inkscape:connector-curvature="0" />
      </g>
      <g
         id="g786">
        <path
           id="path776"
           style="fill:#225aa9"
           d="m 5.54,211.25 a 4.83,4.83 0 0 1 -1,-0.69 1.52,1.52 0 0 1 0,-2.16 1.44,1.44 0 0 1 1.05,-0.4 1.42,1.42 0 0 1 1,0.42 1.27,1.27 0 0 1 0.4,0.92 v 0 l -0.5,0.21 a 1.3,1.3 0 0 0 -0.31,-0.74 0.83,0.83 0 0 0 -0.64,-0.25 1,1 0 0 0 -0.94,0.94 0.91,0.91 0 0 0 0.28,0.67 3.78,3.78 0 0 0 0.68,0.5 5.35,5.35 0 0 1 1.18,0.8 1.84,1.84 0 0 1 0.55,1.32 1.87,1.87 0 0 1 -0.55,1.35 1.9,1.9 0 0 1 -2.67,0 1.7,1.7 0 0 1 -0.55,-1.22 l 0.58,-0.14 a 1.29,1.29 0 0 0 0.38,0.94 1.31,1.31 0 0 0 2.23,-0.93 1.24,1.24 0 0 0 -0.38,-0.91 5.78,5.78 0 0 0 -0.79,-0.63 z"
           inkscape:connector-curvature="0" />
        <path
           id="path778"
           style="fill:#225aa9"
           d="m 14.1,213.13 0.62,0.23 a 3.86,3.86 0 0 1 -0.38,0.44 3.47,3.47 0 0 1 -2.52,1 3.56,3.56 0 0 1 -2.51,-6.07 3.43,3.43 0 0 1 2.51,-1 3.47,3.47 0 0 1 2.52,1 3.86,3.86 0 0 1 0.38,0.44 l -0.62,0.23 -0.2,-0.24 a 2.85,2.85 0 0 0 -2.08,-0.85 2.93,2.93 0 0 0 -2.07,5 2.82,2.82 0 0 0 2.07,0.86 2.86,2.86 0 0 0 2.08,-0.86 c 0.1,-0.03 0.1,-0.1 0.2,-0.18 z"
           inkscape:connector-curvature="0" />
        <path
           id="path780"
           style="fill:#225aa9"
           d="m 22.66,214.66 h -0.58 v -1.3 a 3.91,3.91 0 0 1 -0.37,0.44 3.56,3.56 0 1 1 0,-5 5,5 0 0 1 0.37,0.43 v -0.9 h 0.58 z m -0.58,-2.8 v -1.15 a 2.94,2.94 0 0 0 -5,-1.5 2.82,2.82 0 0 0 -0.86,2.08 2.94,2.94 0 0 0 2.93,2.93 3,3 0 0 0 2.89,-2.36 z"
           inkscape:connector-curvature="0" />
        <path
           id="path782"
           style="fill:#225aa9"
           d="m 24.71,204.3 v 10.36 H 24.12 V 204.3 Z"
           inkscape:connector-curvature="0" />
        <path
           id="path784"
           style="fill:#225aa9"
           d="m 26.53,211 a 3.25,3.25 0 0 0 0,0.33 2.94,2.94 0 0 0 2.94,2.93 2.86,2.86 0 0 0 2.08,-0.86 c 0.09,-0.1 0.19,-0.2 0.28,-0.31 l 0.62,0.22 a 3.84,3.84 0 0 1 -0.46,0.53 3.47,3.47 0 0 1 -2.52,1 3.57,3.57 0 0 1 -3.56,-3.55 3.56,3.56 0 0 1 6.09,-2.52 3,3 0 0 1 0.91,2.19 z m 0.11,-0.59 h 5.58 a 2.75,2.75 0 0 0 -0.69,-1.16 2.95,2.95 0 0 0 -4.16,0 3,3 0 0 0 -0.73,1.12 z"
           inkscape:connector-curvature="0" />
      </g>
      <g
         id="g794">
        <path
           id="path788"
           style="fill:#225aa9"
           d="m 50.05,315.41 a 4.73,4.73 0 1 1 -3.35,1.38 4.57,4.57 0 0 1 3.35,-1.38 z m -2.77,2 a 3.91,3.91 0 1 0 2.77,-1.15 3.77,3.77 0 0 0 -2.77,1.12 z"
           inkscape:connector-curvature="0" />
        <path
           id="path790"
           style="fill:#225aa9"
           d="m 59.83,324.76 a 3.44,3.44 0 0 1 -2.53,-0.93 3.35,3.35 0 0 1 -1,-2.38 v -5.29 h 0.78 v 5.22 a 2.48,2.48 0 0 0 0.78,1.84 2.61,2.61 0 0 0 1.92,0.77 2.65,2.65 0 0 0 2.63,-2.61 v -5.22 h 0.78 v 5.29 a 3.32,3.32 0 0 1 -1,2.38 3.29,3.29 0 0 1 -2.36,0.93 z"
           inkscape:connector-curvature="0" />
        <path
           id="path792"
           style="fill:#225aa9"
           d="m 66.12,316.17 v -3.6 h 0.77 v 3.6 h 1.73 V 317 h -1.73 v 7.7 H 66.12 V 317 h -1.73 v -0.78 z"
           inkscape:connector-curvature="0" />
      </g>
      <g
         id="g800">
        <path
           id="path796"
           style="fill:#225aa9"
           d="m 16.2,67.34 a 0.7,0.7 0 0 1 0.23,0.53 0.72,0.72 0 0 1 -0.23,0.56 0.74,0.74 0 0 1 -0.54,0.23 0.76,0.76 0 0 1 -0.55,-0.23 0.75,0.75 0 0 1 -0.23,-0.56 0.74,0.74 0 0 1 0.23,-0.53 0.76,0.76 0 0 1 0.55,-0.23 0.74,0.74 0 0 1 0.54,0.23 z M 16,70.11 v 8.48 h -0.77 v -8.48 z"
           inkscape:connector-curvature="0" />
        <path
           id="path798"
           style="fill:#225aa9"
           d="m 19,72 v 6.59 H 18.22 V 70.11 H 19 v 0.55 a 3.52,3.52 0 0 1 4.91,-0.12 3.27,3.27 0 0 1 1,2.37 v 5.68 H 24.14 V 73 A 2.46,2.46 0 0 0 23.36,71.16 2.57,2.57 0 0 0 21.5,70.39 2.53,2.53 0 0 0 19.66,71.15 3,3 0 0 0 19,72 Z"
           inkscape:connector-curvature="0" />
      </g>
      <g
         id="g810">
        <path
           id="path802"
           style="fill:#225aa9"
           d="m 72,186.63 v -16.57 h 0.93 v 15.63 h 6.27 v 0.94 z"
           inkscape:connector-curvature="0" />
        <path
           id="path804"
           style="fill:#225aa9"
           d="m 85.6,175.54 a 5.7,5.7 0 1 1 -4,1.67 5.45,5.45 0 0 1 4,-1.67 z m -3.32,2.37 a 4.68,4.68 0 1 0 3.32,-1.38 4.54,4.54 0 0 0 -3.32,1.38 z"
           inkscape:connector-curvature="0" />
        <path
           id="path806"
           style="fill:#225aa9"
           d="m 102.08,184.18 1,0.36 a 5.74,5.74 0 0 1 -0.61,0.71 5.69,5.69 0 1 1 0,-8 5.66,5.66 0 0 1 0.61,0.7 l -1,0.36 -0.33,-0.37 a 4.71,4.71 0 1 0 0,6.64 q 0.17,-0.2 0.33,-0.4 z"
           inkscape:connector-curvature="0" />
        <path
           id="path808"
           style="fill:#225aa9"
           d="m 109.79,176.46 -2.51,3.1 4,7.07 h -1.14 l -3.46,-6.32 -0.9,1.13 v 5.19 h -0.94 v -14.5 h 0.94 V 180 l 2.82,-3.49 z"
           inkscape:connector-curvature="0" />
      </g>
    </g>
    <g
       id="textn">
      <g
         id="g825">
        <path
           id="path813"
           style="fill:#231f20"
           d="m 30.15,16.41 v -5.77 h 1.24 v 5.77 h 2.76 v 1.25 H 31.39 V 30 H 30.15 V 17.66 h -2.76 v -1.25 z"
           inkscape:connector-curvature="0" />
        <path
           id="path815"
           style="fill:#231f20"
           d="m 41.61,30.16 a 5.47,5.47 0 0 1 -4,-1.5 5.32,5.32 0 0 1 -1.61,-3.8 v -8.47 h 1.25 v 8.36 a 4,4 0 0 0 1.25,2.94 4.19,4.19 0 0 0 3.08,1.24 4.06,4.06 0 0 0 3,-1.23 4,4 0 0 0 1.24,-2.95 V 16.39 H 47 v 8.47 a 5.2,5.2 0 0 1 -5.43,5.3 z"
           inkscape:connector-curvature="0" />
        <path
           id="path817"
           style="fill:#231f20"
           d="m 54.75,17.5 a 4.48,4.48 0 0 0 -2.61,1.69 4.57,4.57 0 0 0 -1.28,3 V 30 H 49.61 V 16.41 h 1.25 v 2.94 a 5.37,5.37 0 0 1 3.2,-3.05 z"
           inkscape:connector-curvature="0" />
        <path
           id="path819"
           style="fill:#231f20"
           d="m 58.1,12 a 1.19,1.19 0 0 1 0.37,0.86 1.24,1.24 0 0 1 -2.12,0.89 1.17,1.17 0 0 1 -0.37,-0.89 1.15,1.15 0 0 1 0.37,-0.86 1.24,1.24 0 0 1 1.75,0 z m -0.26,4.44 V 30 H 56.61 V 16.41 Z"
           inkscape:connector-curvature="0" />
        <path
           id="path821"
           style="fill:#231f20"
           d="M 62.5,19.44 V 30 H 61.25 V 16.41 h 1.25 v 0.88 a 5.36,5.36 0 0 1 3.93,-1.69 5.29,5.29 0 0 1 3.92,1.51 5.24,5.24 0 0 1 1.54,3.78 V 30 h -1.24 v -9 a 3.93,3.93 0 0 0 -1.25,-2.95 4.07,4.07 0 0 0 -3,-1.22 4.12,4.12 0 0 0 -3,1.2 4.38,4.38 0 0 0 -0.9,1.41 z"
           inkscape:connector-curvature="0" />
        <path
           id="path823"
           style="fill:#231f20"
           d="m 88,27.29 q -0.36,0.43 -0.75,0.84 a 7.58,7.58 0 0 1 -13,-5.34 7.6,7.6 0 0 1 13,-5.38 9.73,9.73 0 0 1 0.78,0.92 v -1.92 h 1.25 v 10.53 a 7.08,7.08 0 0 1 -2.17,5.22 7.58,7.58 0 0 1 -10.74,0 7.9,7.9 0 0 1 -0.81,-0.94 l 1.31,-0.48 A 4.16,4.16 0 0 0 77.33,31.22 6.27,6.27 0 0 0 88,27.29 Z m 0,-5.8 A 6.14,6.14 0 0 0 86.29,18.35 6.27,6.27 0 0 0 75.59,22.79 6.28,6.28 0 0 0 88,24.1 Z"
           inkscape:connector-curvature="0" />
      </g>
      <g
         id="g837">
        <path
           id="path827"
           style="fill:#231f20"
           d="m 82.19,75.88 0.82,0.3 a 5.51,5.51 0 0 1 -0.51,0.59 4.74,4.74 0 1 1 0,-6.7 5.43,5.43 0 0 1 0.51,0.58 l -0.82,0.31 c -0.08,-0.11 -0.18,-0.21 -0.27,-0.32 a 3.82,3.82 0 0 0 -2.78,-1.14 3.92,3.92 0 1 0 2.78,6.68 C 82,76.08 82.11,76 82.19,75.88 Z"
           inkscape:connector-curvature="0" />
        <path
           id="path829"
           style="fill:#231f20"
           d="M 85.37,64.11 V 77.92 H 84.59 V 64.11 Z"
           inkscape:connector-curvature="0" />
        <path
           id="path831"
           style="fill:#231f20"
           d="m 91.89,68.68 a 4.75,4.75 0 1 1 -3.35,1.39 4.54,4.54 0 0 1 3.35,-1.39 z m -2.77,2 a 3.79,3.79 0 0 0 -1.12,2.75 3.73,3.73 0 0 0 1.15,2.76 3.91,3.91 0 0 0 6.68,-2.76 3.91,3.91 0 0 0 -6.68,-2.78 z"
           inkscape:connector-curvature="0" />
        <path
           id="path833"
           style="fill:#231f20"
           d="m 105.62,75.88 0.82,0.3 a 5.51,5.51 0 0 1 -0.51,0.59 4.74,4.74 0 1 1 0,-6.7 5.43,5.43 0 0 1 0.51,0.58 l -0.82,0.31 -0.28,-0.32 a 3.92,3.92 0 1 0 0,5.54 z"
           inkscape:connector-curvature="0" />
        <path
           id="path835"
           style="fill:#231f20"
           d="m 112,69.44 -2,2.56 3.33,5.89 h -1 l -2.88,-5.26 -0.76,0.93 v 4.33 h -0.78 V 65.84 h 0.78 v 6.51 l 2.36,-2.91 z"
           inkscape:connector-curvature="0" />
      </g>
      <g
         id="g849">
        <path
           id="path839"
           style="fill:#231f20"
           d="m 84.81,210.9 a 4.83,4.83 0 0 1 -1,-0.69 1.45,1.45 0 0 1 -0.45,-1.07 1.51,1.51 0 0 1 0.45,-1.09 1.45,1.45 0 0 1 1.07,-0.45 1.42,1.42 0 0 1 1,0.42 1.27,1.27 0 0 1 0.4,0.93 v 0 l -0.5,0.21 a 1.33,1.33 0 0 0 -0.31,-0.74 0.83,0.83 0 0 0 -0.64,-0.25 0.87,0.87 0 0 0 -0.66,0.28 0.93,0.93 0 0 0 0,1.33 3.78,3.78 0 0 0 0.68,0.5 5.35,5.35 0 0 1 1.18,0.8 1.84,1.84 0 0 1 0.55,1.32 1.87,1.87 0 0 1 -0.55,1.35 1.9,1.9 0 0 1 -2.67,0 1.73,1.73 0 0 1 -0.55,-1.21 l 0.58,-0.15 a 1.3,1.3 0 0 0 0.39,1 1.25,1.25 0 0 0 0.91,0.38 1.3,1.3 0 0 0 0.93,-0.38 1.28,1.28 0 0 0 0.39,-0.94 1.23,1.23 0 0 0 -0.39,-0.91 5.78,5.78 0 0 0 -0.81,-0.64 z"
           inkscape:connector-curvature="0" />
        <path
           id="path841"
           style="fill:#231f20"
           d="m 88.69,208 v -2.71 h 0.58 V 208 h 1.29 v 0.58 h -1.29 v 5.77 h -0.58 v -5.77 h -1.3 V 208 Z"
           inkscape:connector-curvature="0" />
        <path
           id="path843"
           style="fill:#231f20"
           d="m 91.81,210.62 c 0,0.1 0,0.21 0,0.32 a 2.94,2.94 0 0 0 5,2.07 4.12,4.12 0 0 0 0.28,-0.31 l 0.62,0.22 a 3.24,3.24 0 0 1 -0.46,0.53 3.56,3.56 0 0 1 -5,-5 3.56,3.56 0 0 1 5,0 3,3 0 0 1 0.91,2.2 z m 0.11,-0.6 h 5.59 a 2.83,2.83 0 0 0 -0.7,-1.16 2.95,2.95 0 0 0 -4.16,0 3.2,3.2 0 0 0 -0.73,1.14 z"
           inkscape:connector-curvature="0" />
        <path
           id="path845"
           style="fill:#231f20"
           d="m 99.1,208 h 0.59 v 0.89 a 4.82,4.82 0 0 1 0.36,-0.43 3.5,3.5 0 0 1 2.52,-1 3.56,3.56 0 1 1 -2.52,6.06 4.82,4.82 0 0 1 -0.36,-0.43 v 3.72 H 99.1 Z m 0.59,2.38 v 1.21 a 2.75,2.75 0 0 0 0.8,1.47 2.93,2.93 0 0 0 4.15,0 2.94,2.94 0 0 0 -2.07,-5 2.85,2.85 0 0 0 -2.08,0.86 2.81,2.81 0 0 0 -0.8,1.42 z"
           inkscape:connector-curvature="0" />
        <path
           id="path847"
           style="fill:#231f20"
           d="m 108.93,210.9 a 4.83,4.83 0 0 1 -1,-0.69 1.45,1.45 0 0 1 -0.45,-1.07 1.51,1.51 0 0 1 0.45,-1.09 1.51,1.51 0 0 1 2.12,0 1.27,1.27 0 0 1 0.4,0.93 v 0 l -0.5,0.21 a 1.33,1.33 0 0 0 -0.31,-0.74 0.83,0.83 0 0 0 -0.64,-0.25 0.87,0.87 0 0 0 -0.66,0.28 0.93,0.93 0 0 0 0,1.33 3.78,3.78 0 0 0 0.68,0.5 5.35,5.35 0 0 1 1.18,0.8 1.84,1.84 0 0 1 0.55,1.32 1.87,1.87 0 0 1 -0.55,1.35 1.9,1.9 0 0 1 -2.67,0 1.69,1.69 0 0 1 -0.55,-1.21 l 0.58,-0.15 a 1.33,1.33 0 0 0 0.38,1 1.31,1.31 0 0 0 2.23,-0.94 1.25,1.25 0 0 0 -0.38,-0.91 5.78,5.78 0 0 0 -0.86,-0.67 z"
           inkscape:connector-curvature="0" />
      </g>
      <g
         id="g863">
        <path
           id="path851"
           style="fill:#231f20"
           d="m 47.76,207.38 a 3.55,3.55 0 1 1 -2.51,1 3.43,3.43 0 0 1 2.51,-1 z m -2.08,1.48 a 2.95,2.95 0 1 0 2.08,-0.86 2.86,2.86 0 0 0 -2.08,0.86 z"
           inkscape:connector-curvature="0" />
        <path
           id="path853"
           style="fill:#231f20"
           d="m 53.23,208.54 v 5.77 h -0.58 v -5.77 H 52 V 208 h 0.65 v -1.72 a 1.87,1.87 0 0 1 0.55,-1.28 1.72,1.72 0 0 1 1.22,-0.49 2.21,2.21 0 0 1 0.77,0.14 l -0.18,0.52 a 1.35,1.35 0 0 0 -0.53,-0.12 1.33,1.33 0 0 0 -0.87,0.36 1.29,1.29 0 0 0 -0.38,0.87 V 208 h 1.3 v 0.58 z"
           inkscape:connector-curvature="0" />
        <path
           id="path855"
           style="fill:#231f20"
           d="m 56,208.54 v 5.77 h -0.59 v -5.77 H 54.77 V 208 h 0.64 v -1.72 A 1.87,1.87 0 0 1 56,205 a 1.76,1.76 0 0 1 1.22,-0.49 2.17,2.17 0 0 1 0.77,0.14 l -0.18,0.52 a 1.31,1.31 0 0 0 -0.53,-0.12 1.28,1.28 0 0 0 -0.86,0.36 1.24,1.24 0 0 0 -0.38,0.87 V 208 h 1.29 v 0.58 z"
           inkscape:connector-curvature="0" />
        <path
           id="path857"
           style="fill:#231f20"
           d="m 59.82,210.9 a 4.83,4.83 0 0 1 -1,-0.69 1.45,1.45 0 0 1 -0.45,-1.07 1.51,1.51 0 0 1 0.45,-1.09 1.47,1.47 0 0 1 1.08,-0.45 1.4,1.4 0 0 1 1,0.42 1.28,1.28 0 0 1 0.41,0.93 v 0 l -0.51,0.21 a 1.27,1.27 0 0 0 -0.31,-0.74 0.82,0.82 0 0 0 -0.63,-0.25 0.94,0.94 0 0 0 -0.67,1.61 4.21,4.21 0 0 0 0.68,0.5 5.11,5.11 0 0 1 1.18,0.8 1.8,1.8 0 0 1 0.55,1.32 1.83,1.83 0 0 1 -0.55,1.35 1.9,1.9 0 0 1 -2.67,0 1.73,1.73 0 0 1 -0.55,-1.21 l 0.58,-0.15 a 1.3,1.3 0 0 0 0.39,1 1.26,1.26 0 0 0 0.92,0.38 1.29,1.29 0 0 0 0.92,-0.38 1.28,1.28 0 0 0 0.39,-0.94 1.23,1.23 0 0 0 -0.39,-0.91 5.78,5.78 0 0 0 -0.82,-0.64 z"
           inkscape:connector-curvature="0" />
        <path
           id="path859"
           style="fill:#231f20"
           d="m 63.19,210.62 a 1.66,1.66 0 0 0 0,0.32 2.92,2.92 0 0 0 2.94,2.93 2.81,2.81 0 0 0 2.08,-0.86 4.12,4.12 0 0 0 0.28,-0.31 l 0.62,0.22 a 2.8,2.8 0 0 1 -0.46,0.53 3.56,3.56 0 0 1 -6.07,-2.51 3.56,3.56 0 0 1 6.07,-2.52 3,3 0 0 1 0.92,2.2 z m 0.11,-0.6 h 5.58 a 2.89,2.89 0 0 0 -2.78,-2 2.86,2.86 0 0 0 -2.08,0.86 3,3 0 0 0 -0.72,1.12 z"
           inkscape:connector-curvature="0" />
        <path
           id="path861"
           style="fill:#231f20"
           d="m 71.33,208 v -2.71 h 0.58 V 208 h 1.3 v 0.58 h -1.3 v 5.77 h -0.58 v -5.77 H 70 V 208 Z"
           inkscape:connector-curvature="0" />
      </g>
      <g
         id="g875">
        <path
           id="path865"
           style="fill:#231f20"
           d="m 6.05,210.9 a 4.83,4.83 0 0 1 -1,-0.69 1.45,1.45 0 0 1 -0.45,-1.07 1.51,1.51 0 0 1 0.4,-1.09 1.44,1.44 0 0 1 1.07,-0.45 1.42,1.42 0 0 1 1.05,0.42 1.27,1.27 0 0 1 0.4,0.93 v 0 l -0.5,0.21 a 1.33,1.33 0 0 0 -0.31,-0.74 0.83,0.83 0 0 0 -0.64,-0.25 0.87,0.87 0 0 0 -0.66,0.28 0.93,0.93 0 0 0 0,1.33 3.78,3.78 0 0 0 0.68,0.5 5.35,5.35 0 0 1 1.18,0.8 1.84,1.84 0 0 1 0.55,1.32 1.87,1.87 0 0 1 -0.55,1.35 1.81,1.81 0 0 1 -1.34,0.55 1.8,1.8 0 0 1 -1.33,-0.55 1.69,1.69 0 0 1 -0.55,-1.21 l 0.58,-0.15 a 1.33,1.33 0 0 0 0.38,1 1.32,1.32 0 0 0 1.85,0 1.27,1.27 0 0 0 0.38,-0.94 1.22,1.22 0 0 0 -0.38,-0.91 5.78,5.78 0 0 0 -0.81,-0.64 z"
           inkscape:connector-curvature="0" />
        <path
           id="path867"
           style="fill:#231f20"
           d="m 14.61,212.78 0.62,0.23 a 3.86,3.86 0 0 1 -0.38,0.44 3.54,3.54 0 0 1 -5,0 3.39,3.39 0 0 1 -1,-2.51 3.55,3.55 0 0 1 3.55,-3.56 3.47,3.47 0 0 1 2.52,1 5,5 0 0 1 0.38,0.44 l -0.62,0.23 c -0.06,-0.08 -0.13,-0.15 -0.2,-0.23 a 2.86,2.86 0 0 0 -2.08,-0.86 2.93,2.93 0 0 0 -2.07,5 2.79,2.79 0 0 0 2.07,0.86 2.82,2.82 0 0 0 2.08,-0.86 2.2,2.2 0 0 0 0.13,-0.18 z"
           inkscape:connector-curvature="0" />
        <path
           id="path869"
           style="fill:#231f20"
           d="M 23.18,214.31 H 22.59 V 213 a 3.67,3.67 0 0 1 -0.37,0.43 3.53,3.53 0 0 1 -5,0 3.4,3.4 0 0 1 -1.05,-2.51 3.56,3.56 0 0 1 6.07,-2.52 3.75,3.75 0 0 1 0.37,0.44 V 208 h 0.59 z m -0.59,-2.79 v -1.15 a 2.94,2.94 0 0 0 -5,-1.51 2.9451528,2.9451528 0 1 0 4.19,4.14 2.86,2.86 0 0 0 0.81,-1.48 z"
           inkscape:connector-curvature="0" />
        <path
           id="path871"
           style="fill:#231f20"
           d="m 25.22,204 v 10.35 H 24.63 V 204 Z"
           inkscape:connector-curvature="0" />
        <path
           id="path873"
           style="fill:#231f20"
           d="m 27,210.62 c 0,0.1 0,0.21 0,0.32 a 2.94,2.94 0 0 0 5,2.06 4.12,4.12 0 0 0 0.28,-0.31 l 0.62,0.22 a 3.24,3.24 0 0 1 -0.46,0.53 3.44,3.44 0 0 1 -2.44,1.06 3.56,3.56 0 0 1 0,-7.12 3.47,3.47 0 0 1 2.52,1 3,3 0 0 1 0.91,2.2 z m 0.11,-0.6 h 5.58 a 2.81,2.81 0 0 0 -0.69,-1.16 2.95,2.95 0 0 0 -4.16,0 3.07,3.07 0 0 0 -0.69,1.14 z"
           inkscape:connector-curvature="0" />
      </g>
      <g
         id="g883">
        <path
           id="path877"
           style="fill:#231f20"
           d="m 50.88,314.68 a 4.73,4.73 0 1 1 -3.35,1.38 4.57,4.57 0 0 1 3.35,-1.38 z m -2.77,2 a 3.92,3.92 0 1 0 5.53,0 3.9,3.9 0 0 0 -5.53,0 z"
           inkscape:connector-curvature="0" />
        <path
           id="path879"
           style="fill:#231f20"
           d="m 60.66,324 a 3.44,3.44 0 0 1 -2.53,-0.93 3.31,3.31 0 0 1 -1,-2.38 V 315.4 H 58 v 5.22 a 2.48,2.48 0 0 0 0.78,1.84 2.61,2.61 0 0 0 1.92,0.77 2.51,2.51 0 0 0 1.85,-0.77 2.48,2.48 0 0 0 0.78,-1.84 v -5.22 h 0.78 v 5.29 a 3.32,3.32 0 0 1 -1,2.38 3.29,3.29 0 0 1 -2.45,0.93 z"
           inkscape:connector-curvature="0" />
        <path
           id="path881"
           style="fill:#231f20"
           d="m 67,315.44 v -3.6 h 0.77 v 3.6 h 1.73 v 0.78 h -1.78 v 7.7 H 67 v -7.7 h -1.78 v -0.78 z"
           inkscape:connector-curvature="0" />
      </g>
      <g
         id="g889">
        <path
           id="path885"
           style="fill:#231f20"
           d="m 17.1,66.67 a 0.76,0.76 0 0 1 0,1.09 0.78,0.78 0 0 1 -0.54,0.23 0.79,0.79 0 0 1 -0.56,-0.23 0.76,0.76 0 0 1 0,-1.09 0.78,0.78 0 0 1 0.56,-0.22 0.76,0.76 0 0 1 0.54,0.22 z m -0.16,2.77 v 8.48 h -0.78 v -8.48 z"
           inkscape:connector-curvature="0" />
        <path
           id="path887"
           style="fill:#231f20"
           d="m 19.85,71.34 v 6.58 h -0.78 v -8.48 h 0.78 V 70 a 3.37,3.37 0 0 1 2.46,-1 3.28,3.28 0 0 1 2.44,0.94 3.32,3.32 0 0 1 1,2.37 v 5.67 h -0.78 v -5.6 a 2.48,2.48 0 0 0 -0.78,-1.84 2.55,2.55 0 0 0 -1.85,-0.76 2.58,2.58 0 0 0 -1.85,0.75 2.82,2.82 0 0 0 -0.64,0.81 z"
           inkscape:connector-curvature="0" />
      </g>
      <g
         id="g899">
        <path
           id="path891"
           style="fill:#231f20"
           d="m 72.78,185.91 v -16.58 h 0.93 V 185 H 80 v 0.94 z"
           inkscape:connector-curvature="0" />
        <path
           id="path893"
           style="fill:#231f20"
           d="m 86.43,174.82 a 5.68,5.68 0 1 1 -4,1.66 5.44,5.44 0 0 1 4,-1.66 z m -3.32,2.37 a 4.66,4.66 0 1 0 3.32,-1.39 4.47,4.47 0 0 0 -3.32,1.39 z"
           inkscape:connector-curvature="0" />
        <path
           id="path895"
           style="fill:#231f20"
           d="m 102.91,183.46 1,0.36 a 5.66,5.66 0 0 1 -0.61,0.7 5.68,5.68 0 1 1 0,-8 5.74,5.74 0 0 1 0.61,0.71 l -1,0.36 -0.33,-0.38 a 4.57,4.57 0 0 0 -3.33,-1.37 4.7,4.7 0 1 0 3.33,8 z"
           inkscape:connector-curvature="0" />
        <path
           id="path897"
           style="fill:#231f20"
           d="m 110.62,175.73 -2.51,3.11 4,7.07 H 111 l -3.46,-6.32 -0.9,1.12 v 5.2 h -0.94 v -14.5 h 0.94 v 7.82 l 2.82,-3.5 z"
           inkscape:connector-curvature="0" />
      </g>
    </g>
    <g
       id="g910">
      <path
         id="path902"
         style="fill:#225aa9"
         d="m 36.24,9.31 h 0.41 v 0.63 a 2.34,2.34 0 0 1 0.25,-0.3 2.49,2.49 0 0 1 3.52,3.52 2.42,2.42 0 0 1 -1.76,0.73 2.4,2.4 0 0 1 -1.76,-0.74 2.26,2.26 0 0 1 -0.25,-0.29 v 2.59 H 36.24 Z M 36.65,11 v 0.85 a 1.85,1.85 0 0 0 0.56,1 2,2 0 0 0 1.45,0.61 1.94,1.94 0 0 0 1.45,-0.61 2.05,2.05 0 0 0 0,-2.9 2,2 0 0 0 -2.9,0 1.88,1.88 0 0 0 -0.56,1.05 z"
         inkscape:connector-curvature="0" />
      <path
         id="path904"
         style="fill:#225aa9"
         d="M 44.3,8.91 A 2.49,2.49 0 0 1 46.79,11.4 2.48,2.48 0 1 1 44.3,8.91 Z m -1.45,1 a 2.05,2.05 0 0 0 1.45,3.5 2,2 0 0 0 1.46,-0.6 2.05,2.05 0 0 0 0,-2.9 A 2,2 0 0 0 44.3,9.3 2,2 0 0 0 42.85,10 Z"
         inkscape:connector-curvature="0" />
      <path
         id="path906"
         style="fill:#225aa9"
         d="m 48.13,6.52 v 7.24 H 47.72 V 6.52 Z"
         inkscape:connector-curvature="0" />
      <path
         id="path908"
         style="fill:#225aa9"
         d="m 49.74,15.45 h -0.45 l 1.17,-2.52 -1.69,-3.62 h 0.46 l 1.45,3.11 1.47,-3.11 h 0.46 z"
         inkscape:connector-curvature="0" />
    </g>
    <g
       id="g920">
      <path
         id="path912"
         style="fill:#231f20"
         d="M 36.61,9 H 37 v 0.62 a 2.26,2.26 0 0 1 0.25,-0.29 2.49,2.49 0 0 1 4.25,1.76 2.49,2.49 0 0 1 -4.25,1.75 1.81,1.81 0 0 1 -0.25,-0.3 v 2.6 H 36.59 Z M 37,10.7 v 0.85 a 1.88,1.88 0 0 0 0.56,1 2.0506097,2.0506097 0 1 0 2.9,-2.9 2,2 0 0 0 -2.9,0 A 1.89,1.89 0 0 0 37,10.7 Z"
         inkscape:connector-curvature="0" />
      <path
         id="path914"
         style="fill:#231f20"
         d="m 44.67,8.64 a 2.49,2.49 0 0 1 2.49,2.49 2.49,2.49 0 1 1 -4.24,-1.76 2.38,2.38 0 0 1 1.75,-0.73 z m -1.45,1 a 2.05,2.05 0 0 0 1.45,3.5 2,2 0 0 0 1.46,-0.6 2.05,2.05 0 0 0 0,-2.9 2,2 0 0 0 -2.91,0 z"
         inkscape:connector-curvature="0" />
      <path
         id="path916"
         style="fill:#231f20"
         d="m 48.5,6.24 v 7.25 H 48.09 V 6.24 Z"
         inkscape:connector-curvature="0" />
      <path
         id="path918"
         style="fill:#231f20"
         d="M 50.11,15.18 H 49.66 L 50.83,12.66 49.14,9 H 49.6 L 51.06,12.1 52.52,9 H 53 Z"
         inkscape:connector-curvature="0" />
    </g>
    <g
       id="g940">
      <path
         id="path922"
         style="fill:#225aa9"
         d="m 45.39,358.16 a 2.43,2.43 0 0 1 -0.48,-0.32 0.71,0.71 0 0 1 0,-1 0.67,0.67 0 0 1 0.5,-0.21 0.66,0.66 0 0 1 0.49,0.2 0.59,0.59 0 0 1 0.19,0.43 v 0 l -0.24,0.1 a 0.63,0.63 0 0 0 -0.14,-0.35 0.41,0.41 0 0 0 -0.3,-0.12 0.46,0.46 0 0 0 -0.31,0.13 0.42,0.42 0 0 0 -0.13,0.32 0.42,0.42 0 0 0 0.13,0.31 1.66,1.66 0 0 0 0.32,0.23 2.7,2.7 0 0 1 0.55,0.37 0.91,0.91 0 0 1 0,1.25 0.88,0.88 0 0 1 -1.25,0 0.78,0.78 0 0 1 -0.25,-0.57 l 0.27,-0.07 a 0.61,0.61 0 0 0 0.18,0.45 0.56,0.56 0 0 0 0.42,0.18 0.62,0.62 0 0 0 0.44,-0.18 0.6,0.6 0 0 0 0.18,-0.44 0.58,0.58 0 0 0 -0.18,-0.43 3.47,3.47 0 0 0 -0.39,-0.28 z"
         inkscape:connector-curvature="0" />
      <path
         id="path924"
         style="fill:#225aa9"
         d="m 47.19,356.78 v -1.26 h 0.27 v 1.26 h 0.61 v 0.28 h -0.61 v 2.69 h -0.27 v -2.69 h -0.6 v -0.28 z"
         inkscape:connector-curvature="0" />
      <path
         id="path926"
         style="fill:#225aa9"
         d="m 50.08,356.52 a 1.64,1.64 0 0 1 1.66,1.66 1.59,1.59 0 0 1 -0.48,1.17 1.65,1.65 0 0 1 -2.35,0 1.6,1.6 0 0 1 -0.49,-1.17 1.66,1.66 0 0 1 1.66,-1.66 z m -1,0.69 a 1.38,1.38 0 0 0 0,1.94 1.38,1.38 0 0 0 1.94,0 1.3717872,1.3717872 0 0 0 -1.94,-1.94 z"
         inkscape:connector-curvature="0" />
      <path
         id="path928"
         style="fill:#225aa9"
         d="m 54.89,359 0.29,0.1 -0.18,0.21 a 1.65,1.65 0 0 1 -2.35,0 1.62,1.62 0 0 1 -0.49,-1.17 A 1.67,1.67 0 0 1 55,357 l 0.18,0.21 -0.29,0.1 -0.1,-0.11 a 1.34,1.34 0 0 0 -1,-0.39 1.37,1.37 0 0 0 -1.36,1.37 1.36,1.36 0 0 0 2.33,1 z"
         inkscape:connector-curvature="0" />
      <path
         id="path930"
         style="fill:#225aa9"
         d="m 58.88,359.75 h -0.27 v -0.6 c 0,0.07 -0.11,0.13 -0.17,0.2 a 1.65,1.65 0 0 1 -2.35,0 1.59,1.59 0 0 1 -0.48,-1.17 1.64,1.64 0 0 1 1.65,-1.66 1.61,1.61 0 0 1 1.18,0.48 c 0.06,0.07 0.12,0.13 0.17,0.2 v -0.42 h 0.27 z m -0.27,-1.3 v -0.54 a 1.38,1.38 0 0 0 -2.32,-0.7 1.37,1.37 0 0 0 1,2.34 1.41,1.41 0 0 0 1.35,-1.1 z"
         inkscape:connector-curvature="0" />
      <path
         id="path932"
         style="fill:#225aa9"
         d="m 60.71,359.79 a 1.21,1.21 0 0 1 -0.89,-0.33 1.15,1.15 0 0 1 -0.34,-0.83 v -1.85 h 0.28 v 1.83 a 0.85,0.85 0 0 0 0.27,0.64 0.93,0.93 0 0 0 0.68,0.27 0.94,0.94 0 0 0 0.92,-0.91 v -1.83 h 0.27 v 1.85 a 1.15,1.15 0 0 1 -1.19,1.16 z"
         inkscape:connector-curvature="0" />
      <path
         id="path934"
         style="fill:#225aa9"
         d="m 65.73,359.75 h -0.28 v -0.6 c 0,0.07 -0.11,0.13 -0.17,0.2 a 1.64,1.64 0 0 1 -2.34,0 1.56,1.56 0 0 1 -0.49,-1.17 1.66,1.66 0 0 1 2.83,-1.18 c 0.06,0.07 0.12,0.13 0.17,0.2 v -2.28 h 0.28 z m -0.28,-1.3 v -0.54 a 1.29,1.29 0 0 0 -0.37,-0.7 1.33,1.33 0 0 0 -1,-0.4 1.3,1.3 0 0 0 -1,0.4 1.38,1.38 0 0 0 0,1.94 1.36,1.36 0 0 0 1.94,0 1.3,1.3 0 0 0 0.43,-0.7 z"
         inkscape:connector-curvature="0" />
      <path
         id="path936"
         style="fill:#225aa9"
         d="m 66.76,355.81 a 0.25,0.25 0 0 1 0.08,0.19 0.27,0.27 0 0 1 -0.27,0.28 0.27,0.27 0 0 1 -0.19,-0.08 0.3,0.3 0 0 1 -0.08,-0.2 0.29,0.29 0 0 1 0.08,-0.19 0.26,0.26 0 0 1 0.19,-0.07 0.25,0.25 0 0 1 0.19,0.07 z m -0.05,1 v 3 h -0.27 v -3 z"
         inkscape:connector-curvature="0" />
      <path
         id="path938"
         style="fill:#225aa9"
         d="m 69,356.52 a 1.59,1.59 0 0 1 1.17,0.48 1.64,1.64 0 0 1 0.49,1.18 1.65,1.65 0 0 1 -2.83,1.17 1.56,1.56 0 0 1 -0.49,-1.17 1.66,1.66 0 0 1 1.66,-1.66 z m -1,0.69 a 1.38,1.38 0 0 0 0,1.94 1.3931619,1.3931619 0 0 0 2,-1.94 1.38,1.38 0 0 0 -1.94,0 z"
         inkscape:connector-curvature="0" />
    </g>
    <g
       id="g960">
      <path
         id="path942"
         style="fill:#231f20"
         d="m 45.56,358 a 2.37,2.37 0 0 1 -0.48,-0.33 0.66,0.66 0 0 1 -0.21,-0.5 0.72,0.72 0 0 1 0.71,-0.71 0.66,0.66 0 0 1 0.49,0.19 0.59,0.59 0 0 1 0.19,0.43 v 0 l -0.23,0.09 a 0.54,0.54 0 0 0 -0.15,-0.34 0.38,0.38 0 0 0 -0.3,-0.12 0.42,0.42 0 0 0 -0.31,0.13 0.46,0.46 0 0 0 -0.13,0.31 0.44,0.44 0 0 0 0.13,0.31 2,2 0 0 0 0.32,0.24 2.14,2.14 0 0 1 0.55,0.37 0.87,0.87 0 0 1 0,1.24 0.87,0.87 0 0 1 -1.24,0 0.79,0.79 0 0 1 -0.26,-0.56 l 0.27,-0.07 a 0.59,0.59 0 0 0 0.18,0.44 0.61,0.61 0 1 0 0.86,-0.86 2.22,2.22 0 0 0 -0.39,-0.26 z"
         inkscape:connector-curvature="0" />
      <path
         id="path944"
         style="fill:#231f20"
         d="m 47.37,356.57 v -1.26 h 0.27 v 1.26 h 0.6 v 0.28 h -0.6 v 2.69 h -0.27 v -2.69 h -0.61 v -0.28 z"
         inkscape:connector-curvature="0" />
      <path
         id="path946"
         style="fill:#231f20"
         d="m 50.26,356.31 a 1.59,1.59 0 0 1 1.17,0.48 1.68,1.68 0 0 1 0,2.35 1.66,1.66 0 1 1 -1.17,-2.83 z m -1,0.69 a 1.37,1.37 0 0 0 1,2.33 1.37,1.37 0 0 0 0,-2.74 1.31,1.31 0 0 0 -0.97,0.41 z"
         inkscape:connector-curvature="0" />
      <path
         id="path948"
         style="fill:#231f20"
         d="m 55.06,358.82 0.29,0.11 a 1.68,1.68 0 0 1 -0.18,0.21 1.66,1.66 0 1 1 0,-2.35 1.68,1.68 0 0 1 0.18,0.21 L 55.06,357.1 55,357 a 1.38,1.38 0 0 0 -2,0 1.3896852,1.3896852 0 0 0 2,1.93 z"
         inkscape:connector-curvature="0" />
      <path
         id="path950"
         style="fill:#231f20"
         d="m 59.06,359.54 h -0.27 v -0.61 c -0.06,0.07 -0.11,0.14 -0.18,0.21 a 1.66,1.66 0 1 1 0,-2.35 1.71,1.71 0 0 1 0.18,0.2 v -0.42 h 0.27 z m -0.27,-1.31 v -0.53 a 1.38,1.38 0 0 0 -0.38,-0.7 1.35,1.35 0 0 0 -1.94,0 1.36,1.36 0 0 0 0,1.93 1.38,1.38 0 0 0 1.94,0 1.38,1.38 0 0 0 0.38,-0.7 z"
         inkscape:connector-curvature="0" />
      <path
         id="path952"
         style="fill:#231f20"
         d="M 60.88,359.58 A 1.18,1.18 0 0 1 60,359.25 1.16,1.16 0 0 1 59.66,358.42 v -1.85 h 0.27 v 1.83 a 0.84,0.84 0 0 0 0.28,0.64 0.9,0.9 0 0 0 0.67,0.27 0.89,0.89 0 0 0 0.65,-0.27 0.87,0.87 0 0 0 0.27,-0.64 v -1.83 h 0.27 v 1.85 a 1.15,1.15 0 0 1 -1.19,1.16 z"
         inkscape:connector-curvature="0" />
      <path
         id="path954"
         style="fill:#231f20"
         d="m 65.9,359.54 h -0.27 v -0.61 l -0.17,0.21 a 1.63,1.63 0 0 1 -1.18,0.48 1.61,1.61 0 0 1 -1.17,-0.48 1.65,1.65 0 0 1 0,-2.35 1.61,1.61 0 0 1 1.17,-0.48 1.64,1.64 0 0 1 1.35,0.68 v -2.28 h 0.27 z m -0.27,-1.31 v -0.53 a 1.37,1.37 0 0 0 -2.72,0.27 1.29,1.29 0 0 0 0.4,1 1.38,1.38 0 0 0 2.32,-0.7 z"
         inkscape:connector-curvature="0" />
      <path
         id="path956"
         style="fill:#231f20"
         d="m 66.94,355.6 a 0.27,0.27 0 0 1 0.08,0.19 0.26,0.26 0 0 1 -0.08,0.19 0.25,0.25 0 0 1 -0.19,0.08 0.22,0.22 0 0 1 -0.19,-0.08 0.23,0.23 0 0 1 -0.09,-0.19 0.25,0.25 0 0 1 0.09,-0.19 0.26,0.26 0 0 1 0.19,-0.08 0.29,0.29 0 0 1 0.19,0.08 z m -0.06,1 v 3 h -0.27 v -3 z"
         inkscape:connector-curvature="0" />
      <path
         id="path958"
         style="fill:#231f20"
         d="m 69.19,356.31 a 1.63,1.63 0 0 1 1.18,0.48 1.68,1.68 0 0 1 0,2.35 1.66,1.66 0 1 1 -1.18,-2.83 z m -1,0.69 a 1.36,1.36 0 0 0 0,1.93 1.38,1.38 0 0 0 1.94,0 1.36,1.36 0 0 0 0,-1.93 1.35,1.35 0 0 0 -1.94,0 z"
         inkscape:connector-curvature="0" />
    </g>
  </g>
</svg>
