<?xml version="1.0" encoding="UTF-8" standalone="no"?>
<!-- Created with Inkscape (http://www.inkscape.org/) -->

<svg
   xmlns:dc="http://purl.org/dc/elements/1.1/"
   xmlns:cc="http://creativecommons.org/ns#"
   xmlns:rdf="http://www.w3.org/1999/02/22-rdf-syntax-ns#"
   xmlns:svg="http://www.w3.org/2000/svg"
   xmlns="http://www.w3.org/2000/svg"
   xmlns:sodipodi="http://sodipodi.sourceforge.net/DTD/sodipodi-0.dtd"
   xmlns:inkscape="http://www.inkscape.org/namespaces/inkscape"
   width="20.32mm"
   height="128.5mm"
   viewBox="0 0 20.32 128.5"
   version="1.1"
   id="svg8"
   inkscape:version="0.92.4 (5da689c313, 2019-01-14)"
   sodipodi:docname="spread.svg">
  <defs
     id="defs2">
    <clipPath
       id="clipPath833"
       clipPathUnits="userSpaceOnUse">
      <path
         inkscape:connector-curvature="0"
         id="path831"
         d="M 0,364.252 H 57.6 V 0 H 0 Z" />
    </clipPath>
    <clipPath
       id="clipPath859"
       clipPathUnits="userSpaceOnUse">
      <path
         inkscape:connector-curvature="0"
         id="path857"
         d="M 0,364.252 H 57.6 V 0 H 0 Z" />
    </clipPath>
    <clipPath
       id="clipPath907"
       clipPathUnits="userSpaceOnUse">
      <path
         inkscape:connector-curvature="0"
         id="path905"
         d="M 0,364.252 H 57.6 V 0 H 0 Z" />
    </clipPath>
    <clipPath
       id="clipPath969"
       clipPathUnits="userSpaceOnUse">
      <path
         inkscape:connector-curvature="0"
         id="path967"
         d="M 0,364.252 H 57.6 V 0 H 0 Z" />
    </clipPath>
    <clipPath
       id="clipPath1135"
       clipPathUnits="userSpaceOnUse">
      <path
         inkscape:connector-curvature="0"
         id="path1133"
         d="M 0,364.252 H 57.6 V 0 H 0 Z" />
    </clipPath>
    <clipPath
       id="clipPath1161"
       clipPathUnits="userSpaceOnUse">
      <path
         inkscape:connector-curvature="0"
         id="path1159"
         d="M 0,364.252 H 57.6 V 0 H 0 Z" />
    </clipPath>
    <clipPath
       id="clipPath1209"
       clipPathUnits="userSpaceOnUse">
      <path
         inkscape:connector-curvature="0"
         id="path1207"
         d="M 0,364.252 H 57.6 V 0 H 0 Z" />
    </clipPath>
    <clipPath
       id="clipPath1315"
       clipPathUnits="userSpaceOnUse">
      <path
         inkscape:connector-curvature="0"
         id="path1313"
         d="M 0,364.252 H 57.6 V 0 H 0 Z" />
    </clipPath>
    <clipPath
       id="clipPath1631"
       clipPathUnits="userSpaceOnUse">
      <path
         inkscape:connector-curvature="0"
         id="path1629"
         d="M 0,364.252 H 57.6 V 0 H 0 Z" />
    </clipPath>
    <clipPath
       id="clipPath1904"
       clipPathUnits="userSpaceOnUse">
      <path
         inkscape:connector-curvature="0"
         id="path1902"
         d="M 0,364.252 H 57.6 V 0 H 0 Z" />
    </clipPath>
    <clipPath
       id="clipPath1914"
       clipPathUnits="userSpaceOnUse">
      <path
         inkscape:connector-curvature="0"
         id="path1912"
         d="m 16.958,292.046 h 23.684 v 23.685 H 16.958 Z" />
    </clipPath>
    <clipPath
       id="clipPath1922"
       clipPathUnits="userSpaceOnUse">
      <path
         inkscape:connector-curvature="0"
         id="path1920"
         d="M 16.4575,316.231 H 41.1551 V 291.533 H 16.4575 Z" />
    </clipPath>
    <clipPath
       id="clipPath1926"
       clipPathUnits="userSpaceOnUse">
      <path
         inkscape:connector-curvature="0"
         id="path1924"
         d="M 16.4575,316.23 H 41.1553 V 291.533 H 16.4575 Z" />
    </clipPath>
    <mask
       id="mask1928"
       height="1"
       width="1"
       y="0"
       x="0"
       maskUnits="userSpaceOnUse">
      <g
         id="g1946">
        <g
           id="g1944"
           clip-path="url(#clipPath1922)">
          <path
             inkscape:connector-curvature="0"
             id="path1930"
             style="fill:#000000;fill-opacity:1;fill-rule:nonzero;stroke:none"
             d="M 16.458,316.23 H 41.156 V 291.533 H 16.458 Z" />
          <g
             id="g1942">
            <g
               id="g1932" />
            <g
               id="g1940">
              <g
                 id="g1938"
                 clip-path="url(#clipPath1926)">
                <g
                   id="g1936"
                   transform="translate(28.8062,315.7305)">
                  <path
                     inkscape:connector-curvature="0"
                     id="path1934"
                     style="fill:#ffffff;fill-opacity:1;fill-rule:nonzero;stroke:none"
                     d="m 0,0 c 6.544,0 11.849,-5.305 11.849,-11.849 0,-6.544 -5.305,-11.848 -11.849,-11.848 -6.544,0 -11.849,5.304 -11.849,11.848 C -11.849,-5.305 -6.544,0 0,0" />
                </g>
              </g>
            </g>
          </g>
        </g>
      </g>
    </mask>
    <clipPath
       id="clipPath1954"
       clipPathUnits="userSpaceOnUse">
      <path
         inkscape:connector-curvature="0"
         id="path1952"
         d="M 16.4575,316.231 H 41.1551 V 291.533 H 16.4575 Z" />
    </clipPath>
    <clipPath
       id="clipPath1974"
       clipPathUnits="userSpaceOnUse">
      <path
         inkscape:connector-curvature="0"
         id="path1972"
         d="M 17.7422,314.946 H 39.8704 V 292.818 H 17.7422 Z" />
    </clipPath>
    <clipPath
       id="clipPath1978"
       clipPathUnits="userSpaceOnUse">
      <path
         inkscape:connector-curvature="0"
         id="path1976"
         d="M 17.7422,314.946 H 39.8701 V 292.818 H 17.7422 Z" />
    </clipPath>
    <mask
       id="mask1980"
       height="1"
       width="1"
       y="0"
       x="0"
       maskUnits="userSpaceOnUse">
      <g
         id="g1998">
        <g
           id="g1996"
           clip-path="url(#clipPath1974)">
          <path
             inkscape:connector-curvature="0"
             id="path1982"
             style="fill:#000000;fill-opacity:1;fill-rule:nonzero;stroke:none"
             d="M 17.742,314.946 H 39.87 V 292.818 H 17.742 Z" />
          <g
             id="g1994">
            <g
               id="g1984" />
            <g
               id="g1992">
              <g
                 id="g1990"
                 clip-path="url(#clipPath1978)">
                <g
                   id="g1988"
                   transform="translate(28.8062,314.6958)">
                  <path
                     inkscape:connector-curvature="0"
                     id="path1986"
                     style="fill:#ffffff;fill-opacity:1;fill-rule:nonzero;stroke:none"
                     d="m 0,0 c 5.972,0 10.814,-4.841 10.814,-10.814 0,-5.972 -4.842,-10.814 -10.814,-10.814 -5.972,0 -10.814,4.842 -10.814,10.814 C -10.814,-4.841 -5.972,0 0,0" />
                </g>
              </g>
            </g>
          </g>
        </g>
      </g>
    </mask>
    <clipPath
       id="clipPath2006"
       clipPathUnits="userSpaceOnUse">
      <path
         inkscape:connector-curvature="0"
         id="path2004"
         d="M 17.7422,314.946 H 39.8704 V 292.818 H 17.7422 Z" />
    </clipPath>
    <clipPath
       id="clipPath2026"
       clipPathUnits="userSpaceOnUse">
      <path
         inkscape:connector-curvature="0"
         id="path2024"
         d="m 17.992,303.882 c 0,-5.972 4.842,-10.814 10.814,-10.814 v 0 c 5.973,0 10.814,4.842 10.814,10.814 v 0 c 0,5.973 -4.841,10.814 -10.814,10.814 v 0 c -5.972,0 -10.814,-4.841 -10.814,-10.814" />
    </clipPath>
    <clipPath
       id="clipPath2038"
       clipPathUnits="userSpaceOnUse">
      <path
         inkscape:connector-curvature="0"
         id="path2036"
         d="m 16.958,292.046 h 23.684 v 23.685 H 16.958 Z" />
    </clipPath>
    <clipPath
       id="clipPath2046"
       clipPathUnits="userSpaceOnUse">
      <path
         inkscape:connector-curvature="0"
         id="path2044"
         d="M 20.4137,312.275 H 37.199 V 295.489 H 20.4137 Z" />
    </clipPath>
    <clipPath
       id="clipPath2050"
       clipPathUnits="userSpaceOnUse">
      <path
         inkscape:connector-curvature="0"
         id="path2048"
         d="M 20.4136,312.274 H 37.1992 V 295.489 H 20.4136 Z" />
    </clipPath>
    <mask
       id="mask2052"
       height="1"
       width="1"
       y="0"
       x="0"
       maskUnits="userSpaceOnUse">
      <g
         id="g2070">
        <g
           id="g2068"
           clip-path="url(#clipPath2046)">
          <path
             inkscape:connector-curvature="0"
             id="path2054"
             style="fill:#000000;fill-opacity:1;fill-rule:nonzero;stroke:none"
             d="M 20.414,312.274 H 37.2 V 295.489 H 20.414 Z" />
          <g
             id="g2066">
            <g
               id="g2056" />
            <g
               id="g2064">
              <g
                 id="g2062"
                 clip-path="url(#clipPath2050)">
                <g
                   id="g2060"
                   transform="translate(28.8062,311.7744)">
                  <path
                     inkscape:connector-curvature="0"
                     id="path2058"
                     style="fill:#ffffff;fill-opacity:0.77000397;fill-rule:nonzero;stroke:none"
                     d="m 0,0 c 4.359,0 7.893,-3.534 7.893,-7.893 0,-4.358 -3.534,-7.892 -7.893,-7.892 -4.359,0 -7.893,3.534 -7.893,7.892 C -7.893,-3.534 -4.359,0 0,0" />
                </g>
              </g>
            </g>
          </g>
        </g>
      </g>
    </mask>
    <clipPath
       id="clipPath2078"
       clipPathUnits="userSpaceOnUse">
      <path
         inkscape:connector-curvature="0"
         id="path2076"
         d="M 20.4137,312.275 H 37.199 V 295.489 H 20.4137 Z" />
    </clipPath>
    <clipPath
       id="clipPath2082"
       clipPathUnits="userSpaceOnUse">
      <path
         inkscape:connector-curvature="0"
         id="path2080"
         d="M 20.9137,311.775 H 36.699 V 295.989 H 20.9137 Z" />
    </clipPath>
    <clipPath
       id="clipPath2110"
       clipPathUnits="userSpaceOnUse">
      <path
         inkscape:connector-curvature="0"
         id="path2108"
         d="M 23.009,309.679 H 34.6036 V 298.085 H 23.009 Z" />
    </clipPath>
    <clipPath
       id="clipPath2114"
       clipPathUnits="userSpaceOnUse">
      <path
         inkscape:connector-curvature="0"
         id="path2112"
         d="M 23.0088,309.679 H 34.6035 V 298.084 H 23.0088 Z" />
    </clipPath>
    <mask
       id="mask2116"
       height="1"
       width="1"
       y="0"
       x="0"
       maskUnits="userSpaceOnUse">
      <g
         id="g2134">
        <g
           id="g2132"
           clip-path="url(#clipPath2110)">
          <path
             inkscape:connector-curvature="0"
             id="path2118"
             style="fill:#000000;fill-opacity:1;fill-rule:nonzero;stroke:none"
             d="M 23.009,309.679 H 34.604 V 298.084 H 23.009 Z" />
          <g
             id="g2130">
            <g
               id="g2120" />
            <g
               id="g2128">
              <g
                 id="g2126"
                 clip-path="url(#clipPath2114)">
                <g
                   id="g2124"
                   transform="translate(28.8062,309.1792)">
                  <path
                     inkscape:connector-curvature="0"
                     id="path2122"
                     style="fill:#ffffff;fill-opacity:1;fill-rule:nonzero;stroke:none"
                     d="m 0,0 c 2.926,0 5.297,-2.372 5.297,-5.297 0,-2.926 -2.371,-5.298 -5.297,-5.298 -2.925,0 -5.297,2.372 -5.297,5.298 C -5.297,-2.372 -2.925,0 0,0" />
                </g>
              </g>
            </g>
          </g>
        </g>
      </g>
    </mask>
    <clipPath
       id="clipPath2142"
       clipPathUnits="userSpaceOnUse">
      <path
         inkscape:connector-curvature="0"
         id="path2140"
         d="M 23.009,309.679 H 34.6036 V 298.085 H 23.009 Z" />
    </clipPath>
    <clipPath
       id="clipPath2162"
       clipPathUnits="userSpaceOnUse">
      <path
         inkscape:connector-curvature="0"
         id="path2160"
         d="M 16.958,13.279 H 40.642 V 36.963 H 16.958 Z" />
    </clipPath>
    <clipPath
       id="clipPath2170"
       clipPathUnits="userSpaceOnUse">
      <path
         inkscape:connector-curvature="0"
         id="path2168"
         d="M 16.4575,37.4629 H 41.1551 V 12.7652 H 16.4575 Z" />
    </clipPath>
    <clipPath
       id="clipPath2174"
       clipPathUnits="userSpaceOnUse">
      <path
         inkscape:connector-curvature="0"
         id="path2172"
         d="M 16.4575,37.4629 H 41.1553 V 12.7656 H 16.4575 Z" />
    </clipPath>
    <mask
       id="mask2176"
       height="1"
       width="1"
       y="0"
       x="0"
       maskUnits="userSpaceOnUse">
      <g
         id="g2194">
        <g
           id="g2192"
           clip-path="url(#clipPath2170)">
          <path
             inkscape:connector-curvature="0"
             id="path2178"
             style="fill:#000000;fill-opacity:1;fill-rule:nonzero;stroke:none"
             d="M 16.458,37.463 H 41.156 V 12.766 H 16.458 Z" />
          <g
             id="g2190">
            <g
               id="g2180" />
            <g
               id="g2188">
              <g
                 id="g2186"
                 clip-path="url(#clipPath2174)">
                <g
                   id="g2184"
                   transform="translate(28.8062,36.9629)">
                  <path
                     inkscape:connector-curvature="0"
                     id="path2182"
                     style="fill:#ffffff;fill-opacity:1;fill-rule:nonzero;stroke:none"
                     d="m 0,0 c 6.544,0 11.849,-5.305 11.849,-11.849 0,-6.544 -5.305,-11.848 -11.849,-11.848 -6.544,0 -11.849,5.304 -11.849,11.848 C -11.849,-5.305 -6.544,0 0,0" />
                </g>
              </g>
            </g>
          </g>
        </g>
      </g>
    </mask>
    <clipPath
       id="clipPath2202"
       clipPathUnits="userSpaceOnUse">
      <path
         inkscape:connector-curvature="0"
         id="path2200"
         d="M 16.4575,37.4629 H 41.1551 V 12.7652 H 16.4575 Z" />
    </clipPath>
    <clipPath
       id="clipPath2222"
       clipPathUnits="userSpaceOnUse">
      <path
         inkscape:connector-curvature="0"
         id="path2220"
         d="M 17.7422,36.1781 H 39.8704 V 14.05 H 17.7422 Z" />
    </clipPath>
    <clipPath
       id="clipPath2226"
       clipPathUnits="userSpaceOnUse">
      <path
         inkscape:connector-curvature="0"
         id="path2224"
         d="M 17.7422,36.1777 H 39.8701 V 14.0498 H 17.7422 Z" />
    </clipPath>
    <mask
       id="mask2228"
       height="1"
       width="1"
       y="0"
       x="0"
       maskUnits="userSpaceOnUse">
      <g
         id="g2246">
        <g
           id="g2244"
           clip-path="url(#clipPath2222)">
          <path
             inkscape:connector-curvature="0"
             id="path2230"
             style="fill:#000000;fill-opacity:1;fill-rule:nonzero;stroke:none"
             d="M 17.742,36.178 H 39.87 V 14.05 H 17.742 Z" />
          <g
             id="g2242">
            <g
               id="g2232" />
            <g
               id="g2240">
              <g
                 id="g2238"
                 clip-path="url(#clipPath2226)">
                <g
                   id="g2236"
                   transform="translate(28.8062,35.9277)">
                  <path
                     inkscape:connector-curvature="0"
                     id="path2234"
                     style="fill:#ffffff;fill-opacity:1;fill-rule:nonzero;stroke:none"
                     d="m 0,0 c 5.972,0 10.814,-4.841 10.814,-10.813 0,-5.973 -4.842,-10.815 -10.814,-10.815 -5.972,0 -10.814,4.842 -10.814,10.815 C -10.814,-4.841 -5.972,0 0,0" />
                </g>
              </g>
            </g>
          </g>
        </g>
      </g>
    </mask>
    <clipPath
       id="clipPath2254"
       clipPathUnits="userSpaceOnUse">
      <path
         inkscape:connector-curvature="0"
         id="path2252"
         d="M 17.7422,36.1781 H 39.8704 V 14.05 H 17.7422 Z" />
    </clipPath>
    <clipPath
       id="clipPath2274"
       clipPathUnits="userSpaceOnUse">
      <path
         inkscape:connector-curvature="0"
         id="path2272"
         d="m 17.992,25.115 c 0,-5.974 4.842,-10.815 10.814,-10.815 v 0 c 5.973,0 10.814,4.841 10.814,10.815 v 0 c 0,5.972 -4.841,10.813 -10.814,10.813 v 0 c -5.972,0 -10.814,-4.841 -10.814,-10.813" />
    </clipPath>
    <clipPath
       id="clipPath2286"
       clipPathUnits="userSpaceOnUse">
      <path
         inkscape:connector-curvature="0"
         id="path2284"
         d="M 16.958,13.279 H 40.642 V 36.963 H 16.958 Z" />
    </clipPath>
    <clipPath
       id="clipPath2294"
       clipPathUnits="userSpaceOnUse">
      <path
         inkscape:connector-curvature="0"
         id="path2292"
         d="M 20.4137,33.5067 H 37.199 V 16.7214 H 20.4137 Z" />
    </clipPath>
    <clipPath
       id="clipPath2298"
       clipPathUnits="userSpaceOnUse">
      <path
         inkscape:connector-curvature="0"
         id="path2296"
         d="M 20.4136,33.5068 H 37.1992 V 16.7217 H 20.4136 Z" />
    </clipPath>
    <mask
       id="mask2300"
       height="1"
       width="1"
       y="0"
       x="0"
       maskUnits="userSpaceOnUse">
      <g
         id="g2318">
        <g
           id="g2316"
           clip-path="url(#clipPath2294)">
          <path
             inkscape:connector-curvature="0"
             id="path2302"
             style="fill:#000000;fill-opacity:1;fill-rule:nonzero;stroke:none"
             d="M 20.414,33.507 H 37.2 V 16.722 H 20.414 Z" />
          <g
             id="g2314">
            <g
               id="g2304" />
            <g
               id="g2312">
              <g
                 id="g2310"
                 clip-path="url(#clipPath2298)">
                <g
                   id="g2308"
                   transform="translate(28.8062,33.0068)">
                  <path
                     inkscape:connector-curvature="0"
                     id="path2306"
                     style="fill:#ffffff;fill-opacity:0.77000397;fill-rule:nonzero;stroke:none"
                     d="m 0,0 c 4.359,0 7.893,-3.534 7.893,-7.893 0,-4.359 -3.534,-7.892 -7.893,-7.892 -4.359,0 -7.893,3.533 -7.893,7.892 C -7.893,-3.534 -4.359,0 0,0" />
                </g>
              </g>
            </g>
          </g>
        </g>
      </g>
    </mask>
    <clipPath
       id="clipPath2326"
       clipPathUnits="userSpaceOnUse">
      <path
         inkscape:connector-curvature="0"
         id="path2324"
         d="M 20.4137,33.5067 H 37.199 V 16.7214 H 20.4137 Z" />
    </clipPath>
    <clipPath
       id="clipPath2330"
       clipPathUnits="userSpaceOnUse">
      <path
         inkscape:connector-curvature="0"
         id="path2328"
         d="M 20.9137,33.0067 H 36.699 V 17.2214 H 20.9137 Z" />
    </clipPath>
    <clipPath
       id="clipPath2358"
       clipPathUnits="userSpaceOnUse">
      <path
         inkscape:connector-curvature="0"
         id="path2356"
         d="M 23.009,30.9114 H 34.6036 V 19.3167 H 23.009 Z" />
    </clipPath>
    <clipPath
       id="clipPath2362"
       clipPathUnits="userSpaceOnUse">
      <path
         inkscape:connector-curvature="0"
         id="path2360"
         d="M 23.0088,30.9111 H 34.6035 V 19.3164 H 23.0088 Z" />
    </clipPath>
    <mask
       id="mask2364"
       height="1"
       width="1"
       y="0"
       x="0"
       maskUnits="userSpaceOnUse">
      <g
         id="g2382">
        <g
           id="g2380"
           clip-path="url(#clipPath2358)">
          <path
             inkscape:connector-curvature="0"
             id="path2366"
             style="fill:#000000;fill-opacity:1;fill-rule:nonzero;stroke:none"
             d="M 23.009,30.911 H 34.604 V 19.316 H 23.009 Z" />
          <g
             id="g2378">
            <g
               id="g2368" />
            <g
               id="g2376">
              <g
                 id="g2374"
                 clip-path="url(#clipPath2362)">
                <g
                   id="g2372"
                   transform="translate(28.8062,30.4111)">
                  <path
                     inkscape:connector-curvature="0"
                     id="path2370"
                     style="fill:#ffffff;fill-opacity:1;fill-rule:nonzero;stroke:none"
                     d="m 0,0 c 2.926,0 5.297,-2.371 5.297,-5.297 0,-2.926 -2.371,-5.298 -5.297,-5.298 -2.925,0 -5.297,2.372 -5.297,5.298 C -5.297,-2.371 -2.925,0 0,0" />
                </g>
              </g>
            </g>
          </g>
        </g>
      </g>
    </mask>
    <clipPath
       id="clipPath2390"
       clipPathUnits="userSpaceOnUse">
      <path
         inkscape:connector-curvature="0"
         id="path2388"
         d="M 23.009,30.9114 H 34.6036 V 19.3167 H 23.009 Z" />
    </clipPath>
    <clipPath
       id="clipPath2410"
       clipPathUnits="userSpaceOnUse">
      <path
         inkscape:connector-curvature="0"
         id="path2408"
         d="M 17.204,60.475 H 40.889 V 84.159 H 17.204 Z" />
    </clipPath>
    <clipPath
       id="clipPath2418"
       clipPathUnits="userSpaceOnUse">
      <path
         inkscape:connector-curvature="0"
         id="path2416"
         d="M 16.7048,84.6593 H 41.4024 V 59.9617 H 16.7048 Z" />
    </clipPath>
    <clipPath
       id="clipPath2422"
       clipPathUnits="userSpaceOnUse">
      <path
         inkscape:connector-curvature="0"
         id="path2420"
         d="M 16.7046,84.6592 H 41.4023 V 59.9619 H 16.7046 Z" />
    </clipPath>
    <mask
       id="mask2424"
       height="1"
       width="1"
       y="0"
       x="0"
       maskUnits="userSpaceOnUse">
      <g
         id="g2442">
        <g
           id="g2440"
           clip-path="url(#clipPath2418)">
          <path
             inkscape:connector-curvature="0"
             id="path2426"
             style="fill:#000000;fill-opacity:1;fill-rule:nonzero;stroke:none"
             d="M 16.705,84.659 H 41.403 V 59.962 H 16.705 Z" />
          <g
             id="g2438">
            <g
               id="g2428" />
            <g
               id="g2436">
              <g
                 id="g2434"
                 clip-path="url(#clipPath2422)">
                <g
                   id="g2432"
                   transform="translate(29.0537,84.1592)">
                  <path
                     inkscape:connector-curvature="0"
                     id="path2430"
                     style="fill:#ffffff;fill-opacity:1;fill-rule:nonzero;stroke:none"
                     d="m 0,0 c 6.544,0 11.849,-5.305 11.849,-11.849 0,-6.544 -5.305,-11.848 -11.849,-11.848 -6.544,0 -11.849,5.304 -11.849,11.848 C -11.849,-5.305 -6.544,0 0,0" />
                </g>
              </g>
            </g>
          </g>
        </g>
      </g>
    </mask>
    <clipPath
       id="clipPath2450"
       clipPathUnits="userSpaceOnUse">
      <path
         inkscape:connector-curvature="0"
         id="path2448"
         d="M 16.7048,84.6593 H 41.4024 V 59.9617 H 16.7048 Z" />
    </clipPath>
    <clipPath
       id="clipPath2470"
       clipPathUnits="userSpaceOnUse">
      <path
         inkscape:connector-curvature="0"
         id="path2468"
         d="M 17.9895,83.3746 H 40.1177 V 61.2464 H 17.9895 Z" />
    </clipPath>
    <clipPath
       id="clipPath2474"
       clipPathUnits="userSpaceOnUse">
      <path
         inkscape:connector-curvature="0"
         id="path2472"
         d="M 17.9897,83.375 H 40.1182 V 61.2461 H 17.9897 Z" />
    </clipPath>
    <mask
       id="mask2476"
       height="1"
       width="1"
       y="0"
       x="0"
       maskUnits="userSpaceOnUse">
      <g
         id="g2494">
        <g
           id="g2492"
           clip-path="url(#clipPath2470)">
          <path
             inkscape:connector-curvature="0"
             id="path2478"
             style="fill:#000000;fill-opacity:1;fill-rule:nonzero;stroke:none"
             d="M 17.99,83.375 H 40.118 V 61.246 H 17.99 Z" />
          <g
             id="g2490">
            <g
               id="g2480" />
            <g
               id="g2488">
              <g
                 id="g2486"
                 clip-path="url(#clipPath2474)">
                <g
                   id="g2484"
                   transform="translate(29.0537,83.125)">
                  <path
                     inkscape:connector-curvature="0"
                     id="path2482"
                     style="fill:#ffffff;fill-opacity:1;fill-rule:nonzero;stroke:none"
                     d="m 0,0 c 5.973,0 10.814,-4.842 10.814,-10.814 0,-5.973 -4.841,-10.815 -10.814,-10.815 -5.973,0 -10.814,4.842 -10.814,10.815 C -10.814,-4.842 -5.973,0 0,0" />
                </g>
              </g>
            </g>
          </g>
        </g>
      </g>
    </mask>
    <clipPath
       id="clipPath2502"
       clipPathUnits="userSpaceOnUse">
      <path
         inkscape:connector-curvature="0"
         id="path2500"
         d="M 17.9895,83.3746 H 40.1177 V 61.2464 H 17.9895 Z" />
    </clipPath>
    <clipPath
       id="clipPath2522"
       clipPathUnits="userSpaceOnUse">
      <path
         inkscape:connector-curvature="0"
         id="path2520"
         d="m 18.239,72.311 c 0,-5.973 4.842,-10.815 10.815,-10.815 v 0 c 5.972,0 10.814,4.842 10.814,10.815 v 0 c 0,5.972 -4.842,10.814 -10.814,10.814 v 0 c -5.973,0 -10.815,-4.842 -10.815,-10.814" />
    </clipPath>
    <clipPath
       id="clipPath2534"
       clipPathUnits="userSpaceOnUse">
      <path
         inkscape:connector-curvature="0"
         id="path2532"
         d="M 17.204,60.475 H 40.889 V 84.159 H 17.204 Z" />
    </clipPath>
    <clipPath
       id="clipPath2542"
       clipPathUnits="userSpaceOnUse">
      <path
         inkscape:connector-curvature="0"
         id="path2540"
         d="M 20.661,80.7032 H 37.4463 V 63.9179 H 20.661 Z" />
    </clipPath>
    <clipPath
       id="clipPath2546"
       clipPathUnits="userSpaceOnUse">
      <path
         inkscape:connector-curvature="0"
         id="path2544"
         d="M 20.6611,80.7031 H 37.4463 V 63.918 H 20.6611 Z" />
    </clipPath>
    <mask
       id="mask2548"
       height="1"
       width="1"
       y="0"
       x="0"
       maskUnits="userSpaceOnUse">
      <g
         id="g2566">
        <g
           id="g2564"
           clip-path="url(#clipPath2542)">
          <path
             inkscape:connector-curvature="0"
             id="path2550"
             style="fill:#000000;fill-opacity:1;fill-rule:nonzero;stroke:none"
             d="M 20.661,80.703 H 37.446 V 63.918 H 20.661 Z" />
          <g
             id="g2562">
            <g
               id="g2552" />
            <g
               id="g2560">
              <g
                 id="g2558"
                 clip-path="url(#clipPath2546)">
                <g
                   id="g2556"
                   transform="translate(29.0537,80.2031)">
                  <path
                     inkscape:connector-curvature="0"
                     id="path2554"
                     style="fill:#ffffff;fill-opacity:0.77000397;fill-rule:nonzero;stroke:none"
                     d="m 0,0 c 4.358,0 7.893,-3.533 7.893,-7.893 0,-4.359 -3.535,-7.892 -7.893,-7.892 -4.359,0 -7.893,3.533 -7.893,7.892 C -7.893,-3.533 -4.359,0 0,0" />
                </g>
              </g>
            </g>
          </g>
        </g>
      </g>
    </mask>
    <clipPath
       id="clipPath2574"
       clipPathUnits="userSpaceOnUse">
      <path
         inkscape:connector-curvature="0"
         id="path2572"
         d="M 20.661,80.7032 H 37.4463 V 63.9179 H 20.661 Z" />
    </clipPath>
    <clipPath
       id="clipPath2578"
       clipPathUnits="userSpaceOnUse">
      <path
         inkscape:connector-curvature="0"
         id="path2576"
         d="M 21.161,80.2032 H 36.9463 V 64.4179 H 21.161 Z" />
    </clipPath>
    <clipPath
       id="clipPath2606"
       clipPathUnits="userSpaceOnUse">
      <path
         inkscape:connector-curvature="0"
         id="path2604"
         d="M 23.2563,78.1078 H 34.8509 V 66.5132 H 23.2563 Z" />
    </clipPath>
    <clipPath
       id="clipPath2610"
       clipPathUnits="userSpaceOnUse">
      <path
         inkscape:connector-curvature="0"
         id="path2608"
         d="M 23.2563,78.1074 H 34.8506 V 66.5127 H 23.2563 Z" />
    </clipPath>
    <mask
       id="mask2612"
       height="1"
       width="1"
       y="0"
       x="0"
       maskUnits="userSpaceOnUse">
      <g
         id="g2630">
        <g
           id="g2628"
           clip-path="url(#clipPath2606)">
          <path
             inkscape:connector-curvature="0"
             id="path2614"
             style="fill:#000000;fill-opacity:1;fill-rule:nonzero;stroke:none"
             d="M 23.256,78.107 H 34.85 V 66.512 H 23.256 Z" />
          <g
             id="g2626">
            <g
               id="g2616" />
            <g
               id="g2624">
              <g
                 id="g2622"
                 clip-path="url(#clipPath2610)">
                <g
                   id="g2620"
                   transform="translate(29.0537,77.6074)">
                  <path
                     inkscape:connector-curvature="0"
                     id="path2618"
                     style="fill:#ffffff;fill-opacity:1;fill-rule:nonzero;stroke:none"
                     d="m 0,0 c 2.926,0 5.297,-2.371 5.297,-5.297 0,-2.926 -2.371,-5.298 -5.297,-5.298 -2.926,0 -5.297,2.372 -5.297,5.298 C -5.297,-2.371 -2.926,0 0,0" />
                </g>
              </g>
            </g>
          </g>
        </g>
      </g>
    </mask>
    <clipPath
       id="clipPath2638"
       clipPathUnits="userSpaceOnUse">
      <path
         inkscape:connector-curvature="0"
         id="path2636"
         d="M 23.2563,78.1078 H 34.8509 V 66.5132 H 23.2563 Z" />
    </clipPath>
    <clipPath
       id="clipPath2658"
       clipPathUnits="userSpaceOnUse">
      <path
         inkscape:connector-curvature="0"
         id="path2656"
         d="m 17.204,174.421 h 23.685 v 23.684 H 17.204 Z" />
    </clipPath>
    <clipPath
       id="clipPath2666"
       clipPathUnits="userSpaceOnUse">
      <path
         inkscape:connector-curvature="0"
         id="path2664"
         d="M 16.7048,198.606 H 41.4024 V 173.908 H 16.7048 Z" />
    </clipPath>
    <clipPath
       id="clipPath2670"
       clipPathUnits="userSpaceOnUse">
      <path
         inkscape:connector-curvature="0"
         id="path2668"
         d="M 16.7046,198.605 H 41.4023 V 173.908 H 16.7046 Z" />
    </clipPath>
    <mask
       id="mask2672"
       height="1"
       width="1"
       y="0"
       x="0"
       maskUnits="userSpaceOnUse">
      <g
         id="g2690">
        <g
           id="g2688"
           clip-path="url(#clipPath2666)">
          <path
             inkscape:connector-curvature="0"
             id="path2674"
             style="fill:#000000;fill-opacity:1;fill-rule:nonzero;stroke:none"
             d="M 16.705,198.605 H 41.403 V 173.908 H 16.705 Z" />
          <g
             id="g2686">
            <g
               id="g2676" />
            <g
               id="g2684">
              <g
                 id="g2682"
                 clip-path="url(#clipPath2670)">
                <g
                   id="g2680"
                   transform="translate(29.0537,198.1055)">
                  <path
                     inkscape:connector-curvature="0"
                     id="path2678"
                     style="fill:#ffffff;fill-opacity:1;fill-rule:nonzero;stroke:none"
                     d="m 0,0 c 6.544,0 11.849,-5.305 11.849,-11.849 0,-6.544 -5.305,-11.848 -11.849,-11.848 -6.544,0 -11.849,5.304 -11.849,11.848 C -11.849,-5.305 -6.544,0 0,0" />
                </g>
              </g>
            </g>
          </g>
        </g>
      </g>
    </mask>
    <clipPath
       id="clipPath2698"
       clipPathUnits="userSpaceOnUse">
      <path
         inkscape:connector-curvature="0"
         id="path2696"
         d="M 16.7048,198.606 H 41.4024 V 173.908 H 16.7048 Z" />
    </clipPath>
    <clipPath
       id="clipPath2718"
       clipPathUnits="userSpaceOnUse">
      <path
         inkscape:connector-curvature="0"
         id="path2716"
         d="M 17.9895,197.321 H 40.1177 V 175.193 H 17.9895 Z" />
    </clipPath>
    <clipPath
       id="clipPath2722"
       clipPathUnits="userSpaceOnUse">
      <path
         inkscape:connector-curvature="0"
         id="path2720"
         d="M 17.9897,197.321 H 40.1182 V 175.192 H 17.9897 Z" />
    </clipPath>
    <mask
       id="mask2724"
       height="1"
       width="1"
       y="0"
       x="0"
       maskUnits="userSpaceOnUse">
      <g
         id="g2742">
        <g
           id="g2740"
           clip-path="url(#clipPath2718)">
          <path
             inkscape:connector-curvature="0"
             id="path2726"
             style="fill:#000000;fill-opacity:1;fill-rule:nonzero;stroke:none"
             d="M 17.99,197.321 H 40.118 V 175.193 H 17.99 Z" />
          <g
             id="g2738">
            <g
               id="g2728" />
            <g
               id="g2736">
              <g
                 id="g2734"
                 clip-path="url(#clipPath2722)">
                <g
                   id="g2732"
                   transform="translate(29.0537,197.0708)">
                  <path
                     inkscape:connector-curvature="0"
                     id="path2730"
                     style="fill:#ffffff;fill-opacity:1;fill-rule:nonzero;stroke:none"
                     d="m 0,0 c 5.973,0 10.814,-4.842 10.814,-10.814 0,-5.973 -4.841,-10.814 -10.814,-10.814 -5.973,0 -10.814,4.841 -10.814,10.814 C -10.814,-4.842 -5.973,0 0,0" />
                </g>
              </g>
            </g>
          </g>
        </g>
      </g>
    </mask>
    <clipPath
       id="clipPath2750"
       clipPathUnits="userSpaceOnUse">
      <path
         inkscape:connector-curvature="0"
         id="path2748"
         d="M 17.9895,197.321 H 40.1177 V 175.193 H 17.9895 Z" />
    </clipPath>
    <clipPath
       id="clipPath2770"
       clipPathUnits="userSpaceOnUse">
      <path
         inkscape:connector-curvature="0"
         id="path2768"
         d="m 18.239,186.257 c 0,-5.973 4.842,-10.815 10.815,-10.815 v 0 c 5.972,0 10.814,4.842 10.814,10.815 v 0 c 0,5.972 -4.842,10.814 -10.814,10.814 v 0 c -5.973,0 -10.815,-4.842 -10.815,-10.814" />
    </clipPath>
    <clipPath
       id="clipPath2782"
       clipPathUnits="userSpaceOnUse">
      <path
         inkscape:connector-curvature="0"
         id="path2780"
         d="m 17.204,174.421 h 23.685 v 23.684 H 17.204 Z" />
    </clipPath>
    <clipPath
       id="clipPath2790"
       clipPathUnits="userSpaceOnUse">
      <path
         inkscape:connector-curvature="0"
         id="path2788"
         d="M 20.661,194.649 H 37.4463 V 177.864 H 20.661 Z" />
    </clipPath>
    <clipPath
       id="clipPath2794"
       clipPathUnits="userSpaceOnUse">
      <path
         inkscape:connector-curvature="0"
         id="path2792"
         d="M 20.6611,194.649 H 37.4463 V 177.864 H 20.6611 Z" />
    </clipPath>
    <mask
       id="mask2796"
       height="1"
       width="1"
       y="0"
       x="0"
       maskUnits="userSpaceOnUse">
      <g
         id="g2814">
        <g
           id="g2812"
           clip-path="url(#clipPath2790)">
          <path
             inkscape:connector-curvature="0"
             id="path2798"
             style="fill:#000000;fill-opacity:1;fill-rule:nonzero;stroke:none"
             d="M 20.661,194.649 H 37.446 V 177.864 H 20.661 Z" />
          <g
             id="g2810">
            <g
               id="g2800" />
            <g
               id="g2808">
              <g
                 id="g2806"
                 clip-path="url(#clipPath2794)">
                <g
                   id="g2804"
                   transform="translate(29.0537,194.1494)">
                  <path
                     inkscape:connector-curvature="0"
                     id="path2802"
                     style="fill:#ffffff;fill-opacity:0.77000397;fill-rule:nonzero;stroke:none"
                     d="m 0,0 c 4.358,0 7.893,-3.534 7.893,-7.893 0,-4.359 -3.535,-7.892 -7.893,-7.892 -4.359,0 -7.893,3.533 -7.893,7.892 C -7.893,-3.534 -4.359,0 0,0" />
                </g>
              </g>
            </g>
          </g>
        </g>
      </g>
    </mask>
    <clipPath
       id="clipPath2822"
       clipPathUnits="userSpaceOnUse">
      <path
         inkscape:connector-curvature="0"
         id="path2820"
         d="M 20.661,194.649 H 37.4463 V 177.864 H 20.661 Z" />
    </clipPath>
    <clipPath
       id="clipPath2826"
       clipPathUnits="userSpaceOnUse">
      <path
         inkscape:connector-curvature="0"
         id="path2824"
         d="M 21.161,194.149 H 36.9463 V 178.364 H 21.161 Z" />
    </clipPath>
    <clipPath
       id="clipPath2854"
       clipPathUnits="userSpaceOnUse">
      <path
         inkscape:connector-curvature="0"
         id="path2852"
         d="M 23.2563,192.054 H 34.8509 V 180.459 H 23.2563 Z" />
    </clipPath>
    <clipPath
       id="clipPath2858"
       clipPathUnits="userSpaceOnUse">
      <path
         inkscape:connector-curvature="0"
         id="path2856"
         d="M 23.2563,192.054 H 34.8506 V 180.459 H 23.2563 Z" />
    </clipPath>
    <mask
       id="mask2860"
       height="1"
       width="1"
       y="0"
       x="0"
       maskUnits="userSpaceOnUse">
      <g
         id="g2878">
        <g
           id="g2876"
           clip-path="url(#clipPath2854)">
          <path
             inkscape:connector-curvature="0"
             id="path2862"
             style="fill:#000000;fill-opacity:1;fill-rule:nonzero;stroke:none"
             d="M 23.256,192.054 H 34.85 V 180.459 H 23.256 Z" />
          <g
             id="g2874">
            <g
               id="g2864" />
            <g
               id="g2872">
              <g
                 id="g2870"
                 clip-path="url(#clipPath2858)">
                <g
                   id="g2868"
                   transform="translate(29.0537,191.5542)">
                  <path
                     inkscape:connector-curvature="0"
                     id="path2866"
                     style="fill:#ffffff;fill-opacity:1;fill-rule:nonzero;stroke:none"
                     d="m 0,0 c 2.926,0 5.297,-2.372 5.297,-5.297 0,-2.926 -2.371,-5.298 -5.297,-5.298 -2.926,0 -5.297,2.372 -5.297,5.298 C -5.297,-2.372 -2.926,0 0,0" />
                </g>
              </g>
            </g>
          </g>
        </g>
      </g>
    </mask>
    <clipPath
       id="clipPath2886"
       clipPathUnits="userSpaceOnUse">
      <path
         inkscape:connector-curvature="0"
         id="path2884"
         d="M 23.2563,192.054 H 34.8509 V 180.459 H 23.2563 Z" />
    </clipPath>
  </defs>
  <sodipodi:namedview
     id="base"
     pagecolor="#ffffff"
     bordercolor="#666666"
     borderopacity="1.0"
     inkscape:pageopacity="0.0"
     inkscape:pageshadow="2"
     inkscape:zoom="22.4"
     inkscape:cx="26.680247"
     inkscape:cy="364.00443"
     inkscape:document-units="mm"
     inkscape:current-layer="layer1"
     showgrid="false"
     inkscape:window-width="1920"
     inkscape:window-height="1001"
     inkscape:window-x="-9"
     inkscape:window-y="-9"
     inkscape:window-maximized="1"
     objecttolerance="1" />
  <metadata
     id="metadata5">
    <rdf:RDF>
      <cc:Work
         rdf:about="">
        <dc:format>image/svg+xml</dc:format>
        <dc:type
           rdf:resource="http://purl.org/dc/dcmitype/StillImage" />
        <dc:title></dc:title>
      </cc:Work>
    </rdf:RDF>
  </metadata>
  <g
     inkscape:label="Livello 1"
     inkscape:groupmode="layer"
     id="layer1"
     transform="translate(0,-168.5)">
    <g
       id="back-5"
       data-name="back"
       transform="matrix(0.35277776,0,0,0.35277776,0,168.5007)">
      <g
         id="g441">
        <rect
           x="0.5"
           y="0.5"
           width="56.599998"
           height="363.25"
           style="fill:#e6ce60"
           id="rect437" />
        <path
           inkscape:connector-curvature="0"
           d="M 56.6,1 V 363.25 H 1 V 1 h 55.6 m 1,-1 H 0 v 364.25 h 57.6 z"
           style="fill:#231f20"
           id="path439" />
      </g>
    </g>
    <path
       id="path444"
       style="fill:#d1b531;stroke-width:0.35277775"
       d="m 2.5011943,175.90903 a 2.0425832,2.0425832 0 0 1 -0.4480277,-0.29986 0.66322219,0.66322219 0 0 1 0,-0.93839 0.63852775,0.63852775 0 0 1 0.4691944,-0.19755 0.62088886,0.62088886 0 0 1 0.4586111,0.18344 0.55033331,0.55033331 0 0 1 0.1728611,0.40217 v 0 l -0.2187222,0.0917 a 0.57502775,0.57502775 0 0 0 -0.1340556,-0.29986 0.37394443,0.37394443 0 0 0 -0.2786944,-0.10583 0.41627776,0.41627776 0 0 0 -0.4056944,0.39511 0.40216665,0.40216665 0 0 0 0.1234722,0.2928 1.6933332,1.6933332 0 0 0 0.2963333,0.2152 2.3494999,2.3494999 0 0 1 0.5150555,0.35278 0.79374996,0.79374996 0 0 1 0.2363611,0.57855 0.81491663,0.81491663 0 0 1 -0.8184444,0.82197 0.79374996,0.79374996 0 0 1 -0.5820833,-0.23989 0.74788885,0.74788885 0 0 1 -0.2398889,-0.52916 l 0.254,-0.0635 a 0.57149997,0.57149997 0 0 0 0.15875,0.39864 0.56091664,0.56091664 0 0 0 0.8043333,0 0.55033331,0.55033331 0 0 0 0.1693333,-0.4057 0.5362222,0.5362222 0 0 0 -0.1693333,-0.39864 2.5823332,2.5823332 0 0 0 -0.3633611,-0.254 z"
       inkscape:connector-curvature="0" />
    <path
       id="path446"
       style="fill:#d1b531;stroke-width:0.35277775"
       d="m 3.8170554,174.62845 h 0.254 v 0.38806 a 1.538111,1.538111 0 0 1 0.1587499,-0.18698 1.5592777,1.5592777 0 0 1 2.1907499,0 1.5451666,1.5451666 0 0 1 0,2.19075 1.5416388,1.5416388 0 0 1 -2.1907499,0 1.5134166,1.5134166 0 0 1 -0.1587499,-0.18344 v 1.61925 h -0.254 z m 0.254,1.03717 v 0.52916 a 1.1853333,1.1853333 0 0 0 0.3527777,0.63853 1.2735277,1.2735277 0 0 0 1.8097499,0 1.2241388,1.2241388 0 0 0 0.3774722,-0.90311 1.2876388,1.2876388 0 0 0 -1.2805832,-1.28411 1.2382499,1.2382499 0 0 0 -0.9066389,0.37747 1.1959166,1.1959166 0 0 0 -0.3527777,0.64206 z"
       inkscape:connector-curvature="0" />
    <path
       id="path448"
       style="fill:#d1b531;stroke-width:0.35277775"
       d="m 8.3608329,174.8507 a 0.9136944,0.9136944 0 0 0 -0.5326944,0.35278 0.94191662,0.94191662 0 0 0 -0.2610555,0.6103 v 1.59103 h -0.254 v -2.77636 h 0.254 v 0.59972 a 1.1077222,1.1077222 0 0 1 0.6561666,-0.62441 z"
       inkscape:connector-curvature="0" />
    <path
       id="path450"
       style="fill:#d1b531;stroke-width:0.35277775"
       d="m 8.819444,175.78556 a 0.92780551,0.92780551 0 0 0 0,0.14464 1.2805833,1.2805833 0 0 0 2.187222,0.89958 1.4604999,1.4604999 0 0 0 0.123472,-0.13405 l 0.271639,0.0952 a 1.3088055,1.3088055 0 0 1 -0.201083,0.2293 1.5486944,1.5486944 0 0 1 -2.6458333,-1.09008 1.5486944,1.5486944 0 0 1 1.5451663,-1.55222 1.5098888,1.5098888 0 0 1 1.100667,0.45155 1.3193888,1.3193888 0 0 1 0.398639,0.95603 z m 0.049389,-0.25753 h 2.420055 a 1.1429999,1.1429999 0 0 0 -0.303389,-0.50447 1.2770555,1.2770555 0 0 0 -1.8132771,0 1.2770555,1.2770555 0 0 0 -0.3175,0.50447 z"
       inkscape:connector-curvature="0" />
    <path
       id="path452"
       style="fill:#d1b531;stroke-width:0.35277775"
       d="m 14.985999,177.39776 h -0.254 v -0.56445 a 2.0178888,2.0178888 0 0 1 -0.15875,0.18697 1.5522221,1.5522221 0 0 1 -2.649361,-1.09008 1.5557499,1.5557499 0 0 1 2.649361,-1.10067 2.0637499,2.0637499 0 0 1 0.15875,0.1905 v -0.39158 h 0.254 z m -0.254,-1.22062 v -0.50094 a 1.2064999,1.2064999 0 0 0 -0.352778,-0.65264 1.2805833,1.2805833 0 1 0 -1.809749,1.80975 1.2770555,1.2770555 0 0 0 1.809749,0 1.2064999,1.2064999 0 0 0 0.352778,-0.65617 z"
       inkscape:connector-curvature="0" />
    <path
       id="path454"
       style="fill:#d1b531;stroke-width:0.35277775"
       d="m 18.570221,177.39776 h -0.257527 v -0.56445 a 1.3123333,1.3123333 0 0 1 -0.15875,0.18697 1.5486944,1.5486944 0 0 1 -2.631723,-1.09008 1.5522221,1.5522221 0 0 1 2.645834,-1.10067 1.3370277,1.3370277 0 0 1 0.15875,0.1905 v -2.13783 h 0.257527 z m -0.257527,-1.22062 v -0.50094 a 1.2241388,1.2241388 0 0 0 -0.352778,-0.65264 1.2809344,1.2809344 0 0 0 -1.813278,1.80975 1.284111,1.284111 0 0 0 2.162528,-0.65617 z"
       inkscape:connector-curvature="0" />
    <path
       id="path456"
       style="fill:#d1b531;stroke-width:0.35277775"
       d="m 9.0381662,180.7315 a 0.21872221,0.21872221 0 0 1 0.067028,0.16228 0.22224999,0.22224999 0 0 1 -0.067028,0.16581 0.22224999,0.22224999 0 0 1 -0.1622778,0.067 0.22224999,0.22224999 0 0 1 -0.1658055,-0.067 0.22577777,0.22577777 0 0 1 0,-0.32809 0.2363611,0.2363611 0 0 1 0.1658055,-0.067 0.23988888,0.23988888 0 0 1 0.1622778,0.067 z m -0.049389,0.82198 V 184.097 H 8.755944 v -2.54352 z"
       inkscape:connector-curvature="0" />
    <path
       id="path458"
       style="fill:#d1b531;stroke-width:0.35277775"
       d="m 9.8777773,182.13203 v 1.97556 H 9.644944 v -2.55411 h 0.2328333 v 0.16227 a 1.0265833,1.0265833 0 0 1 0.7408337,-0.31397 1.0018888,1.0018888 0 0 1 0.733777,0.28222 0.98072217,0.98072217 0 0 1 0.28575,0.70556 v 1.70392 h -0.229305 v -1.66511 a 0.73377774,0.73377774 0 0 0 -0.236361,-0.55387 0.7866944,0.7866944 0 0 0 -1.107723,0 0.87841662,0.87841662 0 0 0 -0.1869717,0.25753 z"
       inkscape:connector-curvature="0" />
    <path
       id="path460"
       style="fill:#d1b531;stroke-width:0.35277775"
       d="m 4.1627776,200.00023 a 1.855611,1.855611 0 0 1 -0.41275,-0.27517 0.58913886,0.58913886 0 0 1 -0.1763889,-0.43039 0.59972219,0.59972219 0 0 1 0.1763889,-0.43039 0.58913886,0.58913886 0 0 1 0.4303889,-0.17991 0.57149997,0.57149997 0 0 1 0.4056944,0.15522 0.51858331,0.51858331 0 0 1 0.1622777,0.35278 v 0 l -0.2010833,0.0811 a 0.54680553,0.54680553 0 0 0 -0.1234722,-0.29633 0.38099998,0.38099998 0 0 0 -0.635,0.2787 0.35277776,0.35277776 0 0 0 0.1128889,0.26811 1.6404166,1.6404166 0 0 0 0.2716389,0.19755 2.0954999,2.0954999 0 0 1 0.4727222,0.32103 0.75847218,0.75847218 0 0 1 0,1.05833 0.75494441,0.75494441 0 0 1 -1.0583333,0 0.67380552,0.67380552 0 0 1 -0.2187222,-0.4833 l 0.2328333,-0.06 a 0.51505553,0.51505553 0 0 0 0.1516945,0.381 0.52563886,0.52563886 0 0 0 0.8960555,-0.33514 0.49036109,0.49036109 0 0 0 -0.1552222,-0.35278 2.5153054,2.5153054 0 0 0 -0.3316111,-0.25047 z"
       inkscape:connector-curvature="0" />
    <path
       id="path462"
       style="fill:#d1b531;stroke-width:0.35277775"
       d="m 5.7114719,198.83959 v -1.09714 h 0.2293056 v 1.09714 h 0.5185833 v 0.23283 H 5.9407775 v 2.30717 H 5.7114719 v -2.32128 H 5.1928886 v -0.21872 z"
       inkscape:connector-curvature="0" />
    <path
       id="path466"
       style="fill:#d1b531;stroke-width:0.35277775"
       d="m 10.794999,199.03009 a 0.83961107,0.83961107 0 0 0 -0.490361,0.31397 0.87488884,0.87488884 0 0 0 -0.239889,0.56444 v 1.45698 H 9.8319162 v -2.52589 h 0.2328328 v 0.55033 a 1.0018888,1.0018888 0 0 1 0.599723,-0.5715 z"
       inkscape:connector-curvature="0" />
    <path
       id="path470"
       style="fill:#d1b531;stroke-width:0.35277775"
       d="m 15.47636,198.59617 a 1.3581944,1.3581944 0 0 1 1.005417,0.41628 1.411111,1.411111 0 1 1 -2.007306,0 1.3617222,1.3617222 0 0 1 1.001889,-0.41628 z m -0.829027,0.5962 a 1.1747499,1.1747499 0 1 0 1.658055,0 1.1676944,1.1676944 0 0 0 -1.658055,0 z"
       inkscape:connector-curvature="0" />
    <path
       id="path472"
       style="fill:#d1b531;stroke-width:0.35277775"
       d="m 4.7871942,241.15175 -1.1359444,2.54 H 3.5277776 l -1.1253611,-2.54 h 0.2716389 l 0.9136944,2.11667 0.9278055,-2.11667 z"
       inkscape:connector-curvature="0" />
    <path
       id="path474"
       style="fill:#d1b531;stroke-width:0.35277775"
       d="m 6.4170275,240.92245 a 1.411111,1.411111 0 1 1 -1.0018889,2.42358 1.411111,1.411111 0 0 1 1.0018889,-2.42358 z m -0.8290278,0.60325 a 1.1429999,1.1429999 0 0 0 -0.3527777,0.83255 1.1747499,1.1747499 0 0 0 1.1747499,1.17122 1.1747499,1.1747499 0 0 0 1.1747499,-1.17122 1.1429999,1.1429999 0 0 0 -0.3527777,-0.83255 1.1747499,1.1747499 0 0 0 -1.6580555,0 z"
       inkscape:connector-curvature="0" />
    <path
       id="path476"
       style="fill:#d1b531;stroke-width:0.35277775"
       d="m 8.6042496,239.55014 v 4.14161 H 8.3714162 v -4.14161 z"
       inkscape:connector-curvature="0" />
    <path
       id="path478"
       style="fill:#d1b531;stroke-width:0.35277775"
       d="m 10.230555,243.72703 a 1.0265833,1.0265833 0 0 1 -0.7584721,-0.28222 0.98072217,0.98072217 0 0 1 -0.2892778,-0.70556 v -1.5875 h 0.2328333 v 1.56634 a 0.73024996,0.73024996 0 0 0 0.2363611,0.55033 0.77258329,0.77258329 0 0 0 0.5750275,0.2293 0.75141663,0.75141663 0 0 0 0.553861,-0.2293 0.7408333,0.7408333 0 0 0 0.232834,-0.55033 v -1.56634 h 0.236361 v 1.5875 a 0.9771944,0.9771944 0 0 1 -1.019528,0.98778 z"
       inkscape:connector-curvature="0" />
    <path
       id="path480"
       style="fill:#d1b531;stroke-width:0.35277775"
       d="m 11.793361,241.15175 h 0.236361 v 0.06 a 0.70555552,0.70555552 0 0 1 0.515055,-0.21166 0.73730552,0.73730552 0 0 1 0.536222,0.21872 0.92780551,0.92780551 0 0 1 0.102306,0.13053 0.90311107,0.90311107 0 0 1 0.105833,-0.13053 0.73377774,0.73377774 0 0 1 0.532695,-0.21872 0.72319441,0.72319441 0 0 1 0.532694,0.21872 0.74788885,0.74788885 0 0 1 0.22225,0.51153 v 1.96144 h -0.236361 v -1.96144 0 a 0.49741664,0.49741664 0 0 0 -0.151694,-0.35278 0.52916664,0.52916664 0 0 0 -0.740834,0 0.51152775,0.51152775 0 0 0 -0.151694,0.381 v 1.92264 h -0.243417 v -1.96145 0 a 0.52563886,0.52563886 0 0 0 -0.525639,-0.49388 0.52211108,0.52211108 0 0 0 -0.515055,0.47272 v 1.98261 h -0.236361 z"
       inkscape:connector-curvature="0" />
    <path
       id="path484"
       style="fill:#d1b531;stroke-width:0.35277775"
       d="m 7.1966663,281.38958 a 1.982611,1.982611 0 0 1 -0.4092222,-0.27516 0.61030552,0.61030552 0 0 1 0,-0.86431 0.57855553,0.57855553 0 0 1 0.4303889,-0.17992 0.55738886,0.55738886 0 0 1 0.4162777,0.16934 0.49741664,0.49741664 0 0 1 0.1622778,0.35278 v 0 l -0.2010833,0.0847 a 0.52211108,0.52211108 0 0 0 -0.1234722,-0.29633 0.33161109,0.33161109 0 0 0 -0.254,-0.0988 0.3774722,0.3774722 0 0 0 -0.2681111,0.64206 1.601611,1.601611 0 0 0 0.2716388,0.20108 2.1166666,2.1166666 0 0 1 0.4727222,0.3175 0.70555552,0.70555552 0 0 1 0.2187223,0.52917 0.75494441,0.75494441 0 0 1 -1.2841111,0.53975 0.67380552,0.67380552 0 0 1 -0.2187222,-0.48684 l 0.2293055,-0.0564 a 0.51505553,0.51505553 0 0 0 0.1552223,0.37747 0.51152775,0.51152775 0 0 0 0.7337777,0 0.49741664,0.49741664 0 0 0 0.15875,-0.37394 0.47977775,0.47977775 0 0 0 -0.15875,-0.35278 1.8485555,1.8485555 0 0 0 -0.3316111,-0.22931 z"
       inkscape:connector-curvature="0" />
    <path
       id="path486"
       style="fill:#d1b531;stroke-width:0.35277775"
       d="m 9.4368051,282.80069 a 1.0265833,1.0265833 0 0 1 -0.7584722,-0.28222 0.99130551,0.99130551 0 0 1 -0.2892778,-0.70555 v -1.5875 h 0.2328334 v 1.56633 a 0.73024996,0.73024996 0 0 0 0.2363611,0.55033 0.77258329,0.77258329 0 0 0 0.5750277,0.23284 0.76552774,0.76552774 0 0 0 0.5538611,-0.22931 0.75494441,0.75494441 0 0 0 0.2328336,-0.55386 v -1.56633 h 0.236361 v 1.5875 a 1.0054166,1.0054166 0 0 1 -0.289278,0.70555 0.99483328,0.99483328 0 0 1 -0.7302499,0.28222 z"
       inkscape:connector-curvature="0" />
    <path
       id="path488"
       style="fill:#d1b531;stroke-width:0.35277775"
       d="m 10.999611,280.21131 h 0.236361 v 0.06 a 0.72672219,0.72672219 0 0 1 0.518583,-0.20814 0.73377774,0.73377774 0 0 1 0.532694,0.21872 0.76199996,0.76199996 0 0 1 0.102306,0.13053 0.90311107,0.90311107 0 0 1 0.105833,-0.13053 0.73377774,0.73377774 0 0 1 0.532695,-0.21872 0.72319441,0.72319441 0 0 1 0.532694,0.21872 0.73024996,0.73024996 0 0 1 0.22225,0.508 v 1.96497 h -0.236361 v -1.96497 0 a 0.48683331,0.48683331 0 0 0 -0.151694,-0.35278 0.51858331,0.51858331 0 0 0 -0.352778,-0.15169 0.52211108,0.52211108 0 0 0 -0.352778,0.15169 0.51505553,0.51505553 0 0 0 -0.151694,0.381 v 1.92617 h -0.232834 v -1.95439 0 a 0.50799997,0.50799997 0 0 0 -0.155222,-0.35278 0.51505553,0.51505553 0 0 0 -0.352778,-0.15169 0.50799997,0.50799997 0 0 0 -0.352777,0.15169 0.49388886,0.49388886 0 0 0 -0.151695,0.32456 v 1.98261 h -0.236361 z"
       inkscape:connector-curvature="0" />
    <path
       id="path490"
       style="fill:#d1b531;stroke-width:0.35277775"
       d="m 7.5917774,172.46239 h 0.1234722 v 0.1905 l 0.077611,-0.0917 a 0.73377774,0.73377774 0 0 1 0.5326944,-0.21872 0.75141663,0.75141663 0 0 1 0.7514167,0.74436 0.73377774,0.73377774 0 0 1 -0.2187222,0.52917 0.74788885,0.74788885 0 0 1 -1.0583333,0 0.97013884,0.97013884 0 0 1 -0.077611,-0.0917 v 0.79727 H 7.598833 Z m 0.1234722,0.50448 v 0.25752 a 0.6138333,0.6138333 0 0 0 0.1693333,0.31045 0.62238405,0.62238405 0 0 0 0.8819444,-0.87842 0.62088886,0.62088886 0 0 0 -0.8819444,0 0.6138333,0.6138333 0 0 0 -0.1693333,0.31045 z"
       inkscape:connector-curvature="0" />
    <path
       id="path492"
       style="fill:#d1b531;stroke-width:0.35277775"
       d="m 10.032999,172.34245 a 0.75141663,0.75141663 0 0 1 0.550334,1.28411 0.70555552,0.70555552 0 0 1 -0.532695,0.22225 0.75494441,0.75494441 0 0 1 -0.5291663,-1.28764 0.73377774,0.73377774 0 0 1 0.5115273,-0.21872 z m -0.4374439,0.31397 a 0.61736108,0.61736108 0 0 0 0,0.87842 0.62113564,0.62113564 0 1 0 0.8784169,-0.87842 0.61736108,0.61736108 0 0 0 -0.8784169,0 z"
       inkscape:connector-curvature="0" />
    <path
       id="path494"
       style="fill:#d1b531;stroke-width:0.35277775"
       d="m 11.193638,171.61573 v 2.19428 h -0.123472 v -2.19428 z"
       inkscape:connector-curvature="0" />
    <path
       id="path496"
       style="fill:#d1b531;stroke-width:0.35277775"
       d="m 11.680472,174.32153 h -0.137584 l 0.352778,-0.762 -0.511528,-1.09714 h 0.137584 l 0.440972,0.94192 0.4445,-0.94192 h 0.137583 z"
       inkscape:connector-curvature="0" />
    <path
       id="path499"
       style="fill:#231f20;stroke-width:0.35277775"
       d="m 2.7693054,175.78909 a 2.0002499,2.0002499 0 0 1 -0.4445,-0.29986 0.63499997,0.63499997 0 0 1 -0.2081388,-0.4692 0.64911108,0.64911108 0 0 1 0.1940277,-0.47272 0.63499997,0.63499997 0 0 1 0.4691944,-0.19403 0.61736108,0.61736108 0 0 1 0.4550834,0.17992 0.56797219,0.56797219 0 0 1 0.1763888,0.40217 v 0 l -0.2187222,0.0882 a 0.59972219,0.59972219 0 0 0 -0.1340555,-0.32103 0.38452776,0.38452776 0 0 0 -0.2786945,-0.10936 0.40216665,0.40216665 0 0 0 -0.2928055,0.12347 0.4092222,0.4092222 0 0 0 0,0.57856 1.8838332,1.8838332 0 0 0 0.2998611,0.21872 2.3106943,2.3106943 0 0 1 0.5115278,0.35278 0.82197218,0.82197218 0 0 1 0,1.16064 0.81491663,0.81491663 0 0 1 -1.1606389,0 0.73377774,0.73377774 0 0 1 -0.2398889,-0.52564 l 0.2504723,-0.0635 a 0.56091664,0.56091664 0 0 0 0.1693333,0.41275 0.55386108,0.55386108 0 0 0 0.4021666,0.16581 0.56091664,0.56091664 0 0 0 0.4021667,-0.16581 0.55386108,0.55386108 0 0 0 0.1693333,-0.40922 0.54327775,0.54327775 0 0 0 -0.1693333,-0.39864 2.4694443,2.4694443 0 0 0 -0.3527778,-0.254 z"
       inkscape:connector-curvature="0" />
    <path
       id="path501"
       style="fill:#231f20;stroke-width:0.35277775"
       d="m 4.0851665,174.49792 h 0.2575277 v 0.39159 a 1.538111,1.538111 0 0 1 0.15875,-0.18698 1.5592777,1.5592777 0 0 1 2.1907499,0 1.5557499,1.5557499 0 0 1 0,2.19075 1.5486944,1.5486944 0 0 1 -2.1907499,0 1.5134166,1.5134166 0 0 1 -0.15875,-0.18344 v 1.61572 H 4.0851665 Z m 0.2575277,1.05834 v 0.53269 a 1.2170833,1.2170833 0 0 0 0.3527778,0.63853 1.2876388,1.2876388 0 0 0 1.8132777,0 1.2805833,1.2805833 0 0 0 0,-1.80975 1.2770555,1.2770555 0 0 0 -1.8132777,0 1.2170833,1.2170833 0 0 0 -0.3527778,0.63853 z"
       inkscape:connector-curvature="0" />
    <path
       id="path503"
       style="fill:#231f20;stroke-width:0.35277775"
       d="m 8.6324718,174.73076 a 0.89605551,0.89605551 0 0 0 -0.5326944,0.35277 0.93838884,0.93838884 0 0 0 -0.2610556,0.61384 v 1.59102 H 7.5811941 v -2.79047 h 0.2575277 v 0.59972 a 1.1041944,1.1041944 0 0 1 0.6526389,-0.59972 z"
       inkscape:connector-curvature="0" />
    <path
       id="path505"
       style="fill:#231f20;stroke-width:0.35277775"
       d="m 9.0769718,175.66562 a 0.89605551,0.89605551 0 0 0 0,0.14464 1.2805833,1.2805833 0 0 0 2.1872222,0.89958 c 0.04233,-0.0423 0.08467,-0.0882 0.123472,-0.13406 l 0.268111,0.0952 a 1.3088055,1.3088055 0 0 1 -0.201083,0.22931 1.5486944,1.5486944 0 0 1 -2.6458333,-1.09008 1.5522221,1.5522221 0 0 1 2.6458333,-1.10067 1.3052777,1.3052777 0 0 1 0.402167,0.95603 z m 0.045861,-0.25753 h 2.4341662 a 1.1747499,1.1747499 0 0 0 -0.303388,-0.50447 1.2770555,1.2770555 0 0 0 -1.8132782,0 1.2982222,1.2982222 0 0 0 -0.3175,0.50447 z"
       inkscape:connector-curvature="0" />
    <path
       id="path507"
       style="fill:#231f20;stroke-width:0.35277775"
       d="m 15.257638,177.27781 h -0.254 v -0.56444 a 1.982611,1.982611 0 0 1 -0.162278,0.18697 1.5486944,1.5486944 0 0 1 -2.645833,-1.09008 1.5522221,1.5522221 0 0 1 2.645833,-1.10067 1.6545277,1.6545277 0 0 1 0.162278,0.1905 v -0.40217 h 0.254 z m -0.254,-1.22061 v -0.50094 a 1.2417777,1.2417777 0 0 0 -0.352778,-0.65264 1.2770555,1.2770555 0 0 0 -1.813277,0 1.2805833,1.2805833 0 1 0 2.166055,1.15358 z"
       inkscape:connector-curvature="0" />
    <path
       id="path509"
       style="fill:#231f20;stroke-width:0.35277775"
       d="m 18.84186,177.27781 h -0.257528 v -0.56444 c -0.04939,0.0635 -0.102305,0.127 -0.15875,0.18697 a 1.5515906,1.5515906 0 0 1 -2.197805,-2.19075 1.5592777,1.5592777 0 0 1 2.194278,0 2.0637499,2.0637499 0 0 1 0.15875,0.1905 v -2.13783 h 0.257527 z m -0.257528,-1.22061 v -0.50094 a 1.2135555,1.2135555 0 0 0 -0.352777,-0.65264 1.2805833,1.2805833 0 0 0 -2.187222,0.90664 1.2276666,1.2276666 0 0 0 0.373944,0.90311 1.2805833,1.2805833 0 0 0 1.813278,0 1.2241388,1.2241388 0 0 0 0.352777,-0.65617 z"
       inkscape:connector-curvature="0" />
    <path
       id="path511"
       style="fill:#231f20;stroke-width:0.35277775"
       d="m 9.1722218,180.49514 a 0.21872221,0.21872221 0 0 1 0.067028,0.16228 0.21519443,0.21519443 0 0 1 -0.067028,0.1905 0.21872221,0.21872221 0 0 1 -0.1622778,0.067 0.22577777,0.22577777 0 0 1 -0.1658056,-0.067 0.21519443,0.21519443 0 0 1 -0.067028,-0.1658 0.21872221,0.21872221 0 0 1 0.067028,-0.16228 0.23988888,0.23988888 0 0 1 0.1658056,-0.067 0.23283332,0.23283332 0 0 1 0.1622778,0.0423 z m -0.049389,0.83256 v 2.54353 H 8.8935273 v -2.53648 z"
       inkscape:connector-curvature="0" />
    <path
       id="path513"
       style="fill:#231f20;stroke-width:0.35277775"
       d="m 9.9977217,181.90625 v 1.97556 H 9.7613606 v -2.54706 h 0.2363611 v 0.16581 a 1.0089444,1.0089444 0 0 1 1.7638893,0.67381 v 1.70391 h -0.232834 v -1.67922 a 0.74788885,0.74788885 0 0 0 -0.239889,-0.55386 0.79374996,0.79374996 0 0 0 -1.11125,0 0.86430551,0.86430551 0 0 0 -0.1799163,0.26105 z"
       inkscape:connector-curvature="0" />
    <path
       id="path515"
       style="fill:#231f20;stroke-width:0.35277775"
       d="m 4.3709164,199.87675 a 1.8132777,1.8132777 0 0 1 -0.4092222,-0.27516 0.61030552,0.61030552 0 0 1 0.4303889,-1.05834 0.56444442,0.56444442 0 0 1 0.4198055,0.16581 0.50799997,0.50799997 0 0 1 0.15875,0.35278 v 0 l -0.2010833,0.0811 a 0.52211108,0.52211108 0 0 0 -0.1234722,-0.29634 0.33161109,0.33161109 0 0 0 -0.254,-0.0988 0.3774722,0.3774722 0 0 0 -0.2681111,0.11288 0.35277776,0.35277776 0 0 0 -0.1093611,0.26459 0.35277776,0.35277776 0 0 0 0.1093611,0.26811 1.982611,1.982611 0 0 0 0.2751667,0.19755 2.0566943,2.0566943 0 0 1 0.4691944,0.32103 0.75494441,0.75494441 0 1 1 -1.0583333,1.05834 0.68086108,0.68086108 0 0 1 -0.2187222,-0.48331 l 0.2293055,-0.06 a 0.51858331,0.51858331 0 0 0 0.1552223,0.381 0.50094442,0.50094442 0 0 0 0.3527777,0.15169 0.50799997,0.50799997 0 0 0 0.3704167,-0.15169 0.51505553,0.51505553 0 0 0 0.1552222,-0.37395 0.49741664,0.49741664 0 0 0 -0.1552222,-0.35277 2.6317221,2.6317221 0 0 0 -0.3280834,-0.20462 z"
       inkscape:connector-curvature="0" />
    <path
       id="path517"
       style="fill:#231f20;stroke-width:0.35277775"
       d="m 5.9196108,198.69848 v -1.0795 h 0.2328333 v 1.0795 h 0.5185833 v 0.23636 H 6.1524441 V 201.242 H 5.9196108 v -2.30716 H 5.4010275 v -0.23636 z"
       inkscape:connector-curvature="0" />
    <path
       id="path519-6"
       style="fill:#d1b531;fill-opacity:1;stroke-width:0.35277775"
       d="m 6.9573195,199.86027 a 0.75141664,0.75141664 0 0 0 0,0.13052 1.1747499,1.1747499 0 0 0 2.00025,0.8255 1.2417777,1.2417777 0 0 0 0.1058333,-0.11641 l 0.2504722,0.0882 a 1.2453055,1.2453055 0 0 1 -0.1834444,0.21167 1.411111,1.411111 0 0 1 -2.0108334,0 1.411111,1.411111 0 0 1 1.001889,-2.41653 1.3723055,1.3723055 0 0 1 1.0089444,0.41628 1.1923888,1.1923888 0 0 1 0.3527778,0.87489 z m 0.042333,-0.23637 h 2.2330833 a 1.1218333,1.1218333 0 0 0 -0.2751666,-0.46566 1.1747499,1.1747499 0 0 0 -1.6651112,0 1.2276666,1.2276666 0 0 0 -0.2928055,0.4833 z"
       inkscape:connector-curvature="0" />
    <path
       id="path519"
       style="fill:#231f20;stroke-width:0.35277775"
       d="m 7.1719719,199.76387 a 0.75141663,0.75141663 0 0 0 0,0.13052 1.1747499,1.1747499 0 0 0 2.0002499,0.8255 1.2417777,1.2417777 0 0 0 0.1058333,-0.11641 l 0.2504722,0.0882 a 1.2453055,1.2453055 0 0 1 -0.1834444,0.21167 1.411111,1.411111 0 0 1 -2.0108333,0 1.411111,1.411111 0 0 1 1.0018889,-2.41653 1.3723055,1.3723055 0 0 1 1.0089444,0.41628 1.1923888,1.1923888 0 0 1 0.3527777,0.87489 z m 0.042333,-0.23637 h 2.2330832 a 1.1218333,1.1218333 0 0 0 -0.2751666,-0.46566 1.1747499,1.1747499 0 0 0 -1.6651111,0 1.2276666,1.2276666 0 0 0 -0.2928055,0.4833 z"
       inkscape:connector-curvature="0" />
    <path
       id="path521"
       style="fill:#231f20;stroke-width:0.35277775"
       d="m 11.003138,198.90662 a 0.83255551,0.83255551 0 0 0 -0.486833,0.31397 0.85724996,0.85724996 0 0 0 -0.239889,0.56444 v 1.45697 h -0.236361 v -2.54352 h 0.236361 v 0.55386 a 0.99483328,0.99483328 0 0 1 0.599722,-0.5715 z"
       inkscape:connector-curvature="0" />
    <path
       id="path525"
       style="fill:#231f20;stroke-width:0.35277775"
       d="m 15.688027,198.48681 a 1.411111,1.411111 0 1 1 -1.005417,0.41628 1.3687777,1.3687777 0 0 1 1.005417,-0.41628 z m -0.832556,0.58914 a 1.1394722,1.1394722 0 0 0 -0.352777,0.83255 1.1747499,1.1747499 0 1 0 2.345972,0 1.1712222,1.1712222 0 0 0 -2.003778,-0.83255 z"
       inkscape:connector-curvature="0" />
    <path
       id="path527"
       style="fill:#231f20;stroke-width:0.35277775"
       d="m 4.9388886,240.97889 -1.1394721,2.54 H 3.679472 l -1.125361,-2.54 h 0.2716389 l 0.9136944,2.11667 0.9242777,-2.11667 z"
       inkscape:connector-curvature="0" />
    <path
       id="path529"
       style="fill:#231f20;stroke-width:0.35277775"
       d="m 6.582833,240.74959 a 1.411111,1.411111 0 1 1 -1.0018888,2.42358 1.411111,1.411111 0 0 1 1.0018888,-2.42358 z m -0.8290277,0.59266 a 1.1724238,1.1724238 0 0 0 1.6580554,1.65806 1.1724238,1.1724238 0 1 0 -1.6580554,-1.65806 z"
       inkscape:connector-curvature="0" />
    <path
       id="path531"
       style="fill:#231f20;stroke-width:0.35277775"
       d="m 8.7700551,239.37728 v 4.14161 H 8.5372218 v -4.14161 z"
       inkscape:connector-curvature="0" />
    <path
       id="path533"
       style="fill:#231f20;stroke-width:0.35277775"
       d="m 10.396361,243.55417 a 1.0089444,1.0089444 0 0 1 -0.7584726,-0.28222 0.98072217,0.98072217 0 0 1 -0.2892778,-0.70556 v -1.5875 H 9.581444 v 1.56633 a 0.7408333,0.7408333 0 0 0 0.2328333,0.55034 0.78316663,0.78316663 0 0 0 0.5785557,0.2293 0.75141663,0.75141663 0 0 0 0.553861,-0.2293 0.7408333,0.7408333 0 0 0 0.232833,-0.55034 v -1.56633 h 0.236361 v 1.5875 a 0.99836106,0.99836106 0 0 1 -0.292805,0.70556 0.97366662,0.97366662 0 0 1 -0.726722,0.28222 z"
       inkscape:connector-curvature="0" />
    <path
       id="path535"
       style="fill:#231f20;stroke-width:0.35277775"
       d="m 11.959166,240.97889 h 0.232833 v 0.06 a 0.74436107,0.74436107 0 0 1 1.058334,0 0.70555552,0.70555552 0 0 1 0.102305,0.127 0.74436107,0.74436107 0 0 1 0.109361,-0.127 0.74788885,0.74788885 0 0 1 1.058334,0 0.74788885,0.74788885 0 0 1 0.22225,0.508 v 1.96145 h -0.236362 v -1.96145 0 a 0.49741664,0.49741664 0 0 0 -0.151694,-0.35277 0.50799997,0.50799997 0 0 0 -0.370417,-0.1517 0.5044722,0.5044722 0 0 0 -0.352777,0.1517 0.51505553,0.51505553 0 0 0 -0.151695,0.381 v 1.92263 h -0.232833 v -1.96144 0 a 0.52563886,0.52563886 0 0 0 -0.525639,-0.49389 0.48683331,0.48683331 0 0 0 -0.352778,0.1517 0.5044722,0.5044722 0 0 0 -0.155222,0.32102 v 1.98261 h -0.254 z"
       inkscape:connector-curvature="0" />
    <path
       id="path537-3"
       style="fill:#d1b531;fill-opacity:1;stroke-width:0.35277775"
       d="m 15.26112,242.22773 a 0.78669441,0.78669441 0 0 0 0,0.13053 1.1712222,1.1712222 0 0 0 2.003777,0.8255 c 0.03881,-0.0388 0.07761,-0.0776 0.112889,-0.11994 l 0.246945,0.0847 a 1.2453055,1.2453055 0 0 1 -0.183445,0.21167 1.411111,1.411111 0 0 1 -2.010833,0 1.411111,1.411111 0 0 1 1.001889,-2.42358 1.3723055,1.3723055 0 0 1 1.001889,0.42333 1.1959166,1.1959166 0 0 1 0.352778,0.87489 z m 0.04233,-0.23636 h 2.233083 a 1.0583333,1.0583333 0 0 0 -0.278694,-0.46214 1.1641666,1.1641666 0 0 0 -1.661583,0 1.2241388,1.2241388 0 0 0 -0.292806,0.46214 z"
       inkscape:connector-curvature="0" />
    <path
       id="path537"
       style="fill:#231f20;stroke-width:0.35277775"
       d="m 15.437555,242.04075 a 0.7866944,0.7866944 0 0 0 0,0.13053 1.1712222,1.1712222 0 0 0 2.003777,0.8255 c 0.03881,-0.0388 0.07761,-0.0776 0.112889,-0.11994 l 0.246945,0.0847 a 1.2453055,1.2453055 0 0 1 -0.183445,0.21167 1.411111,1.411111 0 0 1 -2.010833,0 1.411111,1.411111 0 0 1 1.001889,-2.42358 1.3723055,1.3723055 0 0 1 1.001889,0.42333 1.1959166,1.1959166 0 0 1 0.352778,0.87489 z m 0.04233,-0.23636 h 2.233083 a 1.0583333,1.0583333 0 0 0 -0.278694,-0.46214 1.1641666,1.1641666 0 0 0 -1.661583,0 1.2241388,1.2241388 0 0 0 -0.292806,0.46214 z"
       inkscape:connector-curvature="0" />
    <path
       id="path539"
       style="fill:#231f20;stroke-width:0.35277775"
       d="m 7.4365552,281.26258 a 1.982611,1.982611 0 0 1 -0.4092222,-0.27516 0.6138333,0.6138333 0 0 1 0.4303888,-1.05834 0.5820833,0.5820833 0 0 1 0.4198056,0.16581 0.51858331,0.51858331 0 0 1 0.15875,0.37042 v 0 l -0.2010834,0.0847 a 0.52211108,0.52211108 0 0 0 -0.1234722,-0.29633 0.33161109,0.33161109 0 0 0 -0.254,-0.0988 0.3774722,0.3774722 0 0 0 -0.2681111,0.64206 1.6756944,1.6756944 0 0 0 0.2751667,0.20108 1.9579166,1.9579166 0 0 1 0.4691944,0.3175 0.70555552,0.70555552 0 0 1 0.2187222,0.52917 0.75494441,0.75494441 0 0 1 -1.284111,0.53975 0.67380552,0.67380552 0 0 1 -0.2187222,-0.48684 l 0.2293055,-0.0564 a 0.51505553,0.51505553 0 0 0 0.1552222,0.37747 0.5044722,0.5044722 0 0 0 0.3527778,0.15522 0.51858331,0.51858331 0 0 0 0.3704166,-0.15522 0.50799997,0.50799997 0 0 0 0.1552223,-0.37394 0.49036109,0.49036109 0 0 0 -0.1552223,-0.35278 2.0708055,2.0708055 0 0 0 -0.3210277,-0.22931 z"
       inkscape:connector-curvature="0" />
    <path
       id="path541"
       style="fill:#231f20;stroke-width:0.35277775"
       d="M 9.676694,282.65958 A 1.0265833,1.0265833 0 0 1 8.9182218,282.38089 1.0054166,1.0054166 0 0 1 8.628944,281.67533 v -1.5875 h 0.2328333 v 1.56634 a 0.73024996,0.73024996 0 0 0 0.2363611,0.55033 0.79727774,0.79727774 0 0 0 1.3652496,-0.55033 v -1.56634 h 0.232834 v 1.5875 a 1.0054166,1.0054166 0 0 1 -0.289278,0.70556 0.98777773,0.98777773 0 0 1 -0.73025,0.27869 z"
       inkscape:connector-curvature="0" />
    <path
       id="path543"
       style="fill:#231f20;stroke-width:0.35277775"
       d="m 11.239499,280.08431 h 0.236362 v 0.06 a 0.75494441,0.75494441 0 0 1 1.058333,0 0.70555552,0.70555552 0 0 1 0.102305,0.127 q 0.04939,-0.0635 0.105834,-0.127 a 0.76199996,0.76199996 0 0 1 1.058333,0 0.74436107,0.74436107 0 0 1 0.218722,0.508 v 1.96144 h -0.232833 v -1.96144 0 a 0.48683331,0.48683331 0 0 0 -0.151695,-0.35278 0.52563886,0.52563886 0 0 0 -0.892527,0.381 v 1.92264 h -0.232834 v -1.96145 0 a 0.50799997,0.50799997 0 0 0 -0.155222,-0.35277 0.50094442,0.50094442 0 0 0 -0.352778,-0.1517 0.52211108,0.52211108 0 0 0 -0.518583,0.47272 v 1.98262 h -0.236361 z"
       inkscape:connector-curvature="0" />
    <path
       id="path545"
       style="fill:#231f20;stroke-width:0.35277775"
       d="m 7.7152496,172.33187 h 0.127 v 0.18697 a 0.44802776,0.44802776 0 0 1 0.077611,-0.0882 0.70555552,0.70555552 0 0 1 0.5291667,-0.21872 0.74788885,0.74788885 0 0 1 0.7514166,0.75142 0.70555552,0.70555552 0 0 1 -0.2187222,0.52917 0.72319441,0.72319441 0 0 1 -0.5326944,0.22225 0.70555552,0.70555552 0 0 1 -0.5291667,-0.22225 0.57855553,0.57855553 0 0 1 -0.077611,-0.0882 v 0.78317 h -0.127 z m 0.127,0.50094 v 0.254 a 0.57149997,0.57149997 0 0 0 0.1658056,0.31045 0.62441664,0.62441664 0 0 0 1.0583332,-0.43745 0.61030552,0.61030552 0 0 0 -0.1834444,-0.44097 0.62088886,0.62088886 0 0 0 -1.0583333,0.31044 z"
       inkscape:connector-curvature="0" />
    <path
       id="path547"
       style="fill:#231f20;stroke-width:0.35277775"
       d="m 10.159999,172.20839 a 0.75494441,0.75494441 0 0 1 0.532695,1.28412 0.74788885,0.74788885 0 0 1 -1.0583334,0 0.74436107,0.74436107 0 0 1 0,-1.05834 0.72319441,0.72319441 0 0 1 0.5256384,-0.22578 z m -0.4409717,0.31398 a 0.61030552,0.61030552 0 0 0 -0.1940278,0.44097 0.62088886,0.62088886 0 0 0 1.0583335,0.43744 0.58913886,0.58913886 0 0 0 0.183444,-0.43744 0.59619441,0.59619441 0 0 0 -0.183444,-0.44097 0.61736108,0.61736108 0 0 0 -0.8784168,0 z"
       inkscape:connector-curvature="0" />
    <path
       id="path549"
       style="fill:#231f20;stroke-width:0.35277775"
       d="m 11.317111,171.4852 v 2.19075 h -0.123473 v -2.19075 z"
       inkscape:connector-curvature="0" />
    <path
       id="path551"
       style="fill:#231f20;stroke-width:0.35277775"
       d="m 11.803944,174.18748 h -0.137583 l 0.352777,-0.762 -0.511527,-1.09361 h 0.134055 l 0.440972,0.93839 0.4445,-0.93839 h 0.137584 z"
       inkscape:connector-curvature="0" />
    <g
       id="seri-6"
       data-name="seri"
       transform="matrix(0.35277776,0,0,0.35277776,0,168.5007)">
      <g
         id="g570">
        <g
           id="g564">
          <path
             inkscape:connector-curvature="0"
             d="m 22,265.66 a 7.83,7.83 0 0 1 -1.09,-4 7.92,7.92 0 1 1 15.84,0 7.83,7.83 0 0 1 -1.09,4"
             style="fill:none;stroke:#111111;stroke-width:0.75px;stroke-miterlimit:10"
             id="path554" />
          <g
             id="g560">
            <line
               x1="34.77"
               y1="267.64999"
               x2="36.830002"
               y2="267.64999"
               style="fill:none;stroke:#111111;stroke-width:0.25px;stroke-miterlimit:10"
               id="line556" />
            <line
               x1="35.799999"
               y1="268.67999"
               x2="35.799999"
               y2="266.62"
               style="fill:none;stroke:#111111;stroke-width:0.25px;stroke-miterlimit:10"
               id="line558" />
          </g>
          <line
             x1="20.77"
             y1="267.64999"
             x2="22.83"
             y2="267.64999"
             style="fill:none;stroke:#111111;stroke-width:0.25px;stroke-miterlimit:10"
             id="line562" />
        </g>
        <line
           x1="28.809999"
           y1="253.72"
           x2="28.809999"
           y2="246.52"
           style="fill:none;stroke:#111111;stroke-width:0.75px;stroke-miterlimit:10"
           id="line566" />
        <line
           x1="28.799999"
           y1="267.25"
           x2="28.799999"
           y2="278.88"
           style="fill:none;stroke:#111111;stroke-width:0.75px;stroke-miterlimit:10"
           id="line568" />
      </g>
      <g
         id="g588">
        <g
           id="g582">
          <path
             inkscape:connector-curvature="0"
             d="m 22,148.28 a 7.83,7.83 0 0 1 -1.09,-4 7.92,7.92 0 1 1 15.84,0 7.83,7.83 0 0 1 -1.09,4"
             style="fill:none;stroke:#111111;stroke-width:0.75px;stroke-miterlimit:10"
             id="path572" />
          <g
             id="g578">
            <line
               x1="34.77"
               y1="150.25999"
               x2="36.830002"
               y2="150.25999"
               style="fill:none;stroke:#111111;stroke-width:0.25px;stroke-miterlimit:10"
               id="line574" />
            <line
               x1="35.799999"
               y1="151.28999"
               x2="35.799999"
               y2="149.24001"
               style="fill:none;stroke:#111111;stroke-width:0.25px;stroke-miterlimit:10"
               id="line576" />
          </g>
          <line
             x1="20.77"
             y1="150.25999"
             x2="22.83"
             y2="150.25999"
             style="fill:none;stroke:#111111;stroke-width:0.25px;stroke-miterlimit:10"
             id="line580" />
        </g>
        <line
           x1="28.809999"
           y1="136.34"
           x2="28.809999"
           y2="129.13"
           style="fill:none;stroke:#111111;stroke-width:0.75px;stroke-miterlimit:10"
           id="line584" />
        <line
           x1="28.799999"
           y1="149.87"
           x2="28.799999"
           y2="161.49001"
           style="fill:none;stroke:#111111;stroke-width:0.75px;stroke-miterlimit:10"
           id="line586" />
      </g>
      <line
         x1="23.15"
         y1="58.790001"
         x2="34.450001"
         y2="58.790001"
         style="fill:none;stroke:#111111;stroke-width:0.75px;stroke-miterlimit:10"
         id="line590" />
      <line
         x1="23.15"
         y1="339.98001"
         x2="34.450001"
         y2="339.98001"
         style="fill:none;stroke:#111111;stroke-width:0.75px;stroke-miterlimit:10"
         id="line592" />
      <g
         id="g598">
        <path
           inkscape:connector-curvature="0"
           d="m 28.8,217.76 c -0.3,0 -0.56,-0.69 -0.56,-1 a 0.56,0.56 0 1 1 1.12,0 c 0,0.31 -0.26,1 -0.56,1 z"
           style="fill:#282828"
           id="path594" />
        <path
           inkscape:connector-curvature="0"
           d="m 28.8,216.23 a 0.51,0.51 0 0 1 0.51,0.51 c 0,0.34 -0.27,1 -0.51,1 -0.24,0 -0.51,-0.63 -0.51,-1 a 0.51,0.51 0 0 1 0.51,-0.51 m 0,-0.1 a 0.61,0.61 0 0 0 -0.61,0.61 c 0,0.34 0.27,1.07 0.61,1.07 0.34,0 0.61,-0.73 0.61,-1.07 a 0.61,0.61 0 0 0 -0.61,-0.61 z"
           style="fill:#231f20"
           id="path596" />
      </g>
      <g
         id="g604">
        <path
           inkscape:connector-curvature="0"
           d="m 28.8,100.17 c -0.3,0 -0.56,-0.69 -0.56,-1 a 0.56,0.56 0 1 1 1.12,0 c 0,0.31 -0.26,1 -0.56,1 z"
           style="fill:#282828"
           id="path600" />
        <path
           inkscape:connector-curvature="0"
           d="m 28.8,98.63 a 0.52,0.52 0 0 1 0.51,0.52 c 0,0.34 -0.27,1 -0.51,1 -0.24,0 -0.51,-0.63 -0.51,-1 a 0.52,0.52 0 0 1 0.51,-0.52 m 0,-0.1 a 0.61,0.61 0 0 0 -0.61,0.62 c 0,0.34 0.27,1.07 0.61,1.07 0.34,0 0.61,-0.73 0.61,-1.07 A 0.61,0.61 0 0 0 28.8,98.53 Z"
           style="fill:#231f20"
           id="path602" />
      </g>
    </g>
    <path
       inkscape:connector-curvature="0"
       d="m 5.8631664,295.37017 a 0.65263886,0.65263886 0 0 1 -0.1693334,-0.11289 0.25047221,0.25047221 0 0 1 0,-0.35278 0.2363611,0.2363611 0 0 1 0.1763889,-0.0741 0.23283332,0.23283332 0 0 1 0.1728611,0.0705 0.21519443,0.21519443 0 0 1 0.067028,0.1517 v 0 l -0.084667,0.0353 a 0.22224999,0.22224999 0 0 0 -0.049389,-0.12347 0.1411111,0.1411111 0 0 0 -0.1058334,-0.0388 0.14816666,0.14816666 0 0 0 -0.1093611,0.0459 0.1411111,0.1411111 0 0 0 -0.045861,0.10936 0.14816666,0.14816666 0 0 0 0.045861,0.10936 0.58561108,0.58561108 0 0 0 0.1128889,0.0811 0.95249995,0.95249995 0 0 1 0.1940278,0.13053 0.30338887,0.30338887 0 0 1 0.088194,0.21872 0.31044443,0.31044443 0 0 1 -0.5115277,0.23283 0.27516665,0.27516665 0 0 1 -0.088194,-0.20108 l 0.09525,-0.0247 a 0.21519443,0.21519443 0 0 0 0.0635,0.15875 0.19755555,0.19755555 0 0 0 0.1481667,0.0635 0.21872221,0.21872221 0 0 0 0.1552222,-0.0635 0.21166666,0.21166666 0 0 0 0.0635,-0.15522 0.21166666,0.21166666 0 0 0 -0.0635,-0.15169 z"
       style="fill:#d1b531;stroke-width:0.35277775"
       id="path607" />
    <path
       inkscape:connector-curvature="0"
       d="m 6.4981663,294.88686 v -0.4445 h 0.09525 v 0.44803 h 0.2151945 v 0.0952 H 6.5934163 v 0.94897 h -0.09525 v -0.94897 H 6.2864997 v -0.0952 z"
       style="fill:#d1b531;stroke-width:0.35277775"
       id="path609" />
    <path
       inkscape:connector-curvature="0"
       d="m 9.2145551,295.68061 0.1023055,0.0353 -0.0635,0.0741 a 0.58913886,0.58913886 0 0 1 -1.0018888,-0.41275 0.58913886,0.58913886 0 0 1 1.0018888,-0.41628 l 0.0635,0.0741 -0.1023055,0.0388 a 0.18344444,0.18344444 0 0 0 -0.035278,-0.0388 0.46213887,0.46213887 0 0 0 -0.3527777,-0.14111 0.45155553,0.45155553 0 0 0 -0.3527778,0.14111 0.48771765,0.48771765 0 1 0 0.6985,0.68086 z"
       style="fill:#d1b531;stroke-width:0.35277775"
       id="path613" />
    <path
       inkscape:connector-curvature="0"
       d="m 10.622138,295.93108 h -0.09525 v -0.21166 a 0.57502775,0.57502775 0 0 1 -0.05997,0.0705 0.58561108,0.58561108 0 0 1 -0.9983609,-0.41275 0.58561108,0.58561108 0 0 1 0.9983609,-0.41628 l 0.05997,0.0741 v -0.14817 h 0.09525 z m -0.09525,-0.45861 v -0.1905 a 0.48683331,0.48683331 0 0 0 -0.818444,-0.24694 0.48683331,0.48683331 0 0 0 0,0.68439 0.49036109,0.49036109 0 0 0 0.818444,-0.24695 z"
       style="fill:#d1b531;stroke-width:0.35277775"
       id="path615" />
    <path
       inkscape:connector-curvature="0"
       d="m 11.267722,295.94519 a 0.43744442,0.43744442 0 0 1 -0.313973,-0.11289 0.41627776,0.41627776 0 0 1 -0.119944,-0.2928 v -0.65617 h 0.102306 v 0.64559 a 0.2998611,0.2998611 0 0 0 0.09525,0.22577 0.32455554,0.32455554 0 0 0 0.236361,0.0953 0.32102776,0.32102776 0 0 0 0.229305,-0.0917 0.31397221,0.31397221 0 0 0 0.09525,-0.2293 v -0.64559 h 0.09878 v 0.65617 a 0.39863887,0.39863887 0 0 1 -0.419806,0.40569 z"
       style="fill:#d1b531;stroke-width:0.35277775"
       id="path617" />
    <path
       inkscape:connector-curvature="0"
       d="m 13.052777,295.93108 h -0.09878 v -0.21166 a 0.57502775,0.57502775 0 0 1 -0.05997,0.0705 0.58561108,0.58561108 0 0 1 -0.998361,-0.41275 0.58561108,0.58561108 0 0 1 0.998361,-0.41628 l 0.05997,0.0741 v -0.80786 h 0.09878 z m -0.09878,-0.45861 v -0.1905 a 0.45508331,0.45508331 0 0 0 -0.130527,-0.24694 0.46919442,0.46919442 0 0 0 -0.352778,-0.14111 0.45861109,0.45861109 0 0 0 -0.352778,0.14111 0.48683331,0.48683331 0 0 0 0,0.68439 0.45861109,0.45861109 0 0 0 0.352778,0.14111 0.4727222,0.4727222 0 0 0 0.352778,-0.14464 0.45861109,0.45861109 0 0 0 0.116416,-0.24342 z"
       style="fill:#d1b531;stroke-width:0.35277775"
       id="path619" />
    <path
       inkscape:connector-curvature="0"
       d="m 13.405555,294.54467 a 0.07761111,0.07761111 0 0 1 0.02822,0.0635 0.08466666,0.08466666 0 0 1 -0.02822,0.0706 0.09172222,0.09172222 0 0 1 -0.06703,0.0282 0.09525,0.09525 0 0 1 -0.06703,-0.0282 0.09877777,0.09877777 0 0 1 -0.02822,-0.0706 0.08819444,0.08819444 0 0 1 0.02822,-0.0635 0.08466666,0.08466666 0 0 1 0.06703,-0.0282 0.07761111,0.07761111 0 0 1 0.06703,0.0282 z m -0.01764,0.35277 v 1.05834 h -0.09525 v -1.05834 z"
       style="fill:#d1b531;stroke-width:0.35277775"
       id="path621" />
    <path
       inkscape:connector-curvature="0"
       d="m 14.199305,294.79514 a 0.56091664,0.56091664 0 0 1 0.41275,0.16933 0.57502775,0.57502775 0 0 1 0.169333,0.41628 0.56091664,0.56091664 0 0 1 -0.169333,0.41275 0.58561108,0.58561108 0 0 1 -0.998361,-0.41275 0.58561108,0.58561108 0 0 1 0.585611,-0.58561 z m -0.352778,0.24341 a 0.48393646,0.48393646 0 0 0 0.684389,0.68439 0.48683331,0.48683331 0 0 0 0,-0.68439 0.48683331,0.48683331 0 0 0 -0.684389,0 z"
       style="fill:#d1b531;stroke-width:0.35277775"
       id="path623" />
    <path
       inkscape:connector-curvature="0"
       d="m 5.9301941,295.29608 a 0.70555552,0.70555552 0 0 1 -0.1658055,-0.11289 0.25047221,0.25047221 0 0 1 0,-0.35277 0.23283332,0.23283332 0 0 1 0.1763889,-0.0741 0.22577777,0.22577777 0 0 1 0.1728611,0.0706 0.2046111,0.2046111 0 0 1 0.0635,0.15169 v 0 l -0.081139,0.0317 a 0.22224999,0.22224999 0 0 0 -0.049389,-0.11994 0.14463888,0.14463888 0 0 0 -0.1058333,-0.0423 0.15522221,0.15522221 0 0 0 -0.1093611,0.0459 0.14816666,0.14816666 0 0 0 -0.045861,0.11288 0.14816666,0.14816666 0 0 0 0.045861,0.10937 0.65616663,0.65616663 0 0 0 0.1093611,0.0811 0.78316663,0.78316663 0 0 1 0.1940277,0.13053 0.28927776,0.28927776 0 0 1 0.091722,0.21872 0.29633332,0.29633332 0 0 1 -0.091722,0.22225 0.29280554,0.29280554 0 0 1 -0.2187222,0.0882 0.29633332,0.29633332 0 0 1 -0.2187222,-0.0882 0.28574999,0.28574999 0 0 1 -0.091722,-0.20108 l 0.09525,-0.0247 a 0.20108332,0.20108332 0 0 0 0.0635,0.15522 0.21166666,0.21166666 0 0 0 0.1516944,0.0635 0.2046111,0.2046111 0 0 0 0.1516945,-0.0635 0.20108332,0.20108332 0 0 0 0.0635,-0.1517 0.2046111,0.2046111 0 0 0 -0.0635,-0.15169 0.78316663,0.78316663 0 0 0 -0.1375834,-0.0988 z"
       style="fill:#231f20;stroke-width:0.35277775"
       id="path625" />
    <path
       inkscape:connector-curvature="0"
       d="m 6.5687219,294.79514 v -0.4445 h 0.09525 v 0.4445 h 0.2151944 v 0.0988 H 6.6639719 v 0.95955 h -0.09525 V 294.9045 H 6.3499997 v -0.10936 z"
       style="fill:#231f20;stroke-width:0.35277775"
       id="path627" />
    <path
       inkscape:connector-curvature="0"
       d="m 7.5119125,294.77597 a 0.58561108,0.58561108 0 1 1 -0.41275,0.16933 0.56091664,0.56091664 0 0 1 0.41275,-0.16933 z m -0.3527777,0.24341 a 0.48683331,0.48683331 0 0 0 0,0.68439 0.48683331,0.48683331 0 0 0 0.6843888,0 0.48393639,0.48393639 0 1 0 -0.6843888,-0.68439 z"
       style="fill:#d1b531;fill-opacity:1;stroke-width:0.35277775"
       id="path629-6" />
    <path
       inkscape:connector-curvature="0"
       d="m 7.5882496,294.71753 a 0.58561108,0.58561108 0 1 1 -0.41275,0.16933 0.56091664,0.56091664 0 0 1 0.41275,-0.16933 z m -0.3527777,0.24341 a 0.48683331,0.48683331 0 0 0 0,0.68439 0.48683331,0.48683331 0 0 0 0.6843888,0 0.48393639,0.48393639 0 1 0 -0.6843888,-0.68439 z"
       style="fill:#231f20;stroke-width:0.35277775"
       id="path629" />
    <path
       inkscape:connector-curvature="0"
       d="m 9.2851106,295.60653 0.098778,0.0353 -0.059972,0.0741 a 0.57855553,0.57855553 0 0 1 -0.4162778,0.17286 0.58561108,0.58561108 0 1 1 0,-1.17122 0.57502775,0.57502775 0 0 1 0.4162778,0.16933 l 0.059972,0.0741 -0.098778,0.0353 -0.035278,-0.0388 a 0.47624998,0.47624998 0 0 0 -0.3527778,-0.14112 0.48683331,0.48683331 0 0 0 -0.4833055,0.48331 0.4727222,0.4727222 0 0 0 0.1411111,0.35278 0.47624998,0.47624998 0 0 0 0.6843888,0 z"
       style="fill:#231f20;stroke-width:0.35277775"
       id="path631" />
    <path
       inkscape:connector-curvature="0"
       d="m 10.692694,295.85347 h -0.109361 v -0.21167 c -0.01764,0.0247 -0.03881,0.0459 -0.05997,0.0706 a 0.57855553,0.57855553 0 0 1 -0.416278,0.17286 0.57149997,0.57149997 0 0 1 -0.4127502,-0.17286 0.5820833,0.5820833 0 0 1 0,-0.82903 0.56797219,0.56797219 0 0 1 0.4127502,-0.16933 0.57502775,0.57502775 0 0 1 0.416278,0.16933 c 0.02117,0.0247 0.04233,0.0459 0.05997,0.0706 v -0.15875 h 0.09525 z m -0.09525,-0.45861 v -0.1905 a 0.48330553,0.48330553 0 1 0 -0.8184445,0.43744 0.47624998,0.47624998 0 0 0 0.3527775,0.14112 0.49741664,0.49741664 0 0 0 0.47625,-0.38806 z"
       style="fill:#231f20;stroke-width:0.35277775"
       id="path633" />
    <path
       inkscape:connector-curvature="0"
       d="m 11.338277,295.87111 a 0.41980553,0.41980553 0 0 1 -0.313972,-0.11642 0.40569442,0.40569442 0 0 1 -0.119944,-0.2928 v -0.66675 h 0.09878 v 0.64558 a 0.30691665,0.30691665 0 0 0 0.09525,0.22578 0.31749998,0.31749998 0 0 0 0.236361,0.0953 0.31397221,0.31397221 0 0 0 0.229306,-0.0953 0.2998611,0.2998611 0 0 0 0.09525,-0.22578 v -0.64558 h 0.09878 v 0.65264 a 0.40569442,0.40569442 0 0 1 -0.119945,0.2928 0.4092222,0.4092222 0 0 1 -0.299861,0.13053 z"
       style="fill:#231f20;stroke-width:0.35277775"
       id="path635" />
    <path
       inkscape:connector-curvature="0"
       d="m 13.105694,295.85347 h -0.09525 v -0.21167 c -0.01764,0.0247 -0.03881,0.0459 -0.05997,0.0706 a 0.58561108,0.58561108 0 1 1 0,-0.82903 c 0.02117,0.0247 0.04233,0.0459 0.05997,0.0706 v -0.80434 h 0.09525 z m -0.09525,-0.45861 v -0.1905 a 0.4409722,0.4409722 0 0 0 -0.134056,-0.24694 0.46213887,0.46213887 0 0 0 -0.352778,-0.14464 0.4727222,0.4727222 0 0 0 -0.352777,0.14464 0.48683331,0.48683331 0 0 0 0,0.68438 0.48330553,0.48330553 0 0 0 0.352777,0.14112 0.46213887,0.46213887 0 0 0 0.352778,-0.14464 0.4409722,0.4409722 0 0 0 0.134056,-0.23989 z"
       style="fill:#231f20;stroke-width:0.35277775"
       id="path637" />
    <path
       inkscape:connector-curvature="0"
       d="m 13.472583,294.46705 a 0.08819444,0.08819444 0 0 1 0.02822,0.067 0.09172222,0.09172222 0 0 1 -0.02822,0.0706 0.10230555,0.10230555 0 0 1 -0.134056,0 0.10583333,0.10583333 0 0 1 -0.02822,-0.0706 0.10230555,0.10230555 0 0 1 0.02822,-0.067 0.10230555,0.10230555 0 0 1 0.134056,0 z m 0,0.35278 v 1.05834 h -0.09878 v -1.05834 z"
       style="fill:#231f20;stroke-width:0.35277775"
       id="path639" />
    <path
       inkscape:connector-curvature="0"
       d="m 14.26986,294.71753 a 0.56091664,0.56091664 0 0 1 0.41275,0.16933 0.59266664,0.59266664 0 0 1 0,0.82903 0.56444442,0.56444442 0 0 1 -0.41275,0.17286 0.58561108,0.58561108 0 1 1 0,-1.17122 z m -0.352777,0.24341 a 0.47624998,0.47624998 0 0 0 0,0.68439 0.47977775,0.47977775 0 0 0 0.680861,0 0.47624998,0.47624998 0 0 0 0,-0.68439 0.4727222,0.4727222 0 0 0 -0.680861,0 z"
       style="fill:#231f20;stroke-width:0.35277775"
       id="path641" />
    <path
       id="path519-6-1"
       style="fill:#d1b531;fill-opacity:1;stroke-width:0.35277775"
       d="m 11.26759,199.92027 a 0.75141664,0.75141664 0 0 0 0,0.13052 1.1747499,1.1747499 0 0 0 2.00025,0.8255 1.2417777,1.2417777 0 0 0 0.105834,-0.11641 l 0.250472,0.0882 a 1.2453055,1.2453055 0 0 1 -0.183445,0.21167 1.411111,1.411111 0 0 1 -2.010833,0 1.411111,1.411111 0 0 1 1.001889,-2.41653 1.3723055,1.3723055 0 0 1 1.008944,0.41628 1.1923888,1.1923888 0 0 1 0.352778,0.87489 z m 0.04233,-0.23637 h 2.233084 a 1.1218333,1.1218333 0 0 0 -0.275167,-0.46566 1.1747499,1.1747499 0 0 0 -1.665111,0 1.2276666,1.2276666 0 0 0 -0.292806,0.4833 z"
       inkscape:connector-curvature="0" />
    <path
       id="path519-1"
       style="fill:#231f20;stroke-width:0.35277775"
       d="m 11.482243,199.82387 a 0.75141664,0.75141664 0 0 0 0,0.13052 1.1747499,1.1747499 0 0 0 2.00025,0.8255 1.2417777,1.2417777 0 0 0 0.105833,-0.11641 l 0.250472,0.0882 a 1.2453055,1.2453055 0 0 1 -0.183444,0.21167 1.411111,1.411111 0 0 1 -2.010834,0 1.411111,1.411111 0 0 1 1.001889,-2.41653 1.3723055,1.3723055 0 0 1 1.008945,0.41628 1.1923888,1.1923888 0 0 1 0.352777,0.87489 z m 0.04233,-0.23637 h 2.233086 a 1.1218333,1.1218333 0 0 0 -0.275167,-0.46566 1.1747499,1.1747499 0 0 0 -1.665111,0 1.2276666,1.2276666 0 0 0 -0.292805,0.4833 z"
       inkscape:connector-curvature="0" />
  </g>
  <g
     inkscape:groupmode="layer"
     id="layer4"
     inkscape:label="components"
     style="display:none"
     sodipodi:insensitive="true">
    <circle
       style="display:inline;fill:#ff0000;fill-opacity:1;stroke-width:0.10836853"
       id="VOLUME"
       cx="10.195894"
       cy="81.967247"
       r="5"
       inkscape:label="VOLUME">
      <desc
         id="desc10709">VOLUME</desc>
      <title
         id="title10707">VOLUME</title>
    </circle>
    <circle
       style="display:inline;fill:#ff0000;fill-opacity:1;stroke-width:0.10836853"
       id="STEREO"
       cx="10.195894"
       cy="40.554443"
       r="5"
       inkscape:label="STEREO">
      <desc
         id="desc10697">STEREO</desc>
      <title
         id="title10695">STEREO</title>
    </circle>
    <circle
       style="display:inline;fill:#0000ff;fill-opacity:1;stroke-width:0.09053109"
       id="LEFT"
       cx="5.2489996"
       cy="119.74405"
       r="4.1769996"
       inkscape:label="LEFT">
      <desc
         id="desc10721">LEFT</desc>
      <title
         id="title10719">LEFT</title>
    </circle>
    <circle
       style="display:inline;fill:#00ff00;fill-opacity:1;stroke-width:0.09053109"
       id="L"
       cx="5.2489996"
       cy="20.691116"
       r="4.1769996"
       inkscape:label="L">
      <desc
         id="desc10689">L</desc>
      <title
         id="title10687">L</title>
    </circle>
    <circle
       style="display:inline;fill:#00ff00;fill-opacity:1;stroke-width:0.09053109"
       id="STEREO_CVV"
       cx="10.195894"
       cy="59.118"
       r="4.1769996"
       inkscape:label="STEREO_CVV">
      <desc
         id="desc10705">STEREO_CVV</desc>
      <title
         id="title10703">STEREO_CVV</title>
    </circle>
    <circle
       style="display:inline;fill:#00ff00;fill-opacity:1;stroke-width:0.09053109"
       id="VOLUME_CVV"
       cx="10.195894"
       cy="102.29"
       r="4.1769996"
       inkscape:label="VOLUME_CVV">
      <desc
         id="desc10717">VOLUME_CVV</desc>
      <title
         id="title10715">VOLUME_CVV</title>
    </circle>
    <circle
       style="display:inline;fill:#ff0000;fill-opacity:1;stroke-width:0.04984953"
       id="VOLUME_CV"
       cx="10.195894"
       cy="92.185997"
       r="2.3"
       inkscape:label="VOLUME_CV">
      <desc
         id="desc10713">VOLUME_CV</desc>
      <title
         id="title10711">VOLUME_CV</title>
    </circle>
    <circle
       style="display:inline;fill:#ff0000;fill-opacity:1;stroke-width:0.04984953"
       id="STEREO_CV"
       cx="10.195894"
       cy="50.808689"
       r="2.3"
       inkscape:label="STEREO_CV">
      <desc
         id="desc10701">STEREO_CV</desc>
      <title
         id="title10699">STEREO_CV</title>
    </circle>
    <circle
       style="display:inline;fill:#00ff00;fill-opacity:1;stroke-width:0.09053109"
       id="R"
       cx="15.070999"
       cy="20.714741"
       r="4.1769996"
       inkscape:label="R">
      <desc
         id="desc10693">R</desc>
      <title
         id="title10691">R</title>
    </circle>
    <circle
       style="display:inline;fill:#0000ff;fill-opacity:1;stroke-width:0.09053109"
       id="RIGHT"
       cx="15.070999"
       cy="119.76767"
       r="4.1769996"
       inkscape:label="RIGHT">
      <desc
         id="desc10725">RIGHT</desc>
      <title
         id="title10723">RIGHT</title>
    </circle>
    <circle
       style="display:inline;fill:#ffff00;fill-opacity:1;stroke-width:0.03058161"
       id="path2795-8-6-5-7-2-0-8-0-9-6-5"
       cx="2.483"
       cy="126.412"
       r="1.411" />
    <circle
       r="1.411"
       cy="126.412"
       cx="2.483"
       id="circle16919"
       style="display:inline;fill:#ffff00;fill-opacity:1;stroke-width:0.03058161" />
    <circle
       r="1.411"
       cy="126.43562"
       cx="17.837"
       id="circle16919-1"
       style="display:inline;fill:#ffff00;fill-opacity:1;stroke-width:0.03058161" />
    <circle
       r="1.411"
       cy="2.0880001"
       cx="2.483"
       id="circle16919-5"
       style="display:inline;fill:#ffff00;fill-opacity:1;stroke-width:0.03058161" />
    <circle
       r="1.411"
       cy="2.1116235"
       cx="17.837"
       id="circle16919-1-8"
       style="display:inline;fill:#ffff00;fill-opacity:1;stroke-width:0.03058161" />
  </g>
</svg>
