<svg id="Layer_1" data-name="Layer 1" xmlns="http://www.w3.org/2000/svg" width="30mm" height="30mm" viewBox="0 0 85.04 85.04">
  <title>stocBigKnob</title>
  <g>
    <g>
      <polygon points="0.5 46.78 0.5 38.26 2.55 34.64 2.55 50.4 0.5 46.78" style="fill: #231f20"/>
      <path d="M2.05,36.53v12L1,46.65V38.39l1-1.86m1-3.79L0,38.12v8.8L3.05,52.3V32.74Z" transform="translate(0 0)" style="fill: #231f20"/>
    </g>
    <g>
      <polygon points="38.26 84.54 34.64 82.49 50.4 82.49 46.78 84.54 38.26 84.54" style="fill: #231f20"/>
      <path d="M48.5,83,46.65,84H38.39L36.53,83h12m3.8-1H32.74L38.12,85h8.8L52.3,82Z" transform="translate(0 0)" style="fill: #231f20"/>
    </g>
    <g>
      <polygon points="82.49 34.64 84.54 38.26 84.54 46.78 82.49 50.4 82.49 34.64" style="fill: #231f20"/>
      <path d="M83,36.53,84,38.39v8.26L83,48.5v-12m-1-3.79V52.3L85,46.92v-8.8L82,32.74Z" transform="translate(0 0)" style="fill: #231f20"/>
    </g>
    <g>
      <polygon points="34.64 2.55 38.26 0.5 46.78 0.5 50.4 2.55 34.64 2.55" style="fill: #231f20"/>
      <path d="M46.65,1l1.85,1h-12l1.86-1h8.26m.27-1h-8.8L32.74,3.05H52.3L46.92,0Z" transform="translate(0 0)" style="fill: #231f20"/>
    </g>
    <g>
      <g>
        <polygon points="16.64 74.24 10.8 68.4 9.74 64.57 20.47 75.3 16.64 74.24" style="fill: #231f20"/>
        <path d="M10.73,66.27l8,8-1.87-.52-5.65-5.65-.52-1.87m-2-3.39,1.6,5.78,6,6,5.78,1.59L8.75,62.88Z" transform="translate(0 0)" style="fill: #231f20"/>
      </g>
      <g>
        <polygon points="75.3 64.57 74.24 68.4 68.4 74.24 64.57 75.3 75.3 64.57" style="fill: #231f20"/>
        <path d="M74.31,66.27l-.52,1.87-5.65,5.65-1.87.52,8-8m2-3.39-13.4,13.4,5.78-1.59,6-6,1.59-5.78Z" transform="translate(0 0)" style="fill: #231f20"/>
      </g>
      <g>
        <polygon points="64.57 9.74 68.4 10.8 74.24 16.64 75.3 20.47 64.57 9.74" style="fill: #231f20"/>
        <path d="M66.27,10.73l1.87.52,5.65,5.65.52,1.87-8-8m-3.39-2,13.4,13.41-1.59-5.78-6-6-5.78-1.6Z" transform="translate(0 0)" style="fill: #231f20"/>
      </g>
      <g>
        <polygon points="10.8 16.64 16.64 10.8 20.47 9.74 9.74 20.47 10.8 16.64" style="fill: #231f20"/>
        <path d="M18.77,10.73l-8,8,.52-1.87,5.65-5.65,1.87-.52m3.39-2-5.78,1.6-6,6-1.6,5.78L22.16,8.75Z" transform="translate(0 0)" style="fill: #231f20"/>
      </g>
    </g>
    <g>
      <circle cx="42.52" cy="42.52" r="40.18" transform="translate(-17.61 42.52) rotate(-45)" style="fill: #1e1e1e"/>
      <path d="M42.52,2.84A39.68,39.68,0,1,1,2.84,42.52,39.72,39.72,0,0,1,42.52,2.84m0-1A40.68,40.68,0,1,0,83.2,42.52,40.68,40.68,0,0,0,42.52,1.84Z" transform="translate(0 0)" style="fill: #231f20"/>
    </g>
    <g>
      <path d="M42.52,75.37A32.85,32.85,0,1,1,75.37,42.52,32.89,32.89,0,0,1,42.52,75.37Z" transform="translate(0 0)" style="fill: #fff"/>
      <path d="M42.52,11.67A30.85,30.85,0,1,1,11.67,42.52,30.89,30.89,0,0,1,42.52,11.67m0-4A34.85,34.85,0,1,0,77.37,42.52,34.85,34.85,0,0,0,42.52,7.67Z" transform="translate(0 0)" style="fill: #bfbfbf"/>
    </g>
    <circle cx="42.52" cy="5.36" r="1.61" style="fill: #bfbfbf"/>
  </g>
</svg>
