<svg id="Layer_1" data-name="Layer 1" xmlns="http://www.w3.org/2000/svg" width="10mm" height="10mm" viewBox="0 0 28.35 28.35">
  <title>stocKnob</title>
  <g>
    <g>
      <circle cx="14.17" cy="14.17" r="14.05" style="fill: #121212"/>
      <path d="M14.17.25A13.93,13.93,0,1,1,.25,14.17,13.94,13.94,0,0,1,14.17.25m0-.25A14.18,14.18,0,1,0,28.35,14.17,14.18,14.18,0,0,0,14.17,0Z" transform="translate(0 0)" style="fill: #231f20"/>
    </g>
    <g>
      <path d="M14.17,26.27a12.1,12.1,0,1,1,12.1-12.1A12.12,12.12,0,0,1,14.17,26.27Z" transform="translate(0 0)" style="fill: #393839"/>
      <path d="M14.17,2.57a11.6,11.6,0,1,1-11.6,11.6,11.61,11.61,0,0,1,11.6-11.6m0-1a12.6,12.6,0,1,0,12.6,12.6,12.61,12.61,0,0,0-12.6-12.6Z" transform="translate(0 0)" style="fill: #333132"/>
    </g>
    <path d="M14.17,7.14h0a.82.82,0,0,1-.84-.8V3c0-.44.38-.52.84-.52h0c.47,0,.84,0,.84.52V6.34A.82.82,0,0,1,14.17,7.14Z" transform="translate(0 0)" style="fill: #bec0c2"/>
  </g>
</svg>
