<svg id="Layer_1" data-name="Layer 1" xmlns="http://www.w3.org/2000/svg" width="8" height="8" viewBox="0 0 8 8">
  <title>stocVite</title>
  <g>
    <g>
      <circle cx="4" cy="4" r="3.87" style="fill: #282828"/>
      <path d="M4,.25A3.75,3.75,0,1,1,.25,4,3.75,3.75,0,0,1,4,.25M4,0A4,4,0,1,0,8,4,4,4,0,0,0,4,0Z" style="fill: #3c3c3c"/>
    </g>
    <g>
      <path d="M4,7.35c-.14,0-.37-1-.39-2.91-1.92-.07-3-.3-3-.44s1-.37,2.91-.39c.07-1.92.3-3,.44-3s.37,1,.39,2.91c1.92.07,3,.3,3,.44s-1,.37-2.91.39C4.37,6.31,4.14,7.35,4,7.35Z" style="fill: #635e5c"/>
      <path d="M4,.71a8.12,8.12,0,0,1,.34,2.85v.1h.1A8.12,8.12,0,0,1,7.29,4a8.12,8.12,0,0,1-2.85.34h-.1v.1A8.12,8.12,0,0,1,4,7.29a8.12,8.12,0,0,1-.34-2.85v-.1h-.1A8.12,8.12,0,0,1,.71,4a8.12,8.12,0,0,1,2.85-.34h.1v-.1A8.12,8.12,0,0,1,4,.71M4,.6c-.23,0-.42,1.29-.44,3-1.67,0-3,.21-3,.44s1.29.42,3,.44c0,1.67.21,3,.44,3s.42-1.29.44-3c1.67,0,3-.21,3-.44s-1.29-.42-3-.44c0-1.67-.21-3-.44-3Z" style="fill: #232323"/>
    </g>
  </g>
</svg>
