<svg id="Layer_1" data-name="Layer 1" xmlns="http://www.w3.org/2000/svg" width="8" height="8" viewBox="0 0 8 8">
  <title>stocScrew</title>
  <g>
    <circle cx="4" cy="4" r="3.87" style="fill: #282828"/>
    <path d="M4,.25A3.75,3.75,0,1,1,.25,4,3.75,3.75,0,0,1,4,.25M4,0A4,4,0,1,0,8,4,4,4,0,0,0,4,0Z" style="fill: #3c3c3c"/>
  </g>
  <g>
    <path d="M4,7.51c-.24,0-.53-1.08-.58-2.88C1.57,4.53.49,4.24.49,4s1.08-.53,2.88-.58C3.47,1.57,3.76.49,4,.49s.53,1.08.58,2.88c1.85.1,2.93.39,2.93.63s-1.08.53-2.88.58C4.53,6.43,4.24,7.51,4,7.51Z" style="fill: #707070"/>
    <path d="M4,.54c.15,0,.47.86.53,2.83v.1h.1c2,.06,2.83.38,2.83.53s-.86.47-2.83.53h-.1v.1c-.06,2-.38,2.83-.53,2.83s-.47-.86-.53-2.83v-.1h-.1C1.4,4.47.54,4.15.54,4s.86-.47,2.83-.53h.1v-.1C3.53,1.4,3.85.54,4,.54m0-.1c-.32,0-.58,1.26-.63,2.93C1.7,3.42.44,3.68.44,4s1.26.58,2.93.63c0,1.67.31,2.93.63,2.93s.58-1.26.63-2.93c1.67,0,2.93-.31,2.93-.63S6.3,3.42,4.63,3.37C4.58,1.7,4.32.44,4,.44Z" style="fill: #232323"/>
  </g>
</svg>
