<?xml version="1.0" encoding="UTF-8" standalone="no"?>
<!-- Created with Inkscape (http://www.inkscape.org/) -->

<svg
   xmlns:dc="http://purl.org/dc/elements/1.1/"
   xmlns:cc="http://creativecommons.org/ns#"
   xmlns:rdf="http://www.w3.org/1999/02/22-rdf-syntax-ns#"
   xmlns:svg="http://www.w3.org/2000/svg"
   xmlns="http://www.w3.org/2000/svg"
   xmlns:sodipodi="http://sodipodi.sourceforge.net/DTD/sodipodi-0.dtd"
   xmlns:inkscape="http://www.inkscape.org/namespaces/inkscape"
   width="20.32mm"
   height="128.5mm"
   viewBox="0 0 20.32 128.5"
   version="1.1"
   id="svg8"
   inkscape:version="0.92.4 (5da689c313, 2019-01-14)"
   sodipodi:docname="polydelay.svg">
  <defs
     id="defs2">
    <clipPath
       id="clipPath833"
       clipPathUnits="userSpaceOnUse">
      <path
         inkscape:connector-curvature="0"
         id="path831"
         d="M 0,364.252 H 57.6 V 0 H 0 Z" />
    </clipPath>
    <clipPath
       id="clipPath859"
       clipPathUnits="userSpaceOnUse">
      <path
         inkscape:connector-curvature="0"
         id="path857"
         d="M 0,364.252 H 57.6 V 0 H 0 Z" />
    </clipPath>
    <clipPath
       id="clipPath907"
       clipPathUnits="userSpaceOnUse">
      <path
         inkscape:connector-curvature="0"
         id="path905"
         d="M 0,364.252 H 57.6 V 0 H 0 Z" />
    </clipPath>
    <clipPath
       id="clipPath969"
       clipPathUnits="userSpaceOnUse">
      <path
         inkscape:connector-curvature="0"
         id="path967"
         d="M 0,364.252 H 57.6 V 0 H 0 Z" />
    </clipPath>
    <clipPath
       id="clipPath1135"
       clipPathUnits="userSpaceOnUse">
      <path
         inkscape:connector-curvature="0"
         id="path1133"
         d="M 0,364.252 H 57.6 V 0 H 0 Z" />
    </clipPath>
    <clipPath
       id="clipPath1161"
       clipPathUnits="userSpaceOnUse">
      <path
         inkscape:connector-curvature="0"
         id="path1159"
         d="M 0,364.252 H 57.6 V 0 H 0 Z" />
    </clipPath>
    <clipPath
       id="clipPath1209"
       clipPathUnits="userSpaceOnUse">
      <path
         inkscape:connector-curvature="0"
         id="path1207"
         d="M 0,364.252 H 57.6 V 0 H 0 Z" />
    </clipPath>
    <clipPath
       id="clipPath1315"
       clipPathUnits="userSpaceOnUse">
      <path
         inkscape:connector-curvature="0"
         id="path1313"
         d="M 0,364.252 H 57.6 V 0 H 0 Z" />
    </clipPath>
    <clipPath
       id="clipPath1631"
       clipPathUnits="userSpaceOnUse">
      <path
         inkscape:connector-curvature="0"
         id="path1629"
         d="M 0,364.252 H 57.6 V 0 H 0 Z" />
    </clipPath>
    <clipPath
       id="clipPath1904"
       clipPathUnits="userSpaceOnUse">
      <path
         inkscape:connector-curvature="0"
         id="path1902"
         d="M 0,364.252 H 57.6 V 0 H 0 Z" />
    </clipPath>
    <clipPath
       id="clipPath1914"
       clipPathUnits="userSpaceOnUse">
      <path
         inkscape:connector-curvature="0"
         id="path1912"
         d="m 16.958,292.046 h 23.684 v 23.685 H 16.958 Z" />
    </clipPath>
    <clipPath
       id="clipPath1922"
       clipPathUnits="userSpaceOnUse">
      <path
         inkscape:connector-curvature="0"
         id="path1920"
         d="M 16.4575,316.231 H 41.1551 V 291.533 H 16.4575 Z" />
    </clipPath>
    <clipPath
       id="clipPath1926"
       clipPathUnits="userSpaceOnUse">
      <path
         inkscape:connector-curvature="0"
         id="path1924"
         d="M 16.4575,316.23 H 41.1553 V 291.533 H 16.4575 Z" />
    </clipPath>
    <mask
       id="mask1928"
       height="1"
       width="1"
       y="0"
       x="0"
       maskUnits="userSpaceOnUse">
      <g
         id="g1946">
        <g
           id="g1944"
           clip-path="url(#clipPath1922)">
          <path
             inkscape:connector-curvature="0"
             id="path1930"
             style="fill:#000000;fill-opacity:1;fill-rule:nonzero;stroke:none"
             d="M 16.458,316.23 H 41.156 V 291.533 H 16.458 Z" />
          <g
             id="g1942">
            <g
               id="g1932" />
            <g
               id="g1940">
              <g
                 id="g1938"
                 clip-path="url(#clipPath1926)">
                <g
                   id="g1936"
                   transform="translate(28.8062,315.7305)">
                  <path
                     inkscape:connector-curvature="0"
                     id="path1934"
                     style="fill:#ffffff;fill-opacity:1;fill-rule:nonzero;stroke:none"
                     d="m 0,0 c 6.544,0 11.849,-5.305 11.849,-11.849 0,-6.544 -5.305,-11.848 -11.849,-11.848 -6.544,0 -11.849,5.304 -11.849,11.848 C -11.849,-5.305 -6.544,0 0,0" />
                </g>
              </g>
            </g>
          </g>
        </g>
      </g>
    </mask>
    <clipPath
       id="clipPath1954"
       clipPathUnits="userSpaceOnUse">
      <path
         inkscape:connector-curvature="0"
         id="path1952"
         d="M 16.4575,316.231 H 41.1551 V 291.533 H 16.4575 Z" />
    </clipPath>
    <clipPath
       id="clipPath1974"
       clipPathUnits="userSpaceOnUse">
      <path
         inkscape:connector-curvature="0"
         id="path1972"
         d="M 17.7422,314.946 H 39.8704 V 292.818 H 17.7422 Z" />
    </clipPath>
    <clipPath
       id="clipPath1978"
       clipPathUnits="userSpaceOnUse">
      <path
         inkscape:connector-curvature="0"
         id="path1976"
         d="M 17.7422,314.946 H 39.8701 V 292.818 H 17.7422 Z" />
    </clipPath>
    <mask
       id="mask1980"
       height="1"
       width="1"
       y="0"
       x="0"
       maskUnits="userSpaceOnUse">
      <g
         id="g1998">
        <g
           id="g1996"
           clip-path="url(#clipPath1974)">
          <path
             inkscape:connector-curvature="0"
             id="path1982"
             style="fill:#000000;fill-opacity:1;fill-rule:nonzero;stroke:none"
             d="M 17.742,314.946 H 39.87 V 292.818 H 17.742 Z" />
          <g
             id="g1994">
            <g
               id="g1984" />
            <g
               id="g1992">
              <g
                 id="g1990"
                 clip-path="url(#clipPath1978)">
                <g
                   id="g1988"
                   transform="translate(28.8062,314.6958)">
                  <path
                     inkscape:connector-curvature="0"
                     id="path1986"
                     style="fill:#ffffff;fill-opacity:1;fill-rule:nonzero;stroke:none"
                     d="m 0,0 c 5.972,0 10.814,-4.841 10.814,-10.814 0,-5.972 -4.842,-10.814 -10.814,-10.814 -5.972,0 -10.814,4.842 -10.814,10.814 C -10.814,-4.841 -5.972,0 0,0" />
                </g>
              </g>
            </g>
          </g>
        </g>
      </g>
    </mask>
    <clipPath
       id="clipPath2006"
       clipPathUnits="userSpaceOnUse">
      <path
         inkscape:connector-curvature="0"
         id="path2004"
         d="M 17.7422,314.946 H 39.8704 V 292.818 H 17.7422 Z" />
    </clipPath>
    <clipPath
       id="clipPath2026"
       clipPathUnits="userSpaceOnUse">
      <path
         inkscape:connector-curvature="0"
         id="path2024"
         d="m 17.992,303.882 c 0,-5.972 4.842,-10.814 10.814,-10.814 v 0 c 5.973,0 10.814,4.842 10.814,10.814 v 0 c 0,5.973 -4.841,10.814 -10.814,10.814 v 0 c -5.972,0 -10.814,-4.841 -10.814,-10.814" />
    </clipPath>
    <clipPath
       id="clipPath2038"
       clipPathUnits="userSpaceOnUse">
      <path
         inkscape:connector-curvature="0"
         id="path2036"
         d="m 16.958,292.046 h 23.684 v 23.685 H 16.958 Z" />
    </clipPath>
    <clipPath
       id="clipPath2046"
       clipPathUnits="userSpaceOnUse">
      <path
         inkscape:connector-curvature="0"
         id="path2044"
         d="M 20.4137,312.275 H 37.199 V 295.489 H 20.4137 Z" />
    </clipPath>
    <clipPath
       id="clipPath2050"
       clipPathUnits="userSpaceOnUse">
      <path
         inkscape:connector-curvature="0"
         id="path2048"
         d="M 20.4136,312.274 H 37.1992 V 295.489 H 20.4136 Z" />
    </clipPath>
    <mask
       id="mask2052"
       height="1"
       width="1"
       y="0"
       x="0"
       maskUnits="userSpaceOnUse">
      <g
         id="g2070">
        <g
           id="g2068"
           clip-path="url(#clipPath2046)">
          <path
             inkscape:connector-curvature="0"
             id="path2054"
             style="fill:#000000;fill-opacity:1;fill-rule:nonzero;stroke:none"
             d="M 20.414,312.274 H 37.2 V 295.489 H 20.414 Z" />
          <g
             id="g2066">
            <g
               id="g2056" />
            <g
               id="g2064">
              <g
                 id="g2062"
                 clip-path="url(#clipPath2050)">
                <g
                   id="g2060"
                   transform="translate(28.8062,311.7744)">
                  <path
                     inkscape:connector-curvature="0"
                     id="path2058"
                     style="fill:#ffffff;fill-opacity:0.77000397;fill-rule:nonzero;stroke:none"
                     d="m 0,0 c 4.359,0 7.893,-3.534 7.893,-7.893 0,-4.358 -3.534,-7.892 -7.893,-7.892 -4.359,0 -7.893,3.534 -7.893,7.892 C -7.893,-3.534 -4.359,0 0,0" />
                </g>
              </g>
            </g>
          </g>
        </g>
      </g>
    </mask>
    <clipPath
       id="clipPath2078"
       clipPathUnits="userSpaceOnUse">
      <path
         inkscape:connector-curvature="0"
         id="path2076"
         d="M 20.4137,312.275 H 37.199 V 295.489 H 20.4137 Z" />
    </clipPath>
    <clipPath
       id="clipPath2082"
       clipPathUnits="userSpaceOnUse">
      <path
         inkscape:connector-curvature="0"
         id="path2080"
         d="M 20.9137,311.775 H 36.699 V 295.989 H 20.9137 Z" />
    </clipPath>
    <clipPath
       id="clipPath2110"
       clipPathUnits="userSpaceOnUse">
      <path
         inkscape:connector-curvature="0"
         id="path2108"
         d="M 23.009,309.679 H 34.6036 V 298.085 H 23.009 Z" />
    </clipPath>
    <clipPath
       id="clipPath2114"
       clipPathUnits="userSpaceOnUse">
      <path
         inkscape:connector-curvature="0"
         id="path2112"
         d="M 23.0088,309.679 H 34.6035 V 298.084 H 23.0088 Z" />
    </clipPath>
    <mask
       id="mask2116"
       height="1"
       width="1"
       y="0"
       x="0"
       maskUnits="userSpaceOnUse">
      <g
         id="g2134">
        <g
           id="g2132"
           clip-path="url(#clipPath2110)">
          <path
             inkscape:connector-curvature="0"
             id="path2118"
             style="fill:#000000;fill-opacity:1;fill-rule:nonzero;stroke:none"
             d="M 23.009,309.679 H 34.604 V 298.084 H 23.009 Z" />
          <g
             id="g2130">
            <g
               id="g2120" />
            <g
               id="g2128">
              <g
                 id="g2126"
                 clip-path="url(#clipPath2114)">
                <g
                   id="g2124"
                   transform="translate(28.8062,309.1792)">
                  <path
                     inkscape:connector-curvature="0"
                     id="path2122"
                     style="fill:#ffffff;fill-opacity:1;fill-rule:nonzero;stroke:none"
                     d="m 0,0 c 2.926,0 5.297,-2.372 5.297,-5.297 0,-2.926 -2.371,-5.298 -5.297,-5.298 -2.925,0 -5.297,2.372 -5.297,5.298 C -5.297,-2.372 -2.925,0 0,0" />
                </g>
              </g>
            </g>
          </g>
        </g>
      </g>
    </mask>
    <clipPath
       id="clipPath2142"
       clipPathUnits="userSpaceOnUse">
      <path
         inkscape:connector-curvature="0"
         id="path2140"
         d="M 23.009,309.679 H 34.6036 V 298.085 H 23.009 Z" />
    </clipPath>
    <clipPath
       id="clipPath2162"
       clipPathUnits="userSpaceOnUse">
      <path
         inkscape:connector-curvature="0"
         id="path2160"
         d="M 16.958,13.279 H 40.642 V 36.963 H 16.958 Z" />
    </clipPath>
    <clipPath
       id="clipPath2170"
       clipPathUnits="userSpaceOnUse">
      <path
         inkscape:connector-curvature="0"
         id="path2168"
         d="M 16.4575,37.4629 H 41.1551 V 12.7652 H 16.4575 Z" />
    </clipPath>
    <clipPath
       id="clipPath2174"
       clipPathUnits="userSpaceOnUse">
      <path
         inkscape:connector-curvature="0"
         id="path2172"
         d="M 16.4575,37.4629 H 41.1553 V 12.7656 H 16.4575 Z" />
    </clipPath>
    <mask
       id="mask2176"
       height="1"
       width="1"
       y="0"
       x="0"
       maskUnits="userSpaceOnUse">
      <g
         id="g2194">
        <g
           id="g2192"
           clip-path="url(#clipPath2170)">
          <path
             inkscape:connector-curvature="0"
             id="path2178"
             style="fill:#000000;fill-opacity:1;fill-rule:nonzero;stroke:none"
             d="M 16.458,37.463 H 41.156 V 12.766 H 16.458 Z" />
          <g
             id="g2190">
            <g
               id="g2180" />
            <g
               id="g2188">
              <g
                 id="g2186"
                 clip-path="url(#clipPath2174)">
                <g
                   id="g2184"
                   transform="translate(28.8062,36.9629)">
                  <path
                     inkscape:connector-curvature="0"
                     id="path2182"
                     style="fill:#ffffff;fill-opacity:1;fill-rule:nonzero;stroke:none"
                     d="m 0,0 c 6.544,0 11.849,-5.305 11.849,-11.849 0,-6.544 -5.305,-11.848 -11.849,-11.848 -6.544,0 -11.849,5.304 -11.849,11.848 C -11.849,-5.305 -6.544,0 0,0" />
                </g>
              </g>
            </g>
          </g>
        </g>
      </g>
    </mask>
    <clipPath
       id="clipPath2202"
       clipPathUnits="userSpaceOnUse">
      <path
         inkscape:connector-curvature="0"
         id="path2200"
         d="M 16.4575,37.4629 H 41.1551 V 12.7652 H 16.4575 Z" />
    </clipPath>
    <clipPath
       id="clipPath2222"
       clipPathUnits="userSpaceOnUse">
      <path
         inkscape:connector-curvature="0"
         id="path2220"
         d="M 17.7422,36.1781 H 39.8704 V 14.05 H 17.7422 Z" />
    </clipPath>
    <clipPath
       id="clipPath2226"
       clipPathUnits="userSpaceOnUse">
      <path
         inkscape:connector-curvature="0"
         id="path2224"
         d="M 17.7422,36.1777 H 39.8701 V 14.0498 H 17.7422 Z" />
    </clipPath>
    <mask
       id="mask2228"
       height="1"
       width="1"
       y="0"
       x="0"
       maskUnits="userSpaceOnUse">
      <g
         id="g2246">
        <g
           id="g2244"
           clip-path="url(#clipPath2222)">
          <path
             inkscape:connector-curvature="0"
             id="path2230"
             style="fill:#000000;fill-opacity:1;fill-rule:nonzero;stroke:none"
             d="M 17.742,36.178 H 39.87 V 14.05 H 17.742 Z" />
          <g
             id="g2242">
            <g
               id="g2232" />
            <g
               id="g2240">
              <g
                 id="g2238"
                 clip-path="url(#clipPath2226)">
                <g
                   id="g2236"
                   transform="translate(28.8062,35.9277)">
                  <path
                     inkscape:connector-curvature="0"
                     id="path2234"
                     style="fill:#ffffff;fill-opacity:1;fill-rule:nonzero;stroke:none"
                     d="m 0,0 c 5.972,0 10.814,-4.841 10.814,-10.813 0,-5.973 -4.842,-10.815 -10.814,-10.815 -5.972,0 -10.814,4.842 -10.814,10.815 C -10.814,-4.841 -5.972,0 0,0" />
                </g>
              </g>
            </g>
          </g>
        </g>
      </g>
    </mask>
    <clipPath
       id="clipPath2254"
       clipPathUnits="userSpaceOnUse">
      <path
         inkscape:connector-curvature="0"
         id="path2252"
         d="M 17.7422,36.1781 H 39.8704 V 14.05 H 17.7422 Z" />
    </clipPath>
    <clipPath
       id="clipPath2274"
       clipPathUnits="userSpaceOnUse">
      <path
         inkscape:connector-curvature="0"
         id="path2272"
         d="m 17.992,25.115 c 0,-5.974 4.842,-10.815 10.814,-10.815 v 0 c 5.973,0 10.814,4.841 10.814,10.815 v 0 c 0,5.972 -4.841,10.813 -10.814,10.813 v 0 c -5.972,0 -10.814,-4.841 -10.814,-10.813" />
    </clipPath>
    <clipPath
       id="clipPath2286"
       clipPathUnits="userSpaceOnUse">
      <path
         inkscape:connector-curvature="0"
         id="path2284"
         d="M 16.958,13.279 H 40.642 V 36.963 H 16.958 Z" />
    </clipPath>
    <clipPath
       id="clipPath2294"
       clipPathUnits="userSpaceOnUse">
      <path
         inkscape:connector-curvature="0"
         id="path2292"
         d="M 20.4137,33.5067 H 37.199 V 16.7214 H 20.4137 Z" />
    </clipPath>
    <clipPath
       id="clipPath2298"
       clipPathUnits="userSpaceOnUse">
      <path
         inkscape:connector-curvature="0"
         id="path2296"
         d="M 20.4136,33.5068 H 37.1992 V 16.7217 H 20.4136 Z" />
    </clipPath>
    <mask
       id="mask2300"
       height="1"
       width="1"
       y="0"
       x="0"
       maskUnits="userSpaceOnUse">
      <g
         id="g2318">
        <g
           id="g2316"
           clip-path="url(#clipPath2294)">
          <path
             inkscape:connector-curvature="0"
             id="path2302"
             style="fill:#000000;fill-opacity:1;fill-rule:nonzero;stroke:none"
             d="M 20.414,33.507 H 37.2 V 16.722 H 20.414 Z" />
          <g
             id="g2314">
            <g
               id="g2304" />
            <g
               id="g2312">
              <g
                 id="g2310"
                 clip-path="url(#clipPath2298)">
                <g
                   id="g2308"
                   transform="translate(28.8062,33.0068)">
                  <path
                     inkscape:connector-curvature="0"
                     id="path2306"
                     style="fill:#ffffff;fill-opacity:0.77000397;fill-rule:nonzero;stroke:none"
                     d="m 0,0 c 4.359,0 7.893,-3.534 7.893,-7.893 0,-4.359 -3.534,-7.892 -7.893,-7.892 -4.359,0 -7.893,3.533 -7.893,7.892 C -7.893,-3.534 -4.359,0 0,0" />
                </g>
              </g>
            </g>
          </g>
        </g>
      </g>
    </mask>
    <clipPath
       id="clipPath2326"
       clipPathUnits="userSpaceOnUse">
      <path
         inkscape:connector-curvature="0"
         id="path2324"
         d="M 20.4137,33.5067 H 37.199 V 16.7214 H 20.4137 Z" />
    </clipPath>
    <clipPath
       id="clipPath2330"
       clipPathUnits="userSpaceOnUse">
      <path
         inkscape:connector-curvature="0"
         id="path2328"
         d="M 20.9137,33.0067 H 36.699 V 17.2214 H 20.9137 Z" />
    </clipPath>
    <clipPath
       id="clipPath2358"
       clipPathUnits="userSpaceOnUse">
      <path
         inkscape:connector-curvature="0"
         id="path2356"
         d="M 23.009,30.9114 H 34.6036 V 19.3167 H 23.009 Z" />
    </clipPath>
    <clipPath
       id="clipPath2362"
       clipPathUnits="userSpaceOnUse">
      <path
         inkscape:connector-curvature="0"
         id="path2360"
         d="M 23.0088,30.9111 H 34.6035 V 19.3164 H 23.0088 Z" />
    </clipPath>
    <mask
       id="mask2364"
       height="1"
       width="1"
       y="0"
       x="0"
       maskUnits="userSpaceOnUse">
      <g
         id="g2382">
        <g
           id="g2380"
           clip-path="url(#clipPath2358)">
          <path
             inkscape:connector-curvature="0"
             id="path2366"
             style="fill:#000000;fill-opacity:1;fill-rule:nonzero;stroke:none"
             d="M 23.009,30.911 H 34.604 V 19.316 H 23.009 Z" />
          <g
             id="g2378">
            <g
               id="g2368" />
            <g
               id="g2376">
              <g
                 id="g2374"
                 clip-path="url(#clipPath2362)">
                <g
                   id="g2372"
                   transform="translate(28.8062,30.4111)">
                  <path
                     inkscape:connector-curvature="0"
                     id="path2370"
                     style="fill:#ffffff;fill-opacity:1;fill-rule:nonzero;stroke:none"
                     d="m 0,0 c 2.926,0 5.297,-2.371 5.297,-5.297 0,-2.926 -2.371,-5.298 -5.297,-5.298 -2.925,0 -5.297,2.372 -5.297,5.298 C -5.297,-2.371 -2.925,0 0,0" />
                </g>
              </g>
            </g>
          </g>
        </g>
      </g>
    </mask>
    <clipPath
       id="clipPath2390"
       clipPathUnits="userSpaceOnUse">
      <path
         inkscape:connector-curvature="0"
         id="path2388"
         d="M 23.009,30.9114 H 34.6036 V 19.3167 H 23.009 Z" />
    </clipPath>
    <clipPath
       id="clipPath2410"
       clipPathUnits="userSpaceOnUse">
      <path
         inkscape:connector-curvature="0"
         id="path2408"
         d="M 17.204,60.475 H 40.889 V 84.159 H 17.204 Z" />
    </clipPath>
    <clipPath
       id="clipPath2418"
       clipPathUnits="userSpaceOnUse">
      <path
         inkscape:connector-curvature="0"
         id="path2416"
         d="M 16.7048,84.6593 H 41.4024 V 59.9617 H 16.7048 Z" />
    </clipPath>
    <clipPath
       id="clipPath2422"
       clipPathUnits="userSpaceOnUse">
      <path
         inkscape:connector-curvature="0"
         id="path2420"
         d="M 16.7046,84.6592 H 41.4023 V 59.9619 H 16.7046 Z" />
    </clipPath>
    <mask
       id="mask2424"
       height="1"
       width="1"
       y="0"
       x="0"
       maskUnits="userSpaceOnUse">
      <g
         id="g2442">
        <g
           id="g2440"
           clip-path="url(#clipPath2418)">
          <path
             inkscape:connector-curvature="0"
             id="path2426"
             style="fill:#000000;fill-opacity:1;fill-rule:nonzero;stroke:none"
             d="M 16.705,84.659 H 41.403 V 59.962 H 16.705 Z" />
          <g
             id="g2438">
            <g
               id="g2428" />
            <g
               id="g2436">
              <g
                 id="g2434"
                 clip-path="url(#clipPath2422)">
                <g
                   id="g2432"
                   transform="translate(29.0537,84.1592)">
                  <path
                     inkscape:connector-curvature="0"
                     id="path2430"
                     style="fill:#ffffff;fill-opacity:1;fill-rule:nonzero;stroke:none"
                     d="m 0,0 c 6.544,0 11.849,-5.305 11.849,-11.849 0,-6.544 -5.305,-11.848 -11.849,-11.848 -6.544,0 -11.849,5.304 -11.849,11.848 C -11.849,-5.305 -6.544,0 0,0" />
                </g>
              </g>
            </g>
          </g>
        </g>
      </g>
    </mask>
    <clipPath
       id="clipPath2450"
       clipPathUnits="userSpaceOnUse">
      <path
         inkscape:connector-curvature="0"
         id="path2448"
         d="M 16.7048,84.6593 H 41.4024 V 59.9617 H 16.7048 Z" />
    </clipPath>
    <clipPath
       id="clipPath2470"
       clipPathUnits="userSpaceOnUse">
      <path
         inkscape:connector-curvature="0"
         id="path2468"
         d="M 17.9895,83.3746 H 40.1177 V 61.2464 H 17.9895 Z" />
    </clipPath>
    <clipPath
       id="clipPath2474"
       clipPathUnits="userSpaceOnUse">
      <path
         inkscape:connector-curvature="0"
         id="path2472"
         d="M 17.9897,83.375 H 40.1182 V 61.2461 H 17.9897 Z" />
    </clipPath>
    <mask
       id="mask2476"
       height="1"
       width="1"
       y="0"
       x="0"
       maskUnits="userSpaceOnUse">
      <g
         id="g2494">
        <g
           id="g2492"
           clip-path="url(#clipPath2470)">
          <path
             inkscape:connector-curvature="0"
             id="path2478"
             style="fill:#000000;fill-opacity:1;fill-rule:nonzero;stroke:none"
             d="M 17.99,83.375 H 40.118 V 61.246 H 17.99 Z" />
          <g
             id="g2490">
            <g
               id="g2480" />
            <g
               id="g2488">
              <g
                 id="g2486"
                 clip-path="url(#clipPath2474)">
                <g
                   id="g2484"
                   transform="translate(29.0537,83.125)">
                  <path
                     inkscape:connector-curvature="0"
                     id="path2482"
                     style="fill:#ffffff;fill-opacity:1;fill-rule:nonzero;stroke:none"
                     d="m 0,0 c 5.973,0 10.814,-4.842 10.814,-10.814 0,-5.973 -4.841,-10.815 -10.814,-10.815 -5.973,0 -10.814,4.842 -10.814,10.815 C -10.814,-4.842 -5.973,0 0,0" />
                </g>
              </g>
            </g>
          </g>
        </g>
      </g>
    </mask>
    <clipPath
       id="clipPath2502"
       clipPathUnits="userSpaceOnUse">
      <path
         inkscape:connector-curvature="0"
         id="path2500"
         d="M 17.9895,83.3746 H 40.1177 V 61.2464 H 17.9895 Z" />
    </clipPath>
    <clipPath
       id="clipPath2522"
       clipPathUnits="userSpaceOnUse">
      <path
         inkscape:connector-curvature="0"
         id="path2520"
         d="m 18.239,72.311 c 0,-5.973 4.842,-10.815 10.815,-10.815 v 0 c 5.972,0 10.814,4.842 10.814,10.815 v 0 c 0,5.972 -4.842,10.814 -10.814,10.814 v 0 c -5.973,0 -10.815,-4.842 -10.815,-10.814" />
    </clipPath>
    <clipPath
       id="clipPath2534"
       clipPathUnits="userSpaceOnUse">
      <path
         inkscape:connector-curvature="0"
         id="path2532"
         d="M 17.204,60.475 H 40.889 V 84.159 H 17.204 Z" />
    </clipPath>
    <clipPath
       id="clipPath2542"
       clipPathUnits="userSpaceOnUse">
      <path
         inkscape:connector-curvature="0"
         id="path2540"
         d="M 20.661,80.7032 H 37.4463 V 63.9179 H 20.661 Z" />
    </clipPath>
    <clipPath
       id="clipPath2546"
       clipPathUnits="userSpaceOnUse">
      <path
         inkscape:connector-curvature="0"
         id="path2544"
         d="M 20.6611,80.7031 H 37.4463 V 63.918 H 20.6611 Z" />
    </clipPath>
    <mask
       id="mask2548"
       height="1"
       width="1"
       y="0"
       x="0"
       maskUnits="userSpaceOnUse">
      <g
         id="g2566">
        <g
           id="g2564"
           clip-path="url(#clipPath2542)">
          <path
             inkscape:connector-curvature="0"
             id="path2550"
             style="fill:#000000;fill-opacity:1;fill-rule:nonzero;stroke:none"
             d="M 20.661,80.703 H 37.446 V 63.918 H 20.661 Z" />
          <g
             id="g2562">
            <g
               id="g2552" />
            <g
               id="g2560">
              <g
                 id="g2558"
                 clip-path="url(#clipPath2546)">
                <g
                   id="g2556"
                   transform="translate(29.0537,80.2031)">
                  <path
                     inkscape:connector-curvature="0"
                     id="path2554"
                     style="fill:#ffffff;fill-opacity:0.77000397;fill-rule:nonzero;stroke:none"
                     d="m 0,0 c 4.358,0 7.893,-3.533 7.893,-7.893 0,-4.359 -3.535,-7.892 -7.893,-7.892 -4.359,0 -7.893,3.533 -7.893,7.892 C -7.893,-3.533 -4.359,0 0,0" />
                </g>
              </g>
            </g>
          </g>
        </g>
      </g>
    </mask>
    <clipPath
       id="clipPath2574"
       clipPathUnits="userSpaceOnUse">
      <path
         inkscape:connector-curvature="0"
         id="path2572"
         d="M 20.661,80.7032 H 37.4463 V 63.9179 H 20.661 Z" />
    </clipPath>
    <clipPath
       id="clipPath2578"
       clipPathUnits="userSpaceOnUse">
      <path
         inkscape:connector-curvature="0"
         id="path2576"
         d="M 21.161,80.2032 H 36.9463 V 64.4179 H 21.161 Z" />
    </clipPath>
    <clipPath
       id="clipPath2606"
       clipPathUnits="userSpaceOnUse">
      <path
         inkscape:connector-curvature="0"
         id="path2604"
         d="M 23.2563,78.1078 H 34.8509 V 66.5132 H 23.2563 Z" />
    </clipPath>
    <clipPath
       id="clipPath2610"
       clipPathUnits="userSpaceOnUse">
      <path
         inkscape:connector-curvature="0"
         id="path2608"
         d="M 23.2563,78.1074 H 34.8506 V 66.5127 H 23.2563 Z" />
    </clipPath>
    <mask
       id="mask2612"
       height="1"
       width="1"
       y="0"
       x="0"
       maskUnits="userSpaceOnUse">
      <g
         id="g2630">
        <g
           id="g2628"
           clip-path="url(#clipPath2606)">
          <path
             inkscape:connector-curvature="0"
             id="path2614"
             style="fill:#000000;fill-opacity:1;fill-rule:nonzero;stroke:none"
             d="M 23.256,78.107 H 34.85 V 66.512 H 23.256 Z" />
          <g
             id="g2626">
            <g
               id="g2616" />
            <g
               id="g2624">
              <g
                 id="g2622"
                 clip-path="url(#clipPath2610)">
                <g
                   id="g2620"
                   transform="translate(29.0537,77.6074)">
                  <path
                     inkscape:connector-curvature="0"
                     id="path2618"
                     style="fill:#ffffff;fill-opacity:1;fill-rule:nonzero;stroke:none"
                     d="m 0,0 c 2.926,0 5.297,-2.371 5.297,-5.297 0,-2.926 -2.371,-5.298 -5.297,-5.298 -2.926,0 -5.297,2.372 -5.297,5.298 C -5.297,-2.371 -2.926,0 0,0" />
                </g>
              </g>
            </g>
          </g>
        </g>
      </g>
    </mask>
    <clipPath
       id="clipPath2638"
       clipPathUnits="userSpaceOnUse">
      <path
         inkscape:connector-curvature="0"
         id="path2636"
         d="M 23.2563,78.1078 H 34.8509 V 66.5132 H 23.2563 Z" />
    </clipPath>
    <clipPath
       id="clipPath2658"
       clipPathUnits="userSpaceOnUse">
      <path
         inkscape:connector-curvature="0"
         id="path2656"
         d="m 17.204,174.421 h 23.685 v 23.684 H 17.204 Z" />
    </clipPath>
    <clipPath
       id="clipPath2666"
       clipPathUnits="userSpaceOnUse">
      <path
         inkscape:connector-curvature="0"
         id="path2664"
         d="M 16.7048,198.606 H 41.4024 V 173.908 H 16.7048 Z" />
    </clipPath>
    <clipPath
       id="clipPath2670"
       clipPathUnits="userSpaceOnUse">
      <path
         inkscape:connector-curvature="0"
         id="path2668"
         d="M 16.7046,198.605 H 41.4023 V 173.908 H 16.7046 Z" />
    </clipPath>
    <mask
       id="mask2672"
       height="1"
       width="1"
       y="0"
       x="0"
       maskUnits="userSpaceOnUse">
      <g
         id="g2690">
        <g
           id="g2688"
           clip-path="url(#clipPath2666)">
          <path
             inkscape:connector-curvature="0"
             id="path2674"
             style="fill:#000000;fill-opacity:1;fill-rule:nonzero;stroke:none"
             d="M 16.705,198.605 H 41.403 V 173.908 H 16.705 Z" />
          <g
             id="g2686">
            <g
               id="g2676" />
            <g
               id="g2684">
              <g
                 id="g2682"
                 clip-path="url(#clipPath2670)">
                <g
                   id="g2680"
                   transform="translate(29.0537,198.1055)">
                  <path
                     inkscape:connector-curvature="0"
                     id="path2678"
                     style="fill:#ffffff;fill-opacity:1;fill-rule:nonzero;stroke:none"
                     d="m 0,0 c 6.544,0 11.849,-5.305 11.849,-11.849 0,-6.544 -5.305,-11.848 -11.849,-11.848 -6.544,0 -11.849,5.304 -11.849,11.848 C -11.849,-5.305 -6.544,0 0,0" />
                </g>
              </g>
            </g>
          </g>
        </g>
      </g>
    </mask>
    <clipPath
       id="clipPath2698"
       clipPathUnits="userSpaceOnUse">
      <path
         inkscape:connector-curvature="0"
         id="path2696"
         d="M 16.7048,198.606 H 41.4024 V 173.908 H 16.7048 Z" />
    </clipPath>
    <clipPath
       id="clipPath2718"
       clipPathUnits="userSpaceOnUse">
      <path
         inkscape:connector-curvature="0"
         id="path2716"
         d="M 17.9895,197.321 H 40.1177 V 175.193 H 17.9895 Z" />
    </clipPath>
    <clipPath
       id="clipPath2722"
       clipPathUnits="userSpaceOnUse">
      <path
         inkscape:connector-curvature="0"
         id="path2720"
         d="M 17.9897,197.321 H 40.1182 V 175.192 H 17.9897 Z" />
    </clipPath>
    <mask
       id="mask2724"
       height="1"
       width="1"
       y="0"
       x="0"
       maskUnits="userSpaceOnUse">
      <g
         id="g2742">
        <g
           id="g2740"
           clip-path="url(#clipPath2718)">
          <path
             inkscape:connector-curvature="0"
             id="path2726"
             style="fill:#000000;fill-opacity:1;fill-rule:nonzero;stroke:none"
             d="M 17.99,197.321 H 40.118 V 175.193 H 17.99 Z" />
          <g
             id="g2738">
            <g
               id="g2728" />
            <g
               id="g2736">
              <g
                 id="g2734"
                 clip-path="url(#clipPath2722)">
                <g
                   id="g2732"
                   transform="translate(29.0537,197.0708)">
                  <path
                     inkscape:connector-curvature="0"
                     id="path2730"
                     style="fill:#ffffff;fill-opacity:1;fill-rule:nonzero;stroke:none"
                     d="m 0,0 c 5.973,0 10.814,-4.842 10.814,-10.814 0,-5.973 -4.841,-10.814 -10.814,-10.814 -5.973,0 -10.814,4.841 -10.814,10.814 C -10.814,-4.842 -5.973,0 0,0" />
                </g>
              </g>
            </g>
          </g>
        </g>
      </g>
    </mask>
    <clipPath
       id="clipPath2750"
       clipPathUnits="userSpaceOnUse">
      <path
         inkscape:connector-curvature="0"
         id="path2748"
         d="M 17.9895,197.321 H 40.1177 V 175.193 H 17.9895 Z" />
    </clipPath>
    <clipPath
       id="clipPath2770"
       clipPathUnits="userSpaceOnUse">
      <path
         inkscape:connector-curvature="0"
         id="path2768"
         d="m 18.239,186.257 c 0,-5.973 4.842,-10.815 10.815,-10.815 v 0 c 5.972,0 10.814,4.842 10.814,10.815 v 0 c 0,5.972 -4.842,10.814 -10.814,10.814 v 0 c -5.973,0 -10.815,-4.842 -10.815,-10.814" />
    </clipPath>
    <clipPath
       id="clipPath2782"
       clipPathUnits="userSpaceOnUse">
      <path
         inkscape:connector-curvature="0"
         id="path2780"
         d="m 17.204,174.421 h 23.685 v 23.684 H 17.204 Z" />
    </clipPath>
    <clipPath
       id="clipPath2790"
       clipPathUnits="userSpaceOnUse">
      <path
         inkscape:connector-curvature="0"
         id="path2788"
         d="M 20.661,194.649 H 37.4463 V 177.864 H 20.661 Z" />
    </clipPath>
    <clipPath
       id="clipPath2794"
       clipPathUnits="userSpaceOnUse">
      <path
         inkscape:connector-curvature="0"
         id="path2792"
         d="M 20.6611,194.649 H 37.4463 V 177.864 H 20.6611 Z" />
    </clipPath>
    <mask
       id="mask2796"
       height="1"
       width="1"
       y="0"
       x="0"
       maskUnits="userSpaceOnUse">
      <g
         id="g2814">
        <g
           id="g2812"
           clip-path="url(#clipPath2790)">
          <path
             inkscape:connector-curvature="0"
             id="path2798"
             style="fill:#000000;fill-opacity:1;fill-rule:nonzero;stroke:none"
             d="M 20.661,194.649 H 37.446 V 177.864 H 20.661 Z" />
          <g
             id="g2810">
            <g
               id="g2800" />
            <g
               id="g2808">
              <g
                 id="g2806"
                 clip-path="url(#clipPath2794)">
                <g
                   id="g2804"
                   transform="translate(29.0537,194.1494)">
                  <path
                     inkscape:connector-curvature="0"
                     id="path2802"
                     style="fill:#ffffff;fill-opacity:0.77000397;fill-rule:nonzero;stroke:none"
                     d="m 0,0 c 4.358,0 7.893,-3.534 7.893,-7.893 0,-4.359 -3.535,-7.892 -7.893,-7.892 -4.359,0 -7.893,3.533 -7.893,7.892 C -7.893,-3.534 -4.359,0 0,0" />
                </g>
              </g>
            </g>
          </g>
        </g>
      </g>
    </mask>
    <clipPath
       id="clipPath2822"
       clipPathUnits="userSpaceOnUse">
      <path
         inkscape:connector-curvature="0"
         id="path2820"
         d="M 20.661,194.649 H 37.4463 V 177.864 H 20.661 Z" />
    </clipPath>
    <clipPath
       id="clipPath2826"
       clipPathUnits="userSpaceOnUse">
      <path
         inkscape:connector-curvature="0"
         id="path2824"
         d="M 21.161,194.149 H 36.9463 V 178.364 H 21.161 Z" />
    </clipPath>
    <clipPath
       id="clipPath2854"
       clipPathUnits="userSpaceOnUse">
      <path
         inkscape:connector-curvature="0"
         id="path2852"
         d="M 23.2563,192.054 H 34.8509 V 180.459 H 23.2563 Z" />
    </clipPath>
    <clipPath
       id="clipPath2858"
       clipPathUnits="userSpaceOnUse">
      <path
         inkscape:connector-curvature="0"
         id="path2856"
         d="M 23.2563,192.054 H 34.8506 V 180.459 H 23.2563 Z" />
    </clipPath>
    <mask
       id="mask2860"
       height="1"
       width="1"
       y="0"
       x="0"
       maskUnits="userSpaceOnUse">
      <g
         id="g2878">
        <g
           id="g2876"
           clip-path="url(#clipPath2854)">
          <path
             inkscape:connector-curvature="0"
             id="path2862"
             style="fill:#000000;fill-opacity:1;fill-rule:nonzero;stroke:none"
             d="M 23.256,192.054 H 34.85 V 180.459 H 23.256 Z" />
          <g
             id="g2874">
            <g
               id="g2864" />
            <g
               id="g2872">
              <g
                 id="g2870"
                 clip-path="url(#clipPath2858)">
                <g
                   id="g2868"
                   transform="translate(29.0537,191.5542)">
                  <path
                     inkscape:connector-curvature="0"
                     id="path2866"
                     style="fill:#ffffff;fill-opacity:1;fill-rule:nonzero;stroke:none"
                     d="m 0,0 c 2.926,0 5.297,-2.372 5.297,-5.297 0,-2.926 -2.371,-5.298 -5.297,-5.298 -2.926,0 -5.297,2.372 -5.297,5.298 C -5.297,-2.372 -2.926,0 0,0" />
                </g>
              </g>
            </g>
          </g>
        </g>
      </g>
    </mask>
    <clipPath
       id="clipPath2886"
       clipPathUnits="userSpaceOnUse">
      <path
         inkscape:connector-curvature="0"
         id="path2884"
         d="M 23.2563,192.054 H 34.8509 V 180.459 H 23.2563 Z" />
    </clipPath>
    <clipPath
       id="clipPath1640"
       clipPathUnits="userSpaceOnUse">
      <path
         inkscape:connector-curvature="0"
         id="path1638"
         d="M 0,364.252 H 57.6 V 0 H 0 Z" />
    </clipPath>
    <clipPath
       id="clipPath1662"
       clipPathUnits="userSpaceOnUse">
      <path
         inkscape:connector-curvature="0"
         id="path1660"
         d="M 0,364.252 H 57.6 V 0 H 0 Z" />
    </clipPath>
    <clipPath
       id="clipPath1702"
       clipPathUnits="userSpaceOnUse">
      <path
         inkscape:connector-curvature="0"
         id="path1700"
         d="M 0,364.252 H 57.6 V 0 H 0 Z" />
    </clipPath>
    <clipPath
       id="clipPath1762"
       clipPathUnits="userSpaceOnUse">
      <path
         inkscape:connector-curvature="0"
         id="path1760"
         d="M 0,364.252 H 57.6 V 0 H 0 Z" />
    </clipPath>
  </defs>
  <sodipodi:namedview
     id="base"
     pagecolor="#ffffff"
     bordercolor="#666666"
     borderopacity="1.0"
     inkscape:pageopacity="0.0"
     inkscape:pageshadow="2"
     inkscape:zoom="1.4"
     inkscape:cx="-54.383042"
     inkscape:cy="276.90124"
     inkscape:document-units="mm"
     inkscape:current-layer="layer1"
     showgrid="false"
     inkscape:window-width="1920"
     inkscape:window-height="1001"
     inkscape:window-x="-9"
     inkscape:window-y="-9"
     inkscape:window-maximized="1" />
  <metadata
     id="metadata5">
    <rdf:RDF>
      <cc:Work
         rdf:about="">
        <dc:format>image/svg+xml</dc:format>
        <dc:type
           rdf:resource="http://purl.org/dc/dcmitype/StillImage" />
        <dc:title></dc:title>
      </cc:Work>
    </rdf:RDF>
  </metadata>
  <g
     inkscape:label="Livello 1"
     inkscape:groupmode="layer"
     id="layer1"
     transform="translate(0,-168.5)">
    <g
       transform="matrix(0.35277777,0,0,-0.35277777,0,297)"
       inkscape:label="polydelayback"
       id="g1630">
      <path
         inkscape:connector-curvature="0"
         id="path1632"
         style="fill:#235661;fill-opacity:1;fill-rule:nonzero;stroke:none"
         d="M 0,0 H 57.6 V 364.252 H 0 Z" />
      <g
         id="g1634">
        <g
           clip-path="url(#clipPath1640)"
           id="g1636">
          <path
             inkscape:connector-curvature="0"
             id="path1642"
             style="fill:none;stroke:#231f20;stroke-width:1;stroke-linecap:butt;stroke-linejoin:miter;stroke-miterlimit:10;stroke-dasharray:none;stroke-opacity:1"
             d="M 57.6,0 H 0 v 364.252 h 57.6 z" />
        </g>
      </g>
      <g
         transform="translate(28.8,103.9257)"
         id="g1644">
        <path
           inkscape:connector-curvature="0"
           id="path1646"
           style="fill:#231f20;fill-opacity:1;fill-rule:nonzero;stroke:none"
           d="M 0,0 V 8.166 Z" />
      </g>
      <path
         inkscape:connector-curvature="0"
         id="path1648"
         style="fill:#101112;fill-opacity:1;fill-rule:nonzero;stroke:none"
         d="m 28.425,103.926 h 0.75 v 8.166 h -0.75 z" />
      <g
         transform="translate(28.8,80.9262)"
         id="g1650">
        <path
           inkscape:connector-curvature="0"
           id="path1652"
           style="fill:#231f20;fill-opacity:1;fill-rule:nonzero;stroke:none"
           d="M 0,0 V 8.166 Z" />
      </g>
      <path
         inkscape:connector-curvature="0"
         id="path1654"
         style="fill:#101112;fill-opacity:1;fill-rule:nonzero;stroke:none"
         d="m 28.425,80.926 h 0.75 v 8.166 h -0.75 z" />
      <g
         id="g1656">
        <g
           clip-path="url(#clipPath1662)"
           id="g1658">
          <g
             transform="translate(35.9473,91.4883)"
             id="g1664">
            <path
               inkscape:connector-curvature="0"
               id="path1666"
               style="fill:#101112;fill-opacity:1;fill-rule:nonzero;stroke:none"
               d="m 0,0 -0.645,0.383 c 0.685,1.154 1.047,2.477 1.047,3.828 0,4.16 -3.384,7.545 -7.544,7.545 -4.166,0 -7.555,-3.385 -7.555,-7.545 0,-1.35 0.362,-2.674 1.047,-3.828 L -14.294,0 c -0.755,1.271 -1.153,2.727 -1.153,4.211 0,4.574 3.725,8.295 8.305,8.295 4.574,0 8.294,-3.721 8.294,-8.295 C 1.152,2.726 0.754,1.27 0,0" />
          </g>
          <path
             inkscape:connector-curvature="0"
             id="path1668"
             style="fill:#101112;fill-opacity:1;fill-rule:nonzero;stroke:none"
             d="m 37.2,88.967 h -2.054 v 0.25 H 37.2 Z" />
          <path
             inkscape:connector-curvature="0"
             id="path1670"
             style="fill:#101112;fill-opacity:1;fill-rule:nonzero;stroke:none"
             d="m 36.299,88.065 h -0.25 v 2.053 h 0.25 z" />
          <path
             inkscape:connector-curvature="0"
             id="path1672"
             style="fill:#101112;fill-opacity:1;fill-rule:nonzero;stroke:none"
             d="m 23.025,88.967 h -2.053 v 0.25 h 2.053 z" />
          <g
             transform="translate(28.7998,217.8721)"
             id="g1674">
            <path
               inkscape:connector-curvature="0"
               id="path1676"
               style="fill:#231f20;fill-opacity:1;fill-rule:nonzero;stroke:none"
               d="M 0,0 V 8.166" />
          </g>
          <path
             inkscape:connector-curvature="0"
             id="path1678"
             style="fill:#101112;fill-opacity:1;fill-rule:nonzero;stroke:none"
             d="m 29.175,217.872 h -0.75 v 8.166 h 0.75 z" />
          <g
             transform="translate(28.7998,194.8721)"
             id="g1680">
            <path
               inkscape:connector-curvature="0"
               id="path1682"
               style="fill:#231f20;fill-opacity:1;fill-rule:nonzero;stroke:none"
               d="M 0,0 V 8.166" />
          </g>
          <path
             inkscape:connector-curvature="0"
             id="path1684"
             style="fill:#101112;fill-opacity:1;fill-rule:nonzero;stroke:none"
             d="m 29.175,194.872 h -0.75 v 8.166 h 0.75 z" />
          <g
             transform="translate(35.9473,205.4341)"
             id="g1686">
            <path
               inkscape:connector-curvature="0"
               id="path1688"
               style="fill:#101112;fill-opacity:1;fill-rule:nonzero;stroke:none"
               d="m 0,0 -0.645,0.383 c 0.685,1.155 1.047,2.478 1.047,3.828 0,4.161 -3.384,7.545 -7.544,7.545 -4.166,0 -7.555,-3.384 -7.555,-7.545 0,-1.349 0.362,-2.673 1.047,-3.828 L -14.295,0 c -0.754,1.271 -1.152,2.727 -1.152,4.211 0,4.574 3.725,8.295 8.305,8.295 4.574,0 8.294,-3.721 8.294,-8.295 C 1.152,2.727 0.754,1.271 0,0" />
          </g>
          <path
             inkscape:connector-curvature="0"
             id="path1690"
             style="fill:#101112;fill-opacity:1;fill-rule:nonzero;stroke:none"
             d="m 37.2,202.913 h -2.054 v 0.25 H 37.2 Z" />
          <path
             inkscape:connector-curvature="0"
             id="path1692"
             style="fill:#101112;fill-opacity:1;fill-rule:nonzero;stroke:none"
             d="m 36.299,202.011 h -0.25 v 2.053 h 0.25 z" />
          <path
             inkscape:connector-curvature="0"
             id="path1694"
             style="fill:#101112;fill-opacity:1;fill-rule:nonzero;stroke:none"
             d="m 23.025,202.913 h -2.053 v 0.25 h 2.053 z" />
        </g>
      </g>
      <g
         id="g1696">
        <g
           clip-path="url(#clipPath1702)"
           id="g1698">
          <g
             transform="translate(19.5283,3.5283)"
             id="g1704">
            <path
               inkscape:connector-curvature="0"
               id="path1706"
               style="fill:#23835d;fill-opacity:1;fill-rule:nonzero;stroke:none"
               d="m 0,0 c -0.188,0.103 -0.319,0.19 -0.392,0.263 -0.113,0.114 -0.17,0.251 -0.17,0.411 0,0.161 0.057,0.299 0.17,0.413 0.114,0.114 0.251,0.172 0.412,0.172 0.16,0 0.293,-0.053 0.4,-0.159 C 0.522,0.997 0.574,0.879 0.574,0.747 V 0.735 L 0.381,0.657 C 0.364,0.782 0.325,0.877 0.263,0.94 0.202,1.003 0.121,1.035 0.02,1.035 -0.079,1.035 -0.164,1 -0.235,0.929 -0.306,0.858 -0.341,0.773 -0.341,0.674 c 0,-0.099 0.035,-0.184 0.106,-0.254 0.041,-0.043 0.128,-0.107 0.26,-0.191 0.211,-0.114 0.361,-0.215 0.451,-0.304 0.14,-0.143 0.21,-0.311 0.21,-0.507 0,-0.201 -0.07,-0.372 -0.21,-0.514 -0.14,-0.14 -0.31,-0.211 -0.509,-0.211 -0.2,0 -0.37,0.071 -0.509,0.211 -0.141,0.142 -0.21,0.296 -0.21,0.464 l 0.221,0.056 c 0,-0.144 0.049,-0.265 0.147,-0.362 0.097,-0.098 0.215,-0.148 0.351,-0.148 0.136,0 0.253,0.05 0.352,0.148 0.099,0.097 0.148,0.216 0.148,0.356 0,0.137 -0.049,0.253 -0.148,0.35 C 0.267,-0.18 0.161,-0.103 0,0" />
          </g>
          <g
             transform="translate(21.0083,4.6533)"
             id="g1708">
            <path
               inkscape:connector-curvature="0"
               id="path1710"
               style="fill:#23835d;fill-opacity:1;fill-rule:nonzero;stroke:none"
               d="M 0,0 V 1.032 H 0.221 V 0 H 0.716 V -0.225 H 0.221 V -2.429 H 0 v 2.204 H -0.495 V 0 Z" />
          </g>
          <g
             transform="translate(22.5796,4.3057)"
             id="g1712">
            <path
               inkscape:connector-curvature="0"
               id="path1714"
               style="fill:#23835d;fill-opacity:1;fill-rule:nonzero;stroke:none"
               d="m 0,0 c -0.219,-0.22 -0.329,-0.484 -0.329,-0.794 0,-0.31 0.11,-0.573 0.329,-0.792 0.219,-0.218 0.483,-0.327 0.793,-0.327 0.31,0 0.574,0.109 0.793,0.327 0.22,0.219 0.329,0.482 0.329,0.792 C 1.915,-0.484 1.806,-0.22 1.586,0 1.367,0.221 1.103,0.33 0.793,0.33 0.483,0.33 0.219,0.221 0,0 M 0.793,0.565 C 1.17,0.565 1.49,0.433 1.754,0.168 2.018,-0.097 2.15,-0.417 2.15,-0.794 2.15,-1.167 2.018,-1.486 1.754,-1.752 1.49,-2.019 1.17,-2.151 0.793,-2.151 c -0.373,0 -0.692,0.132 -0.958,0.399 -0.266,0.266 -0.398,0.585 -0.398,0.958 0,0.377 0.132,0.697 0.398,0.962 0.266,0.265 0.585,0.397 0.958,0.397" />
          </g>
          <g
             transform="translate(27.3062,2.8096)"
             id="g1716">
            <path
               inkscape:connector-curvature="0"
               id="path1718"
               style="fill:#23835d;fill-opacity:1;fill-rule:nonzero;stroke:none"
               d="M 0,0 0.235,-0.087 C 0.192,-0.145 0.144,-0.201 0.09,-0.255 c -0.265,-0.266 -0.586,-0.4 -0.963,-0.4 -0.373,0 -0.692,0.133 -0.958,0.399 -0.266,0.266 -0.398,0.586 -0.398,0.961 0,0.375 0.132,0.694 0.398,0.959 0.266,0.265 0.585,0.398 0.958,0.398 0.377,0 0.698,-0.133 0.963,-0.398 C 0.144,1.61 0.192,1.555 0.235,1.496 L 0,1.41 c -0.024,0.029 -0.05,0.06 -0.078,0.089 -0.22,0.219 -0.485,0.327 -0.795,0.327 -0.307,0 -0.571,-0.109 -0.79,-0.328 -0.219,-0.22 -0.329,-0.483 -0.329,-0.793 0,-0.309 0.11,-0.574 0.329,-0.793 0.219,-0.22 0.483,-0.329 0.79,-0.329 0.31,0 0.575,0.11 0.795,0.33 C -0.05,-0.059 -0.024,-0.03 0,0" />
          </g>
          <g
             transform="translate(30.3535,3.293)"
             id="g1720">
            <path
               inkscape:connector-curvature="0"
               id="path1722"
               style="fill:#23835d;fill-opacity:1;fill-rule:nonzero;stroke:none"
               d="m 0,0 v 0.439 c -0.041,0.219 -0.144,0.41 -0.308,0.574 -0.22,0.22 -0.485,0.33 -0.795,0.33 -0.309,0 -0.574,-0.11 -0.793,-0.33 -0.219,-0.22 -0.329,-0.485 -0.329,-0.794 0,-0.31 0.11,-0.573 0.329,-0.792 0.219,-0.218 0.484,-0.327 0.793,-0.327 0.31,0 0.575,0.11 0.795,0.33 C -0.144,-0.406 -0.041,-0.216 0,0 M 0.224,-1.068 H 0 v 0.495 c -0.043,-0.058 -0.09,-0.114 -0.14,-0.165 -0.265,-0.267 -0.586,-0.401 -0.963,-0.401 -0.373,0 -0.692,0.133 -0.958,0.4 -0.266,0.265 -0.398,0.585 -0.398,0.958 0,0.377 0.132,0.697 0.398,0.962 0.266,0.264 0.585,0.397 0.958,0.397 0.377,0 0.698,-0.133 0.963,-0.397 C -0.09,1.129 -0.043,1.073 0,1.016 V 1.36 h 0.224 z" />
          </g>
          <g
             transform="translate(32.0713,2.1914)"
             id="g1724">
            <path
               inkscape:connector-curvature="0"
               id="path1726"
               style="fill:#23835d;fill-opacity:1;fill-rule:nonzero;stroke:none"
               d="m 0,0 c -0.304,0 -0.546,0.089 -0.725,0.269 -0.178,0.178 -0.271,0.405 -0.277,0.679 v 1.517 h 0.225 V 0.968 c 0,-0.205 0.074,-0.381 0.223,-0.527 0.148,-0.147 0.331,-0.22 0.551,-0.22 0.205,0 0.382,0.073 0.53,0.219 C 0.676,0.587 0.75,0.763 0.75,0.968 V 2.465 H 0.974 V 0.948 C 0.968,0.674 0.876,0.447 0.696,0.269 0.518,0.089 0.285,0 0,0" />
          </g>
          <g
             transform="translate(35.9541,3.293)"
             id="g1728">
            <path
               inkscape:connector-curvature="0"
               id="path1730"
               style="fill:#23835d;fill-opacity:1;fill-rule:nonzero;stroke:none"
               d="m 0,0 v 0.439 c -0.041,0.219 -0.144,0.41 -0.308,0.574 -0.219,0.22 -0.485,0.33 -0.795,0.33 -0.309,0 -0.573,-0.11 -0.792,-0.33 -0.219,-0.22 -0.329,-0.485 -0.329,-0.794 0,-0.31 0.11,-0.573 0.329,-0.792 0.219,-0.218 0.483,-0.327 0.792,-0.327 0.31,0 0.576,0.11 0.795,0.33 C -0.144,-0.406 -0.041,-0.216 0,0 M 0.224,-1.068 H 0 v 0.495 c -0.043,-0.058 -0.09,-0.114 -0.14,-0.165 -0.264,-0.267 -0.586,-0.401 -0.963,-0.401 -0.373,0 -0.692,0.133 -0.958,0.4 -0.265,0.265 -0.398,0.585 -0.398,0.958 0,0.377 0.133,0.697 0.398,0.962 0.266,0.264 0.585,0.397 0.958,0.397 0.377,0 0.699,-0.133 0.963,-0.397 C -0.09,1.129 -0.043,1.073 0,1.016 v 1.872 h 0.224 z" />
          </g>
          <path
             inkscape:connector-curvature="0"
             id="path1732"
             style="fill:#23835d;fill-opacity:1;fill-rule:nonzero;stroke:none"
             d="m 36.98,2.225 h -0.221 v 2.429 h 0.221 z m 0.046,3.222 C 37.07,5.404 37.093,5.354 37.093,5.294 37.093,5.23 37.07,5.177 37.026,5.134 36.983,5.091 36.932,5.069 36.872,5.069 c -0.062,0 -0.115,0.022 -0.158,0.065 -0.044,0.043 -0.067,0.096 -0.067,0.16 0,0.06 0.023,0.11 0.067,0.153 0.043,0.043 0.096,0.065 0.158,0.065 0.06,0 0.111,-0.022 0.154,-0.065" />
          <g
             transform="translate(38.0791,4.3057)"
             id="g1734">
            <path
               inkscape:connector-curvature="0"
               id="path1736"
               style="fill:#23835d;fill-opacity:1;fill-rule:nonzero;stroke:none"
               d="m 0,0 c -0.22,-0.22 -0.329,-0.484 -0.329,-0.794 0,-0.31 0.109,-0.573 0.329,-0.792 0.219,-0.218 0.483,-0.327 0.793,-0.327 0.31,0 0.573,0.109 0.793,0.327 0.219,0.219 0.328,0.482 0.328,0.792 C 1.914,-0.484 1.805,-0.22 1.586,0 1.366,0.221 1.103,0.33 0.793,0.33 0.483,0.33 0.219,0.221 0,0 m 0.793,0.565 c 0.376,0 0.696,-0.132 0.961,-0.397 0.264,-0.265 0.395,-0.585 0.395,-0.962 0,-0.373 -0.131,-0.692 -0.395,-0.958 -0.265,-0.267 -0.585,-0.399 -0.961,-0.399 -0.373,0 -0.692,0.132 -0.959,0.399 -0.266,0.266 -0.398,0.585 -0.398,0.958 0,0.377 0.132,0.697 0.398,0.962 0.267,0.265 0.586,0.397 0.959,0.397" />
          </g>
          <path
             inkscape:connector-curvature="0"
             id="path1738"
             style="fill:#23835d;fill-opacity:1;fill-rule:nonzero;stroke:none"
             d="m 25.353,320.569 h -0.656 v 7.205 h 0.656 z m 0.137,9.562 c 0.13,-0.127 0.195,-0.279 0.195,-0.456 0,-0.188 -0.065,-0.346 -0.195,-0.473 -0.13,-0.128 -0.283,-0.191 -0.461,-0.191 -0.182,0 -0.339,0.063 -0.469,0.191 -0.13,0.127 -0.195,0.285 -0.195,0.473 0,0.177 0.065,0.329 0.195,0.456 0.13,0.128 0.287,0.191 0.469,0.191 0.178,0 0.331,-0.063 0.461,-0.191" />
          <g
             transform="translate(27.8267,326.1636)"
             id="g1740">
            <path
               inkscape:connector-curvature="0"
               id="path1742"
               style="fill:#23835d;fill-opacity:1;fill-rule:nonzero;stroke:none"
               d="M 0,0 V -5.595 H -0.664 V 1.61 H 0 V 1.146 C 0.598,1.743 1.295,2.042 2.092,2.042 2.944,2.042 3.637,1.775 4.171,1.241 4.706,0.707 4.978,0.036 4.989,-0.772 V -5.595 H 4.333 v 4.757 C 4.333,-0.224 4.112,0.299 3.669,0.73 3.226,1.162 2.701,1.378 2.092,1.378 1.489,1.378 0.966,1.165 0.523,0.739 0.285,0.501 0.111,0.254 0,0" />
          </g>
          <g
             transform="translate(20.959,48.9444)"
             id="g1744">
            <path
               inkscape:connector-curvature="0"
               id="path1746"
               style="fill:#23835d;fill-opacity:1;fill-rule:nonzero;stroke:none"
               d="m 0,0 c -0.688,-0.691 -1.033,-1.523 -1.033,-2.496 0,-0.973 0.345,-1.802 1.033,-2.487 0.688,-0.686 1.519,-1.029 2.492,-1.029 0.972,0 1.803,0.343 2.491,1.029 0.689,0.685 1.033,1.514 1.033,2.487 C 6.016,-1.523 5.672,-0.691 4.983,0 4.295,0.691 3.464,1.037 2.492,1.037 1.519,1.037 0.688,0.691 0,0 m 2.492,1.775 c 1.183,0 2.19,-0.416 3.019,-1.248 0.829,-0.832 1.243,-1.839 1.243,-3.023 0,-1.172 -0.414,-2.175 -1.243,-3.01 -0.829,-0.835 -1.836,-1.253 -3.019,-1.253 -1.172,0 -2.176,0.418 -3.011,1.253 -0.835,0.835 -1.252,1.838 -1.252,3.01 0,1.184 0.417,2.191 1.252,3.023 0.835,0.832 1.839,1.248 3.011,1.248" />
          </g>
          <g
             transform="translate(32.2578,42.2998)"
             id="g1748">
            <path
               inkscape:connector-curvature="0"
               id="path1750"
               style="fill:#23835d;fill-opacity:1;fill-rule:nonzero;stroke:none"
               d="m 0,0 c -0.955,0 -1.714,0.281 -2.277,0.844 -0.562,0.562 -0.852,1.274 -0.87,2.135 v 4.764 h 0.703 V 3.041 c 0,-0.645 0.235,-1.195 0.704,-1.652 0.463,-0.463 1.04,-0.695 1.731,-0.695 0.645,0 1.199,0.231 1.665,0.691 0.466,0.46 0.699,1.011 0.699,1.656 V 7.743 H 3.059 V 2.979 C 3.041,2.118 2.751,1.406 2.188,0.844 1.626,0.281 0.896,0 0,0" />
          </g>
          <g
             transform="translate(37.918,50.0342)"
             id="g1752">
            <path
               inkscape:connector-curvature="0"
               id="path1754"
               style="fill:#23835d;fill-opacity:1;fill-rule:nonzero;stroke:none"
               d="M 0,0 V 3.243 H 0.694 V 0 H 2.25 V -0.703 H 0.694 V -7.629 H 0 v 6.926 H -1.556 V 0 Z" />
          </g>
        </g>
      </g>
      <g
         id="g1756">
        <g
           clip-path="url(#clipPath1762)"
           id="g1758">
          <g
             transform="translate(12.6733,338.8736)"
             id="g1764">
            <path
               inkscape:connector-curvature="0"
               id="path1766"
               style="fill:#23835d;fill-opacity:1;fill-rule:nonzero;stroke:none"
               d="m 0,0 v 1.993 c -0.187,0.99 -0.651,1.858 -1.396,2.603 -1,0.998 -2.201,1.498 -3.606,1.498 -1.405,0 -2.604,-0.5 -3.599,-1.498 -0.995,-0.999 -1.492,-2.201 -1.492,-3.606 0,-1.405 0.497,-2.602 1.492,-3.593 0.995,-0.99 2.194,-1.485 3.599,-1.485 1.405,0 2.606,0.5 3.606,1.498 C -0.651,-1.845 -0.187,-0.982 0,0 M 1.016,-4.85 H 0 v 2.247 c -0.194,-0.262 -0.406,-0.512 -0.635,-0.749 -1.202,-1.21 -2.657,-1.815 -4.367,-1.815 -1.692,0 -3.142,0.603 -4.349,1.809 -1.205,1.206 -1.808,2.655 -1.808,4.348 0,1.71 0.603,3.166 1.808,4.367 1.207,1.202 2.657,1.803 4.349,1.803 1.71,0 3.165,-0.601 4.367,-1.803 C -0.406,5.121 -0.194,4.871 0,4.608 v 8.494 h 1.016 z" />
          </g>
          <g
             transform="translate(16.7739,341.4634)"
             id="g1768">
            <path
               inkscape:connector-curvature="0"
               id="path1770"
               style="fill:#23835d;fill-opacity:1;fill-rule:nonzero;stroke:none"
               d="M 0,0 H 9.674 C 9.437,0.77 9.035,1.439 8.468,2.006 7.469,3.004 6.268,3.504 4.862,3.504 3.457,3.504 2.256,3.004 1.257,2.006 0.664,1.405 0.245,0.736 0,0 m -0.19,-1.028 c -0.026,-0.178 -0.039,-0.368 -0.039,-0.572 0,-1.404 0.498,-2.602 1.493,-3.592 0.994,-0.991 2.193,-1.486 3.598,-1.486 1.406,0 2.607,0.5 3.606,1.498 0.169,0.17 0.33,0.347 0.482,0.534 l 1.079,-0.381 C 9.902,-5.239 9.636,-5.543 9.229,-5.941 8.027,-7.152 6.572,-7.757 4.862,-7.757 c -1.692,0 -3.141,0.603 -4.348,1.809 -1.205,1.206 -1.809,2.656 -1.809,4.348 0,1.71 0.604,3.166 1.809,4.368 1.207,1.201 2.656,1.802 4.348,1.802 1.71,0 3.165,-0.601 4.367,-1.802 1.058,-1.067 1.587,-2.332 1.587,-3.796 z" />
          </g>
          <path
             inkscape:connector-curvature="0"
             id="path1772"
             style="fill:#23835d;fill-opacity:1;fill-rule:nonzero;stroke:none"
             d="m 30.459,334.024 h -1.015 v 17.951 h 1.015 z" />
          <g
             transform="translate(43.9541,338.8736)"
             id="g1774">
            <path
               inkscape:connector-curvature="0"
               id="path1776"
               style="fill:#23835d;fill-opacity:1;fill-rule:nonzero;stroke:none"
               d="m 0,0 v 1.993 c -0.187,0.99 -0.651,1.858 -1.396,2.603 -1,0.998 -2.201,1.498 -3.606,1.498 -1.405,0 -2.604,-0.5 -3.599,-1.498 -0.995,-0.999 -1.492,-2.201 -1.492,-3.606 0,-1.405 0.497,-2.602 1.492,-3.593 0.995,-0.99 2.194,-1.485 3.599,-1.485 1.405,0 2.606,0.5 3.606,1.498 C -0.651,-1.845 -0.187,-0.982 0,0 M 1.016,-4.85 H 0 v 2.247 c -0.194,-0.262 -0.406,-0.512 -0.635,-0.749 -1.202,-1.21 -2.657,-1.815 -4.367,-1.815 -1.692,0 -3.142,0.603 -4.349,1.809 -1.205,1.206 -1.808,2.655 -1.808,4.348 0,1.71 0.603,3.166 1.808,4.367 1.207,1.202 2.657,1.803 4.349,1.803 1.71,0 3.165,-0.601 4.367,-1.803 C -0.406,5.121 -0.194,4.871 0,4.608 V 6.17 h 1.016 z" />
          </g>
          <g
             transform="translate(48.7021,329.8345)"
             id="g1778">
            <path
               inkscape:connector-curvature="0"
               id="path1780"
               style="fill:#23835d;fill-opacity:1;fill-rule:nonzero;stroke:none"
               d="m 0,0 h -1.13 l 2.907,6.233 -4.189,8.976 h 1.13 l 3.618,-7.693 3.631,7.693 h 1.13 z" />
          </g>
          <g
             transform="translate(13.1909,339.6397)"
             id="g1782">
            <path
               inkscape:connector-curvature="0"
               id="path1784"
               style="fill:#231f20;fill-opacity:1;fill-rule:nonzero;stroke:none"
               d="m 0,0 v 1.993 c -0.187,0.99 -0.651,1.858 -1.396,2.603 -1,0.998 -2.201,1.498 -3.606,1.498 -1.405,0 -2.604,-0.5 -3.599,-1.498 -0.995,-0.999 -1.492,-2.201 -1.492,-3.606 0,-1.405 0.497,-2.602 1.492,-3.593 0.995,-0.99 2.194,-1.485 3.599,-1.485 1.405,0 2.606,0.5 3.606,1.498 C -0.651,-1.845 -0.187,-0.982 0,0 M 1.016,-4.85 H 0 v 2.247 c -0.194,-0.262 -0.406,-0.512 -0.635,-0.749 -1.202,-1.21 -2.657,-1.815 -4.367,-1.815 -1.692,0 -3.142,0.603 -4.349,1.809 -1.205,1.206 -1.808,2.655 -1.808,4.348 0,1.71 0.603,3.166 1.808,4.367 1.207,1.202 2.657,1.803 4.349,1.803 1.71,0 3.165,-0.601 4.367,-1.803 C -0.406,5.121 -0.194,4.871 0,4.608 v 8.494 h 1.016 z" />
          </g>
          <g
             transform="translate(17.2915,342.2295)"
             id="g1786">
            <path
               inkscape:connector-curvature="0"
               id="path1788"
               style="fill:#231f20;fill-opacity:1;fill-rule:nonzero;stroke:none"
               d="M 0,0 H 9.674 C 9.437,0.77 9.035,1.439 8.468,2.006 7.469,3.004 6.268,3.504 4.862,3.504 3.457,3.504 2.256,3.004 1.257,2.006 0.664,1.405 0.245,0.736 0,0 m -0.19,-1.028 c -0.026,-0.178 -0.039,-0.368 -0.039,-0.572 0,-1.404 0.498,-2.602 1.493,-3.592 0.994,-0.991 2.193,-1.486 3.598,-1.486 1.406,0 2.607,0.5 3.606,1.498 0.169,0.17 0.33,0.347 0.482,0.534 l 1.079,-0.381 C 9.902,-5.239 9.636,-5.543 9.229,-5.941 8.027,-7.152 6.572,-7.757 4.862,-7.757 c -1.692,0 -3.141,0.603 -4.348,1.809 -1.205,1.206 -1.809,2.656 -1.809,4.348 0,1.71 0.604,3.166 1.809,4.368 1.207,1.201 2.656,1.802 4.348,1.802 1.71,0 3.165,-0.601 4.367,-1.802 1.058,-1.067 1.587,-2.332 1.587,-3.796 z" />
          </g>
          <path
             inkscape:connector-curvature="0"
             id="path1790"
             style="fill:#231f20;fill-opacity:1;fill-rule:nonzero;stroke:none"
             d="m 30.978,334.79 h -1.016 v 17.951 h 1.016 z" />
          <g
             transform="translate(44.4727,339.6397)"
             id="g1792">
            <path
               inkscape:connector-curvature="0"
               id="path1794"
               style="fill:#231f20;fill-opacity:1;fill-rule:nonzero;stroke:none"
               d="m 0,0 v 1.993 c -0.187,0.99 -0.651,1.858 -1.396,2.603 -1,0.998 -2.201,1.498 -3.606,1.498 -1.405,0 -2.604,-0.5 -3.599,-1.498 -0.995,-0.999 -1.492,-2.201 -1.492,-3.606 0,-1.405 0.497,-2.602 1.492,-3.593 0.995,-0.99 2.194,-1.485 3.599,-1.485 1.405,0 2.606,0.5 3.606,1.498 C -0.651,-1.845 -0.187,-0.982 0,0 M 1.016,-4.85 H 0 v 2.247 c -0.194,-0.262 -0.406,-0.512 -0.635,-0.749 -1.202,-1.21 -2.657,-1.815 -4.367,-1.815 -1.692,0 -3.142,0.603 -4.349,1.809 -1.205,1.206 -1.808,2.655 -1.808,4.348 0,1.71 0.603,3.166 1.808,4.367 1.207,1.202 2.657,1.803 4.349,1.803 1.71,0 3.165,-0.601 4.367,-1.803 C -0.406,5.121 -0.194,4.871 0,4.608 V 6.17 h 1.016 z" />
          </g>
          <g
             transform="translate(49.2207,330.6006)"
             id="g1796">
            <path
               inkscape:connector-curvature="0"
               id="path1798"
               style="fill:#231f20;fill-opacity:1;fill-rule:nonzero;stroke:none"
               d="m 0,0 h -1.13 l 2.907,6.233 -4.189,8.976 h 1.13 l 3.618,-7.693 3.631,7.693 h 1.13 z" />
          </g>
          <g
             transform="translate(20.0127,4.1035)"
             id="g1800">
            <path
               inkscape:connector-curvature="0"
               id="path1802"
               style="fill:#221f20;fill-opacity:1;fill-rule:nonzero;stroke:none"
               d="m 0,0 c -0.188,0.103 -0.319,0.19 -0.392,0.263 -0.113,0.114 -0.17,0.251 -0.17,0.411 0,0.161 0.057,0.299 0.17,0.413 0.114,0.114 0.251,0.172 0.412,0.172 0.16,0 0.293,-0.053 0.4,-0.159 C 0.522,0.997 0.574,0.879 0.574,0.747 V 0.735 L 0.381,0.657 C 0.364,0.782 0.325,0.877 0.263,0.94 0.202,1.003 0.121,1.035 0.02,1.035 -0.079,1.035 -0.164,1 -0.235,0.929 -0.306,0.858 -0.341,0.773 -0.341,0.674 c 0,-0.099 0.035,-0.184 0.106,-0.254 0.041,-0.043 0.128,-0.107 0.26,-0.191 0.211,-0.114 0.361,-0.215 0.451,-0.304 0.14,-0.143 0.21,-0.311 0.21,-0.507 0,-0.201 -0.07,-0.372 -0.21,-0.514 -0.14,-0.14 -0.31,-0.211 -0.509,-0.211 -0.2,0 -0.37,0.071 -0.509,0.211 -0.141,0.142 -0.21,0.296 -0.21,0.464 l 0.221,0.056 c 0,-0.144 0.049,-0.265 0.147,-0.362 0.097,-0.098 0.215,-0.148 0.351,-0.148 0.136,0 0.253,0.05 0.352,0.148 0.099,0.097 0.148,0.216 0.148,0.356 0,0.137 -0.049,0.253 -0.148,0.35 C 0.267,-0.18 0.161,-0.103 0,0" />
          </g>
          <g
             transform="translate(21.4927,5.2285)"
             id="g1804">
            <path
               inkscape:connector-curvature="0"
               id="path1806"
               style="fill:#221f20;fill-opacity:1;fill-rule:nonzero;stroke:none"
               d="M 0,0 V 1.032 H 0.221 V 0 H 0.716 V -0.225 H 0.221 V -2.429 H 0 v 2.204 H -0.495 V 0 Z" />
          </g>
          <g
             transform="translate(23.064,4.8809)"
             id="g1808">
            <path
               inkscape:connector-curvature="0"
               id="path1810"
               style="fill:#221f20;fill-opacity:1;fill-rule:nonzero;stroke:none"
               d="m 0,0 c -0.219,-0.22 -0.329,-0.484 -0.329,-0.794 0,-0.31 0.11,-0.573 0.329,-0.792 0.219,-0.218 0.483,-0.327 0.793,-0.327 0.31,0 0.574,0.109 0.793,0.327 0.22,0.219 0.329,0.482 0.329,0.792 C 1.915,-0.484 1.806,-0.22 1.586,0 1.367,0.221 1.103,0.33 0.793,0.33 0.483,0.33 0.219,0.221 0,0 M 0.793,0.565 C 1.17,0.565 1.49,0.433 1.754,0.168 2.018,-0.097 2.15,-0.417 2.15,-0.794 2.15,-1.167 2.018,-1.486 1.754,-1.752 1.49,-2.019 1.17,-2.151 0.793,-2.151 c -0.373,0 -0.692,0.132 -0.958,0.399 -0.266,0.266 -0.398,0.585 -0.398,0.958 0,0.377 0.132,0.697 0.398,0.962 0.266,0.265 0.585,0.397 0.958,0.397" />
          </g>
          <g
             transform="translate(27.7905,3.3848)"
             id="g1812">
            <path
               inkscape:connector-curvature="0"
               id="path1814"
               style="fill:#221f20;fill-opacity:1;fill-rule:nonzero;stroke:none"
               d="M 0,0 0.235,-0.087 C 0.192,-0.145 0.144,-0.201 0.09,-0.255 c -0.265,-0.266 -0.586,-0.4 -0.963,-0.4 -0.373,0 -0.692,0.133 -0.958,0.399 -0.266,0.266 -0.398,0.586 -0.398,0.961 0,0.375 0.132,0.694 0.398,0.959 0.266,0.265 0.585,0.398 0.958,0.398 0.377,0 0.698,-0.133 0.963,-0.398 C 0.144,1.61 0.192,1.555 0.235,1.496 L 0,1.41 c -0.024,0.029 -0.05,0.06 -0.078,0.089 -0.22,0.219 -0.485,0.327 -0.795,0.327 -0.307,0 -0.571,-0.109 -0.79,-0.328 -0.219,-0.22 -0.329,-0.483 -0.329,-0.793 0,-0.309 0.11,-0.574 0.329,-0.793 0.219,-0.22 0.483,-0.329 0.79,-0.329 0.31,0 0.575,0.11 0.795,0.33 C -0.05,-0.059 -0.024,-0.03 0,0" />
          </g>
          <g
             transform="translate(30.8369,3.8682)"
             id="g1816">
            <path
               inkscape:connector-curvature="0"
               id="path1818"
               style="fill:#221f20;fill-opacity:1;fill-rule:nonzero;stroke:none"
               d="m 0,0 v 0.439 c -0.041,0.219 -0.144,0.41 -0.308,0.574 -0.219,0.22 -0.484,0.33 -0.794,0.33 -0.309,0 -0.574,-0.11 -0.793,-0.33 -0.219,-0.22 -0.329,-0.485 -0.329,-0.794 0,-0.31 0.11,-0.573 0.329,-0.792 0.219,-0.218 0.484,-0.327 0.793,-0.327 0.31,0 0.575,0.11 0.794,0.33 C -0.144,-0.406 -0.041,-0.216 0,0 M 0.224,-1.068 H 0 v 0.495 c -0.043,-0.058 -0.089,-0.114 -0.14,-0.165 -0.264,-0.267 -0.586,-0.401 -0.962,-0.401 -0.373,0 -0.692,0.133 -0.958,0.4 -0.266,0.265 -0.398,0.585 -0.398,0.958 0,0.377 0.132,0.697 0.398,0.962 0.266,0.264 0.585,0.397 0.958,0.397 0.376,0 0.698,-0.133 0.962,-0.397 C -0.089,1.129 -0.043,1.073 0,1.016 V 1.36 h 0.224 z" />
          </g>
          <g
             transform="translate(32.5547,2.7666)"
             id="g1820">
            <path
               inkscape:connector-curvature="0"
               id="path1822"
               style="fill:#221f20;fill-opacity:1;fill-rule:nonzero;stroke:none"
               d="m 0,0 c -0.304,0 -0.546,0.089 -0.725,0.269 -0.178,0.178 -0.271,0.405 -0.277,0.679 v 1.517 h 0.225 V 0.968 c 0,-0.205 0.074,-0.381 0.223,-0.527 0.148,-0.147 0.331,-0.22 0.551,-0.22 0.205,0 0.382,0.073 0.53,0.219 C 0.676,0.587 0.75,0.763 0.75,0.968 V 2.465 H 0.974 V 0.948 C 0.968,0.674 0.876,0.447 0.696,0.269 0.518,0.089 0.285,0 0,0" />
          </g>
          <g
             transform="translate(36.4375,3.8682)"
             id="g1824">
            <path
               inkscape:connector-curvature="0"
               id="path1826"
               style="fill:#221f20;fill-opacity:1;fill-rule:nonzero;stroke:none"
               d="m 0,0 v 0.439 c -0.041,0.219 -0.144,0.41 -0.308,0.574 -0.219,0.22 -0.485,0.33 -0.795,0.33 -0.309,0 -0.573,-0.11 -0.792,-0.33 -0.219,-0.22 -0.329,-0.485 -0.329,-0.794 0,-0.31 0.11,-0.573 0.329,-0.792 0.219,-0.218 0.483,-0.327 0.792,-0.327 0.31,0 0.576,0.11 0.795,0.33 C -0.144,-0.406 -0.041,-0.216 0,0 M 0.224,-1.068 H 0 v 0.495 c -0.043,-0.058 -0.09,-0.114 -0.14,-0.165 -0.264,-0.267 -0.586,-0.401 -0.963,-0.401 -0.373,0 -0.692,0.133 -0.958,0.4 -0.265,0.265 -0.398,0.585 -0.398,0.958 0,0.377 0.133,0.697 0.398,0.962 0.266,0.264 0.585,0.397 0.958,0.397 0.377,0 0.699,-0.133 0.963,-0.397 C -0.09,1.129 -0.043,1.073 0,1.016 v 1.872 h 0.224 z" />
          </g>
          <path
             inkscape:connector-curvature="0"
             id="path1828"
             style="fill:#221f20;fill-opacity:1;fill-rule:nonzero;stroke:none"
             d="m 37.464,2.8 h -0.221 v 2.429 h 0.221 z m 0.046,3.222 c 0.044,-0.042 0.066,-0.093 0.066,-0.153 0,-0.063 -0.022,-0.117 -0.066,-0.16 -0.043,-0.043 -0.095,-0.064 -0.155,-0.064 -0.062,0 -0.115,0.021 -0.158,0.064 -0.044,0.043 -0.066,0.097 -0.066,0.16 0,0.06 0.022,0.111 0.066,0.153 0.043,0.043 0.096,0.065 0.158,0.065 0.06,0 0.112,-0.022 0.155,-0.065" />
          <g
             transform="translate(38.5625,4.8809)"
             id="g1830">
            <path
               inkscape:connector-curvature="0"
               id="path1832"
               style="fill:#221f20;fill-opacity:1;fill-rule:nonzero;stroke:none"
               d="m 0,0 c -0.22,-0.22 -0.329,-0.484 -0.329,-0.794 0,-0.31 0.109,-0.573 0.329,-0.792 0.219,-0.218 0.483,-0.327 0.793,-0.327 0.31,0 0.573,0.109 0.793,0.327 0.219,0.219 0.328,0.482 0.328,0.792 C 1.914,-0.484 1.805,-0.22 1.586,0 1.366,0.221 1.103,0.33 0.793,0.33 0.483,0.33 0.219,0.221 0,0 m 0.793,0.565 c 0.376,0 0.696,-0.132 0.961,-0.397 0.264,-0.265 0.395,-0.585 0.395,-0.962 0,-0.373 -0.131,-0.692 -0.395,-0.958 -0.265,-0.267 -0.585,-0.399 -0.961,-0.399 -0.373,0 -0.692,0.132 -0.959,0.399 -0.266,0.266 -0.398,0.585 -0.398,0.958 0,0.377 0.132,0.697 0.398,0.962 0.267,0.265 0.586,0.397 0.959,0.397" />
          </g>
          <path
             inkscape:connector-curvature="0"
             id="path1834"
             style="fill:#231f20;fill-opacity:1;fill-rule:nonzero;stroke:none"
             d="m 25.837,321.144 h -0.656 v 7.205 h 0.656 z m 0.137,9.562 c 0.13,-0.127 0.195,-0.279 0.195,-0.456 0,-0.188 -0.065,-0.346 -0.195,-0.474 -0.13,-0.127 -0.283,-0.191 -0.46,-0.191 -0.183,0 -0.339,0.064 -0.47,0.191 -0.129,0.128 -0.194,0.286 -0.194,0.474 0,0.177 0.065,0.329 0.194,0.456 0.131,0.128 0.287,0.191 0.47,0.191 0.177,0 0.33,-0.063 0.46,-0.191" />
          <g
             transform="translate(28.311,326.7383)"
             id="g1836">
            <path
               inkscape:connector-curvature="0"
               id="path1838"
               style="fill:#231f20;fill-opacity:1;fill-rule:nonzero;stroke:none"
               d="M 0,0 V -5.595 H -0.664 V 1.61 H 0 V 1.146 c 0.598,0.597 1.295,0.896 2.091,0.896 0.853,0 1.546,-0.267 2.08,-0.801 C 4.705,0.707 4.977,0.036 4.989,-0.772 V -5.595 H 4.333 v 4.757 C 4.333,-0.224 4.112,0.299 3.668,0.73 3.226,1.162 2.701,1.378 2.091,1.378 1.489,1.378 0.966,1.165 0.523,0.739 0.285,0.501 0.111,0.254 0,0" />
          </g>
          <g
             transform="translate(21.4434,49.5195)"
             id="g1840">
            <path
               inkscape:connector-curvature="0"
               id="path1842"
               style="fill:#231f20;fill-opacity:1;fill-rule:nonzero;stroke:none"
               d="m 0,0 c -0.688,-0.691 -1.033,-1.523 -1.033,-2.496 0,-0.973 0.345,-1.802 1.033,-2.487 0.688,-0.686 1.519,-1.029 2.492,-1.029 0.972,0 1.803,0.343 2.491,1.029 0.689,0.685 1.033,1.514 1.033,2.487 C 6.016,-1.523 5.672,-0.691 4.983,0 4.295,0.691 3.464,1.037 2.492,1.037 1.519,1.037 0.688,0.691 0,0 m 2.492,1.775 c 1.183,0 2.19,-0.416 3.019,-1.248 0.829,-0.832 1.243,-1.839 1.243,-3.023 0,-1.172 -0.414,-2.176 -1.243,-3.011 -0.829,-0.835 -1.836,-1.252 -3.019,-1.252 -1.172,0 -2.176,0.417 -3.011,1.252 -0.835,0.835 -1.252,1.839 -1.252,3.011 0,1.184 0.417,2.191 1.252,3.023 0.835,0.832 1.839,1.248 3.011,1.248" />
          </g>
          <g
             transform="translate(32.7412,42.875)"
             id="g1844">
            <path
               inkscape:connector-curvature="0"
               id="path1846"
               style="fill:#231f20;fill-opacity:1;fill-rule:nonzero;stroke:none"
               d="m 0,0 c -0.955,0 -1.714,0.281 -2.276,0.844 -0.562,0.562 -0.852,1.274 -0.87,2.135 v 4.764 h 0.703 V 3.041 c 0,-0.645 0.234,-1.195 0.703,-1.652 0.463,-0.463 1.04,-0.695 1.731,-0.695 0.645,0 1.2,0.23 1.666,0.69 0.466,0.46 0.698,1.012 0.698,1.657 V 7.743 H 3.059 V 2.979 C 3.041,2.118 2.751,1.406 2.188,0.844 1.626,0.281 0.896,0 0,0" />
          </g>
          <g
             transform="translate(38.4014,50.6094)"
             id="g1848">
            <path
               inkscape:connector-curvature="0"
               id="path1850"
               style="fill:#231f20;fill-opacity:1;fill-rule:nonzero;stroke:none"
               d="M 0,0 V 3.243 H 0.694 V 0 H 2.25 V -0.703 H 0.694 V -7.629 H 0 v 6.926 H -1.556 V 0 Z" />
          </g>
          <g
             transform="translate(8.6445,148.7529)"
             id="g1852">
            <path
               inkscape:connector-curvature="0"
               id="path1854"
               style="fill:#23835d;fill-opacity:1;fill-rule:nonzero;stroke:none"
               d="M 0,0 C -0.559,0.304 -0.946,0.564 -1.162,0.78 -1.5,1.117 -1.668,1.524 -1.668,2 c 0,0.477 0.168,0.885 0.506,1.225 0.337,0.34 0.744,0.51 1.22,0.51 0.476,0 0.872,-0.158 1.187,-0.473 C 1.549,2.958 1.702,2.609 1.702,2.216 V 2.183 L 1.129,1.95 C 1.079,2.321 0.963,2.601 0.78,2.789 0.598,2.977 0.357,3.071 0.058,3.071 -0.235,3.071 -0.487,2.966 -0.697,2.756 -0.908,2.545 -1.013,2.294 -1.013,2 -1.013,1.707 -0.908,1.455 -0.697,1.245 -0.576,1.117 -0.318,0.93 0.075,0.681 0.7,0.343 1.146,0.041 1.411,-0.225 1.826,-0.645 2.034,-1.146 2.034,-1.727 2.034,-2.324 1.826,-2.832 1.411,-3.25 0.996,-3.668 0.493,-3.877 -0.1,-3.877 c -0.592,0 -1.095,0.209 -1.51,0.627 -0.415,0.418 -0.623,0.876 -0.623,1.374 l 0.656,0.166 c 0,-0.427 0.145,-0.784 0.435,-1.075 0.291,-0.29 0.639,-0.436 1.042,-0.436 0.404,0 0.753,0.146 1.046,0.436 0.294,0.291 0.44,0.643 0.44,1.058 0,0.404 -0.146,0.75 -0.44,1.038 C 0.792,-0.534 0.476,-0.305 0,0" />
          </g>
          <g
             transform="translate(12.7285,149.3916)"
             id="g1856">
            <path
               inkscape:connector-curvature="0"
               id="path1858"
               style="fill:#23835d;fill-opacity:1;fill-rule:nonzero;stroke:none"
               d="m 0,0 v -1.378 c 0.122,-0.631 0.423,-1.184 0.905,-1.66 0.653,-0.652 1.439,-0.98 2.357,-0.98 0.919,0 1.703,0.326 2.353,0.976 0.651,0.65 0.976,1.435 0.976,2.354 0,0.917 -0.325,1.704 -0.976,2.357 C 4.965,2.321 4.181,2.648 3.262,2.648 2.344,2.648 1.558,2.321 0.905,1.669 0.423,1.187 0.122,0.631 0,0 M -0.664,2.698 H 0 V 1.686 c 0.122,0.166 0.26,0.326 0.415,0.481 0.786,0.78 1.735,1.17 2.847,1.17 1.113,0 2.062,-0.392 2.847,-1.174 C 6.895,1.38 7.288,0.429 7.288,-0.688 7.288,-1.796 6.895,-2.743 6.109,-3.531 5.324,-4.32 4.375,-4.715 3.262,-4.715 2.15,-4.715 1.201,-4.319 0.415,-3.527 0.26,-3.373 0.122,-3.212 0,-3.046 v -4.209 h -0.664 z" />
          </g>
          <g
             transform="translate(23.8848,151.5088)"
             id="g1860">
            <path
               inkscape:connector-curvature="0"
               id="path1862"
               style="fill:#23835d;fill-opacity:1;fill-rule:nonzero;stroke:none"
               d="M 0,0 C -0.47,-0.072 -0.933,-0.371 -1.386,-0.896 -1.84,-1.423 -2.067,-1.954 -2.067,-2.49 v -4.134 h -0.664 v 7.205 h 0.664 v -1.56 c 0.277,0.724 0.844,1.264 1.702,1.618 z" />
          </g>
          <g
             transform="translate(25.1631,149.749)"
             id="g1864">
            <path
               inkscape:connector-curvature="0"
               id="path1866"
               style="fill:#23835d;fill-opacity:1;fill-rule:nonzero;stroke:none"
               d="M 0,0 H 6.325 C 6.17,0.503 5.907,0.94 5.536,1.312 4.884,1.964 4.098,2.291 3.179,2.291 2.261,2.291 1.475,1.964 0.822,1.312 0.435,0.918 0.161,0.481 0,0 m -0.125,-0.673 c -0.016,-0.116 -0.024,-0.24 -0.024,-0.373 0,-0.919 0.325,-1.702 0.975,-2.35 0.65,-0.647 1.435,-0.97 2.353,-0.97 0.919,0 1.705,0.326 2.357,0.979 0.111,0.111 0.217,0.227 0.317,0.349 L 6.558,-3.287 C 6.475,-3.426 6.3,-3.625 6.034,-3.885 5.249,-4.677 4.297,-5.072 3.179,-5.072 c -1.107,0 -2.054,0.394 -2.843,1.183 -0.788,0.788 -1.183,1.736 -1.183,2.843 0,1.117 0.395,2.069 1.183,2.856 0.789,0.785 1.736,1.178 2.843,1.178 1.118,0 2.07,-0.393 2.855,-1.178 0.693,-0.698 1.038,-1.525 1.038,-2.483 z" />
          </g>
          <g
             transform="translate(40.4443,148.0557)"
             id="g1868">
            <path
               inkscape:connector-curvature="0"
               id="path1870"
               style="fill:#23835d;fill-opacity:1;fill-rule:nonzero;stroke:none"
               d="m 0,0 v 1.303 c -0.121,0.647 -0.426,1.215 -0.912,1.702 -0.653,0.652 -1.44,0.979 -2.358,0.979 -0.918,0 -1.703,-0.327 -2.353,-0.979 -0.65,-0.653 -0.976,-1.44 -0.976,-2.358 0,-0.918 0.326,-1.702 0.976,-2.349 0.65,-0.648 1.435,-0.971 2.353,-0.971 0.918,0 1.705,0.326 2.358,0.98 C -0.426,-1.207 -0.121,-0.643 0,0 M 0.664,-3.171 H 0 v 1.469 C -0.127,-1.873 -0.266,-2.037 -0.414,-2.191 -1.2,-2.983 -2.152,-3.379 -3.27,-3.379 c -1.107,0 -2.054,0.395 -2.843,1.184 -0.788,0.788 -1.183,1.735 -1.183,2.842 0,1.118 0.395,2.07 1.183,2.856 0.789,0.785 1.736,1.179 2.843,1.179 1.118,0 2.07,-0.394 2.856,-1.179 C -0.266,3.348 -0.127,3.185 0,3.013 v 1.021 h 0.664 z" />
          </g>
          <g
             transform="translate(49.7578,148.0557)"
             id="g1872">
            <path
               inkscape:connector-curvature="0"
               id="path1874"
               style="fill:#23835d;fill-opacity:1;fill-rule:nonzero;stroke:none"
               d="m 0,0 v 1.303 c -0.121,0.647 -0.426,1.215 -0.912,1.702 -0.653,0.652 -1.44,0.979 -2.358,0.979 -0.918,0 -1.703,-0.327 -2.353,-0.979 -0.65,-0.653 -0.976,-1.44 -0.976,-2.358 0,-0.918 0.326,-1.702 0.976,-2.349 0.65,-0.648 1.435,-0.971 2.353,-0.971 0.918,0 1.705,0.326 2.358,0.98 C -0.426,-1.207 -0.121,-0.643 0,0 M 0.664,-3.171 H 0 v 1.469 C -0.127,-1.873 -0.266,-2.037 -0.414,-2.191 -1.2,-2.983 -2.152,-3.379 -3.27,-3.379 c -1.107,0 -2.054,0.395 -2.843,1.184 -0.788,0.788 -1.183,1.735 -1.183,2.842 0,1.118 0.395,2.07 1.183,2.856 0.789,0.785 1.736,1.179 2.843,1.179 1.118,0 2.07,-0.394 2.856,-1.179 C -0.266,3.348 -0.127,3.185 0,3.013 v 5.553 h 0.664 z" />
          </g>
          <g
             transform="translate(9.1289,149.3272)"
             id="g1876">
            <path
               inkscape:connector-curvature="0"
               id="path1878"
               style="fill:#231f20;fill-opacity:1;fill-rule:nonzero;stroke:none"
               d="m 0,0 c -0.559,0.305 -0.946,0.564 -1.162,0.78 -0.338,0.338 -0.506,0.744 -0.506,1.221 0,0.476 0.168,0.884 0.506,1.224 0.337,0.34 0.744,0.51 1.22,0.51 0.476,0 0.872,-0.157 1.187,-0.472 C 1.549,2.958 1.702,2.609 1.702,2.217 V 2.184 L 1.129,1.951 C 1.079,2.321 0.963,2.602 0.78,2.789 0.598,2.978 0.357,3.071 0.058,3.071 -0.235,3.071 -0.487,2.967 -0.697,2.756 -0.908,2.546 -1.013,2.294 -1.013,2.001 -1.013,1.707 -0.908,1.456 -0.697,1.245 -0.576,1.118 -0.318,0.93 0.075,0.681 0.7,0.344 1.146,0.042 1.411,-0.224 1.826,-0.645 2.034,-1.146 2.034,-1.727 2.034,-2.324 1.826,-2.832 1.411,-3.25 0.996,-3.667 0.493,-3.876 -0.1,-3.876 c -0.592,0 -1.095,0.209 -1.51,0.626 -0.415,0.418 -0.623,0.876 -0.623,1.374 l 0.656,0.166 c 0,-0.426 0.145,-0.784 0.435,-1.075 0.291,-0.29 0.639,-0.436 1.042,-0.436 0.404,0 0.753,0.146 1.046,0.436 0.294,0.291 0.44,0.643 0.44,1.058 0,0.405 -0.146,0.75 -0.44,1.039 C 0.792,-0.534 0.476,-0.304 0,0" />
          </g>
          <g
             transform="translate(13.2129,149.9668)"
             id="g1880">
            <path
               inkscape:connector-curvature="0"
               id="path1882"
               style="fill:#231f20;fill-opacity:1;fill-rule:nonzero;stroke:none"
               d="m 0,0 v -1.378 c 0.122,-0.631 0.423,-1.185 0.905,-1.66 0.653,-0.653 1.439,-0.98 2.357,-0.98 0.919,0 1.703,0.326 2.353,0.975 0.651,0.65 0.976,1.436 0.976,2.354 0,0.918 -0.325,1.705 -0.976,2.357 C 4.965,2.321 4.181,2.647 3.262,2.647 2.344,2.647 1.558,2.321 0.905,1.668 0.423,1.187 0.122,0.631 0,0 M -0.664,2.697 H 0 V 1.685 C 0.122,1.851 0.26,2.012 0.415,2.166 1.201,2.946 2.15,3.337 3.262,3.337 4.375,3.337 5.324,2.945 6.109,2.162 6.895,1.379 7.288,0.429 7.288,-0.689 7.288,-1.796 6.895,-2.744 6.109,-3.532 5.324,-4.321 4.375,-4.715 3.262,-4.715 2.15,-4.715 1.201,-4.319 0.415,-3.528 0.26,-3.373 0.122,-3.213 0,-3.047 v -4.208 h -0.664 z" />
          </g>
          <g
             transform="translate(24.3691,152.083)"
             id="g1884">
            <path
               inkscape:connector-curvature="0"
               id="path1886"
               style="fill:#231f20;fill-opacity:1;fill-rule:nonzero;stroke:none"
               d="M 0,0 C -0.47,-0.071 -0.933,-0.37 -1.386,-0.896 -1.84,-1.422 -2.067,-1.953 -2.067,-2.49 v -4.134 h -0.664 v 7.205 h 0.664 v -1.56 c 0.277,0.725 0.844,1.264 1.702,1.619 z" />
          </g>
          <g
             transform="translate(25.6475,150.3233)"
             id="g1888">
            <path
               inkscape:connector-curvature="0"
               id="path1890"
               style="fill:#231f20;fill-opacity:1;fill-rule:nonzero;stroke:none"
               d="M 0,0 H 6.325 C 6.17,0.504 5.907,0.941 5.536,1.312 4.884,1.965 4.098,2.291 3.179,2.291 2.261,2.291 1.475,1.965 0.822,1.312 0.435,0.919 0.161,0.481 0,0 m -0.125,-0.672 c -0.016,-0.116 -0.024,-0.241 -0.024,-0.374 0,-0.918 0.325,-1.701 0.975,-2.349 0.65,-0.647 1.435,-0.971 2.353,-0.971 0.919,0 1.705,0.327 2.357,0.979 0.111,0.112 0.217,0.228 0.317,0.349 L 6.558,-3.287 C 6.475,-3.425 6.3,-3.624 6.034,-3.885 5.249,-4.676 4.297,-5.071 3.179,-5.071 c -1.107,0 -2.054,0.393 -2.843,1.182 -0.788,0.788 -1.183,1.737 -1.183,2.843 0,1.118 0.395,2.07 1.183,2.856 0.789,0.786 1.736,1.178 2.843,1.178 1.118,0 2.07,-0.392 2.855,-1.178 0.693,-0.698 1.038,-1.525 1.038,-2.482 z" />
          </g>
          <g
             transform="translate(40.9287,148.6299)"
             id="g1892">
            <path
               inkscape:connector-curvature="0"
               id="path1894"
               style="fill:#231f20;fill-opacity:1;fill-rule:nonzero;stroke:none"
               d="m 0,0 v 1.304 c -0.121,0.647 -0.426,1.215 -0.912,1.701 -0.653,0.653 -1.44,0.979 -2.358,0.979 -0.918,0 -1.703,-0.326 -2.353,-0.979 -0.65,-0.652 -0.976,-1.439 -0.976,-2.358 0,-0.918 0.326,-1.701 0.976,-2.348 0.65,-0.648 1.435,-0.972 2.353,-0.972 0.918,0 1.705,0.327 2.358,0.98 C -0.426,-1.206 -0.121,-0.642 0,0 M 0.664,-3.171 H 0 v 1.47 c -0.127,-0.172 -0.266,-0.335 -0.414,-0.49 -0.786,-0.791 -1.738,-1.187 -2.856,-1.187 -1.107,0 -2.054,0.394 -2.843,1.183 -0.788,0.788 -1.183,1.736 -1.183,2.842 0,1.119 0.395,2.071 1.183,2.856 0.789,0.786 1.736,1.179 2.843,1.179 1.118,0 2.07,-0.393 2.856,-1.179 C -0.266,3.349 -0.127,3.185 0,3.014 v 1.02 h 0.664 z" />
          </g>
          <g
             transform="translate(50.2422,148.6299)"
             id="g1896">
            <path
               inkscape:connector-curvature="0"
               id="path1898"
               style="fill:#231f20;fill-opacity:1;fill-rule:nonzero;stroke:none"
               d="m 0,0 v 1.304 c -0.121,0.647 -0.426,1.215 -0.912,1.701 -0.653,0.653 -1.44,0.979 -2.358,0.979 -0.918,0 -1.703,-0.326 -2.353,-0.979 -0.65,-0.652 -0.976,-1.439 -0.976,-2.358 0,-0.918 0.326,-1.701 0.976,-2.348 0.65,-0.648 1.435,-0.972 2.353,-0.972 0.918,0 1.705,0.327 2.358,0.98 C -0.426,-1.206 -0.121,-0.642 0,0 M 0.664,-3.171 H 0 v 1.47 c -0.127,-0.172 -0.266,-0.335 -0.414,-0.49 -0.786,-0.791 -1.738,-1.187 -2.856,-1.187 -1.107,0 -2.054,0.394 -2.843,1.183 -0.788,0.788 -1.183,1.736 -1.183,2.842 0,1.119 0.395,2.071 1.183,2.856 0.789,0.786 1.736,1.179 2.843,1.179 1.118,0 2.07,-0.393 2.856,-1.179 C -0.266,3.349 -0.127,3.185 0,3.014 v 5.552 h 0.664 z" />
          </g>
          <g
             transform="translate(17.8247,266.1431)"
             id="g1900">
            <path
               inkscape:connector-curvature="0"
               id="path1902-4"
               style="fill:#23835d;fill-opacity:1;fill-rule:nonzero;stroke:none"
               d="M 0,0 V 3.063 H 0.656 V 0 H 2.125 V -0.664 H 0.656 V -7.205 H 0 v 6.541 H -1.469 V 0 Z" />
          </g>
          <path
             inkscape:connector-curvature="0"
             id="path1904"
             style="fill:#23835d;fill-opacity:1;fill-rule:nonzero;stroke:none"
             d="m 21.859,258.938 h -0.656 v 7.205 h 0.656 z m 0.137,9.563 c 0.13,-0.128 0.195,-0.28 0.195,-0.457 0,-0.188 -0.065,-0.346 -0.195,-0.473 -0.13,-0.128 -0.284,-0.191 -0.461,-0.191 -0.182,0 -0.339,0.063 -0.469,0.191 -0.13,0.127 -0.195,0.285 -0.195,0.473 0,0.177 0.065,0.329 0.195,0.457 0.13,0.127 0.287,0.19 0.469,0.19 0.177,0 0.331,-0.063 0.461,-0.19" />
          <g
             transform="translate(23.6685,266.1431)"
             id="g1906">
            <path
               inkscape:connector-curvature="0"
               id="path1908"
               style="fill:#23835d;fill-opacity:1;fill-rule:nonzero;stroke:none"
               d="m 0,0 h 0.664 v -0.174 c 0.41,0.398 0.899,0.597 1.469,0.597 0.593,0 1.096,-0.207 1.511,-0.622 0.111,-0.111 0.208,-0.233 0.291,-0.365 0.088,0.127 0.19,0.249 0.307,0.365 0.415,0.415 0.918,0.622 1.51,0.622 0.593,0 1.096,-0.207 1.511,-0.622 0.394,-0.404 0.601,-0.885 0.623,-1.445 V -7.205 H 7.222 v 5.561 H 7.23 C 7.213,-1.262 7.07,-0.938 6.798,-0.672 6.505,-0.385 6.156,-0.241 5.752,-0.241 5.343,-0.241 4.993,-0.385 4.703,-0.672 4.412,-0.96 4.267,-1.32 4.267,-1.751 V -7.205 H 3.611 v 5.561 h 0.008 c -0.022,0.382 -0.169,0.706 -0.44,0.972 -0.293,0.287 -0.642,0.431 -1.046,0.431 -0.404,0 -0.75,-0.144 -1.037,-0.431 C 0.841,-0.921 0.697,-1.226 0.664,-1.585 v -5.62 H 0 Z" />
          </g>
          <g
             transform="translate(33.6543,263.8023)"
             id="g1910">
            <path
               inkscape:connector-curvature="0"
               id="path1912-6"
               style="fill:#23835d;fill-opacity:1;fill-rule:nonzero;stroke:none"
               d="M 0,0 H 6.325 C 6.17,0.503 5.907,0.941 5.536,1.312 4.884,1.964 4.098,2.291 3.18,2.291 2.261,2.291 1.475,1.964 0.822,1.312 0.435,0.918 0.161,0.481 0,0 m -0.124,-0.672 c -0.017,-0.117 -0.025,-0.241 -0.025,-0.374 0,-0.918 0.325,-1.702 0.975,-2.349 0.651,-0.647 1.435,-0.971 2.354,-0.971 0.918,0 1.704,0.326 2.356,0.979 0.111,0.111 0.217,0.227 0.317,0.349 L 6.558,-3.287 C 6.475,-3.425 6.3,-3.625 6.034,-3.885 5.249,-4.676 4.297,-5.072 3.18,-5.072 c -1.108,0 -2.055,0.394 -2.844,1.183 -0.788,0.788 -1.183,1.736 -1.183,2.843 0,1.118 0.395,2.07 1.183,2.856 0.789,0.785 1.736,1.178 2.844,1.178 1.117,0 2.069,-0.393 2.854,-1.178 0.693,-0.698 1.038,-1.525 1.038,-2.482 z" />
          </g>
          <g
             transform="translate(18.3091,266.7178)"
             id="g1914">
            <path
               inkscape:connector-curvature="0"
               id="path1916"
               style="fill:#231f20;fill-opacity:1;fill-rule:nonzero;stroke:none"
               d="M 0,0 V 3.063 H 0.656 V 0 H 2.125 V -0.664 H 0.656 V -7.205 H 0 v 6.541 H -1.469 V 0 Z" />
          </g>
          <path
             inkscape:connector-curvature="0"
             id="path1918"
             style="fill:#231f20;fill-opacity:1;fill-rule:nonzero;stroke:none"
             d="m 22.343,259.513 h -0.656 v 7.205 h 0.656 z m 0.137,9.562 c 0.13,-0.127 0.195,-0.279 0.195,-0.456 0,-0.188 -0.065,-0.346 -0.195,-0.473 -0.13,-0.128 -0.283,-0.191 -0.46,-0.191 -0.183,0 -0.339,0.063 -0.47,0.191 -0.13,0.127 -0.195,0.285 -0.195,0.473 0,0.177 0.065,0.329 0.195,0.456 0.131,0.128 0.287,0.191 0.47,0.191 0.177,0 0.33,-0.063 0.46,-0.191" />
          <g
             transform="translate(24.1528,266.7178)"
             id="g1920">
            <path
               inkscape:connector-curvature="0"
               id="path1922"
               style="fill:#231f20;fill-opacity:1;fill-rule:nonzero;stroke:none"
               d="m 0,0 h 0.664 v -0.174 c 0.41,0.398 0.899,0.597 1.469,0.597 0.593,0 1.096,-0.207 1.511,-0.622 0.111,-0.111 0.208,-0.233 0.291,-0.365 0.088,0.127 0.19,0.249 0.307,0.365 0.415,0.415 0.918,0.622 1.51,0.622 0.592,0 1.096,-0.207 1.511,-0.622 0.393,-0.404 0.601,-0.885 0.622,-1.445 V -7.205 H 7.221 v 5.561 H 7.23 C 7.213,-1.262 7.069,-0.938 6.798,-0.672 6.504,-0.385 6.156,-0.241 5.752,-0.241 5.343,-0.241 4.993,-0.385 4.703,-0.672 4.412,-0.96 4.267,-1.32 4.267,-1.751 V -7.205 H 3.611 v 5.561 h 0.008 c -0.022,0.382 -0.169,0.706 -0.44,0.972 -0.293,0.287 -0.642,0.431 -1.046,0.431 -0.404,0 -0.75,-0.144 -1.037,-0.431 C 0.841,-0.921 0.697,-1.226 0.664,-1.585 v -5.62 H 0 Z" />
          </g>
          <g
             transform="translate(34.1387,264.377)"
             id="g1924">
            <path
               inkscape:connector-curvature="0"
               id="path1926"
               style="fill:#231f20;fill-opacity:1;fill-rule:nonzero;stroke:none"
               d="M 0,0 H 6.325 C 6.17,0.503 5.907,0.941 5.536,1.312 4.884,1.964 4.098,2.291 3.179,2.291 2.261,2.291 1.475,1.964 0.821,1.312 0.435,0.918 0.16,0.481 0,0 m -0.125,-0.672 c -0.017,-0.117 -0.024,-0.241 -0.024,-0.374 0,-0.918 0.325,-1.702 0.975,-2.349 0.65,-0.647 1.435,-0.971 2.353,-0.971 0.919,0 1.705,0.326 2.357,0.979 0.111,0.111 0.217,0.227 0.317,0.349 L 6.558,-3.287 C 6.475,-3.425 6.3,-3.625 6.034,-3.885 5.249,-4.676 4.297,-5.072 3.179,-5.072 c -1.107,0 -2.054,0.394 -2.843,1.183 -0.788,0.788 -1.183,1.736 -1.183,2.843 0,1.118 0.395,2.07 1.183,2.856 0.789,0.785 1.736,1.178 2.843,1.178 1.118,0 2.07,-0.393 2.855,-1.178 0.693,-0.698 1.038,-1.525 1.038,-2.482 z" />
          </g>
        </g>
      </g>
    </g>
  </g>
  <g
     inkscape:groupmode="layer"
     id="layer4"
     inkscape:label="components"
     sodipodi:insensitive="true"
     style="display:none">
    <rect
       id="CLOCK"
       width="8.3549995"
       height="8.3549995"
       x="5.9825001"
       y="17.117393"
       style="display:inline;fill:#00ff00;fill-opacity:1;stroke-width:0.19862947"
       inkscape:label="CLOCK">
      <desc
         id="desc37314">CLOCK</desc>
      <title
         id="title37278">CLOCK</title>
    </rect>
    <rect
       id="DIV_CV"
       width="8.3549995"
       height="8.3549995"
       x="6.0694599"
       y="58.613056"
       style="display:inline;fill:#00ff00;fill-opacity:1;stroke-width:0.19862947"
       inkscape:label="DIV_CV">
      <desc
         id="desc37314-4">DIV_CV</desc>
      <title
         id="title37278-6">DIV_CV</title>
    </rect>
    <rect
       id="SWING_CV"
       width="8.3549995"
       height="8.3549995"
       x="6.0694599"
       y="98.810669"
       style="display:inline;fill:#00ff00;fill-opacity:1;stroke-width:0.19862947"
       inkscape:label="SWING_CV">
      <desc
         id="desc37314-4-4">SWING_CV</desc>
      <title
         id="title37278-6-4">SWING_CV</title>
    </rect>
    <rect
       id="DIV"
       width="10"
       height="10"
       x="5.1601052"
       y="39.546089"
       style="display:inline;fill:#ff0000;fill-opacity:1;stroke-width:0.23773728"
       inkscape:label="STEREO">
      <desc
         id="desc37324">STEREO</desc>
      <title
         id="title37292">STEREO</title>
    </rect>
    <rect
       id="SWING"
       width="10"
       height="10"
       x="5.1601052"
       y="79.743774"
       style="display:inline;fill:#ff0000;fill-opacity:1;stroke-width:0.23773728"
       inkscape:label="SWING">
      <desc
         id="desc37324-1">SWING</desc>
      <title
         id="title37292-9">SWING</title>
    </rect>
    <rect
       id="SWING_CV_"
       width="4.598"
       height="4.598"
       x="7.860929"
       y="92.441963"
       style="display:inline;fill:#ff0000;fill-opacity:1;stroke-width:0.1093116"
       inkscape:label="SWING_CV_">
      <desc
         id="desc37320">SWING_CV_</desc>
      <title
         id="title37304">SWING_CV_</title>
    </rect>
    <rect
       id="DIV_CV_"
       width="4.598"
       height="4.598"
       x="7.860929"
       y="52.244457"
       style="display:inline;fill:#ff0000;fill-opacity:1;stroke-width:0.1093116"
       inkscape:label="DIV_CV_">
      <desc
         id="desc37320-0">DIV_CV_</desc>
      <title
         id="title37304-9">DIV_CV_</title>
    </rect>
    <rect
       id="OUT"
       width="8.3549995"
       height="8.3549995"
       x="5.9847403"
       y="115.46273"
       style="display:inline;fill:#0000ff;fill-opacity:1;stroke-width:0.19862947"
       inkscape:label="OUT">
      <desc
         id="desc37348-5">OUT</desc>
      <title
         id="title37312-9">OUT</title>
    </rect>
  </g>
</svg>
